<svg version="1.1" viewBox="0.0 0.0 946.514435695538 924.4671916010499" fill="none" stroke="none" stroke-linecap="square" stroke-miterlimit="10" xmlns:xlink="http://www.w3.org/1999/xlink" xmlns="http://www.w3.org/2000/svg"><clipPath id="p.0"><path d="m0 0l946.51447 0l0 924.46716l-946.51447 0l0 -924.46716z" clip-rule="nonzero"/></clipPath><g clip-path="url(#p.0)"><path fill="#000000" fill-opacity="0.0" d="m0 0l946.51447 0l0 924.46716l-946.51447 0z" fill-rule="evenodd"/><path fill="#000000" fill-opacity="0.0" d="m287.47507 650.42255l58.897644 53.1969" fill-rule="evenodd"/><path stroke="#0000ff" stroke-width="16.0" stroke-linejoin="round" stroke-linecap="butt" d="m287.47507 650.42255l58.897644 53.1969" fill-rule="evenodd"/><path fill="#d9d9d9" d="m507.5853 183.38321l80.346466 14.314957l0 28.629913l-80.346466 14.314972z" fill-rule="evenodd"/><path stroke="#666666" stroke-width="4.0" stroke-linejoin="round" stroke-linecap="butt" d="m507.5853 183.38321l80.346466 14.314957l0 28.629913l-80.346466 14.314972z" fill-rule="evenodd"/><path fill="#d9d9d9" d="m367.82416 183.38321l-80.346466 14.314957l0 28.629913l80.346466 14.314972z" fill-rule="evenodd"/><path stroke="#666666" stroke-width="4.0" stroke-linejoin="round" stroke-linecap="butt" d="m367.82416 183.38321l-80.346466 14.314957l0 28.629913l80.346466 14.314972z" fill-rule="evenodd"/><path fill="#000000" fill-opacity="0.0" d="m369.59314 17.85876l0 0c8.5877075 0 16.721863 1.4376507 22.159515 3.9165192c5.437622 2.4788685 7.60437 5.7371216 5.9027405 8.876297l-28.062256 -2.1156502z" fill-rule="evenodd"/><path fill="#000000" fill-opacity="0.0" d="m369.59314 17.85876l0 0c8.5877075 0 16.721863 1.4376507 22.159515 3.9165192c5.437622 2.4788685 7.60437 5.7371216 5.9027405 8.876297" fill-rule="evenodd"/><path stroke="#666666" stroke-width="8.0" stroke-linejoin="round" stroke-linecap="butt" d="m369.59314 17.85876l0 0c8.5877075 0 16.721863 1.4376507 22.159515 3.9165192c5.437622 2.4788685 7.60437 5.7371216 5.9027405 8.876297" fill-rule="evenodd"/><path fill="#000000" fill-opacity="0.0" d="m474.65927 25.053701l0 0c-0.18624878 -3.086773 3.2196045 -6.0524826 9.338959 -8.132107c6.1193542 -2.0796242 14.353027 -3.0695276 22.577087 -2.7143583l-3.293396 10.606288z" fill-rule="evenodd"/><path fill="#000000" fill-opacity="0.0" d="m474.65927 25.053701l0 0c-0.18624878 -3.086773 3.2196045 -6.0524826 9.338959 -8.132107c6.1193542 -2.0796242 14.353027 -3.0695276 22.577087 -2.7143583" fill-rule="evenodd"/><path stroke="#666666" stroke-width="8.0" stroke-linejoin="round" stroke-linecap="butt" d="m474.65927 25.053701l0 0c-0.18624878 -3.086773 3.2196045 -6.0524826 9.338959 -8.132107c6.1193542 -2.0796242 14.353027 -3.0695276 22.577087 -2.7143583" fill-rule="evenodd"/><path fill="#d9d9d9" d="m376.63263 342.94226l0 0c0 -49.749115 27.835907 -90.07875 62.173218 -90.07875l0 0c16.48938 0 32.303375 9.490433 43.963135 26.383469c11.659729 16.893036 18.210114 39.8049 18.210114 63.695282l0 0c0 49.749115 -27.835907 90.078735 -62.17325 90.078735l0 0c-34.33731 0 -62.173218 -40.32962 -62.173218 -90.078735z" fill-rule="evenodd"/><path stroke="#666666" stroke-width="4.0" stroke-linejoin="round" stroke-linecap="butt" d="m376.63263 342.94226l0 0c0 -49.749115 27.835907 -90.07875 62.173218 -90.07875l0 0c16.48938 0 32.303375 9.490433 43.963135 26.383469c11.659729 16.893036 18.210114 39.8049 18.210114 63.695282l0 0c0 49.749115 -27.835907 90.078735 -62.17325 90.078735l0 0c-34.33731 0 -62.173218 -40.32962 -62.173218 -90.078735z" fill-rule="evenodd"/><path fill="#d9d9d9" d="m363.0105 213.4147l0 0c0 -49.749115 33.934692 -90.07874 75.79529 -90.07874l0 0c20.102142 0 39.38098 9.49041 53.595337 26.383446c14.214386 16.893051 22.199951 39.80493 22.199951 63.695297l0 0c0 49.749115 -33.934723 90.078735 -75.79529 90.078735l0 0c-41.860596 0 -75.79529 -40.32962 -75.79529 -90.078735z" fill-rule="evenodd"/><path stroke="#666666" stroke-width="4.0" stroke-linejoin="round" stroke-linecap="butt" d="m363.0105 213.4147l0 0c0 -49.749115 33.934692 -90.07874 75.79529 -90.07874l0 0c20.102142 0 39.38098 9.49041 53.595337 26.383446c14.214386 16.893051 22.199951 39.80493 22.199951 63.695297l0 0c0 49.749115 -33.934723 90.078735 -75.79529 90.078735l0 0c-41.860596 0 -75.79529 -40.32962 -75.79529 -90.078735z" fill-rule="evenodd"/><path fill="#000000" d="m414.96204 160.16719l0 -8.125l8.78125 0l0 8.125l-8.78125 0zm0 37.6875l0 -33.1875l8.78125 0l0 33.1875l-8.78125 0zm48.21875 0l-8.15625 0l0 -4.875q-2.03125 2.84375 -4.796875 4.234375q-2.765625 1.390625 -5.578125 1.390625q-5.71875 0 -9.796875 -4.609375q-4.078125 -4.609375 -4.078125 -12.859375q0 -8.4375 3.96875 -12.828125q3.96875 -4.390625 10.03125 -4.390625q5.5625 0 9.625 4.625l0 -16.5l8.78125 0l0 45.8125zm-23.4375 -17.3125q0 5.3125 1.46875 7.6875q2.125 3.4375 5.9375 3.4375q3.03125 0 5.15625 -2.578125q2.125 -2.578125 2.125 -7.703125q0 -5.71875 -2.0625 -8.234375q-2.0625 -2.515625 -5.28125 -2.515625q-3.125 0 -5.234375 2.484375q-2.109375 2.484375 -2.109375 7.421875z" fill-rule="nonzero"/><path fill="#000000" d="m444.85266 274.8547l-5.625 0l0 -35.843765q-2.03125 1.9375 -5.328125 3.875q-3.296875 1.9375 -5.921875 2.90625l0 -5.4375q4.71875 -2.21875 8.25 -5.375q3.53125 -3.15625 5.0 -6.125l3.625 0l0 46.000015z" fill-rule="nonzero"/><path fill="#d9d9d9" d="m376.6332 79.55368l0 0c0 -36.12899 27.835876 -65.41732 62.173218 -65.41732c34.33731 0 62.173218 29.288332 62.173218 65.41732c0 36.12899 -27.835907 65.41733 -62.173218 65.41733c-34.33734 0 -62.173218 -29.288338 -62.173218 -65.41733z" fill-rule="evenodd"/><path fill="#adadad" d="m412.4116 59.989056c0 -3.7634354 2.8995667 -6.8143044 6.4763794 -6.8143044c3.5768127 0 6.4763794 3.050869 6.4763794 6.8143044c0 3.7634354 -2.8995667 6.8143044 -6.4763794 6.8143044c-3.5768127 0 -6.4763794 -3.050869 -6.4763794 -6.8143044m39.836914 0c0 -3.7634354 2.8995667 -6.8143044 6.4763794 -6.8143044c3.5768127 0 6.4763794 3.050869 6.4763794 6.8143044c0 3.7634354 -2.8995667 6.8143044 -6.4763794 6.8143044c-3.5768127 0 -6.4763794 -3.050869 -6.4763794 -6.8143044" fill-rule="evenodd"/><path fill="#000000" fill-opacity="0.0" d="m405.10812 108.08261q33.698303 24.350952 67.3179 0" fill-rule="evenodd"/><path fill="#000000" fill-opacity="0.0" d="m376.6332 79.55368l0 0c0 -36.12899 27.835876 -65.41732 62.173218 -65.41732c34.33731 0 62.173218 29.288332 62.173218 65.41732c0 36.12899 -27.835907 65.41733 -62.173218 65.41733c-34.33734 0 -62.173218 -29.288338 -62.173218 -65.41733z" fill-rule="evenodd"/><path stroke="#666666" stroke-width="4.0" stroke-linejoin="round" stroke-linecap="butt" d="m412.4116 59.989056c0 -3.7634354 2.8995667 -6.8143044 6.4763794 -6.8143044c3.5768127 0 6.4763794 3.050869 6.4763794 6.8143044c0 3.7634354 -2.8995667 6.8143044 -6.4763794 6.8143044c-3.5768127 0 -6.4763794 -3.050869 -6.4763794 -6.8143044m39.836914 0c0 -3.7634354 2.8995667 -6.8143044 6.4763794 -6.8143044c3.5768127 0 6.4763794 3.050869 6.4763794 6.8143044c0 3.7634354 -2.8995667 6.8143044 -6.4763794 6.8143044c-3.5768127 0 -6.4763794 -3.050869 -6.4763794 -6.8143044" fill-rule="evenodd"/><path stroke="#666666" stroke-width="4.0" stroke-linejoin="round" stroke-linecap="butt" d="m405.10812 108.08261q33.698303 24.350952 67.3179 0" fill-rule="evenodd"/><path stroke="#666666" stroke-width="4.0" stroke-linejoin="round" stroke-linecap="butt" d="m376.6332 79.55368l0 0c0 -36.12899 27.835876 -65.41732 62.173218 -65.41732c34.33731 0 62.173218 29.288332 62.173218 65.41732c0 36.12899 -27.835907 65.41733 -62.173218 65.41733c-34.33734 0 -62.173218 -29.288338 -62.173218 -65.41733z" fill-rule="evenodd"/><path fill="#ffffff" d="m21.774282 131.8084l265.70078 0l0 133.674l-26.735443 26.735443l-238.96535 0z" fill-rule="evenodd"/><path fill="#cbcbcb" d="m260.73962 292.21783l5.3470764 -21.388336l21.388367 -5.347107z" fill-rule="evenodd"/><path fill="#000000" fill-opacity="0.0" d="m260.73962 292.21783l5.3470764 -21.388336l21.388367 -5.347107l-26.735443 26.735443l-238.96535 0l0 -160.40944l265.70078 0l0 133.674" fill-rule="evenodd"/><path stroke="#999999" stroke-width="4.0" stroke-linejoin="round" stroke-linecap="butt" d="m260.73962 292.21783l5.3470764 -21.388336l21.388367 -5.347107l-26.735443 26.735443l-238.96535 0l0 -160.40944l265.70078 0l0 133.674" fill-rule="evenodd"/><path fill="#000000" d="m72.24187 161.99777l6.078125 0l0 3.390625q3.25 -3.953125 7.75 -3.953125q2.390625 0 4.140625 0.984375q1.765625 0.984375 2.890625 2.96875q1.640625 -1.984375 3.53125 -2.96875q1.90625 -0.984375 4.0625 -0.984375q2.75 0 4.640625 1.109375q1.90625 1.109375 2.84375 3.265625q0.671875 1.59375 0.671875 5.15625l0 15.921875l-6.578125 0l0 -14.234375q0 -3.703125 -0.6875 -4.78125q-0.90625 -1.40625 -2.8125 -1.40625q-1.375 0 -2.59375 0.84375q-1.21875 0.84375 -1.765625 2.484375q-0.53125 1.625 -0.53125 5.140625l0 11.953125l-6.59375 0l0 -13.640625q0 -3.640625 -0.359375 -4.6875q-0.34375 -1.0625 -1.078125 -1.578125q-0.734375 -0.515625 -2.0 -0.515625q-1.53125 0 -2.75 0.828125q-1.21875 0.8125 -1.75 2.359375q-0.515625 1.546875 -0.515625 5.140625l0 12.09375l-6.59375 0l0 -24.890625zm41.648438 12.09375q0 -3.28125 1.609375 -6.34375q1.625 -3.078125 4.59375 -4.6875q2.96875 -1.625 6.625 -1.625q5.640625 0 9.25 3.671875q3.609375 3.65625 3.609375 9.265625q0 5.640625 -3.640625 9.359375q-3.640625 3.71875 -9.171875 3.71875q-3.421875 0 -6.53125 -1.546875q-3.109375 -1.546875 -4.734375 -4.53125q-1.609375 -3.0 -1.609375 -7.28125zm6.75 0.34375q0 3.703125 1.75 5.671875q1.765625 1.96875 4.34375 1.96875q2.578125 0 4.328125 -1.96875q1.75 -1.96875 1.75 -5.71875q0 -3.65625 -1.75 -5.625q-1.75 -1.96875 -4.328125 -1.96875q-2.578125 0 -4.34375 1.96875q-1.75 1.96875 -1.75 5.671875zm46.929688 12.453125l-6.125 0l0 -3.65625q-1.515625 2.125 -3.59375 3.171875q-2.078125 1.046875 -4.1875 1.046875q-4.28125 0 -7.34375 -3.453125q-3.0625 -3.46875 -3.0625 -9.65625q0 -6.328125 2.96875 -9.609375q2.984375 -3.296875 7.53125 -3.296875q4.171875 0 7.21875 3.46875l0 -12.375l6.59375 0l0 34.359375zm-17.578125 -12.984375q0 3.984375 1.09375 5.765625q1.59375 2.578125 4.453125 2.578125q2.28125 0 3.875 -1.9375q1.59375 -1.9375 1.59375 -5.78125q0 -4.28125 -1.546875 -6.171875q-1.546875 -1.890625 -3.96875 -1.890625q-2.34375 0 -3.921875 1.875q-1.578125 1.859375 -1.578125 5.5625zm38.476562 5.0625l6.5625 1.09375q-1.265625 3.609375 -4.0 5.5q-2.71875 1.890625 -6.828125 1.890625q-6.484375 0 -9.609375 -4.25q-2.453125 -3.390625 -2.453125 -8.578125q0 -6.1875 3.234375 -9.6875q3.234375 -3.5 8.171875 -3.5q5.5625 0 8.765625 3.671875q3.21875 3.65625 3.078125 11.234375l-16.5 0q0.0625 2.921875 1.578125 4.5625q1.53125 1.625 3.8125 1.625q1.546875 0 2.59375 -0.84375q1.0625 -0.84375 1.59375 -2.71875zm0.375 -6.65625q-0.0625 -2.859375 -1.46875 -4.34375q-1.40625 -1.5 -3.421875 -1.5q-2.15625 0 -3.5625 1.578125q-1.40625 1.5625 -1.390625 4.265625l9.84375 0zm11.9140625 14.578125l0 -34.359375l6.578125 0l0 34.359375l-6.578125 0zm11.8046875 -12.796875q0 -3.28125 1.609375 -6.34375q1.625 -3.078125 4.59375 -4.6875q2.96875 -1.625 6.625 -1.625q5.640625 0 9.25 3.671875q3.609375 3.65625 3.609375 9.265625q0 5.640625 -3.640625 9.359375q-3.640625 3.71875 -9.171875 3.71875q-3.421875 0 -6.53125 -1.546875q-3.109375 -1.546875 -4.734375 -4.53125q-1.609375 -3.0 -1.609375 -7.28125zm6.75 0.34375q0 3.703125 1.75 5.671875q1.765625 1.96875 4.34375 1.96875q2.578125 0 4.328125 -1.96875q1.75 -1.96875 1.75 -5.71875q0 -3.65625 -1.75 -5.625q-1.75 -1.96875 -4.328125 -1.96875q-2.578125 0 -4.34375 1.96875q-1.75 1.96875 -1.75 5.671875z" fill-rule="nonzero"/><path fill="#000000" d="m66.37077 216.29465l0 4.890625l-4.515629 0l0 -3.859375q0 -3.140625 0.75 -4.546875q0.984375 -1.875 3.1093788 -2.84375l1.03125 1.640625q-1.28125 0.546875 -1.890625 1.609375q-0.609375 1.0625 -0.6875 3.109375l2.203125 0zm7.265625 0l0 4.890625l-4.515625 0l0 -3.859375q0 -3.140625 0.75 -4.546875q0.984375 -1.875 3.109375 -2.84375l1.03125 1.640625q-1.28125 0.546875 -1.890625 1.609375q-0.609375 1.0625 -0.6875 3.109375l2.203125 0zm14.625 24.8125l0.609375 3.734375q-1.78125 0.375 -3.1875 0.375q-2.296875 0 -3.5625 -0.71875q-1.265625 -0.734375 -1.78125 -1.921875q-0.515625 -1.1875 -0.515625 -4.984375l0 -14.3125l-3.09375 0l0 -3.28125l3.09375 0l0 -6.171875l4.203125 -2.53125l0 8.703125l4.234375 0l0 3.28125l-4.234375 0l0 14.546875q0 1.8125 0.21875 2.328125q0.21875 0.515625 0.71875 0.828125q0.515625 0.296875 1.453125 0.296875q0.703125 0 1.84375 -0.171875zm2.5546875 -8.671875q0 -6.90625 3.84375 -10.234375q3.21875 -2.765625 7.828125 -2.765625q5.140625 0 8.390625 3.359375q3.265625 3.359375 3.265625 9.296875q0 4.796875 -1.453125 7.5625q-1.4375 2.75 -4.1875 4.28125q-2.75 1.515625 -6.015625 1.515625q-5.21875 0 -8.453125 -3.34375q-3.21875 -3.359375 -3.21875 -9.671875zm4.34375 0q0 4.78125 2.078125 7.171875q2.09375 2.375 5.25 2.375q3.140625 0 5.21875 -2.390625q2.09375 -2.390625 2.09375 -7.296875q0 -4.609375 -2.09375 -6.984375q-2.09375 -2.390625 -5.21875 -2.390625q-3.15625 0 -5.25 2.375q-2.078125 2.359375 -2.078125 7.140625zm23.945312 -17.0625l0 -4.84375l4.21875 0l0 4.84375l-4.21875 0zm0 29.515625l0 -24.890625l4.21875 0l0 24.890625l-4.21875 0zm10.6484375 0l0 -24.890625l3.796875 0l0 3.53125q2.734375 -4.09375 7.921875 -4.09375q2.25 0 4.125 0.8125q1.890625 0.796875 2.828125 2.109375q0.9375 1.3125 1.3125 3.125q0.234375 1.171875 0.234375 4.09375l0 15.3125l-4.21875 0l0 -15.140625q0 -2.578125 -0.5 -3.859375q-0.484375 -1.28125 -1.734375 -2.03125q-1.25 -0.765625 -2.9375 -0.765625q-2.703125 0 -4.65625 1.71875q-1.953125 1.703125 -1.953125 6.484375l0 13.59375l-4.21875 0zm41.414062 0l-4.21875 0l0 -26.890625q-1.53125 1.453125 -4.0 2.90625q-2.46875 1.453125 -4.4375 2.1875l0 -4.078125q3.53125 -1.671875 6.171875 -4.03125q2.65625 -2.375 3.765625 -4.59375l2.71875 0l0 34.5zm32.976562 -4.0625l0 4.0625l-22.71875 0q-0.046875 -1.53125 0.5 -2.9375q0.859375 -2.3125 2.765625 -4.5625q1.921875 -2.25 5.53125 -5.203125q5.59375 -4.59375 7.5625 -7.28125q1.96875 -2.6875 1.96875 -5.078125q0 -2.5 -1.796875 -4.21875q-1.78125 -1.734375 -4.671875 -1.734375q-3.046875 0 -4.875 1.828125q-1.828125 1.828125 -1.84375 5.0625l-4.34375 -0.4375q0.453125 -4.859375 3.359375 -7.390625q2.90625 -2.546875 7.796875 -2.546875q4.953125 0 7.828125 2.75q2.890625 2.734375 2.890625 6.78125q0 2.0625 -0.84375 4.0625q-0.84375 1.984375 -2.8125 4.1875q-1.953125 2.203125 -6.5 6.046875q-3.796875 3.1875 -4.875 4.328125q-1.078125 1.140625 -1.78125 2.28125l16.859375 0zm20.414062 4.0625l-4.21875 0l0 -26.890625q-1.53125 1.453125 -4.0 2.90625q-2.46875 1.453125 -4.4375 2.1875l0 -4.078125q3.53125 -1.671875 6.171875 -4.03125q2.65625 -2.375 3.765625 -4.59375l2.71875 0l0 34.5zm10.8515625 -29.8125l0 -4.90625l4.515625 0l0 3.875q0 3.140625 -0.71875 4.515625q-1.015625 1.90625 -3.140625 2.859375l-1.03125 -1.65625q1.265625 -0.515625 1.875 -1.625q0.625 -1.125 0.703125 -3.0625l-2.203125 0zm7.265625 0l0 -4.90625l4.515625 0l0 3.875q0 3.140625 -0.71875 4.515625q-1.015625 1.90625 -3.140625 2.859375l-1.03125 -1.65625q1.265625 -0.515625 1.875 -1.625q0.625 -1.125 0.703125 -3.0625l-2.203125 0z" fill-rule="nonzero"/><path fill="#000000" fill-opacity="0.0" d="m480.54044 703.60767l124.06302 -7.086609" fill-rule="evenodd"/><path stroke="#0000ff" stroke-width="16.0" stroke-linejoin="round" stroke-linecap="butt" d="m480.54044 703.60767l124.06302 -7.086609" fill-rule="evenodd"/><path fill="#000000" fill-opacity="0.0" d="m343.83197 571.15533l0 0c8.5877075 0 16.721893 1.4376831 22.159515 3.916504c5.437622 2.4788818 7.60437 5.7371216 5.9027405 8.876343l-28.062256 -2.1156616z" fill-rule="evenodd"/><path fill="#000000" fill-opacity="0.0" d="m343.83197 571.15533l0 0c8.5877075 0 16.721893 1.4376831 22.159515 3.916504c5.437622 2.4788818 7.60437 5.7371216 5.9027405 8.876343" fill-rule="evenodd"/><path stroke="#980000" stroke-width="8.0" stroke-linejoin="round" stroke-linecap="butt" d="m343.83197 571.15533l0 0c8.5877075 0 16.721893 1.4376831 22.159515 3.916504c5.437622 2.4788818 7.60437 5.7371216 5.9027405 8.876343" fill-rule="evenodd"/><path fill="#000000" fill-opacity="0.0" d="m448.8981 578.3503l0 0c-0.18621826 -3.086792 3.2196045 -6.05249 9.338959 -8.13208c6.1193542 -2.0796509 14.353027 -3.069519 22.577087 -2.7143555l-3.2933655 10.606262z" fill-rule="evenodd"/><path fill="#000000" fill-opacity="0.0" d="m448.8981 578.3503l0 0c-0.18621826 -3.086792 3.2196045 -6.05249 9.338959 -8.13208c6.1193542 -2.0796509 14.353027 -3.069519 22.577087 -2.7143555" fill-rule="evenodd"/><path stroke="#980000" stroke-width="8.0" stroke-linejoin="round" stroke-linecap="butt" d="m448.8981 578.3503l0 0c-0.18621826 -3.086792 3.2196045 -6.05249 9.338959 -8.13208c6.1193542 -2.0796509 14.353027 -3.069519 22.577087 -2.7143555" fill-rule="evenodd"/><path fill="#073763" d="m299.65485 817.2937l0 0c0 -49.749146 50.947876 -90.078735 113.79529 -90.078735l0 0c62.84738 0 113.79529 40.32959 113.79529 90.078735l0 0c0 49.749084 -50.947906 90.078735 -113.79529 90.078735l0 0c-62.847412 0 -113.79529 -40.32965 -113.79529 -90.078735z" fill-rule="evenodd"/><path stroke="#000000" stroke-width="4.0" stroke-linejoin="round" stroke-linecap="butt" d="m299.65485 817.2937l0 0c0 -49.749146 50.947876 -90.078735 113.79529 -90.078735l0 0c62.84738 0 113.79529 40.32959 113.79529 90.078735l0 0c0 49.749084 -50.947906 90.078735 -113.79529 90.078735l0 0c-62.847412 0 -113.79529 -40.32965 -113.79529 -90.078735z" fill-rule="evenodd"/><path fill="#0000ff" d="m318.56693 765.3097l0 0c0 -48.19226 42.480072 -87.25983 94.8819 -87.25983l0 0c52.401825 0 94.8819 39.067566 94.8819 87.25983l0 0c0 48.19232 -42.480072 87.25989 -94.8819 87.25989l0 0c-52.401825 0 -94.8819 -39.067566 -94.8819 -87.25989z" fill-rule="evenodd"/><path stroke="#000000" stroke-width="4.0" stroke-linejoin="round" stroke-linecap="butt" d="m318.56693 765.3097l0 0c0 -48.19226 42.480072 -87.25983 94.8819 -87.25983l0 0c52.401825 0 94.8819 39.067566 94.8819 87.25983l0 0c0 48.19232 -42.480072 87.25989 -94.8819 87.25989l0 0c-52.401825 0 -94.8819 -39.067566 -94.8819 -87.25989z" fill-rule="evenodd"/><path fill="#ffffff" d="m389.60507 712.0622l0 -8.125l8.78125 0l0 8.125l-8.78125 0zm0 37.6875l0 -33.1875l8.78125 0l0 33.1875l-8.78125 0zm48.21875 0l-8.15625 0l0 -4.875q-2.03125 2.84375 -4.796875 4.234375q-2.765625 1.390625 -5.578125 1.390625q-5.71875 0 -9.796875 -4.609375q-4.078125 -4.609375 -4.078125 -12.859375q0 -8.4375 3.96875 -12.828125q3.96875 -4.390625 10.03125 -4.390625q5.5625 0 9.625 4.625l0 -16.5l8.78125 0l0 45.8125zm-23.4375 -17.3125q0 5.3125 1.46875 7.6875q2.125 3.4375 5.9375 3.4375q3.03125 0 5.15625 -2.578125q2.125 -2.578125 2.125 -7.703125q0 -5.71875 -2.0625 -8.234375q-2.0625 -2.515625 -5.28125 -2.515625q-3.125 0 -5.234375 2.484375q-2.109375 2.484375 -2.109375 7.421875z" fill-rule="nonzero"/><path fill="#ffffff" d="m427.8707 821.34344l0 5.40625l-30.28125 0q-0.0625 -2.03125 0.65625 -3.90625q1.15625 -3.09375 3.703125 -6.09375q2.546875 -3.0 7.359375 -6.9375q7.46875 -6.125 10.09375 -9.703125q2.625 -3.578125 2.625 -6.765625q0 -3.34375 -2.390625 -5.640625q-2.390625 -2.296875 -6.234375 -2.296875q-4.0625 0 -6.5 2.4375q-2.4375 2.4375 -2.46875 6.75l-5.78125 -0.59375q0.59375 -6.46875 4.46875 -9.859375q3.875 -3.390625 10.40625 -3.390625q6.59375 0 10.4375 3.65625q3.84375 3.65625 3.84375 9.0625q0 2.75 -1.125 5.40625q-1.125 2.65625 -3.734375 5.59375q-2.609375 2.9375 -8.671875 8.0625q-5.0625 4.25 -6.5 5.765625q-1.4375 1.515625 -2.375 3.046875l22.46875 0z" fill-rule="nonzero"/><path fill="#dd7e6b" d="m350.87204 632.8503l0 0c0 -36.12903 27.835907 -65.41736 62.173218 -65.41736c34.33734 0 62.17325 29.28833 62.17325 65.41736c0 36.128967 -27.835907 65.4173 -62.17325 65.4173c-34.33731 0 -62.173218 -29.28833 -62.173218 -65.4173z" fill-rule="evenodd"/><path fill="#b06455" d="m386.65042 613.28564c0 -3.7634277 2.8995972 -6.814331 6.4763794 -6.814331c3.5768127 0 6.4763794 3.0509033 6.4763794 6.814331c0 3.7634277 -2.8995667 6.814331 -6.4763794 6.814331c-3.5767822 0 -6.4763794 -3.0509033 -6.4763794 -6.814331m39.836945 0c0 -3.7634277 2.8995667 -6.814331 6.4763794 -6.814331c3.5767822 0 6.476349 3.0509033 6.476349 6.814331c0 3.7634277 -2.8995667 6.814331 -6.476349 6.814331c-3.5768127 0 -6.4763794 -3.0509033 -6.4763794 -6.814331" fill-rule="evenodd"/><path fill="#000000" fill-opacity="0.0" d="m379.347 661.3792q33.698273 24.350952 67.31787 0" fill-rule="evenodd"/><path fill="#000000" fill-opacity="0.0" d="m350.87204 632.8503l0 0c0 -36.12903 27.835907 -65.41736 62.173218 -65.41736c34.33734 0 62.17325 29.28833 62.17325 65.41736c0 36.128967 -27.835907 65.4173 -62.17325 65.4173c-34.33731 0 -62.173218 -29.28833 -62.173218 -65.4173z" fill-rule="evenodd"/><path stroke="#980000" stroke-width="4.0" stroke-linejoin="round" stroke-linecap="butt" d="m386.65042 613.28564c0 -3.7634277 2.8995972 -6.814331 6.4763794 -6.814331c3.5768127 0 6.4763794 3.0509033 6.4763794 6.814331c0 3.7634277 -2.8995667 6.814331 -6.4763794 6.814331c-3.5767822 0 -6.4763794 -3.0509033 -6.4763794 -6.814331m39.836945 0c0 -3.7634277 2.8995667 -6.814331 6.4763794 -6.814331c3.5767822 0 6.476349 3.0509033 6.476349 6.814331c0 3.7634277 -2.8995667 6.814331 -6.476349 6.814331c-3.5768127 0 -6.4763794 -3.0509033 -6.4763794 -6.814331" fill-rule="evenodd"/><path stroke="#980000" stroke-width="4.0" stroke-linejoin="round" stroke-linecap="butt" d="m379.347 661.3792q33.698273 24.350952 67.31787 0" fill-rule="evenodd"/><path stroke="#980000" stroke-width="4.0" stroke-linejoin="round" stroke-linecap="butt" d="m350.87204 632.8503l0 0c0 -36.12903 27.835907 -65.41736 62.173218 -65.41736c34.33734 0 62.17325 29.28833 62.17325 65.41736c0 36.128967 -27.835907 65.4173 -62.17325 65.4173c-34.33731 0 -62.173218 -29.28833 -62.173218 -65.4173z" fill-rule="evenodd"/><path fill="#ffffff" d="m604.5932 625.64044l204.31494 0l0 118.10974l-23.622498 23.622498l-180.69244 0z" fill-rule="evenodd"/><path fill="#cbcbcb" d="m785.28564 767.3727l4.7244873 -18.89801l18.89801 -4.7244873z" fill-rule="evenodd"/><path fill="#000000" fill-opacity="0.0" d="m785.28564 767.3727l4.7244873 -18.89801l18.89801 -4.7244873l-23.622498 23.622498l-180.69244 0l0 -141.73224l204.31494 0l0 118.10974" fill-rule="evenodd"/><path stroke="#999999" stroke-width="4.0" stroke-linejoin="round" stroke-linecap="butt" d="m785.28564 767.3727l4.7244873 -18.89801l18.89801 -4.7244873l-23.622498 23.622498l-180.69244 0l0 -141.73224l204.31494 0l0 118.10974" fill-rule="evenodd"/><path fill="#000000" d="m644.8366 680.7204l-6.59375 0l0 -12.703125q0 -4.03125 -0.421875 -5.21875q-0.421875 -1.1875 -1.375 -1.84375q-0.9375 -0.65625 -2.28125 -0.65625q-1.703125 0 -3.0625 0.9375q-1.359375 0.9375 -1.875 2.484375q-0.5 1.546875 -0.5 5.71875l0 11.28125l-6.578125 0l0 -24.890625l6.109375 0l0 3.65625q3.265625 -4.21875 8.203125 -4.21875q2.1875 0 3.984375 0.78125q1.8125 0.78125 2.734375 2.0q0.921875 1.21875 1.28125 2.765625q0.375 1.546875 0.375 4.4375l0 15.46875zm5.1484375 -12.796875q0 -3.28125 1.609375 -6.34375q1.625 -3.078125 4.59375 -4.6875q2.96875 -1.625 6.625 -1.625q5.640625 0 9.25 3.671875q3.609375 3.65625 3.609375 9.265625q0 5.640625 -3.640625 9.359375q-3.640625 3.71875 -9.171875 3.71875q-3.421875 0 -6.53125 -1.546875q-3.109375 -1.546875 -4.734375 -4.53125q-1.609375 -3.0 -1.609375 -7.28125zm6.75 0.34375q0 3.703125 1.75 5.671875q1.765625 1.96875 4.34375 1.96875q2.578125 0 4.328125 -1.96875q1.75 -1.96875 1.75 -5.71875q0 -3.65625 -1.75 -5.625q-1.75 -1.96875 -4.328125 -1.96875q-2.578125 0 -4.34375 1.96875q-1.75 1.96875 -1.75 5.671875zm23.601562 -12.4375l6.078125 0l0 3.390625q3.25 -3.953125 7.75 -3.953125q2.390625 0 4.140625 0.984375q1.765625 0.984375 2.890625 2.96875q1.640625 -1.984375 3.53125 -2.96875q1.90625 -0.984375 4.0625 -0.984375q2.75 0 4.640625 1.109375q1.90625 1.109375 2.84375 3.265625q0.671875 1.59375 0.671875 5.15625l0 15.921875l-6.578125 0l0 -14.234375q0 -3.703125 -0.6875 -4.78125q-0.90625 -1.40625 -2.8125 -1.40625q-1.375 0 -2.59375 0.84375q-1.21875 0.84375 -1.765625 2.484375q-0.53125 1.625 -0.53125 5.140625l0 11.953125l-6.59375 0l0 -13.640625q0 -3.640625 -0.359375 -4.6875q-0.34375 -1.0625 -1.078125 -1.578125q-0.734375 -0.515625 -2.0 -0.515625q-1.53125 0 -2.75 0.828125q-1.21875 0.8125 -1.75 2.359375q-0.515625 1.546875 -0.515625 5.140625l0 12.09375l-6.59375 0l0 -24.890625zm42.898438 24.890625l0 -34.359375l6.578125 0l0 12.375q3.046875 -3.46875 7.21875 -3.46875q4.546875 0 7.515625 3.296875q2.984375 3.28125 2.984375 9.453125q0 6.375 -3.03125 9.828125q-3.03125 3.4375 -7.375 3.4375q-2.125 0 -4.203125 -1.0625q-2.078125 -1.078125 -3.578125 -3.15625l0 3.65625l-6.109375 0zm6.53125 -12.984375q0 3.859375 1.21875 5.71875q1.71875 2.625 4.546875 2.625q2.1875 0 3.71875 -1.859375q1.53125 -1.875 1.53125 -5.875q0 -4.265625 -1.546875 -6.15625q-1.546875 -1.890625 -3.953125 -1.890625q-2.375 0 -3.953125 1.84375q-1.5625 1.84375 -1.5625 5.59375zm29.367188 12.984375l-6.578125 0l0 -24.890625l6.109375 0l0 3.53125q1.578125 -2.5 2.828125 -3.296875q1.25 -0.796875 2.84375 -0.796875q2.25 0 4.34375 1.234375l-2.046875 5.75q-1.65625 -1.078125 -3.09375 -1.078125q-1.375 0 -2.34375 0.765625q-0.953125 0.75 -1.515625 2.75q-0.546875 1.984375 -0.546875 8.34375l0 7.6875zm26.789062 -7.921875l6.5625 1.09375q-1.265625 3.609375 -4.0 5.5q-2.71875 1.890625 -6.828125 1.890625q-6.484375 0 -9.609375 -4.25q-2.453125 -3.390625 -2.453125 -8.578125q0 -6.1875 3.234375 -9.6875q3.234375 -3.5 8.171875 -3.5q5.5625 0 8.765625 3.671875q3.21875 3.65625 3.078125 11.234375l-16.5 0q0.0625 2.921875 1.578125 4.5625q1.53125 1.625 3.8125 1.625q1.546875 0 2.59375 -0.84375q1.0625 -0.84375 1.59375 -2.71875zm0.375 -6.65625q-0.0625 -2.859375 -1.46875 -4.34375q-1.40625 -1.5 -3.421875 -1.5q-2.15625 0 -3.5625 1.578125q-1.40625 1.5625 -1.390625 4.265625l9.84375 0z" fill-rule="nonzero"/><path fill="#000000" d="m671.8874 710.12665l0 4.890625l-4.515625 0l0 -3.859375q0 -3.140625 0.75 -4.546875q0.984375 -1.875 3.109375 -2.84375l1.03125 1.640625q-1.28125 0.546875 -1.890625 1.609375q-0.609375 1.0625 -0.6875 3.109375l2.203125 0zm7.265625 0l0 4.890625l-4.515625 0l0 -3.859375q0 -3.140625 0.75 -4.546875q0.984375 -1.875 3.109375 -2.84375l1.03125 1.640625q-1.28125 0.546875 -1.890625 1.609375q-0.609375 1.0625 -0.6875 3.109375l2.203125 0zm21.28125 38.140625l0 -12.203125q-0.984375 1.390625 -2.75 2.3125q-1.765625 0.90625 -3.765625 0.90625q-4.421875 0 -7.625 -3.53125q-3.203125 -3.546875 -3.203125 -9.71875q0 -3.75 1.296875 -6.71875q1.3125 -2.984375 3.78125 -4.515625q2.46875 -1.53125 5.421875 -1.53125q4.625 0 7.265625 3.890625l0 -3.328125l3.796875 0l0 34.4375l-4.21875 0zm-13.0 -22.0625q0 4.796875 2.015625 7.203125q2.015625 2.40625 4.828125 2.40625q2.6875 0 4.625 -2.28125q1.953125 -2.296875 1.953125 -6.953125q0 -4.96875 -2.046875 -7.46875q-2.046875 -2.515625 -4.8125 -2.515625q-2.75 0 -4.65625 2.328125q-1.90625 2.328125 -1.90625 7.28125zm23.851562 12.515625l0 -34.359375l4.21875 0l0 19.59375l9.984375 -10.125l5.46875 0l-9.515625 9.234375l10.46875 15.65625l-5.203125 0l-8.21875 -12.734375l-2.984375 2.859375l0 9.875l-4.21875 0zm22.859375 -29.8125l0 -4.90625l4.515625 0l0 3.875q0 3.140625 -0.71875 4.515625q-1.015625 1.90625 -3.140625 2.859375l-1.03125 -1.65625q1.265625 -0.515625 1.875 -1.625q0.625 -1.125 0.703125 -3.0625l-2.203125 0zm7.265625 0l0 -4.90625l4.515625 0l0 3.875q0 3.140625 -0.71875 4.515625q-1.015625 1.90625 -3.140625 2.859375l-1.03125 -1.65625q1.265625 -0.515625 1.875 -1.625q0.625 -1.125 0.703125 -3.0625l-2.203125 0z" fill-rule="nonzero"/><path fill="#cfe2f3" d="m624.8533 315.41904l-58.81537 109.26767l24.260681 12.885681l-74.08209 93.632324l24.26062 15.635315l-91.58731 156.76672l155.32181 -120.1405l-29.622131 -16.677673l96.50647 -76.95462l-34.581482 -23.77652l101.894714 -80.72867z" fill-rule="evenodd"/><path stroke="#000000" stroke-width="1.0" stroke-linejoin="round" stroke-linecap="butt" d="m624.8533 315.41904l-58.81537 109.26767l24.260681 12.885681l-74.08209 93.632324l24.26062 15.635315l-91.58731 156.76672l155.32181 -120.1405l-29.622131 -16.677673l96.50647 -76.95462l-34.581482 -23.77652l101.894714 -80.72867z" fill-rule="evenodd"/><path fill="#cfe2f3" d="m581.2756 139.08481l0 0c0 -22.518013 18.254456 -40.772476 40.77246 -40.772476l267.90393 0c10.813477 0 21.184143 4.295662 28.830444 11.941986c7.6463623 7.6463165 11.942017 18.016953 11.942017 28.83049l0 163.08499c0 22.518005 -18.254456 40.77246 -40.77246 40.77246l-267.90393 0c-22.518005 0 -40.77246 -18.254456 -40.77246 -40.77246z" fill-rule="evenodd"/><path stroke="#000000" stroke-width="16.0" stroke-linejoin="round" stroke-linecap="butt" d="m581.2756 139.08481l0 0c0 -22.518013 18.254456 -40.772476 40.77246 -40.772476l267.90393 0c10.813477 0 21.184143 4.295662 28.830444 11.941986c7.6463623 7.6463165 11.942017 18.016953 11.942017 28.83049l0 163.08499c0 22.518005 -18.254456 40.77246 -40.77246 40.77246l-267.90393 0c-22.518005 0 -40.77246 -18.254456 -40.77246 -40.77246z" fill-rule="evenodd"/><path fill="#000000" d="m618.125 147.50668l8.1875 0l0 4.875q1.59375 -2.5 4.3125 -4.0625q2.71875 -1.5625 6.03125 -1.5625q5.78125 0 9.8125 4.53125q4.03125 4.53125 4.03125 12.625q0 8.3125 -4.0625 12.921875q-4.0625 4.609375 -9.84375 4.609375q-2.75 0 -4.984375 -1.09375q-2.234375 -1.09375 -4.703125 -3.75l0 16.71875l-8.78125 0l0 -45.8125zm8.6875 16.03125q0 5.59375 2.21875 8.265625q2.21875 2.671875 5.40625 2.671875q3.0625 0 5.09375 -2.453125q2.03125 -2.453125 2.03125 -8.046875q0 -5.21875 -2.09375 -7.75q-2.09375 -2.53125 -5.1875 -2.53125q-3.21875 0 -5.34375 2.484375q-2.125 2.484375 -2.125 7.359375zm30.65625 -20.53125l0 -8.125l8.78125 0l0 8.125l-8.78125 0zm0 37.6875l0 -33.1875l8.78125 0l0 33.1875l-8.78125 0zm17.78125 0l0 -45.8125l8.78125 0l0 45.8125l-8.78125 0zm15.75 -17.0625q0 -4.375 2.15625 -8.46875q2.15625 -4.09375 6.109375 -6.25q3.953125 -2.15625 8.828125 -2.15625q7.53125 0 12.34375 4.890625q4.8125 4.890625 4.8125 12.359375q0 7.53125 -4.859375 12.484375q-4.859375 4.953125 -12.234375 4.953125q-4.5625 0 -8.703125 -2.0625q-4.140625 -2.0625 -6.296875 -6.046875q-2.15625 -3.984375 -2.15625 -9.703125zm9.0 0.46875q0 4.9375 2.34375 7.5625q2.34375 2.625 5.78125 2.625q3.4375 0 5.765625 -2.625q2.328125 -2.625 2.328125 -7.625q0 -4.875 -2.328125 -7.5q-2.328125 -2.625 -5.765625 -2.625q-3.4375 0 -5.78125 2.625q-2.34375 2.625 -2.34375 7.5625zm47.34375 -16.59375l0 7.0l-6.0 0l0 13.375q0 4.0625 0.171875 4.734375q0.171875 0.671875 0.78125 1.109375q0.609375 0.4375 1.484375 0.4375q1.21875 0 3.53125 -0.84375l0.75 6.8125q-3.0625 1.3125 -6.9375 1.3125q-2.375 0 -4.28125 -0.796875q-1.90625 -0.796875 -2.796875 -2.0625q-0.890625 -1.265625 -1.234375 -3.421875q-0.28125 -1.53125 -0.28125 -6.1875l0 -14.46875l-4.03125 0l0 -7.0l4.03125 0l0 -6.59375l8.8125 -5.125l0 11.71875l6.0 0zm25.3125 22.625l8.75 1.46875q-1.6875 4.8125 -5.328125 7.328125q-3.640625 2.515625 -9.109375 2.515625q-8.65625 0 -12.8125 -5.65625q-3.28125 -4.53125 -3.28125 -11.4375q0 -8.25 4.3125 -12.921875q4.3125 -4.671875 10.90625 -4.671875q7.40625 0 11.6875 4.890625q4.28125 4.890625 4.09375 14.984375l-22.0 0q0.09375 3.90625 2.125 6.078125q2.03125 2.171875 5.0625 2.171875q2.0625 0 3.46875 -1.125q1.40625 -1.125 2.125 -3.625zm0.5 -8.875q-0.09375 -3.8125 -1.96875 -5.796875q-1.875 -1.984375 -4.5625 -1.984375q-2.875 0 -4.75 2.09375q-1.875 2.09375 -1.84375 5.6875l13.125 0zm22.4375 -3.625l-7.96875 -1.4375q1.34375 -4.8125 4.625 -7.125q3.28125 -2.3125 9.75 -2.3125q5.875 0 8.75 1.390625q2.875 1.390625 4.046875 3.53125q1.171875 2.140625 1.171875 7.859375l-0.09375 10.25q0 4.375 0.421875 6.453125q0.421875 2.078125 1.578125 4.453125l-8.6875 0q-0.34375 -0.875 -0.84375 -2.59375q-0.21875 -0.78125 -0.3125 -1.03125q-2.25 2.1875 -4.8125 3.28125q-2.5625 1.09375 -5.46875 1.09375q-5.125 0 -8.078125 -2.78125q-2.953125 -2.78125 -2.953125 -7.03125q0 -2.8125 1.34375 -5.015625q1.34375 -2.203125 3.765625 -3.375q2.421875 -1.171875 6.984375 -2.046875q6.15625 -1.15625 8.53125 -2.15625l0 -0.875q0 -2.53125 -1.25 -3.609375q-1.25 -1.078125 -4.71875 -1.078125q-2.34375 0 -3.65625 0.921875q-1.3125 0.921875 -2.125 3.234375zm11.75 7.125q-1.6875 0.5625 -5.34375 1.34375q-3.65625 0.78125 -4.78125 1.53125q-1.71875 1.21875 -1.71875 3.09375q0 1.84375 1.375 3.1875q1.375 1.34375 3.5 1.34375q2.375 0 4.53125 -1.5625q1.59375 -1.1875 2.09375 -2.90625q0.34375 -1.125 0.34375 -4.28125l0 -1.75zm47.71875 15.9375l-8.15625 0l0 -4.875q-2.03125 2.84375 -4.796875 4.234375q-2.765625 1.390625 -5.578125 1.390625q-5.71875 0 -9.796875 -4.609375q-4.078125 -4.609375 -4.078125 -12.859375q0 -8.4375 3.96875 -12.828125q3.96875 -4.390625 10.03125 -4.390625q5.5625 0 9.625 4.625l0 -16.5l8.78125 0l0 45.8125zm-23.4375 -17.3125q0 5.3125 1.46875 7.6875q2.125 3.4375 5.9375 3.4375q3.03125 0 5.15625 -2.578125q2.125 -2.578125 2.125 -7.703125q0 -5.71875 -2.0625 -8.234375q-2.0625 -2.515625 -5.28125 -2.515625q-3.125 0 -5.234375 2.484375q-2.109375 2.484375 -2.109375 7.421875zm30.0625 0.25q0 -4.375 2.15625 -8.46875q2.15625 -4.09375 6.109375 -6.25q3.953125 -2.15625 8.828125 -2.15625q7.53125 0 12.34375 4.890625q4.8125 4.890625 4.8125 12.359375q0 7.53125 -4.859375 12.484375q-4.859375 4.953125 -12.234375 4.953125q-4.5625 0 -8.703125 -2.0625q-4.140625 -2.0625 -6.296875 -6.046875q-2.15625 -3.984375 -2.15625 -9.703125zm9.0 0.46875q0 4.9375 2.34375 7.5625q2.34375 2.625 5.78125 2.625q3.4375 0 5.765625 -2.625q2.328125 -2.625 2.328125 -7.625q0 -4.875 -2.328125 -7.5q-2.328125 -2.625 -5.765625 -2.625q-3.4375 0 -5.78125 2.625q-2.34375 2.625 -2.34375 7.5625z" fill-rule="nonzero"/><path fill="#000000" d="m770.4219 252.28793l0 5.40625l-30.28125 0q-0.0625 -2.03125 0.65625 -3.90625q1.15625 -3.09375 3.703125 -6.09375q2.546875 -3.0 7.359375 -6.9375q7.46875 -6.125 10.09375 -9.703125q2.625 -3.578125 2.625 -6.765625q0 -3.34375 -2.390625 -5.640625q-2.390625 -2.296875 -6.234375 -2.296875q-4.0625 0 -6.5 2.4375q-2.4375 2.4375 -2.46875 6.75l-5.78125 -0.59375q0.59375 -6.46875 4.46875 -9.859375q3.875 -3.390625 10.40625 -3.390625q6.59375 0 10.4375 3.65625q3.84375 3.65625 3.84375 9.0625q0 2.75 -1.125 5.40625q-1.125 2.65625 -3.734375 5.59375q-2.609375 2.9375 -8.671875 8.0625q-5.0625 4.25 -6.5 5.765625q-1.4375 1.515625 -2.375 3.046875l22.46875 0z" fill-rule="nonzero"/><path fill="#cfe2f3" d="m191.50833 528.1078l67.303406 -80.13156l-27.761902 -9.449707l84.77344 -68.665344l-27.761871 -11.466187l104.80496 -114.96503l-177.73743 88.10513l33.89711 12.230621l-110.43402 56.434723l39.57219 17.436523l-116.599915 59.202423z" fill-rule="evenodd"/><path stroke="#000000" stroke-width="1.0" stroke-linejoin="round" stroke-linecap="butt" d="m191.50833 528.1078l67.303406 -80.13156l-27.761902 -9.449707l84.77344 -68.665344l-27.761871 -11.466187l104.80496 -114.96503l-177.73743 88.10513l33.89711 12.230621l-110.43402 56.434723l39.57219 17.436523l-116.599915 59.202423z" fill-rule="evenodd"/><path fill="#cfe2f3" d="m21.774279 568.88007l0 0c0 -22.518005 18.254457 -40.77246 40.77247 -40.77246l184.15585 0c10.813522 0 21.184189 4.2956543 28.83049 11.942017c7.646332 7.6463013 11.941986 18.016907 11.941986 28.830444l0 163.08502c0 22.518005 -18.254456 40.77246 -40.772476 40.77246l-184.15585 0c-22.51801 0 -40.77247 -18.254456 -40.77247 -40.77246z" fill-rule="evenodd"/><path stroke="#000000" stroke-width="16.0" stroke-linejoin="round" stroke-linecap="butt" d="m21.774279 568.88007l0 0c0 -22.518005 18.254457 -40.77246 40.77247 -40.77246l184.15585 0c10.813522 0 21.184189 4.2956543 28.83049 11.942017c7.646332 7.6463013 11.941986 18.016907 11.941986 28.830444l0 163.08502c0 22.518005 -18.254456 40.77246 -40.772476 40.77246l-184.15585 0c-22.51801 0 -40.77247 -18.254456 -40.77247 -40.77246z" fill-rule="evenodd"/><path fill="#000000" d="m55.843422 577.30194l8.1875 0l0 4.875q1.59375 -2.5 4.3125 -4.0625q2.71875 -1.5625 6.03125 -1.5625q5.78125 0 9.8125 4.53125q4.03125 4.53125 4.03125 12.625q0 8.3125 -4.0625 12.921875q-4.0625 4.609375 -9.84375 4.609375q-2.75 0 -4.984375 -1.09375q-2.234375 -1.09375 -4.703125 -3.75l0 16.71875l-8.78125 0l0 -45.8125zm8.6875 16.03125q0 5.59375 2.21875 8.265625q2.21875 2.671875 5.40625 2.671875q3.0625 0 5.09375 -2.453125q2.03125 -2.453125 2.03125 -8.046875q0 -5.21875 -2.09375 -7.75q-2.09375 -2.53125 -5.1875 -2.53125q-3.21875 0 -5.34375 2.484375q-2.125 2.484375 -2.125 7.359375zm30.65625 -20.53125l0 -8.125l8.78125 0l0 8.125l-8.78125 0zm0 37.6875l0 -33.1875l8.78125 0l0 33.1875l-8.78125 0zm17.78125 0l0 -45.8125l8.78125 0l0 45.8125l-8.78125 0zm15.750008 -17.0625q0 -4.375 2.15625 -8.46875q2.15625 -4.09375 6.109375 -6.25q3.953125 -2.15625 8.828125 -2.15625q7.53125 0 12.34375 4.890625q4.8124847 4.890625 4.8124847 12.359375q0 7.53125 -4.8593597 12.484375q-4.859375 4.953125 -12.234375 4.953125q-4.5625 0 -8.703125 -2.0625q-4.140625 -2.0625 -6.296875 -6.046875q-2.15625 -3.984375 -2.15625 -9.703125zm9.0 0.46875q0 4.9375 2.34375 7.5625q2.34375 2.625 5.78125 2.625q3.4375 0 5.765625 -2.625q2.328125 -2.625 2.328125 -7.625q0 -4.875 -2.328125 -7.5q-2.328125 -2.625 -5.765625 -2.625q-3.4375 0 -5.78125 2.625q-2.34375 2.625 -2.34375 7.5625zm47.343735 -16.59375l0 7.0l-6.0 0l0 13.375q0 4.0625 0.171875 4.734375q0.171875 0.671875 0.78125 1.109375q0.609375 0.4375 1.484375 0.4375q1.21875 0 3.53125 -0.84375l0.75 6.8125q-3.0625 1.3125 -6.9375 1.3125q-2.375 0 -4.28125 -0.796875q-1.90625 -0.796875 -2.796875 -2.0625q-0.890625 -1.265625 -1.234375 -3.421875q-0.28125 -1.53125 -0.28125 -6.1875l0 -14.46875l-4.03125 0l0 -7.0l4.03125 0l0 -6.59375l8.8125 -5.125l0 11.71875l6.0 0zm25.3125 22.625l8.75 1.46875q-1.6875 4.8125 -5.328125 7.328125q-3.640625 2.515625 -9.109375 2.515625q-8.65625 0 -12.8125 -5.65625q-3.28125 -4.53125 -3.28125 -11.4375q0 -8.25 4.3125 -12.921875q4.3125 -4.671875 10.90625 -4.671875q7.40625 0 11.6875 4.890625q4.28125 4.890625 4.09375 14.984375l-22.0 0q0.09375 3.90625 2.125 6.078125q2.03125 2.171875 5.0625 2.171875q2.0625 0 3.46875 -1.125q1.40625 -1.125 2.125 -3.625zm0.5 -8.875q-0.09375 -3.8125 -1.96875 -5.796875q-1.875 -1.984375 -4.5625 -1.984375q-2.875 0 -4.75 2.09375q-1.875 2.09375 -1.84375 5.6875l13.125 0zm22.4375 -3.625l-7.96875 -1.4375q1.34375 -4.8125 4.625 -7.125q3.28125 -2.3125 9.75 -2.3125q5.875 0 8.75 1.390625q2.875 1.390625 4.046875 3.53125q1.171875 2.140625 1.171875 7.859375l-0.09375 10.25q0 4.375 0.421875 6.453125q0.421875 2.078125 1.578125 4.453125l-8.6875 0q-0.34375 -0.875 -0.84375 -2.59375q-0.21875 -0.78125 -0.3125 -1.03125q-2.25 2.1875 -4.8125 3.28125q-2.5625 1.09375 -5.46875 1.09375q-5.125 0 -8.078125 -2.78125q-2.953125 -2.78125 -2.953125 -7.03125q0 -2.8125 1.34375 -5.015625q1.34375 -2.203125 3.765625 -3.375q2.421875 -1.171875 6.984375 -2.046875q6.15625 -1.15625 8.53125 -2.15625l0 -0.875q0 -2.53125 -1.25 -3.609375q-1.25 -1.078125 -4.71875 -1.078125q-2.34375 0 -3.65625 0.921875q-1.3125 0.921875 -2.125 3.234375zm11.75 7.125q-1.6875 0.5625 -5.34375 1.34375q-3.65625 0.78125 -4.78125 1.53125q-1.71875 1.21875 -1.71875 3.09375q0 1.84375 1.375 3.1875q1.375 1.34375 3.5 1.34375q2.375 0 4.53125 -1.5625q1.59375 -1.1875 2.09375 -2.90625q0.34375 -1.125 0.34375 -4.28125l0 -1.75z" fill-rule="nonzero"/><path fill="#000000" d="m160.67155 687.48944l-5.625 0l0 -35.84375q-2.03125 1.9375 -5.328125 3.875q-3.296875 1.9375 -5.921875 2.90625l0 -5.4375q4.71875 -2.21875 8.25 -5.375q3.53125 -3.15625 5.0 -6.125l3.625 0l0 46.0z" fill-rule="nonzero"/><path fill="#0000ff" d="m366.80316 549.80054l90.86612 0l0 21.35431l-90.86612 0z" fill-rule="evenodd"/><path stroke="#000000" stroke-width="4.0" stroke-linejoin="round" stroke-linecap="butt" d="m366.80316 549.80054l90.86612 0l0 21.35431l-90.86612 0z" fill-rule="evenodd"/><path fill="#000000" fill-opacity="0.0" d="m375.79266 578.20734l69.76376 0.6929321" fill-rule="evenodd"/><path stroke="#000000" stroke-width="12.0" stroke-linejoin="round" stroke-linecap="butt" d="m375.79266 578.20734l69.76376 0.6929321" fill-rule="evenodd"/><path fill="#000000" d="m439.3058 581.83203l0 0c0 6.9519653 -5.480011 13.373474 -14.367981 16.836609c-8.8880005 3.4630737 -19.827667 3.439331 -28.68277 -0.06237793c-8.855072 -3.501709 -14.274231 -9.946899 -14.208527 -16.898743l28.629333 0.12451172z" fill-rule="evenodd"/><path stroke="#000000" stroke-width="4.0" stroke-linejoin="round" stroke-linecap="butt" d="m439.3058 581.83203l0 0c0 6.9519653 -5.480011 13.373474 -14.367981 16.836609c-8.8880005 3.4630737 -19.827667 3.439331 -28.68277 -0.06237793c-8.855072 -3.501709 -14.274231 -9.946899 -14.208527 -16.898743l28.629333 0.12451172z" fill-rule="evenodd"/><path fill="#000000" d="m415.84128 604.0056l0 0c-0.983551 14.34729 -10.165436 25.419617 -21.280884 25.662292c-11.1154175 0.24267578 -20.580048 -10.422485 -21.936157 -24.718689l21.569977 -3.4347534z" fill-rule="evenodd"/><path stroke="#000000" stroke-width="1.0" stroke-linejoin="round" stroke-linecap="butt" d="m415.84128 604.0056l0 0c-0.983551 14.34729 -10.165436 25.419617 -21.280884 25.662292c-11.1154175 0.24267578 -20.580048 -10.422485 -21.936157 -24.718689l21.569977 -3.4347534z" fill-rule="evenodd"/><path fill="#000000" d="m459.30585 604.0056l0 0c-0.983551 14.34729 -10.165436 25.419617 -21.280884 25.662292c-11.1154175 0.24267578 -20.580048 -10.422485 -21.936157 -24.718689l21.569977 -3.4347534z" fill-rule="evenodd"/><path stroke="#000000" stroke-width="1.0" stroke-linejoin="round" stroke-linecap="butt" d="m459.30585 604.0056l0 0c-0.983551 14.34729 -10.165436 25.419617 -21.280884 25.662292c-11.1154175 0.24267578 -20.580048 -10.422485 -21.936157 -24.718689l21.569977 -3.4347534z" fill-rule="evenodd"/></g></svg>