<svg version="1.1" viewBox="0.0 0.0 1465.4619422572177 1417.8031496062993" fill="none" stroke="none" stroke-linecap="square" stroke-miterlimit="10" xmlns:xlink="http://www.w3.org/1999/xlink" xmlns="http://www.w3.org/2000/svg"><clipPath id="p.0"><path d="m0 0l1465.4619 0l0 1417.8031l-1465.4619 0l0 -1417.8031z" clip-rule="nonzero"/></clipPath><g clip-path="url(#p.0)"><path fill="#000000" fill-opacity="0.0" d="m0 0l1465.4619 0l0 1417.8031l-1465.4619 0z" fill-rule="evenodd"/><path fill="#000000" fill-opacity="0.0" d="m851.5079 635.0866l123.55908 5.795288" fill-rule="evenodd"/><path stroke="#ff0000" stroke-width="16.0" stroke-linejoin="round" stroke-linecap="butt" d="m851.5079 635.0866l123.55908 5.795288" fill-rule="evenodd"/><path fill="#000000" d="m739.29486 984.094l0 0c-4.441162 -30.135132 10.139954 -59.967102 37.55591 -76.8371c27.415955 -16.869995 62.858643 -17.819336 91.28845 -2.4452515l0 0c10.070679 -17.52179 28.503052 -29.619446 49.721558 -32.633545c21.218506 -3.0140991 42.731018 3.4093018 58.030457 17.327332l0 0c8.578918 -15.886414 25.423828 -26.560059 44.55725 -28.233337c19.133423 -1.6733398 37.847534 5.890503 49.501465 20.007446l0 0c15.4991455 -16.839539 40.15869 -23.929688 63.308228 -18.202515c23.149536 5.727234 40.631226 23.243103 44.880737 44.968445l0 0c18.989014 4.7825317 34.80652 16.940247 43.365723 33.332092c8.559204 16.391846 9.020386 35.40973 1.2645264 52.140137l0 0c18.69873 22.470703 23.072754 52.412598 11.48999 78.6521c-11.582886 26.23938 -37.382446 44.833984 -67.77075 48.844727c-0.2142334 24.626587 -14.841553 47.223633 -38.24402 59.0813c-23.402588 11.857666 -51.92578 11.124268 -74.57568 -1.9174805c-9.647705 29.494629 -36.802673 51.19641 -69.73297 55.729614c-32.930298 4.533081 -65.732544 -8.915283 -84.234924 -34.53479c-22.680115 12.62793 -49.894287 16.265625 -75.50366 10.092529c-25.609314 -6.1730957 -47.456665 -21.637085 -60.613586 -42.903564l0 0c-23.176208 2.5041504 -45.58435 -8.582886 -56.103394 -27.758911c-10.519104 -19.175903 -6.90979 -42.35852 9.036621 -58.04236l0 0c-20.673767 -11.235107 -31.222778 -33.52954 -26.146118 -55.257324c5.07666 -21.727844 24.628601 -37.965637 48.460205 -40.24597z" fill-rule="evenodd"/><path fill="#000000" fill-opacity="0.0" d="m716.52264 1080.7588l0 0c9.755981 5.30188 21.02649 7.706909 32.298157 6.892212m14.76355 78.91089c4.847229 -0.52368164 9.59845 -1.6328125 14.1311035 -3.298706m121.97931 36.1084c-3.4091797 -4.720703 -6.263611 -9.765137 -8.514526 -15.047363m162.48834 -6.1483154l0 0c1.7589111 -5.3773193 2.8985596 -10.911743 3.3997803 -16.510986m109.41565 -40.65088c0.22802734 -26.21875 -15.900024 -50.224976 -41.456787 -61.707275m97.73706 -65.78674c-4.138794 8.92804 -10.457275 16.8479 -18.459839 23.138794m-26.166504 -108.61334l0 0c0.7052002 3.6053467 1.0314941 7.2648315 0.9744873 10.927856m-109.16162 -37.692688l0 0c-3.866211 4.2006226 -7.0515137 8.894775 -9.456665 13.936279m-84.60297 -5.7122803l0 0c-2.0604248 3.8154297 -3.598999 7.852783 -4.580261 12.019043m-103.17334 3.2875366l0 0c6.015747 3.2531738 11.581055 7.16864 16.573853 11.660522m-145.41656 67.62225l0 0c0.61206055 4.1533813 1.5792236 8.255554 2.892395 12.268188" fill-rule="evenodd"/><path stroke="#000000" stroke-width="1.0" stroke-linejoin="round" stroke-linecap="butt" d="m739.29486 984.094l0 0c-4.441162 -30.135132 10.139954 -59.967102 37.55591 -76.8371c27.415955 -16.869995 62.858643 -17.819336 91.28845 -2.4452515l0 0c10.070679 -17.52179 28.503052 -29.619446 49.721558 -32.633545c21.218506 -3.0140991 42.731018 3.4093018 58.030457 17.327332l0 0c8.578918 -15.886414 25.423828 -26.560059 44.55725 -28.233337c19.133423 -1.6733398 37.847534 5.890503 49.501465 20.007446l0 0c15.4991455 -16.839539 40.15869 -23.929688 63.308228 -18.202515c23.149536 5.727234 40.631226 23.243103 44.880737 44.968445l0 0c18.989014 4.7825317 34.80652 16.940247 43.365723 33.332092c8.559204 16.391846 9.020386 35.40973 1.2645264 52.140137l0 0c18.69873 22.470703 23.072754 52.412598 11.48999 78.6521c-11.582886 26.23938 -37.382446 44.833984 -67.77075 48.844727c-0.2142334 24.626587 -14.841553 47.223633 -38.24402 59.0813c-23.402588 11.857666 -51.92578 11.124268 -74.57568 -1.9174805c-9.647705 29.494629 -36.802673 51.19641 -69.73297 55.729614c-32.930298 4.533081 -65.732544 -8.915283 -84.234924 -34.53479c-22.680115 12.62793 -49.894287 16.265625 -75.50366 10.092529c-25.609314 -6.1730957 -47.456665 -21.637085 -60.613586 -42.903564l0 0c-23.176208 2.5041504 -45.58435 -8.582886 -56.103394 -27.758911c-10.519104 -19.175903 -6.90979 -42.35852 9.036621 -58.04236l0 0c-20.673767 -11.235107 -31.222778 -33.52954 -26.146118 -55.257324c5.07666 -21.727844 24.628601 -37.965637 48.460205 -40.24597z" fill-rule="evenodd"/><path stroke="#000000" stroke-width="1.0" stroke-linejoin="round" stroke-linecap="butt" d="m716.52264 1080.7588l0 0c9.755981 5.30188 21.02649 7.706909 32.298157 6.892212m14.76355 78.91089c4.847229 -0.52368164 9.59845 -1.6328125 14.1311035 -3.298706m121.97931 36.1084c-3.4091797 -4.720703 -6.263611 -9.765137 -8.514526 -15.047363m162.48834 -6.1483154l0 0c1.7589111 -5.3773193 2.8985596 -10.911743 3.3997803 -16.510986m109.41565 -40.65088c0.22802734 -26.21875 -15.900024 -50.224976 -41.456787 -61.707275m97.73706 -65.78674c-4.138794 8.92804 -10.457275 16.8479 -18.459839 23.138794m-26.166504 -108.61334l0 0c0.7052002 3.6053467 1.0314941 7.2648315 0.9744873 10.927856m-109.16162 -37.692688l0 0c-3.866211 4.2006226 -7.0515137 8.894775 -9.456665 13.936279m-84.60297 -5.7122803l0 0c-2.0604248 3.8154297 -3.598999 7.852783 -4.580261 12.019043m-103.17334 3.2875366l0 0c6.015747 3.2531738 11.581055 7.16864 16.573853 11.660522m-145.41656 67.62225l0 0c0.61206055 4.1533813 1.5792236 8.255554 2.892395 12.268188" fill-rule="evenodd"/><path fill="#000000" d="m173.62283 97.07203l0 0c-2.7149963 -21.480011 6.1988983 -42.743923 22.959229 -54.768673c16.760315 -12.024748 38.427643 -12.70145 55.807755 -1.7429581l0 0c6.15654 -12.489372 17.42485 -21.112423 30.39647 -23.260845c12.971619 -2.1484222 26.122955 2.4301243 35.475983 12.350716l0 0c5.244629 -11.323668 15.54248 -18.931725 27.23938 -20.12444c11.69693 -1.1927137 23.137482 4.198715 30.261963 14.261127l0 0c9.475128 -12.0030575 24.550323 -17.056845 38.702423 -12.974558c14.1521 4.082288 24.839294 16.567434 27.437164 32.053047l0 0c11.608643 3.4089203 21.278412 12.074844 26.510925 23.758778c5.2325134 11.683937 5.514496 25.239708 0.7730713 37.164948l0 0c11.431122 16.016891 14.105164 37.359207 7.0242004 56.062378c-7.0809937 18.70317 -22.853119 31.95726 -41.430542 34.816055c-0.13095093 17.553604 -9.073151 33.66057 -23.379913 42.11258c-14.306732 8.452011 -31.743988 7.929245 -45.590668 -1.3667755c-5.897949 21.023453 -22.498688 36.492325 -42.630096 39.723465c-20.13144 3.2311401 -40.18457 -6.3546753 -51.495697 -24.616028c-13.865112 9.001068 -30.50209 11.593994 -46.15796 7.1938477c-15.655869 -4.400131 -29.011871 -15.422699 -37.05516 -30.581207l0 0c-14.168396 1.7849579 -27.867264 -6.1178284 -34.297928 -19.786224c-6.430664 -13.668396 -4.224167 -30.192734 5.524399 -41.37204l0 0c-12.638565 -8.008316 -19.08754 -23.89949 -15.984009 -39.38688c3.103531 -15.487389 15.05629 -27.061508 29.625366 -28.686905z" fill-rule="evenodd"/><path fill="#000000" fill-opacity="0.0" d="m159.70142 165.9737l0 0c5.9641724 3.7791443 12.854202 5.493469 19.74498 4.9127655m9.025436 56.246857c2.9632874 -0.37332153 5.867874 -1.1638641 8.638855 -2.3512573m74.5701 25.73764c-2.0841675 -3.3648224 -3.8291626 -6.960434 -5.2052 -10.725555m99.334625 -4.3825226l0 0c1.0752869 -3.8328857 1.7719727 -7.7777557 2.0784607 -11.768799m66.889496 -28.97551c0.1394043 -18.688507 -9.720276 -35.799896 -25.343994 -43.98433m59.75003 -46.892143c-2.5302124 6.363785 -6.3928833 12.009018 -11.285126 16.493065m-15.996521 -77.41846l0 0c0.43112183 2.5698395 0.63064575 5.1783066 0.5957947 7.789242m-66.73425 -26.866953l0 0c-2.363556 2.9941673 -4.310852 6.340109 -5.781189 9.933645m-51.720673 -4.071642l0 0c-1.2595825 2.7195797 -2.2001648 5.5973606 -2.8000488 8.567049m-63.073395 2.3433075l0 0c3.6776123 2.3188095 7.0799255 5.109745 10.132141 8.311497m-88.8981 48.200436l0 0c0.37420654 2.9605103 0.9654541 5.884514 1.7682343 8.744652" fill-rule="evenodd"/><path stroke="#000000" stroke-width="1.0" stroke-linejoin="round" stroke-linecap="butt" d="m173.62283 97.07203l0 0c-2.7149963 -21.480011 6.1988983 -42.743923 22.959229 -54.768673c16.760315 -12.024748 38.427643 -12.70145 55.807755 -1.7429581l0 0c6.15654 -12.489372 17.42485 -21.112423 30.39647 -23.260845c12.971619 -2.1484222 26.122955 2.4301243 35.475983 12.350716l0 0c5.244629 -11.323668 15.54248 -18.931725 27.23938 -20.12444c11.69693 -1.1927137 23.137482 4.198715 30.261963 14.261127l0 0c9.475128 -12.0030575 24.550323 -17.056845 38.702423 -12.974558c14.1521 4.082288 24.839294 16.567434 27.437164 32.053047l0 0c11.608643 3.4089203 21.278412 12.074844 26.510925 23.758778c5.2325134 11.683937 5.514496 25.239708 0.7730713 37.164948l0 0c11.431122 16.016891 14.105164 37.359207 7.0242004 56.062378c-7.0809937 18.70317 -22.853119 31.95726 -41.430542 34.816055c-0.13095093 17.553604 -9.073151 33.66057 -23.379913 42.11258c-14.306732 8.452011 -31.743988 7.929245 -45.590668 -1.3667755c-5.897949 21.023453 -22.498688 36.492325 -42.630096 39.723465c-20.13144 3.2311401 -40.18457 -6.3546753 -51.495697 -24.616028c-13.865112 9.001068 -30.50209 11.593994 -46.15796 7.1938477c-15.655869 -4.400131 -29.011871 -15.422699 -37.05516 -30.581207l0 0c-14.168396 1.7849579 -27.867264 -6.1178284 -34.297928 -19.786224c-6.430664 -13.668396 -4.224167 -30.192734 5.524399 -41.37204l0 0c-12.638565 -8.008316 -19.08754 -23.89949 -15.984009 -39.38688c3.103531 -15.487389 15.05629 -27.061508 29.625366 -28.686905z" fill-rule="evenodd"/><path stroke="#000000" stroke-width="1.0" stroke-linejoin="round" stroke-linecap="butt" d="m159.70142 165.9737l0 0c5.9641724 3.7791443 12.854202 5.493469 19.74498 4.9127655m9.025436 56.246857c2.9632874 -0.37332153 5.867874 -1.1638641 8.638855 -2.3512573m74.5701 25.73764c-2.0841675 -3.3648224 -3.8291626 -6.960434 -5.2052 -10.725555m99.334625 -4.3825226l0 0c1.0752869 -3.8328857 1.7719727 -7.7777557 2.0784607 -11.768799m66.889496 -28.97551c0.1394043 -18.688507 -9.720276 -35.799896 -25.343994 -43.98433m59.75003 -46.892143c-2.5302124 6.363785 -6.3928833 12.009018 -11.285126 16.493065m-15.996521 -77.41846l0 0c0.43112183 2.5698395 0.63064575 5.1783066 0.5957947 7.789242m-66.73425 -26.866953l0 0c-2.363556 2.9941673 -4.310852 6.340109 -5.781189 9.933645m-51.720673 -4.071642l0 0c-1.2595825 2.7195797 -2.2001648 5.5973606 -2.8000488 8.567049m-63.073395 2.3433075l0 0c3.6776123 2.3188095 7.0799255 5.109745 10.132141 8.311497m-88.8981 48.200436l0 0c0.37420654 2.9605103 0.9654541 5.884514 1.7682343 8.744652" fill-rule="evenodd"/><path fill="#000000" fill-opacity="0.0" d="m405.35666 220.66742l86.456696 27.055115" fill-rule="evenodd"/><path stroke="#980000" stroke-width="16.0" stroke-linejoin="round" stroke-linecap="butt" d="m405.35666 220.66742l86.456696 27.055115" fill-rule="evenodd"/><path fill="#000000" fill-opacity="0.0" d="m224.49344 203.12599l23.905518 17.543304" fill-rule="evenodd"/><path stroke="#980000" stroke-width="16.0" stroke-linejoin="round" stroke-linecap="butt" d="m224.49344 203.12599l23.905518 17.543304" fill-rule="evenodd"/><path fill="#000000" fill-opacity="0.0" d="m233.24672 68.25328l0 0c11.724197 0 22.810196 1.761673 30.118942 4.786194c7.3087463 3.0245285 10.044586 6.9826202 7.4328003 10.753548l-37.551743 -2.8310776z" fill-rule="evenodd"/><path fill="#000000" fill-opacity="0.0" d="m233.24672 68.25328l0 0c11.724197 0 22.810196 1.761673 30.118942 4.786194c7.3087463 3.0245285 10.044586 6.9826202 7.4328003 10.753548" fill-rule="evenodd"/><path stroke="#980000" stroke-width="8.0" stroke-linejoin="round" stroke-linecap="butt" d="m233.24672 68.25328l0 0c11.724197 0 22.810196 1.761673 30.118942 4.786194c7.3087463 3.0245285 10.044586 6.9826202 7.4328003 10.753548" fill-rule="evenodd"/><path fill="#000000" fill-opacity="0.0" d="m374.5715 76.85724c-0.28146362 -3.651062 4.2117004 -7.1656036 12.333496 -9.64727c8.121796 -2.4816666 19.087128 -3.690548 30.099365 -3.3183403l-3.9256287 12.64249z" fill-rule="evenodd"/><path fill="#000000" fill-opacity="0.0" d="m374.5715 76.85724c-0.28146362 -3.651062 4.2117004 -7.1656036 12.333496 -9.64727c8.121796 -2.4816666 19.087128 -3.690548 30.099365 -3.3183403" fill-rule="evenodd"/><path stroke="#980000" stroke-width="8.0" stroke-linejoin="round" stroke-linecap="butt" d="m374.5715 76.85724c-0.28146362 -3.651062 4.2117004 -7.1656036 12.333496 -9.64727c8.121796 -2.4816666 19.087128 -3.690548 30.099365 -3.3183403" fill-rule="evenodd"/><path fill="#dd7e6b" d="m173.81364 361.03674l0 0c0 -59.177094 68.532166 -107.1496 153.07088 -107.1496l0 0c84.5387 0 153.07086 47.972504 153.07086 107.1496l0 0c0 59.177094 -68.532166 107.1496 -153.07086 107.1496l0 0c-84.53871 0 -153.07088 -47.972504 -153.07088 -107.1496z" fill-rule="evenodd"/><path stroke="#980000" stroke-width="4.0" stroke-linejoin="round" stroke-linecap="butt" d="m173.81364 361.03674l0 0c0 -59.177094 68.532166 -107.1496 153.07088 -107.1496l0 0c84.5387 0 153.07086 47.972504 153.07086 107.1496l0 0c0 59.177094 -68.532166 107.1496 -153.07086 107.1496l0 0c-84.53871 0 -153.07088 -47.972504 -153.07088 -107.1496z" fill-rule="evenodd"/><path fill="#dd7e6b" d="m215.90814 281.62335l0 0c0 -47.609543 49.68582 -86.20471 110.97638 -86.20471l0 0c61.290558 0 110.97638 38.59517 110.97638 86.20471l0 0c0 47.60956 -49.68582 86.20474 -110.97638 86.20474l0 0c-61.290558 0 -110.97638 -38.595184 -110.97638 -86.20474z" fill-rule="evenodd"/><path stroke="#980000" stroke-width="4.0" stroke-linejoin="round" stroke-linecap="butt" d="m215.90814 281.62335l0 0c0 -47.609543 49.68582 -86.20471 110.97638 -86.20471l0 0c61.290558 0 110.97638 38.59517 110.97638 86.20471l0 0c0 47.60956 -49.68582 86.20474 -110.97638 86.20474l0 0c-61.290558 0 -110.97638 -38.595184 -110.97638 -86.20474z" fill-rule="evenodd"/><path fill="#000000" d="m303.04077 228.37585l0 -8.125l8.78125 0l0 8.125l-8.78125 0zm0 37.6875l0 -33.1875l8.78125 0l0 33.1875l-8.78125 0zm48.21875 0l-8.15625 0l0 -4.875q-2.03125 2.84375 -4.796875 4.234375q-2.765625 1.390625 -5.578125 1.390625q-5.71875 0 -9.796875 -4.609375q-4.078125 -4.609375 -4.078125 -12.859375q0 -8.4375 3.96875 -12.828125q3.96875 -4.390625 10.03125 -4.390625q5.5625 0 9.625 4.625l0 -16.5l8.78125 0l0 45.8125zm-23.4375 -17.3125q0 5.3125 1.46875 7.6875q2.125 3.4375 5.9375 3.4375q3.03125 0 5.15625 -2.578125q2.125 -2.578125 2.125 -7.703125q0 -5.71875 -2.0625 -8.234375q-2.0625 -2.515625 -5.28125 -2.515625q-3.125 0 -5.234375 2.484375q-2.109375 2.484375 -2.109375 7.421875z" fill-rule="nonzero"/><path fill="#000000" d="m332.9314 343.06335l-5.625 0l0 -35.84375q-2.03125 1.9375 -5.328125 3.875q-3.296875 1.9375 -5.921875 2.90625l0 -5.4375q4.71875 -2.21875 8.25 -5.375q3.53125 -3.15625 5.0 -6.125l3.625 0l0 46.0z" fill-rule="nonzero"/><path fill="#dd7e6b" d="m242.70866 141.63649l0 0c0 -42.973846 37.445908 -77.811035 83.6378 -77.811035c46.191864 0 83.63779 34.837185 83.63779 77.811035c0 42.97383 -37.445923 77.81102 -83.63779 77.81102c-46.191895 0 -83.6378 -34.83719 -83.6378 -77.81102z" fill-rule="evenodd"/><path fill="#b06455" d="m290.8391 118.36523c0 -4.476448 3.9006348 -8.105316 8.71228 -8.105316c4.8116455 0 8.71225 3.628868 8.71225 8.105316c0 4.4764404 -3.9006042 8.105309 -8.71225 8.105309c-4.8116455 0 -8.71228 -3.628868 -8.71228 -8.105309m53.59015 0c0 -4.476448 3.9006042 -8.105316 8.71228 -8.105316c4.8116455 0 8.71225 3.628868 8.71225 8.105316c0 4.4764404 -3.9006042 8.105309 -8.71225 8.105309c-4.811676 0 -8.71228 -3.628868 -8.71228 -8.105309" fill-rule="evenodd"/><path fill="#000000" fill-opacity="0.0" d="m281.01422 175.57039q45.332245 28.96437 90.55859 0" fill-rule="evenodd"/><path fill="#000000" fill-opacity="0.0" d="m242.70866 141.63649l0 0c0 -42.973846 37.445908 -77.811035 83.6378 -77.811035c46.191864 0 83.63779 34.837185 83.63779 77.811035c0 42.97383 -37.445923 77.81102 -83.63779 77.81102c-46.191895 0 -83.6378 -34.83719 -83.6378 -77.81102z" fill-rule="evenodd"/><path stroke="#980000" stroke-width="4.0" stroke-linejoin="round" stroke-linecap="butt" d="m290.8391 118.36523c0 -4.476448 3.9006348 -8.105316 8.71228 -8.105316c4.8116455 0 8.71225 3.628868 8.71225 8.105316c0 4.4764404 -3.9006042 8.105309 -8.71225 8.105309c-4.8116455 0 -8.71228 -3.628868 -8.71228 -8.105309m53.59015 0c0 -4.476448 3.9006042 -8.105316 8.71228 -8.105316c4.8116455 0 8.71225 3.628868 8.71225 8.105316c0 4.4764404 -3.9006042 8.105309 -8.71225 8.105309c-4.811676 0 -8.71228 -3.628868 -8.71228 -8.105309" fill-rule="evenodd"/><path stroke="#980000" stroke-width="4.0" stroke-linejoin="round" stroke-linecap="butt" d="m281.01422 175.57039q45.332245 28.96437 90.55859 0" fill-rule="evenodd"/><path stroke="#980000" stroke-width="4.0" stroke-linejoin="round" stroke-linecap="butt" d="m242.70866 141.63649l0 0c0 -42.973846 37.445908 -77.811035 83.6378 -77.811035c46.191864 0 83.63779 34.837185 83.63779 77.811035c0 42.97383 -37.445923 77.81102 -83.63779 77.81102c-46.191895 0 -83.6378 -34.83719 -83.6378 -77.81102z" fill-rule="evenodd"/><path fill="#ffffff" d="m20.587927 107.72441l203.90552 0l0 159.002l-31.801163 31.801147l-172.10435 0z" fill-rule="evenodd"/><path fill="#cbcbcb" d="m192.69228 298.52756l6.3602295 -25.440918l25.440933 -6.3602295z" fill-rule="evenodd"/><path fill="#000000" fill-opacity="0.0" d="m192.69228 298.52756l6.3602295 -25.440918l25.440933 -6.3602295l-31.801163 31.801147l-172.10435 0l0 -190.80315l203.90552 0l0 159.002" fill-rule="evenodd"/><path stroke="#999999" stroke-width="4.0" stroke-linejoin="round" stroke-linecap="butt" d="m192.69228 298.52756l6.3602295 -25.440918l25.440933 -6.3602295l-31.801163 31.801147l-172.10435 0l0 -190.80315l203.90552 0l0 159.002" fill-rule="evenodd"/><path fill="#000000" d="m60.62662 162.80441l-6.59375 0l0 -12.703125q0 -4.03125 -0.421875 -5.21875q-0.421875 -1.1875 -1.375 -1.84375q-0.9375 -0.65625 -2.28125 -0.65625q-1.703125 0 -3.0625 0.9375q-1.359375 0.9375 -1.875 2.484375q-0.5 1.546875 -0.5 5.71875l0 11.28125l-6.578125 0l0 -24.890625l6.109375 0l0 3.65625q3.265625 -4.21875 8.203125 -4.21875q2.1875 0 3.984375 0.78125q1.8125 0.78125 2.734375 2.0q0.921875 1.21875 1.28125 2.765625q0.375 1.546875 0.375 4.4375l0 15.46875zm5.1484413 -12.796875q0 -3.28125 1.609375 -6.34375q1.625 -3.078125 4.59375 -4.6875q2.96875 -1.625 6.625 -1.625q5.640625 0 9.25 3.671875q3.609375 3.65625 3.609375 9.265625q0 5.640625 -3.640625 9.359375q-3.640625 3.71875 -9.171875 3.71875q-3.421875 0 -6.53125 -1.546875q-3.109375 -1.546875 -4.734375 -4.53125q-1.609375 -3.0 -1.609375 -7.28125zm6.75 0.34375q0 3.703125 1.75 5.671875q1.765625 1.96875 4.34375 1.96875q2.578125 0 4.328125 -1.96875q1.75 -1.96875 1.75 -5.71875q0 -3.65625 -1.75 -5.625q-1.75 -1.96875 -4.328125 -1.96875q-2.578125 0 -4.34375 1.96875q-1.75 1.96875 -1.75 5.671875zm23.601562 -12.4375l6.078125 0l0 3.390625q3.25 -3.953125 7.75 -3.953125q2.390625 0 4.140625 0.984375q1.765625 0.984375 2.890625 2.96875q1.640625 -1.984375 3.53125 -2.96875q1.90625 -0.984375 4.0625 -0.984375q2.75 0 4.6406174 1.109375q1.90625 1.109375 2.84375 3.265625q0.671875 1.59375 0.671875 5.15625l0 15.921875l-6.5781174 0l0 -14.234375q0 -3.703125 -0.6875 -4.78125q-0.90625 -1.40625 -2.8125 -1.40625q-1.375 0 -2.59375 0.84375q-1.21875 0.84375 -1.765625 2.484375q-0.53125 1.625 -0.53125 5.140625l0 11.953125l-6.59375 0l0 -13.640625q0 -3.640625 -0.359375 -4.6875q-0.34375 -1.0625 -1.078125 -1.578125q-0.734375 -0.515625 -2.0 -0.515625q-1.53125 0 -2.75 0.828125q-1.21875 0.8125 -1.75 2.359375q-0.515625 1.546875 -0.515625 5.140625l0 12.09375l-6.59375 0l0 -24.890625zm42.89843 24.890625l0 -34.359375l6.578125 0l0 12.375q3.046875 -3.46875 7.21875 -3.46875q4.546875 0 7.515625 3.296875q2.984375 3.28125 2.984375 9.453125q0 6.375 -3.03125 9.828125q-3.03125 3.4375 -7.375 3.4375q-2.125 0 -4.203125 -1.0625q-2.078125 -1.078125 -3.578125 -3.15625l0 3.65625l-6.109375 0zm6.53125 -12.984375q0 3.859375 1.21875 5.71875q1.71875 2.625 4.546875 2.625q2.1875 0 3.71875 -1.859375q1.53125 -1.875 1.53125 -5.875q0 -4.265625 -1.546875 -6.15625q-1.546875 -1.890625 -3.953125 -1.890625q-2.375 0 -3.953125 1.84375q-1.5625 1.84375 -1.5625 5.59375zm29.367188 12.984375l-6.578125 0l0 -24.890625l6.109375 0l0 3.53125q1.578125 -2.5 2.828125 -3.296875q1.25 -0.796875 2.84375 -0.796875q2.25 0 4.34375 1.234375l-2.046875 5.75q-1.65625 -1.078125 -3.09375 -1.078125q-1.375 0 -2.34375 0.765625q-0.953125 0.75 -1.515625 2.75q-0.546875 1.984375 -0.546875 8.34375l0 7.6875zm26.789062 -7.921875l6.5625 1.09375q-1.265625 3.609375 -4.0 5.5q-2.71875 1.890625 -6.828125 1.890625q-6.484375 0 -9.609375 -4.25q-2.453125 -3.390625 -2.453125 -8.578125q0 -6.1875 3.234375 -9.6875q3.234375 -3.5 8.171875 -3.5q5.5625 0 8.765625 3.671875q3.21875 3.65625 3.078125 11.234375l-16.5 0q0.0625 2.921875 1.578125 4.5625q1.53125 1.625 3.8125 1.625q1.546875 0 2.59375 -0.84375q1.0625 -0.84375 1.59375 -2.71875zm0.375 -6.65625q-0.0625 -2.859375 -1.46875 -4.34375q-1.40625 -1.5 -3.421875 -1.5q-2.15625 0 -3.5625 1.578125q-1.40625 1.5625 -1.390625 4.265625l9.84375 0z" fill-rule="nonzero"/><path fill="#000000" d="m99.689125 192.21066l0 4.890625l-4.515625 0l0 -3.859375q0 -3.140625 0.75 -4.546875q0.984375 -1.875 3.109375 -2.84375l1.03125 1.640625q-1.28125 0.546875 -1.890625 1.609375q-0.609375 1.0625 -0.6875 3.109375l2.203125 0zm7.265625 0l0 4.890625l-4.515625 0l0 -3.859375q0 -3.140625 0.75 -4.546875q0.984375 -1.875 3.109375 -2.84375l1.03125 1.640625q-1.28125 0.546875 -1.890625 1.609375q-0.609375 1.0625 -0.6875 3.109375l2.203125 0zm14.625 24.8125l0.609375 3.734375q-1.78125 0.375 -3.1875 0.375q-2.296875 0 -3.5625 -0.71875q-1.265625 -0.734375 -1.78125 -1.921875q-0.515625 -1.1875 -0.515625 -4.984375l0 -14.3125l-3.09375 0l0 -3.28125l3.09375 0l0 -6.171875l4.203125 -2.53125l0 8.703125l4.234375 0l0 3.28125l-4.234375 0l0 14.546875q0 1.8125 0.21875 2.328125q0.21875 0.515625 0.71875 0.828125q0.515625 0.296875 1.453125 0.296875q0.703125 0 1.84375 -0.171875zm13.33593 0l0.609375 3.734375q-1.78125 0.375 -3.1875 0.375q-2.296875 0 -3.5625 -0.71875q-1.2656174 -0.734375 -1.7812424 -1.921875q-0.515625 -1.1875 -0.515625 -4.984375l0 -14.3125l-3.09375 0l0 -3.28125l3.09375 0l0 -6.171875l4.2031174 -2.53125l0 8.703125l4.234375 0l0 3.28125l-4.234375 0l0 14.546875q0 1.8125 0.21875 2.328125q0.21875 0.515625 0.71875 0.828125q0.515625 0.296875 1.453125 0.296875q0.703125 0 1.84375 -0.171875zm3.0078125 -26.03125l0 -4.90625l4.515625 0l0 3.875q0 3.140625 -0.71875 4.515625q-1.015625 1.90625 -3.140625 2.859375l-1.03125 -1.65625q1.265625 -0.515625 1.875 -1.625q0.625 -1.125 0.703125 -3.0625l-2.203125 0zm7.265625 0l0 -4.90625l4.515625 0l0 3.875q0 3.140625 -0.71875 4.515625q-1.015625 1.90625 -3.140625 2.859375l-1.03125 -1.65625q1.265625 -0.515625 1.875 -1.625q0.625 -1.125 0.703125 -3.0625l-2.203125 0z" fill-rule="nonzero"/><path fill="#000000" fill-opacity="0.0" d="m232.3937 774.20605l79.46457 -26.771667" fill-rule="evenodd"/><path stroke="#980000" stroke-width="16.0" stroke-linejoin="round" stroke-linecap="butt" d="m232.3937 774.20605l79.46457 -26.771667" fill-rule="evenodd"/><path fill="#000000" fill-opacity="0.0" d="m234.25197 1040.0669l105.00789 0" fill-rule="evenodd"/><path stroke="#980000" stroke-width="16.0" stroke-linejoin="round" stroke-linecap="butt" d="m234.25197 1040.0669l105.00789 0" fill-rule="evenodd"/><path fill="#000000" fill-opacity="0.0" d="m238.89502 900.58923l100.37796 0" fill-rule="evenodd"/><path stroke="#980000" stroke-width="16.0" stroke-linejoin="round" stroke-linecap="butt" d="m238.89502 900.58923l100.37796 0" fill-rule="evenodd"/><path fill="#dd7e6b" d="m44.48819 1040.0669l0 0c0 -42.008423 42.480072 -76.06293 94.88188 -76.06293l0 0c52.401825 0 94.8819 34.054504 94.8819 76.06293l0 0c0 42.008423 -42.480072 76.06299 -94.8819 76.06299l0 0c-52.40181 0 -94.88188 -34.054565 -94.88188 -76.06299z" fill-rule="evenodd"/><path stroke="#980000" stroke-width="4.0" stroke-linejoin="round" stroke-linecap="butt" d="m44.48819 1040.0669l0 0c0 -42.008423 42.480072 -76.06293 94.88188 -76.06293l0 0c52.401825 0 94.8819 34.054504 94.8819 76.06293l0 0c0 42.008423 -42.480072 76.06299 -94.8819 76.06299l0 0c-52.40181 0 -94.88188 -34.054565 -94.88188 -76.06299z" fill-rule="evenodd"/><path fill="#000000" d="m115.95211 1066.6938l0 -43.90631l9.296875 0l0 3.484436l-5.078125 0l0 36.921875l5.078125 0l0 3.5l-9.296875 0zm27.960945 -9.546875l-4.21875 0l0 -26.890625q-1.53125 1.453125 -4.0 2.90625q-2.46875 1.453125 -4.4375 2.1875l0 -4.078125q3.53125 -1.671875 6.171875 -4.03125q2.65625 -2.375 3.765625 -4.593811l2.71875 0l0 34.50006zm19.023438 9.546875l-9.296875 0l0 -3.5l5.078125 0l0 -36.921875l-5.078125 0l0 -3.484436l9.296875 0l0 43.90631z" fill-rule="nonzero"/><path fill="#dd7e6b" d="m49.131233 900.58923l0 0c0 -42.008423 42.480072 -76.06299 94.88189 -76.06299l0 0c52.401825 0 94.8819 34.054565 94.8819 76.06299l0 0c0 42.008423 -42.480072 76.06299 -94.8819 76.06299l0 0c-52.401817 0 -94.88189 -34.054565 -94.88189 -76.06299z" fill-rule="evenodd"/><path stroke="#980000" stroke-width="4.0" stroke-linejoin="round" stroke-linecap="butt" d="m49.131233 900.58923l0 0c0 -42.008423 42.480072 -76.06299 94.88189 -76.06299l0 0c52.401825 0 94.8819 34.054565 94.8819 76.06299l0 0c0 42.008423 -42.480072 76.06299 -94.8819 76.06299l0 0c-52.401817 0 -94.88189 -34.054565 -94.88189 -76.06299z" fill-rule="evenodd"/><path fill="#000000" d="m120.59515 927.2161l0 -43.90625l9.296875 0l0 3.484375l-5.078125 0l0 36.921875l5.078125 0l0 3.5l-9.296875 0zm12.0703125 -26.5q0 -6.09375 1.25 -9.796875q1.25 -3.71875 3.71875 -5.734375q2.484375 -2.015625 6.234375 -2.015625q2.765625 0 4.84375 1.109375q2.09375 1.109375 3.453125 3.21875q1.359375 2.09375 2.125 5.109375q0.78125 3.0 0.78125 8.109375q0 6.046875 -1.25 9.765625q-1.234375 3.71875 -3.71875 5.75q-2.46875 2.03125 -6.234375 2.03125q-4.96875 0 -7.8125 -3.578125q-3.390625 -4.28125 -3.390625 -13.96875zm4.328125 0q0 8.46875 1.984375 11.265625q1.984375 2.796875 4.890625 2.796875q2.90625 0 4.875 -2.8125q1.984375 -2.8125 1.984375 -11.25q0 -8.484375 -1.984375 -11.265625q-1.96875 -2.796875 -4.921875 -2.796875q-2.90625 0 -4.640625 2.46875q-2.1875 3.140625 -2.1875 11.59375zm30.585938 26.5l-9.296875 0l0 -3.5l5.078125 0l0 -36.921875l-5.078125 0l0 -3.484375l9.296875 0l0 43.90625z" fill-rule="nonzero"/><path fill="#dd7e6b" d="m55.637794 774.20605l0 0c0 -43.608765 39.56816 -78.96063 88.37795 -78.96063l0 0c48.8098 0 88.37796 35.351868 88.37796 78.96063l0 0c0 43.608704 -39.56816 78.96063 -88.37796 78.96063l0 0c-48.80979 0 -88.37795 -35.35193 -88.37795 -78.96063z" fill-rule="evenodd"/><path stroke="#980000" stroke-width="4.0" stroke-linejoin="round" stroke-linecap="butt" d="m55.637794 774.20605l0 0c0 -43.608765 39.56816 -78.96063 88.37795 -78.96063l0 0c48.8098 0 88.37796 35.351868 88.37796 78.96063l0 0c0 43.608704 -39.56816 78.96063 -88.37796 78.96063l0 0c-48.80979 0 -88.37795 -35.35193 -88.37795 -78.96063z" fill-rule="evenodd"/><path fill="#000000" d="m120.172 720.95856l0 -8.125l8.78125 0l0 8.125l-8.78125 0zm0 37.6875l0 -33.1875l8.78125 0l0 33.1875l-8.78125 0zm48.21875 0l-8.15625 0l0 -4.875q-2.03125 2.84375 -4.796875 4.234375q-2.765625 1.390625 -5.578125 1.390625q-5.71875 0 -9.796875 -4.609375q-4.078125 -4.609375 -4.078125 -12.859375q0 -8.4375 3.96875 -12.828125q3.96875 -4.390625 10.03125 -4.390625q5.5625 0 9.625 4.625l0 -16.5l8.78125 0l0 45.8125zm-23.4375 -17.3125q0 5.3125 1.46875 7.6875q2.125 3.4375 5.9375 3.4375q3.03125 0 5.15625 -2.578125q2.125 -2.578125 2.125 -7.703125q0 -5.71875 -2.0625 -8.234375q-2.0625 -2.515625 -5.28125 -2.515625q-3.125 0 -5.234375 2.484375q-2.109375 2.484375 -2.109375 7.421875z" fill-rule="nonzero"/><path fill="#000000" d="m146.90637 835.64606l0 -10.96875l-19.875 0l0 -5.15625l20.90625 -29.6875l4.59375 0l0 29.6875l6.1875 0l0 5.15625l-6.1875 0l0 10.96875l-5.625 0zm0 -16.125l0 -20.65625l-14.34375 20.65625l14.34375 0z" fill-rule="nonzero"/><path fill="#dd7e6b" d="m72.0 641.55774l0 0c0 -36.407288 30.162613 -65.921265 67.37007 -65.921265c37.207474 0 67.37009 29.513977 67.37009 65.921265c0 36.407288 -30.162613 65.921265 -67.37009 65.921265c-37.20746 0 -67.37007 -29.513977 -67.37007 -65.921265z" fill-rule="evenodd"/><path fill="#b06455" d="m110.76898 621.8424c0 -3.7924194 3.141945 -6.8668213 7.017723 -6.8668213c3.8757782 0 7.0177155 3.0744019 7.0177155 6.8668213c0 3.7924194 -3.1419373 6.8668213 -7.0177155 6.8668213c-3.8757782 0 -7.017723 -3.0744019 -7.017723 -6.8668213m43.166763 0c0 -3.7924194 3.1419373 -6.8668213 7.0177155 -6.8668213c3.8757782 0 7.0177155 3.0744019 7.0177155 6.8668213c0 3.7924194 -3.1419373 6.8668213 -7.0177155 6.8668213c-3.8757782 0 -7.0177155 -3.0744019 -7.0177155 -6.8668213" fill-rule="evenodd"/><path fill="#000000" fill-opacity="0.0" d="m102.85506 670.30646q36.515015 24.538513 72.94476 0" fill-rule="evenodd"/><path fill="#000000" fill-opacity="0.0" d="m72.0 641.55774l0 0c0 -36.407288 30.162613 -65.921265 67.37007 -65.921265c37.207474 0 67.37009 29.513977 67.37009 65.921265c0 36.407288 -30.162613 65.921265 -67.37009 65.921265c-37.20746 0 -67.37007 -29.513977 -67.37007 -65.921265z" fill-rule="evenodd"/><path stroke="#980000" stroke-width="4.0" stroke-linejoin="round" stroke-linecap="butt" d="m110.76898 621.8424c0 -3.7924194 3.141945 -6.8668213 7.017723 -6.8668213c3.8757782 0 7.0177155 3.0744019 7.0177155 6.8668213c0 3.7924194 -3.1419373 6.8668213 -7.0177155 6.8668213c-3.8757782 0 -7.017723 -3.0744019 -7.017723 -6.8668213m43.166763 0c0 -3.7924194 3.1419373 -6.8668213 7.0177155 -6.8668213c3.8757782 0 7.0177155 3.0744019 7.0177155 6.8668213c0 3.7924194 -3.1419373 6.8668213 -7.0177155 6.8668213c-3.8757782 0 -7.0177155 -3.0744019 -7.0177155 -6.8668213" fill-rule="evenodd"/><path stroke="#980000" stroke-width="4.0" stroke-linejoin="round" stroke-linecap="butt" d="m102.85506 670.30646q36.515015 24.538513 72.94476 0" fill-rule="evenodd"/><path stroke="#980000" stroke-width="4.0" stroke-linejoin="round" stroke-linecap="butt" d="m72.0 641.55774l0 0c0 -36.407288 30.162613 -65.921265 67.37007 -65.921265c37.207474 0 67.37009 29.513977 67.37009 65.921265c0 36.407288 -30.162613 65.921265 -67.37009 65.921265c-37.20746 0 -67.37007 -29.513977 -67.37007 -65.921265z" fill-rule="evenodd"/><path fill="#000000" fill-opacity="0.0" d="m50.341206 560.51575l0 0c21.604336 0 39.118114 16.21643 39.118114 36.22046l-39.118114 0z" fill-rule="evenodd"/><path fill="#000000" fill-opacity="0.0" d="m50.341206 560.51575l0 0c21.604336 0 39.118114 16.21643 39.118114 36.22046" fill-rule="evenodd"/><path stroke="#980000" stroke-width="8.0" stroke-linejoin="round" stroke-linecap="butt" d="m50.341206 560.51575l0 0c21.604336 0 39.118114 16.21643 39.118114 36.22046" fill-rule="evenodd"/><g mask="url(#mask-p.1)"><use xlink:href="#p.1" transform="matrix(1.0 0.0 0.0 -1.0 0.0 1205.4724409448818)"/></g><defs><mask id="mask-p.1" maskUnits="userSpaceOnUse" x="183.9737532808399" y="604.7362204724409" width="47.1181102362205" height="44.220472440944945"><linearGradient gradientUnits="userSpaceOnUse" id="gradient-p.1" x1="183.97375328145733" y1="604.7360499053494" x2="183.97370525796876" y2="618.0022433347377"><stop offset="0%" stop-color="#ffffff" stop-opacity="1.0"/><stop offset="100%" stop-color="#ffffff" stop-opacity="0.0"/></linearGradient><rect fill="url(#gradient-p.1)" x="183.9737532808399" y="604.7362204724409" width="47.1181102362205" height="44.220472440944945"/></mask></defs><g id="p.1"><path fill="#000000" fill-opacity="0.0" d="m227.09186 560.51575l0 0c-21.604324 0 -39.118103 16.21643 -39.118103 36.22046l39.118103 0z" fill-rule="evenodd"/><path fill="#000000" fill-opacity="0.0" d="m227.09186 560.51575l0 0c-21.604324 0 -39.118103 16.21643 -39.118103 36.22046" fill-rule="evenodd"/><path stroke="#980000" stroke-width="8.0" stroke-linejoin="round" stroke-linecap="butt" d="m227.09186 560.51575l0 0c-21.604324 0 -39.118103 16.21643 -39.118103 36.22046" fill-rule="evenodd"/></g><path fill="#000000" fill-opacity="0.0" d="m1100.2124 632.3032l94.456665 -32.06299" fill-rule="evenodd"/><path stroke="#ff0000" stroke-width="16.0" stroke-linejoin="round" stroke-linecap="butt" d="m1100.2124 632.3032l94.456665 -32.06299" fill-rule="evenodd"/><path fill="#000000" fill-opacity="0.0" d="m937.0708 376.95456l0 0c8.5877075 0 16.721924 1.4376526 22.159546 3.9165344c5.437622 2.4788513 7.60437 5.7371216 5.90271 8.876282l-28.062256 -2.1156616z" fill-rule="evenodd"/><path fill="#000000" fill-opacity="0.0" d="m937.0708 376.95456l0 0c8.5877075 0 16.721924 1.4376526 22.159546 3.9165344c5.437622 2.4788513 7.60437 5.7371216 5.90271 8.876282" fill-rule="evenodd"/><path stroke="#000000" stroke-width="8.0" stroke-linejoin="round" stroke-linecap="butt" d="m937.0708 376.95456l0 0c8.5877075 0 16.721924 1.4376526 22.159546 3.9165344c5.437622 2.4788513 7.60437 5.7371216 5.90271 8.876282" fill-rule="evenodd"/><path fill="#000000" fill-opacity="0.0" d="m1116.6146 399.6062l0 0c-0.18615723 -3.086792 3.2196045 -6.05249 9.338989 -8.132111c6.119385 -2.0796204 14.353027 -3.069519 22.577026 -2.7143555l-3.293335 10.606293z" fill-rule="evenodd"/><path fill="#000000" fill-opacity="0.0" d="m1116.6146 399.6062l0 0c-0.18615723 -3.086792 3.2196045 -6.05249 9.338989 -8.132111c6.119385 -2.0796204 14.353027 -3.069519 22.577026 -2.7143555" fill-rule="evenodd"/><path stroke="#000000" stroke-width="8.0" stroke-linejoin="round" stroke-linecap="butt" d="m1116.6146 399.6062l0 0c-0.18615723 -3.086792 3.2196045 -6.05249 9.338989 -8.132111c6.119385 -2.0796204 14.353027 -3.069519 22.577026 -2.7143555" fill-rule="evenodd"/><path fill="#0000ff" d="m931.16815 750.3531l0 0c0 -47.60956 45.645813 -86.20477 101.9527 -86.20477l0 0c56.307007 0 101.95276 38.595215 101.95276 86.20477l0 0c0 47.609497 -45.645752 86.20471 -101.95276 86.20471l0 0c-56.306885 0 -101.9527 -38.595215 -101.9527 -86.20471z" fill-rule="evenodd"/><path stroke="#ff0000" stroke-width="4.0" stroke-linejoin="round" stroke-linecap="butt" d="m931.16815 750.3531l0 0c0 -47.60956 45.645813 -86.20477 101.9527 -86.20477l0 0c56.307007 0 101.95276 38.595215 101.95276 86.20477l0 0c0 47.609497 -45.645752 86.20471 -101.95276 86.20471l0 0c-56.306885 0 -101.9527 -38.595215 -101.9527 -86.20471z" fill-rule="evenodd"/><path fill="#0000ff" d="m938.23883 694.00525l0 0c0 -48.19226 42.480103 -87.25983 94.8819 -87.25983l0 0c52.401855 0 94.88196 39.067566 94.88196 87.25983l0 0c0 48.19226 -42.480103 87.25983 -94.88196 87.25983l0 0c-52.401794 0 -94.8819 -39.067566 -94.8819 -87.25983z" fill-rule="evenodd"/><path stroke="#ff0000" stroke-width="4.0" stroke-linejoin="round" stroke-linecap="butt" d="m938.23883 694.00525l0 0c0 -48.19226 42.480103 -87.25983 94.8819 -87.25983l0 0c52.401855 0 94.88196 39.067566 94.88196 87.25983l0 0c0 48.19226 -42.480103 87.25983 -94.88196 87.25983l0 0c-52.401794 0 -94.8819 -39.067566 -94.8819 -87.25983z" fill-rule="evenodd"/><path fill="#ffffff" d="m1009.277 640.75775l0 -8.125l8.78125 0l0 8.125l-8.78125 0zm0 37.6875l0 -33.1875l8.78125 0l0 33.1875l-8.78125 0zm48.21875 0l-8.15625 0l0 -4.875q-2.03125 2.84375 -4.796875 4.234375q-2.765625 1.390625 -5.578125 1.390625q-5.71875 0 -9.796875 -4.609375q-4.078125 -4.609375 -4.078125 -12.859375q0 -8.4375 3.96875 -12.828125q3.96875 -4.390625 10.03125 -4.390625q5.5625 0 9.625 4.625l0 -16.5l8.78125 0l0 45.8125zm-23.4375 -17.3125q0 5.3125 1.46875 7.6875q2.125 3.4375 5.9375 3.4375q3.03125 0 5.15625 -2.578125q2.125 -2.578125 2.125 -7.703125q0 -5.71875 -2.0625 -8.234375q-2.0625 -2.515625 -5.28125 -2.515625q-3.125 0 -5.234375 2.484375q-2.109375 2.484375 -2.109375 7.421875z" fill-rule="nonzero"/><path fill="#ffffff" d="m1047.5426 750.039l0 5.40625l-30.28125 0q-0.0625 -2.03125 0.65625 -3.90625q1.15625 -3.09375 3.703125 -6.09375q2.546875 -3.0 7.359375 -6.9375q7.46875 -6.125 10.09375 -9.703125q2.625 -3.578125 2.625 -6.765625q0 -3.34375 -2.390625 -5.640625q-2.390625 -2.296875 -6.234375 -2.296875q-4.0625 0 -6.5 2.4375q-2.4375 2.4375 -2.46875 6.75l-5.78125 -0.59375q0.59375 -6.46875 4.46875 -9.859375q3.875 -3.390625 10.40625 -3.390625q6.59375 0 10.4375 3.65625q3.84375 3.65625 3.84375 9.0625q0 2.75 -1.125 5.40625q-1.125 2.65625 -3.734375 5.59375q-2.609375 2.9375 -8.671875 8.0625q-5.0625 4.25 -6.5 5.765625q-1.4375 1.515625 -2.375 3.046875l22.46875 0z" fill-rule="nonzero"/><path fill="#ff0000" d="m853.0735 501.9172l0 0c0 -63.143127 80.609924 -114.33072 180.04724 -114.33072c99.43738 0 180.04724 51.18759 180.04724 114.33072c0 63.143097 -80.60986 114.33072 -180.04724 114.33072c-99.43732 0 -180.04724 -51.187622 -180.04724 -114.33072z" fill-rule="evenodd"/><path fill="#cb0000" d="m956.684 467.72385c0 -6.577423 8.396851 -11.909454 18.754944 -11.909454c10.358032 0 18.754883 5.3320312 18.754883 11.909454c0 6.5773926 -8.396851 11.909454 -18.754883 11.909454c-10.358093 0 -18.754944 -5.332062 -18.754944 -11.909454m115.36359 0c0 -6.577423 8.396851 -11.909454 18.754883 -11.909454c10.358154 0 18.755005 5.3320312 18.755005 11.909454c0 6.5773926 -8.396851 11.909454 -18.755005 11.909454c-10.358032 0 -18.754883 -5.332062 -18.754883 -11.909454" fill-rule="evenodd"/><path fill="#000000" fill-opacity="0.0" d="m935.53394 551.7776q97.58679 42.55847 194.94568 0" fill-rule="evenodd"/><path fill="#000000" fill-opacity="0.0" d="m853.0735 501.9172l0 0c0 -63.143127 80.609924 -114.33072 180.04724 -114.33072c99.43738 0 180.04724 51.18759 180.04724 114.33072c0 63.143097 -80.60986 114.33072 -180.04724 114.33072c-99.43732 0 -180.04724 -51.187622 -180.04724 -114.33072z" fill-rule="evenodd"/><path stroke="#000000" stroke-width="4.0" stroke-linejoin="round" stroke-linecap="butt" d="m956.684 467.72385c0 -6.577423 8.396851 -11.909454 18.754944 -11.909454c10.358032 0 18.754883 5.3320312 18.754883 11.909454c0 6.5773926 -8.396851 11.909454 -18.754883 11.909454c-10.358093 0 -18.754944 -5.332062 -18.754944 -11.909454m115.36359 0c0 -6.577423 8.396851 -11.909454 18.754883 -11.909454c10.358154 0 18.755005 5.3320312 18.755005 11.909454c0 6.5773926 -8.396851 11.909454 -18.755005 11.909454c-10.358032 0 -18.754883 -5.332062 -18.754883 -11.909454" fill-rule="evenodd"/><path stroke="#000000" stroke-width="4.0" stroke-linejoin="round" stroke-linecap="butt" d="m935.53394 551.7776q97.58679 42.55847 194.94568 0" fill-rule="evenodd"/><path stroke="#000000" stroke-width="4.0" stroke-linejoin="round" stroke-linecap="butt" d="m853.0735 501.9172l0 0c0 -63.143127 80.609924 -114.33072 180.04724 -114.33072c99.43738 0 180.04724 51.18759 180.04724 114.33072c0 63.143097 -80.60986 114.33072 -180.04724 114.33072c-99.43732 0 -180.04724 -51.187622 -180.04724 -114.33072z" fill-rule="evenodd"/><path fill="#000000" fill-opacity="0.0" d="m1032.068 1177.5828l139.59058 -41.29138" fill-rule="evenodd"/><path stroke="#980000" stroke-width="16.0" stroke-linejoin="round" stroke-linecap="butt" d="m1032.068 1177.5828l139.59058 -41.29138" fill-rule="evenodd"/><path fill="#000000" fill-opacity="0.0" d="m850.07605 942.25507l0 0c8.5877075 0 16.721924 1.4376831 22.159546 3.916565c5.437622 2.4788208 7.60437 5.7371216 5.90271 8.876282l-28.062256 -2.1156616z" fill-rule="evenodd"/><path fill="#000000" fill-opacity="0.0" d="m850.07605 942.25507l0 0c8.5877075 0 16.721924 1.4376831 22.159546 3.916565c5.437622 2.4788208 7.60437 5.7371216 5.90271 8.876282" fill-rule="evenodd"/><path stroke="#980000" stroke-width="8.0" stroke-linejoin="round" stroke-linecap="butt" d="m850.07605 942.25507l0 0c8.5877075 0 16.721924 1.4376831 22.159546 3.916565c5.437622 2.4788208 7.60437 5.7371216 5.90271 8.876282" fill-rule="evenodd"/><path fill="#000000" fill-opacity="0.0" d="m1059.8666 953.1718l0 0c-0.18615723 -3.086792 3.2196045 -6.05249 9.338989 -8.13208c6.119385 -2.0796509 14.353027 -3.06958 22.577148 -2.7144165l-3.293457 10.606323z" fill-rule="evenodd"/><path fill="#000000" fill-opacity="0.0" d="m1059.8666 953.1718l0 0c-0.18615723 -3.086792 3.2196045 -6.05249 9.338989 -8.13208c6.119385 -2.0796509 14.353027 -3.06958 22.577148 -2.7144165" fill-rule="evenodd"/><path stroke="#980000" stroke-width="8.0" stroke-linejoin="round" stroke-linecap="butt" d="m1059.8666 953.1718l0 0c-0.18615723 -3.086792 3.2196045 -6.05249 9.338989 -8.13208c6.119385 -2.0796509 14.353027 -3.06958 22.577148 -2.7144165" fill-rule="evenodd"/><path fill="#3c78d8" d="m851.1824 1291.2688l0 0c0 -49.749146 50.947937 -90.07886 113.79529 -90.07886l0 0c62.847412 0 113.79529 40.329712 113.79529 90.07886l0 0c0 49.749023 -50.947876 90.078735 -113.79529 90.078735l0 0c-62.84735 0 -113.79529 -40.329712 -113.79529 -90.078735z" fill-rule="evenodd"/><path stroke="#073763" stroke-width="4.0" stroke-linejoin="round" stroke-linecap="butt" d="m851.1824 1291.2688l0 0c0 -49.749146 50.947937 -90.07886 113.79529 -90.07886l0 0c62.847412 0 113.79529 40.329712 113.79529 90.07886l0 0c0 49.749023 -50.947876 90.078735 -113.79529 90.078735l0 0c-62.84735 0 -113.79529 -40.329712 -113.79529 -90.078735z" fill-rule="evenodd"/><path fill="#ffffff" d="m1171.6587 1056.0867l277.44885 0l0 133.67395l-26.735474 26.735474l-250.71338 0z" fill-rule="evenodd"/><path fill="#cbcbcb" d="m1422.3721 1216.4961l5.347168 -21.388428l21.388306 -5.347046z" fill-rule="evenodd"/><path fill="#000000" fill-opacity="0.0" d="m1422.3721 1216.4961l5.347168 -21.388428l21.388306 -5.347046l-26.735474 26.735474l-250.71338 0l0 -160.40942l277.44885 0l0 133.67395" fill-rule="evenodd"/><path stroke="#999999" stroke-width="4.0" stroke-linejoin="round" stroke-linecap="butt" d="m1422.3721 1216.4961l5.347168 -21.388428l21.388306 -5.347046l-26.735474 26.735474l-250.71338 0l0 -160.40942l277.44885 0l0 133.67395" fill-rule="evenodd"/><path fill="#000000" d="m1248.4691 1111.1666l-6.59375 0l0 -12.703125q0 -4.03125 -0.421875 -5.21875q-0.421875 -1.1875 -1.375 -1.84375q-0.9375 -0.65625 -2.28125 -0.65625q-1.703125 0 -3.0625 0.9375q-1.359375 0.9375 -1.875 2.484375q-0.5 1.546875 -0.5 5.71875l0 11.28125l-6.578125 0l0 -24.890625l6.109375 0l0 3.65625q3.265625 -4.21875 8.203125 -4.21875q2.1875 0 3.984375 0.78125q1.8125 0.78125 2.734375 2.0q0.921875 1.21875 1.28125 2.765625q0.375 1.546875 0.375 4.4375l0 15.46875zm5.1484375 -12.796875q0 -3.28125 1.609375 -6.34375q1.625 -3.078125 4.59375 -4.6875q2.96875 -1.625 6.625 -1.625q5.640625 0 9.25 3.671875q3.609375 3.65625 3.609375 9.265625q0 5.640625 -3.640625 9.359375q-3.640625 3.71875 -9.171875 3.71875q-3.421875 0 -6.53125 -1.546875q-3.109375 -1.546875 -4.734375 -4.53125q-1.609375 -3.0 -1.609375 -7.28125zm6.75 0.34375q0 3.703125 1.75 5.671875q1.765625 1.96875 4.34375 1.96875q2.578125 0 4.328125 -1.96875q1.75 -1.96875 1.75 -5.71875q0 -3.65625 -1.75 -5.625q-1.75 -1.96875 -4.328125 -1.96875q-2.578125 0 -4.34375 1.96875q-1.75 1.96875 -1.75 5.671875zm23.601562 -12.4375l6.078125 0l0 3.390625q3.25 -3.953125 7.75 -3.953125q2.390625 0 4.140625 0.984375q1.765625 0.984375 2.890625 2.96875q1.640625 -1.984375 3.53125 -2.96875q1.90625 -0.984375 4.0625 -0.984375q2.75 0 4.640625 1.109375q1.90625 1.109375 2.84375 3.265625q0.671875 1.59375 0.671875 5.15625l0 15.921875l-6.578125 0l0 -14.234375q0 -3.703125 -0.6875 -4.78125q-0.90625 -1.40625 -2.8125 -1.40625q-1.375 0 -2.59375 0.84375q-1.21875 0.84375 -1.765625 2.484375q-0.53125 1.625 -0.53125 5.140625l0 11.953125l-6.59375 0l0 -13.640625q0 -3.640625 -0.359375 -4.6875q-0.34375 -1.0625 -1.078125 -1.578125q-0.734375 -0.515625 -2.0 -0.515625q-1.53125 0 -2.75 0.828125q-1.21875 0.8125 -1.75 2.359375q-0.515625 1.546875 -0.515625 5.140625l0 12.09375l-6.59375 0l0 -24.890625zm42.898438 24.890625l0 -34.359375l6.578125 0l0 12.375q3.046875 -3.46875 7.21875 -3.46875q4.546875 0 7.515625 3.296875q2.984375 3.28125 2.984375 9.453125q0 6.375 -3.03125 9.828125q-3.03125 3.4375 -7.375 3.4375q-2.125 0 -4.203125 -1.0625q-2.078125 -1.078125 -3.578125 -3.15625l0 3.65625l-6.109375 0zm6.53125 -12.984375q0 3.859375 1.21875 5.71875q1.71875 2.625 4.546875 2.625q2.1875 0 3.71875 -1.859375q1.53125 -1.875 1.53125 -5.875q0 -4.265625 -1.546875 -6.15625q-1.546875 -1.890625 -3.953125 -1.890625q-2.375 0 -3.953125 1.84375q-1.5625 1.84375 -1.5625 5.59375zm29.367188 12.984375l-6.578125 0l0 -24.890625l6.109375 0l0 3.53125q1.578125 -2.5 2.828125 -3.296875q1.25 -0.796875 2.84375 -0.796875q2.25 0 4.34375 1.234375l-2.046875 5.75q-1.65625 -1.078125 -3.09375 -1.078125q-1.375 0 -2.34375 0.765625q-0.953125 0.75 -1.515625 2.75q-0.546875 1.984375 -0.546875 8.34375l0 7.6875zm26.789062 -7.921875l6.5625 1.09375q-1.265625 3.609375 -4.0 5.5q-2.71875 1.890625 -6.828125 1.890625q-6.484375 0 -9.609375 -4.25q-2.453125 -3.390625 -2.453125 -8.578125q0 -6.1875 3.234375 -9.6875q3.234375 -3.5 8.171875 -3.5q5.5625 0 8.765625 3.671875q3.21875 3.65625 3.078125 11.234375l-16.5 0q0.0625 2.921875 1.578125 4.5625q1.53125 1.625 3.8125 1.625q1.546875 0 2.59375 -0.84375q1.0625 -0.84375 1.59375 -2.71875zm0.375 -6.65625q-0.0625 -2.859375 -1.46875 -4.34375q-1.40625 -1.5 -3.421875 -1.5q-2.15625 0 -3.5625 1.578125q-1.40625 1.5625 -1.390625 4.265625l9.84375 0z" fill-rule="nonzero"/><path fill="#000000" d="m1188.7894 1140.5729l0 4.890625l-4.515625 0l0 -3.859375q0 -3.140625 0.75 -4.546875q0.984375 -1.875 3.109375 -2.84375l1.03125 1.640625q-1.28125 0.546875 -1.890625 1.609375q-0.609375 1.0625 -0.6875 3.109375l2.203125 0zm7.265625 0l0 4.890625l-4.515625 0l0 -3.859375q0 -3.140625 0.75 -4.546875q0.984375 -1.875 3.109375 -2.84375l1.03125 1.640625q-1.28125 0.546875 -1.890625 1.609375q-0.609375 1.0625 -0.6875 3.109375l2.203125 0zm10.015625 28.59375l-7.625 -24.890625l4.359375 0l3.96875 14.359375l1.46875 5.34375q0.09375 -0.390625 1.296875 -5.125l3.953125 -14.578125l4.34375 0l3.71875 14.4375l1.25 4.75l1.421875 -4.796875l4.265625 -14.390625l4.109375 0l-7.78125 24.890625l-4.390625 0l-3.953125 -14.90625l-0.96875 -4.25l-5.03125 19.15625l-4.40625 0zm28.492188 -12.453125q0 -6.90625 3.84375 -10.234375q3.21875 -2.765625 7.828125 -2.765625q5.140625 0 8.390625 3.359375q3.265625 3.359375 3.265625 9.296875q0 4.796875 -1.453125 7.5625q-1.4375 2.75 -4.1875 4.28125q-2.75 1.515625 -6.015625 1.515625q-5.21875 0 -8.453125 -3.34375q-3.21875 -3.359375 -3.21875 -9.671875zm4.34375 0q0 4.78125 2.078125 7.171875q2.09375 2.375 5.25 2.375q3.140625 0 5.21875 -2.390625q2.09375 -2.390625 2.09375 -7.296875q0 -4.609375 -2.09375 -6.984375q-2.09375 -2.390625 -5.21875 -2.390625q-3.15625 0 -5.25 2.375q-2.078125 2.359375 -2.078125 7.140625zm23.929688 12.453125l0 -24.890625l3.796875 0l0 3.53125q2.734375 -4.09375 7.921875 -4.09375q2.25 0 4.125 0.8125q1.890625 0.796875 2.828125 2.109375q0.9375 1.3125 1.3125 3.125q0.234375 1.171875 0.234375 4.09375l0 15.3125l-4.21875 0l0 -15.140625q0 -2.578125 -0.5 -3.859375q-0.484375 -1.28125 -1.734375 -2.03125q-1.25 -0.765625 -2.9375 -0.765625q-2.703125 0 -4.65625 1.71875q-1.953125 1.703125 -1.953125 6.484375l0 13.59375l-4.21875 0zm42.835938 0l0 -3.140625q-2.359375 3.703125 -6.953125 3.703125q-2.984375 0 -5.484375 -1.640625q-2.484375 -1.640625 -3.859375 -4.578125q-1.375 -2.953125 -1.375 -6.765625q0 -3.734375 1.234375 -6.765625q1.25 -3.03125 3.734375 -4.640625q2.484375 -1.625 5.5625 -1.625q2.25 0 4.0 0.953125q1.765625 0.9375 2.859375 2.46875l0 -12.328125l4.203125 0l0 34.359375l-3.921875 0zm-13.328125 -12.421875q0 4.78125 2.015625 7.15625q2.015625 2.359375 4.75 2.359375q2.765625 0 4.703125 -2.265625q1.9375 -2.265625 1.9375 -6.90625q0 -5.109375 -1.96875 -7.5q-1.96875 -2.390625 -4.859375 -2.390625q-2.8125 0 -4.703125 2.296875q-1.875 2.296875 -1.875 7.25zm40.914062 4.40625l4.359375 0.53125q-1.03125 3.828125 -3.828125 5.9375q-2.78125 2.109375 -7.109375 2.109375q-5.46875 0 -8.671875 -3.359375q-3.1875 -3.375 -3.1875 -9.4375q0 -6.28125 3.234375 -9.75q3.234375 -3.46875 8.390625 -3.46875q4.984375 0 8.140625 3.40625q3.171875 3.390625 3.171875 9.546875q0 0.375 -0.015625 1.125l-18.5625 0q0.234375 4.109375 2.3125 6.296875q2.09375 2.171875 5.203125 2.171875q2.328125 0 3.96875 -1.21875q1.640625 -1.21875 2.59375 -3.890625zm-13.84375 -6.828125l13.890625 0q-0.28125 -3.140625 -1.59375 -4.703125q-2.015625 -2.4375 -5.21875 -2.4375q-2.90625 0 -4.890625 1.953125q-1.984375 1.9375 -2.1875 5.1875zm23.460938 14.84375l0 -24.890625l3.796875 0l0 3.765625q1.453125 -2.640625 2.671875 -3.484375q1.234375 -0.84375 2.71875 -0.84375q2.125 0 4.328125 1.359375l-1.453125 3.90625q-1.546875 -0.90625 -3.09375 -0.90625q-1.375 0 -2.484375 0.828125q-1.09375 0.828125 -1.5625 2.3125q-0.703125 2.25 -0.703125 4.921875l0 13.03125l-4.21875 0zm32.265625 -3.078125q-2.34375 2.0 -4.515625 2.828125q-2.15625 0.8125 -4.640625 0.8125q-4.109375 0 -6.3125 -2.0q-2.203125 -2.015625 -2.203125 -5.125q0 -1.828125 0.828125 -3.34375q0.84375 -1.515625 2.1875 -2.421875q1.34375 -0.921875 3.03125 -1.390625q1.25 -0.328125 3.75 -0.625q5.109375 -0.609375 7.53125 -1.453125q0.015625 -0.875 0.015625 -1.109375q0 -2.578125 -1.1875 -3.625q-1.625 -1.4375 -4.8125 -1.4375q-2.96875 0 -4.390625 1.046875q-1.421875 1.046875 -2.09375 3.6875l-4.125 -0.5625q0.5625 -2.640625 1.84375 -4.265625q1.296875 -1.640625 3.734375 -2.515625q2.4375 -0.875 5.640625 -0.875q3.1875 0 5.171875 0.75q2.0 0.75 2.9375 1.890625q0.9375 1.125 1.3125 2.859375q0.21875 1.078125 0.21875 3.890625l0 5.625q0 5.890625 0.265625 7.453125q0.265625 1.546875 1.0625 2.984375l-4.40625 0q-0.65625 -1.3125 -0.84375 -3.078125zm-0.34375 -9.421875q-2.296875 0.9375 -6.890625 1.59375q-2.609375 0.375 -3.6875 0.84375q-1.078125 0.46875 -1.671875 1.375q-0.578125 0.90625 -0.578125 2.0q0 1.6875 1.28125 2.8125q1.28125 1.125 3.734375 1.125q2.4375 0 4.328125 -1.0625q1.90625 -1.0625 2.796875 -2.921875q0.6875 -1.421875 0.6875 -4.21875l0 -1.546875zm10.8046875 12.5l0 -24.890625l3.796875 0l0 3.53125q2.734375 -4.09375 7.921875 -4.09375q2.25 0 4.125 0.8125q1.890625 0.796875 2.828125 2.109375q0.9375 1.3125 1.3125 3.125q0.234375 1.171875 0.234375 4.09375l0 15.3125l-4.21875 0l0 -15.140625q0 -2.578125 -0.5 -3.859375q-0.484375 -1.28125 -1.734375 -2.03125q-1.25 -0.765625 -2.9375 -0.765625q-2.703125 0 -4.65625 1.71875q-1.953125 1.703125 -1.953125 6.484375l0 13.59375l-4.21875 0zm35.898438 -3.78125l0.609375 3.734375q-1.78125 0.375 -3.1875 0.375q-2.296875 0 -3.5625 -0.71875q-1.265625 -0.734375 -1.78125 -1.921875q-0.515625 -1.1875 -0.515625 -4.984375l0 -14.3125l-3.09375 0l0 -3.28125l3.09375 0l0 -6.171875l4.203125 -2.53125l0 8.703125l4.234375 0l0 3.28125l-4.234375 0l0 14.546875q0 1.8125 0.21875 2.328125q0.21875 0.515625 0.71875 0.828125q0.515625 0.296875 1.453125 0.296875q0.703125 0 1.84375 -0.171875zm3.0078125 -26.03125l0 -4.90625l4.515625 0l0 3.875q0 3.140625 -0.71875 4.515625q-1.015625 1.90625 -3.140625 2.859375l-1.03125 -1.65625q1.265625 -0.515625 1.875 -1.625q0.625 -1.125 0.703125 -3.0625l-2.203125 0zm7.265625 0l0 -4.90625l4.515625 0l0 3.875q0 3.140625 -0.71875 4.515625q-1.015625 1.90625 -3.140625 2.859375l-1.03125 -1.65625q1.265625 -0.515625 1.875 -1.625q0.625 -1.125 0.703125 -3.0625l-2.203125 0z" fill-rule="nonzero"/><path fill="#ffffff" d="m311.84515 671.3635l139.8425 0l0 128.81842l-23.307556 23.307556l-116.53494 0z" fill-rule="evenodd"/><path fill="#cbcbcb" d="m428.3801 823.4895l4.6615295 -18.646057l18.646027 -4.661499z" fill-rule="evenodd"/><path fill="#000000" fill-opacity="0.0" d="m428.3801 823.4895l4.6615295 -18.646057l18.646027 -4.661499l-23.307556 23.307556l-116.53494 0l0 -152.12598l139.8425 0l0 128.81842" fill-rule="evenodd"/><path stroke="#999999" stroke-width="4.0" stroke-linejoin="round" stroke-linecap="butt" d="m428.3801 823.4895l4.6615295 -18.646057l18.646027 -4.661499l-23.307556 23.307556l-116.53494 0l0 -152.12598l139.8425 0l0 128.81842" fill-rule="evenodd"/><path fill="#000000" d="m324.65118 726.1727l0 -28.640625l5.484375 0l0 28.640625l-5.484375 0zm23.128906 -6.609375l5.46875 0.921875q-1.0625 3.015625 -3.34375 4.59375q-2.265625 1.5625 -5.6875 1.5625q-5.40625 0 -8.0 -3.53125q-2.0625 -2.84375 -2.0625 -7.15625q0 -5.15625 2.6875 -8.078125q2.703125 -2.921875 6.828125 -2.921875q4.625 0 7.296875 3.0625q2.6875 3.0625 2.5625 9.359375l-13.75 0q0.0625 2.453125 1.328125 3.8125q1.28125 1.34375 3.171875 1.34375q1.28125 0 2.15625 -0.703125q0.890625 -0.703125 1.34375 -2.265625zm0.3125 -5.546875q-0.0625 -2.375 -1.234375 -3.609375q-1.171875 -1.25 -2.859375 -1.25q-1.796875 0 -2.96875 1.3125q-1.171875 1.3125 -1.140625 3.546875l8.203125 0zm28.777344 12.15625l-5.484375 0l0 -10.59375q0 -3.359375 -0.359375 -4.34375q-0.34375 -0.984375 -1.140625 -1.53125q-0.78125 -0.546875 -1.890625 -0.546875q-1.4375 0 -2.578125 0.78125q-1.125 0.78125 -1.546875 2.078125q-0.40625 1.28125 -0.40625 4.765625l0 9.390625l-5.5 0l0 -20.75l5.109375 0l0 3.046875q2.703125 -3.515625 6.828125 -3.515625q1.8125 0 3.3125 0.65625q1.515625 0.65625 2.28125 1.671875q0.78125 1.015625 1.078125 2.3125q0.296875 1.28125 0.296875 3.6875l0 12.890625zm5.0585938 1.375l6.28125 0.75q0.15625 1.09375 0.71875 1.515625q0.78125 0.578125 2.453125 0.578125q2.15625 0 3.234375 -0.640625q0.71875 -0.4375 1.09375 -1.390625q0.25 -0.6875 0.25 -2.515625l0 -3.03125q-2.46875 3.359375 -6.21875 3.359375q-4.171875 0 -6.609375 -3.53125q-1.921875 -2.796875 -1.921875 -6.953125q0 -5.21875 2.5 -7.96875q2.515625 -2.765625 6.25 -2.765625q3.84375 0 6.34375 3.390625l0 -2.921875l5.140625 0l0 18.625q0 3.671875 -0.609375 5.484375q-0.59375 1.8125 -1.6875 2.84375q-1.09375 1.046875 -2.921875 1.625q-1.828125 0.59375 -4.625 0.59375q-5.265625 0 -7.484375 -1.8125q-2.203125 -1.796875 -2.203125 -4.578125q0 -0.265625 0.015625 -0.65625zm4.90625 -12.171875q0 3.296875 1.28125 4.828125q1.28125 1.53125 3.15625 1.53125q2.015625 0 3.390625 -1.5625q1.390625 -1.578125 1.390625 -4.671875q0 -3.21875 -1.328125 -4.78125q-1.328125 -1.5625 -3.359375 -1.5625q-1.96875 0 -3.25 1.53125q-1.28125 1.53125 -1.28125 4.6875zm29.558594 -9.953125l0 4.375l-3.75 0l0 8.359375q0 2.546875 0.09375 2.96875q0.109375 0.421875 0.484375 0.703125q0.390625 0.265625 0.9375 0.265625q0.765625 0 2.203125 -0.53125l0.46875 4.25q-1.90625 0.828125 -4.328125 0.828125q-1.484375 0 -2.6875 -0.5q-1.1875 -0.5 -1.75 -1.28125q-0.546875 -0.796875 -0.765625 -2.140625q-0.171875 -0.96875 -0.171875 -3.875l0 -9.046875l-2.515625 0l0 -4.375l2.515625 0l0 -4.109375l5.515625 -3.203125l0 7.3125l3.75 0zm9.2734375 -7.890625l0 10.53125q2.65625 -3.109375 6.34375 -3.109375q1.890625 0 3.40625 0.703125q1.53125 0.703125 2.296875 1.796875q0.78125 1.09375 1.0625 2.421875q0.28125 1.328125 0.28125 4.125l0 12.171875l-5.484375 0l0 -10.953125q0 -3.265625 -0.3125 -4.140625q-0.3125 -0.890625 -1.109375 -1.40625q-0.78125 -0.515625 -1.96875 -0.515625q-1.375 0 -2.453125 0.671875q-1.0625 0.65625 -1.5625 2.0q-0.5 1.328125 -0.5 3.953125l0 10.390625l-5.484375 0l0 -28.640625l5.484375 0z" fill-rule="nonzero"/><path fill="#000000" d="m390.784 770.7977l0 3.375l-18.921875 0q-0.046875 -1.265625 0.40625 -2.4375q0.71875 -1.9375 2.3125 -3.8125q1.59375 -1.875 4.59375 -4.34375q4.671875 -3.828125 6.3125 -6.0625q1.640625 -2.234375 1.640625 -4.21875q0 -2.09375 -1.5 -3.53125q-1.484375 -1.4375 -3.890625 -1.4375q-2.53125 0 -4.0625 1.53125q-1.515625 1.515625 -1.546875 4.21875l-3.609375 -0.375q0.375 -4.046875 2.796875 -6.15625q2.421875 -2.125 6.5 -2.125q4.125 0 6.515625 2.28125q2.40625 2.28125 2.40625 5.671875q0 1.71875 -0.703125 3.375q-0.703125 1.65625 -2.328125 3.5q-1.625 1.828125 -5.421875 5.03125q-3.15625 2.65625 -4.0625 3.609375q-0.890625 0.9375 -1.484375 1.90625l14.046875 0z" fill-rule="nonzero"/><path fill="#cfe2f3" d="m339.27298 852.327l0 0c0 -6.2564697 5.0718384 -11.328369 11.328308 -11.328369l45.31186 0l0 0c3.0044556 0 5.8858643 1.1935425 8.010345 3.3179932c2.1244507 2.1245117 3.3179626 5.0059204 3.3179626 8.010376l0 96.524475c0 6.2564087 -5.0718384 11.328308 -11.328308 11.328308l-45.31186 0c-6.2564697 0 -11.328308 -5.0718994 -11.328308 -11.328308z" fill-rule="evenodd"/><path stroke="#000000" stroke-width="16.0" stroke-linejoin="round" stroke-linecap="butt" d="m339.27298 852.327l0 0c0 -6.2564697 5.0718384 -11.328369 11.328308 -11.328369l45.31186 0l0 0c3.0044556 0 5.8858643 1.1935425 8.010345 3.3179932c2.1244507 2.1245117 3.3179626 5.0059204 3.3179626 8.010376l0 96.524475c0 6.2564087 -5.0718384 11.328308 -11.328308 11.328308l-45.31186 0c-6.2564697 0 -11.328308 -5.0718994 -11.328308 -11.328308z" fill-rule="evenodd"/><path fill="#000000" d="m387.6791 909.3504l0 5.40625l-30.28125 0q-0.0625 -2.03125 0.65625 -3.90625q1.15625 -3.09375 3.703125 -6.09375q2.546875 -3.0 7.359375 -6.9375q7.46875 -6.125 10.09375 -9.703125q2.625 -3.578125 2.625 -6.765625q0 -3.34375 -2.390625 -5.640625q-2.390625 -2.296875 -6.234375 -2.296875q-4.0625 0 -6.5 2.4375q-2.4375 2.4375 -2.46875 6.75l-5.78125 -0.59375q0.59375 -6.46875 4.46875 -9.859375q3.875 -3.390625 10.40625 -3.390625q6.59375 0 10.4375 3.65625q3.84375 3.65625 3.84375 9.0625q0 2.75 -1.125 5.40625q-1.125 2.65625 -3.734375 5.59375q-2.609375 2.9375 -8.671875 8.0625q-5.0625 4.25 -6.5 5.765625q-1.4375 1.515625 -2.375 3.046875l22.46875 0z" fill-rule="nonzero"/><path fill="#cfe2f3" d="m339.27298 991.8047l0 0c0 -6.2564697 5.0718384 -11.328308 11.328308 -11.328308l45.31186 0l0 0c3.0044556 0 5.8858643 1.1935425 8.010345 3.3179932c2.1244507 2.1244507 3.3179626 5.0058594 3.3179626 8.010315l0 96.524536c0 6.2563477 -5.0718384 11.328247 -11.328308 11.328247l-45.31186 0c-6.2564697 0 -11.328308 -5.0718994 -11.328308 -11.328247z" fill-rule="evenodd"/><path stroke="#000000" stroke-width="16.0" stroke-linejoin="round" stroke-linecap="butt" d="m339.27298 991.8047l0 0c0 -6.2564697 5.0718384 -11.328308 11.328308 -11.328308l45.31186 0l0 0c3.0044556 0 5.8858643 1.1935425 8.010345 3.3179932c2.1244507 2.1244507 3.3179626 5.0058594 3.3179626 8.010315l0 96.524536c0 6.2563477 -5.0718384 11.328247 -11.328308 11.328247l-45.31186 0c-6.2564697 0 -11.328308 -5.0718994 -11.328308 -11.328247z" fill-rule="evenodd"/><path fill="#000000" d="m358.14786 1042.1406l5.625 -0.75q0.96875 4.78125 3.296875 6.890625q2.328125 2.109375 5.671875 2.109375q3.96875 0 6.703125 -2.75q2.734375 -2.75 2.734375 -6.8125q0 -3.875 -2.53125 -6.390625q-2.53125 -2.515625 -6.4375 -2.515625q-1.59375 0 -3.96875 0.625l0.625 -4.9375q0.5625 0.0625 0.90625 0.0625q3.59375 0 6.46875 -1.875q2.875 -1.875061 2.875 -5.781311q0 -3.09375 -2.09375 -5.125q-2.09375 -2.03125 -5.40625 -2.03125q-3.28125 0 -5.46875 2.0625q-2.1875 2.0625 -2.8125 6.1875l-5.625 -1.0q1.03125 -5.65625 4.6875 -8.765625q3.65625 -3.109375 9.09375 -3.109375q3.75 0 6.90625 1.609375q3.15625 1.609375 4.828125 4.390625q1.671875 2.78125 1.671875 5.90625q0 2.96875 -1.59375 5.406311q-1.59375 2.4375 -4.71875 3.875q4.0625 0.9375 6.3125 3.890625q2.25 2.953125 2.25 7.390625q0 6.0 -4.375 10.171875q-4.375 4.171875 -11.0625 4.171875q-6.03125 0 -10.015625 -3.59375q-3.984375 -3.59375 -4.546875 -9.3125z" fill-rule="nonzero"/><path fill="#cfe2f3" d="m491.8189 184.10825l0 0c0 -17.563293 14.237854 -31.801163 31.801147 -31.801163l140.30322 0c8.434143 0 16.522888 3.3504791 22.486816 9.314346c5.963867 5.9638824 9.314331 14.052628 9.314331 22.486816l0 127.200836c0 17.563293 -14.237854 31.801147 -31.801147 31.801147l-140.30322 0c-17.563293 0 -31.801147 -14.237854 -31.801147 -31.801147z" fill-rule="evenodd"/><path stroke="#000000" stroke-width="16.0" stroke-linejoin="round" stroke-linecap="butt" d="m491.8189 184.10825l0 0c0 -17.563293 14.237854 -31.801163 31.801147 -31.801163l140.30322 0c8.434143 0 16.522888 3.3504791 22.486816 9.314346c5.963867 5.9638824 9.314331 14.052628 9.314331 22.486816l0 127.200836c0 17.563293 -14.237854 31.801147 -31.801147 31.801147l-140.30322 0c-17.563293 0 -31.801147 -14.237854 -31.801147 -31.801147z" fill-rule="evenodd"/><path fill="#000000" d="m538.89667 198.87383l0 7.0l-6.0 0l0 13.375q0 4.0625 0.171875 4.734375q0.171875 0.671875 0.78125 1.109375q0.609375 0.4375 1.484375 0.4375q1.21875 0 3.53125 -0.84375l0.75 6.8125q-3.0625 1.3125 -6.9375 1.3125q-2.375 0 -4.28125 -0.796875q-1.90625 -0.796875 -2.796875 -2.0625q-0.890625 -1.265625 -1.234375 -3.421875q-0.28125 -1.53125 -0.28125 -6.1875l0 -14.46875l-4.03125 0l0 -7.0l4.03125 0l0 -6.59375l8.8125 -5.125l0 11.71875l6.0 0zm6.09375 -4.5l0 -8.125l8.78125 0l0 8.125l-8.78125 0zm0 37.6875l0 -33.1875l8.78125 0l0 33.1875l-8.78125 0zm37.0 -10.5625l8.75 1.46875q-1.6875 4.8125 -5.328125 7.328125q-3.640625 2.515625 -9.109375 2.515625q-8.65625 0 -12.8125 -5.65625q-3.28125 -4.53125 -3.28125 -11.4375q0 -8.25 4.3125 -12.921875q4.3125 -4.671875 10.90625 -4.671875q7.40625 0 11.6875 4.890625q4.28125 4.890625 4.09375 14.984375l-22.0 0q0.09375 3.90625 2.125 6.078125q2.03125 2.171875 5.0625 2.171875q2.0625 0 3.46875 -1.125q1.40625 -1.125 2.125 -3.625zm0.5 -8.875q-0.09375 -3.8125 -1.96875 -5.796875q-1.875 -1.984375 -4.5625 -1.984375q-2.875 0 -4.75 2.09375q-1.875 2.09375 -1.84375 5.6875l13.125 0zm46.0625 19.4375l-8.78125 0l0 -16.9375q0 -5.375 -0.5625 -6.953125q-0.5625 -1.578125 -1.828125 -2.453125q-1.265625 -0.875 -3.046875 -0.875q-2.28125 0 -4.09375 1.25q-1.8125 1.25 -2.484375 3.3125q-0.671875 2.0625 -0.671875 7.625l0 15.03125l-8.78125 0l0 -33.1875l8.15625 0l0 4.875q4.34375 -5.625 10.9375 -5.625q2.90625 0 5.3125 1.046875q2.40625 1.046875 3.640625 2.671875q1.234375 1.625 1.71875 3.6875q0.484375 2.0625 0.484375 5.90625l0 20.625zm28.125 -10.5625l8.75 1.46875q-1.6875 4.8125 -5.328125 7.328125q-3.640625 2.515625 -9.109375 2.515625q-8.65625 0 -12.8125 -5.65625q-3.28125 -4.53125 -3.28125 -11.4375q0 -8.25 4.3125 -12.921875q4.3125 -4.671875 10.90625 -4.671875q7.40625 0 11.6875 4.890625q4.28125 4.890625 4.09375 14.984375l-22.0 0q0.09375 3.90625 2.125 6.078125q2.03125 2.171875 5.0625 2.171875q2.0625 0 3.46875 -1.125q1.40625 -1.125 2.125 -3.625zm0.5 -8.875q-0.09375 -3.8125 -1.96875 -5.796875q-1.875 -1.984375 -4.5625 -1.984375q-2.875 0 -4.75 2.09375q-1.875 2.09375 -1.84375 5.6875l13.125 0z" fill-rule="nonzero"/><path fill="#000000" d="m596.6623 309.06134l0 -10.96875l-19.875 0l0 -5.15625l20.90625 -29.6875l4.59375 0l0 29.6875l6.1875 0l0 5.15625l-6.1875 0l0 10.96875l-5.625 0zm0 -16.125l0 -20.65625l-14.34375 20.65625l14.34375 0z" fill-rule="nonzero"/><path fill="#ffffff" d="m1194.6641 534.33466l264.5984 0l0 109.86835l-21.974121 21.974182l-242.62427 0z" fill-rule="evenodd"/><path fill="#cbcbcb" d="m1437.2883 666.1772l4.3947754 -17.579346l17.579346 -4.3948364z" fill-rule="evenodd"/><path fill="#000000" fill-opacity="0.0" d="m1437.2883 666.1772l4.3947754 -17.579346l17.579346 -4.3948364l-21.974121 21.974182l-242.62427 0l0 -131.84253l264.5984 0l0 109.86835" fill-rule="evenodd"/><path stroke="#999999" stroke-width="4.0" stroke-linejoin="round" stroke-linecap="butt" d="m1437.2883 666.1772l4.3947754 -17.579346l17.579346 -4.3948364l-21.974121 21.974182l-242.62427 0l0 -131.84253l264.5984 0l0 109.86835" fill-rule="evenodd"/><path fill="#000000" d="m1265.0492 589.4147l-6.59375 0l0 -12.703125q0 -4.03125 -0.421875 -5.21875q-0.421875 -1.1875 -1.375 -1.84375q-0.9375 -0.65625 -2.28125 -0.65625q-1.703125 0 -3.0625 0.9375q-1.359375 0.9375 -1.875 2.484375q-0.5 1.546875 -0.5 5.71875l0 11.28125l-6.578125 0l0 -24.890625l6.109375 0l0 3.65625q3.265625 -4.21875 8.203125 -4.21875q2.1875 0 3.984375 0.78125q1.8125 0.78125 2.734375 2.0q0.921875 1.21875 1.28125 2.765625q0.375 1.546875 0.375 4.4375l0 15.46875zm5.1484375 -12.796875q0 -3.28125 1.609375 -6.34375q1.625 -3.078125 4.59375 -4.6875q2.96875 -1.625 6.625 -1.625q5.640625 0 9.25 3.671875q3.609375 3.65625 3.609375 9.265625q0 5.640625 -3.640625 9.359375q-3.640625 3.71875 -9.171875 3.71875q-3.421875 0 -6.53125 -1.546875q-3.109375 -1.546875 -4.734375 -4.53125q-1.609375 -3.0 -1.609375 -7.28125zm6.75 0.34375q0 3.703125 1.75 5.671875q1.765625 1.96875 4.34375 1.96875q2.578125 0 4.328125 -1.96875q1.75 -1.96875 1.75 -5.71875q0 -3.65625 -1.75 -5.625q-1.75 -1.96875 -4.328125 -1.96875q-2.578125 0 -4.34375 1.96875q-1.75 1.96875 -1.75 5.671875zm23.601562 -12.4375l6.078125 0l0 3.390625q3.25 -3.953125 7.75 -3.953125q2.390625 0 4.140625 0.984375q1.765625 0.984375 2.890625 2.96875q1.640625 -1.984375 3.53125 -2.96875q1.90625 -0.984375 4.0625 -0.984375q2.75 0 4.640625 1.109375q1.90625 1.109375 2.84375 3.265625q0.671875 1.59375 0.671875 5.15625l0 15.921875l-6.578125 0l0 -14.234375q0 -3.703125 -0.6875 -4.78125q-0.90625 -1.40625 -2.8125 -1.40625q-1.375 0 -2.59375 0.84375q-1.21875 0.84375 -1.765625 2.484375q-0.53125 1.625 -0.53125 5.140625l0 11.953125l-6.59375 0l0 -13.640625q0 -3.640625 -0.359375 -4.6875q-0.34375 -1.0625 -1.078125 -1.578125q-0.734375 -0.515625 -2.0 -0.515625q-1.53125 0 -2.75 0.828125q-1.21875 0.8125 -1.75 2.359375q-0.515625 1.546875 -0.515625 5.140625l0 12.09375l-6.59375 0l0 -24.890625zm42.898438 24.890625l0 -34.359375l6.578125 0l0 12.375q3.046875 -3.46875 7.21875 -3.46875q4.546875 0 7.515625 3.296875q2.984375 3.28125 2.984375 9.453125q0 6.375 -3.03125 9.828125q-3.03125 3.4375 -7.375 3.4375q-2.125 0 -4.203125 -1.0625q-2.078125 -1.078125 -3.578125 -3.15625l0 3.65625l-6.109375 0zm6.53125 -12.984375q0 3.859375 1.21875 5.71875q1.71875 2.625 4.546875 2.625q2.1875 0 3.71875 -1.859375q1.53125 -1.875 1.53125 -5.875q0 -4.265625 -1.546875 -6.15625q-1.546875 -1.890625 -3.953125 -1.890625q-2.375 0 -3.953125 1.84375q-1.5625 1.84375 -1.5625 5.59375zm29.367188 12.984375l-6.578125 0l0 -24.890625l6.109375 0l0 3.53125q1.578125 -2.5 2.828125 -3.296875q1.25 -0.796875 2.84375 -0.796875q2.25 0 4.34375 1.234375l-2.046875 5.75q-1.65625 -1.078125 -3.09375 -1.078125q-1.375 0 -2.34375 0.765625q-0.953125 0.75 -1.515625 2.75q-0.546875 1.984375 -0.546875 8.34375l0 7.6875zm26.789062 -7.921875l6.5625 1.09375q-1.265625 3.609375 -4.0 5.5q-2.71875 1.890625 -6.828125 1.890625q-6.484375 0 -9.609375 -4.25q-2.453125 -3.390625 -2.453125 -8.578125q0 -6.1875 3.234375 -9.6875q3.234375 -3.5 8.171875 -3.5q5.5625 0 8.765625 3.671875q3.21875 3.65625 3.078125 11.234375l-16.5 0q0.0625 2.921875 1.578125 4.5625q1.53125 1.625 3.8125 1.625q1.546875 0 2.59375 -0.84375q1.0625 -0.84375 1.59375 -2.71875zm0.375 -6.65625q-0.0625 -2.859375 -1.46875 -4.34375q-1.40625 -1.5 -3.421875 -1.5q-2.15625 0 -3.5625 1.578125q-1.40625 1.5625 -1.390625 4.265625l9.84375 0z" fill-rule="nonzero"/><path fill="#000000" d="m1218.7172 618.8209l0 4.890625l-4.515625 0l0 -3.859375q0 -3.140625 0.75 -4.546875q0.984375 -1.875 3.109375 -2.84375l1.03125 1.640625q-1.28125 0.546875 -1.890625 1.609375q-0.609375 1.0625 -0.6875 3.109375l2.203125 0zm7.265625 0l0 4.890625l-4.515625 0l0 -3.859375q0 -3.140625 0.75 -4.546875q0.984375 -1.875 3.109375 -2.84375l1.03125 1.640625q-1.28125 0.546875 -1.890625 1.609375q-0.609375 1.0625 -0.6875 3.109375l2.203125 0zm3.734375 21.15625l4.171875 -0.65625q0.34375 2.515625 1.953125 3.859375q1.609375 1.328125 4.484375 1.328125q2.90625 0 4.3125 -1.1875q1.40625 -1.1875 1.40625 -2.78125q0 -1.421875 -1.234375 -2.25q-0.875 -0.5625 -4.3125 -1.421875q-4.640625 -1.171875 -6.4375 -2.03125q-1.796875 -0.859375 -2.71875 -2.359375q-0.921875 -1.515625 -0.921875 -3.34375q0 -1.671875 0.75 -3.078125q0.765625 -1.421875 2.078125 -2.359375q0.984375 -0.734375 2.6875 -1.234375q1.703125 -0.5 3.640625 -0.5q2.9375 0 5.140625 0.84375q2.21875 0.84375 3.265625 2.28125q1.0625 1.4375 1.46875 3.859375l-4.125 0.5625q-0.28125 -1.921875 -1.640625 -3.0q-1.34375 -1.078125 -3.796875 -1.078125q-2.90625 0 -4.15625 0.96875q-1.234375 0.953125 -1.234375 2.234375q0 0.828125 0.515625 1.484375q0.515625 0.671875 1.609375 1.125q0.640625 0.234375 3.734375 1.078125q4.46875 1.1875 6.234375 1.953125q1.78125 0.765625 2.78125 2.21875q1.015625 1.453125 1.015625 3.609375q0 2.109375 -1.234375 3.96875q-1.234375 1.859375 -3.5625 2.890625q-2.3125 1.015625 -5.234375 1.015625q-4.859375 0 -7.40625 -2.015625q-2.53125 -2.015625 -3.234375 -5.984375zm25.6875 16.984375l0 -34.4375l3.84375 0l0 3.234375q1.359375 -1.90625 3.0625 -2.84375q1.71875 -0.953125 4.15625 -0.953125q3.1875 0 5.625 1.640625q2.4375 1.640625 3.671875 4.625q1.25 2.984375 1.25 6.546875q0 3.828125 -1.375 6.890625q-1.375 3.046875 -3.984375 4.6875q-2.609375 1.625 -5.5 1.625q-2.109375 0 -3.78125 -0.890625q-1.671875 -0.890625 -2.75 -2.25l0 12.125l-4.21875 0zm3.8125 -21.859375q0 4.8125 1.9375 7.109375q1.953125 2.296875 4.71875 2.296875q2.8125 0 4.8125 -2.375q2.015625 -2.390625 2.015625 -7.375q0 -4.765625 -1.96875 -7.125q-1.953125 -2.375 -4.671875 -2.375q-2.6875 0 -4.765625 2.53125q-2.078125 2.515625 -2.078125 7.3125zm22.898438 -17.203125l0 -4.84375l4.21875 0l0 4.84375l-4.21875 0zm0 29.515625l0 -24.890625l4.21875 0l0 24.890625l-4.21875 0zm26.789062 0l0 -3.140625q-2.359375 3.703125 -6.953125 3.703125q-2.984375 0 -5.484375 -1.640625q-2.484375 -1.640625 -3.859375 -4.578125q-1.375 -2.953125 -1.375 -6.765625q0 -3.734375 1.234375 -6.765625q1.25 -3.03125 3.734375 -4.640625q2.484375 -1.625 5.5625 -1.625q2.25 0 4.0 0.953125q1.765625 0.9375 2.859375 2.46875l0 -12.328125l4.203125 0l0 34.359375l-3.921875 0zm-13.328125 -12.421875q0 4.78125 2.015625 7.15625q2.015625 2.359375 4.75 2.359375q2.765625 0 4.703125 -2.265625q1.9375 -2.265625 1.9375 -6.90625q0 -5.109375 -1.96875 -7.5q-1.96875 -2.390625 -4.859375 -2.390625q-2.8125 0 -4.703125 2.296875q-1.875 2.296875 -1.875 7.25zm40.914062 4.40625l4.359375 0.53125q-1.03125 3.828125 -3.828125 5.9375q-2.78125 2.109375 -7.109375 2.109375q-5.46875 0 -8.671875 -3.359375q-3.1875 -3.375 -3.1875 -9.4375q0 -6.28125 3.234375 -9.75q3.234375 -3.46875 8.390625 -3.46875q4.984375 0 8.140625 3.40625q3.171875 3.390625 3.171875 9.546875q0 0.375 -0.015625 1.125l-18.5625 0q0.234375 4.109375 2.3125 6.296875q2.09375 2.171875 5.203125 2.171875q2.328125 0 3.96875 -1.21875q1.640625 -1.21875 2.59375 -3.890625zm-13.84375 -6.828125l13.890625 0q-0.28125 -3.140625 -1.59375 -4.703125q-2.015625 -2.4375 -5.21875 -2.4375q-2.90625 0 -4.890625 1.953125q-1.984375 1.9375 -2.1875 5.1875zm23.460938 14.84375l0 -24.890625l3.796875 0l0 3.765625q1.453125 -2.640625 2.671875 -3.484375q1.234375 -0.84375 2.71875 -0.84375q2.125 0 4.328125 1.359375l-1.453125 3.90625q-1.546875 -0.90625 -3.09375 -0.90625q-1.375 0 -2.484375 0.828125q-1.09375 0.828125 -1.5625 2.3125q-0.703125 2.25 -0.703125 4.921875l0 13.03125l-4.21875 0zm32.265625 -3.078125q-2.34375 2.0 -4.515625 2.828125q-2.15625 0.8125 -4.640625 0.8125q-4.109375 0 -6.3125 -2.0q-2.203125 -2.015625 -2.203125 -5.125q0 -1.828125 0.828125 -3.34375q0.84375 -1.515625 2.1875 -2.421875q1.34375 -0.921875 3.03125 -1.390625q1.25 -0.328125 3.75 -0.625q5.109375 -0.609375 7.53125 -1.453125q0.015625 -0.875 0.015625 -1.109375q0 -2.578125 -1.1875 -3.625q-1.625 -1.4375 -4.8125 -1.4375q-2.96875 0 -4.390625 1.046875q-1.421875 1.046875 -2.09375 3.6875l-4.125 -0.5625q0.5625 -2.640625 1.84375 -4.265625q1.296875 -1.640625 3.734375 -2.515625q2.4375 -0.875 5.640625 -0.875q3.1875 0 5.171875 0.75q2.0 0.75 2.9375 1.890625q0.9375 1.125 1.3125 2.859375q0.21875 1.078125 0.21875 3.890625l0 5.625q0 5.890625 0.265625 7.453125q0.265625 1.546875 1.0625 2.984375l-4.40625 0q-0.65625 -1.3125 -0.84375 -3.078125zm-0.34375 -9.421875q-2.296875 0.9375 -6.890625 1.59375q-2.609375 0.375 -3.6875 0.84375q-1.078125 0.46875 -1.671875 1.375q-0.578125 0.90625 -0.578125 2.0q0 1.6875 1.28125 2.8125q1.28125 1.125 3.734375 1.125q2.4375 0 4.328125 -1.0625q1.90625 -1.0625 2.796875 -2.921875q0.6875 -1.421875 0.6875 -4.21875l0 -1.546875zm10.8046875 12.5l0 -24.890625l3.796875 0l0 3.53125q2.734375 -4.09375 7.921875 -4.09375q2.25 0 4.125 0.8125q1.890625 0.796875 2.828125 2.109375q0.9375 1.3125 1.3125 3.125q0.234375 1.171875 0.234375 4.09375l0 15.3125l-4.21875 0l0 -15.140625q0 -2.578125 -0.5 -3.859375q-0.484375 -1.28125 -1.734375 -2.03125q-1.25 -0.765625 -2.9375 -0.765625q-2.703125 0 -4.65625 1.71875q-1.953125 1.703125 -1.953125 6.484375l0 13.59375l-4.21875 0zm35.898438 -3.78125l0.609375 3.734375q-1.78125 0.375 -3.1875 0.375q-2.296875 0 -3.5625 -0.71875q-1.265625 -0.734375 -1.78125 -1.921875q-0.515625 -1.1875 -0.515625 -4.984375l0 -14.3125l-3.09375 0l0 -3.28125l3.09375 0l0 -6.171875l4.203125 -2.53125l0 8.703125l4.234375 0l0 3.28125l-4.234375 0l0 14.546875q0 1.8125 0.21875 2.328125q0.21875 0.515625 0.71875 0.828125q0.515625 0.296875 1.453125 0.296875q0.703125 0 1.84375 -0.171875zm3.0078125 -26.03125l0 -4.90625l4.515625 0l0 3.875q0 3.140625 -0.71875 4.515625q-1.015625 1.90625 -3.140625 2.859375l-1.03125 -1.65625q1.265625 -0.515625 1.875 -1.625q0.625 -1.125 0.703125 -3.0625l-2.203125 0zm7.265625 0l0 -4.90625l4.515625 0l0 3.875q0 3.140625 -0.71875 4.515625q-1.015625 1.90625 -3.140625 2.859375l-1.03125 -1.65625q1.265625 -0.515625 1.875 -1.625q0.625 -1.125 0.703125 -3.0625l-2.203125 0z" fill-rule="nonzero"/><path fill="#cfe2f3" d="m491.4134 571.4862l0 0c0 -17.563293 14.237854 -31.801147 31.801147 -31.801147l296.4922 0c8.434204 0 16.52295 3.3504639 22.486816 9.314331c5.963867 5.963867 9.314331 14.052612 9.314331 22.486816l0 127.200806c0 17.563293 -14.237854 31.801147 -31.801147 31.801147l-296.4922 0c-17.563293 0 -31.801147 -14.237854 -31.801147 -31.801147z" fill-rule="evenodd"/><path stroke="#000000" stroke-width="16.0" stroke-linejoin="round" stroke-linecap="butt" d="m491.4134 571.4862l0 0c0 -17.563293 14.237854 -31.801147 31.801147 -31.801147l296.4922 0c8.434204 0 16.52295 3.3504639 22.486816 9.314331c5.963867 5.963867 9.314331 14.052612 9.314331 22.486816l0 127.200806c0 17.563293 -14.237854 31.801147 -31.801147 31.801147l-296.4922 0c-17.563293 0 -31.801147 -14.237854 -31.801147 -31.801147z" fill-rule="evenodd"/><path fill="#000000" d="m524.6169 586.2518l8.1875 0l0 4.875q1.59375 -2.5 4.3125 -4.0625q2.71875 -1.5625 6.03125 -1.5625q5.78125 0 9.8125 4.53125q4.03125 4.53125 4.03125 12.625q0 8.3125 -4.0625 12.921875q-4.0625 4.609375 -9.84375 4.609375q-2.75 0 -4.984375 -1.09375q-2.234375 -1.09375 -4.703125 -3.75l0 16.71875l-8.78125 0l0 -45.8125zm8.6875 16.03125q0 5.59375 2.21875 8.265625q2.21875 2.671875 5.40625 2.671875q3.0625 0 5.09375 -2.453125q2.03125 -2.453125 2.03125 -8.046875q0 -5.21875 -2.09375 -7.75q-2.09375 -2.53125 -5.1875 -2.53125q-3.21875 0 -5.34375 2.484375q-2.125 2.484375 -2.125 7.359375zm49.875 6.59375l8.75 1.46875q-1.6875 4.8125 -5.328125 7.328125q-3.640625 2.515625 -9.109375 2.515625q-8.65625 0 -12.8125 -5.65625q-3.28125 -4.53125 -3.28125 -11.4375q0 -8.25 4.3125 -12.921875q4.3125 -4.671875 10.90625 -4.671875q7.40625 0 11.6875 4.890625q4.28125 4.890625 4.09375 14.984375l-22.0 0q0.09375 3.90625 2.125 6.078125q2.03125 2.171875 5.0625 2.171875q2.0625 0 3.46875 -1.125q1.40625 -1.125 2.125 -3.625zm0.5 -8.875q-0.09375 -3.8125 -1.96875 -5.796875q-1.875 -1.984375 -4.5625 -1.984375q-2.875 0 -4.75 2.09375q-1.875 2.09375 -1.84375 5.6875l13.125 0zm24.28125 19.4375l-8.78125 0l0 -33.1875l8.15625 0l0 4.71875q2.09375 -3.34375 3.765625 -4.40625q1.671875 -1.0625 3.796875 -1.0625q3.0 0 5.78125 1.65625l-2.71875 7.65625q-2.21875 -1.4375 -4.125 -1.4375q-1.84375 0 -3.125 1.015625q-1.28125 1.015625 -2.015625 3.671875q-0.734375 2.65625 -0.734375 11.125l0 10.25zm31.71875 -33.1875l0 7.0l-6.0 0l0 13.375q0 4.0625 0.171875 4.734375q0.171875 0.671875 0.78125 1.109375q0.609375 0.4375 1.484375 0.4375q1.21875 0 3.53125 -0.84375l0.75 6.8125q-3.0625 1.3125 -6.9375 1.3125q-2.375 0 -4.28125 -0.796875q-1.90625 -0.796875 -2.796875 -2.0625q-0.890625 -1.265625 -1.234375 -3.421875q-0.28125 -1.53125 -0.28125 -6.1875l0 -14.46875l-4.03125 0l0 -7.0l4.03125 0l0 -6.59375l8.8125 -5.125l0 11.71875l6.0 0zm25.3125 22.625l8.75 1.46875q-1.6875 4.8125 -5.328125 7.328125q-3.640625 2.515625 -9.109375 2.515625q-8.65625 0 -12.8125 -5.65625q-3.28125 -4.53125 -3.28125 -11.4375q0 -8.25 4.3125 -12.921875q4.3125 -4.671875 10.90625 -4.671875q7.40625 0 11.6875 4.890625q4.28125 4.890625 4.09375 14.984375l-22.0 0q0.09375 3.90625 2.125 6.078125q2.03125 2.171875 5.0625 2.171875q2.0625 0 3.46875 -1.125q1.40625 -1.125 2.125 -3.625zm0.5 -8.875q-0.09375 -3.8125 -1.96875 -5.796875q-1.875 -1.984375 -4.5625 -1.984375q-2.875 0 -4.75 2.09375q-1.875 2.09375 -1.84375 5.6875l13.125 0zm46.0625 19.4375l-8.78125 0l0 -16.9375q0 -5.375 -0.5625 -6.953125q-0.5625 -1.578125 -1.828125 -2.453125q-1.265625 -0.875 -3.046875 -0.875q-2.28125 0 -4.09375 1.25q-1.8125 1.25 -2.484375 3.3125q-0.671875 2.0625 -0.671875 7.625l0 15.03125l-8.78125 0l0 -33.1875l8.15625 0l0 4.875q4.34375 -5.625 10.9375 -5.625q2.90625 0 5.3125 1.046875q2.40625 1.046875 3.640625 2.671875q1.234375 1.625 1.71875 3.6875q0.484375 2.0625 0.484375 5.90625l0 20.625zm28.125 -10.5625l8.75 1.46875q-1.6875 4.8125 -5.328125 7.328125q-3.640625 2.515625 -9.109375 2.515625q-8.65625 0 -12.8125 -5.65625q-3.28125 -4.53125 -3.28125 -11.4375q0 -8.25 4.3125 -12.921875q4.3125 -4.671875 10.90625 -4.671875q7.40625 0 11.6875 4.890625q4.28125 4.890625 4.09375 14.984375l-22.0 0q0.09375 3.90625 2.125 6.078125q2.03125 2.171875 5.0625 2.171875q2.0625 0 3.46875 -1.125q1.40625 -1.125 2.125 -3.625zm0.5 -8.875q-0.09375 -3.8125 -1.96875 -5.796875q-1.875 -1.984375 -4.5625 -1.984375q-2.875 0 -4.75 2.09375q-1.875 2.09375 -1.84375 5.6875l13.125 0zm44.8125 -3.9375l-8.65625 1.5625q-0.4375 -2.59375 -1.984375 -3.90625q-1.546875 -1.3125 -4.015625 -1.3125q-3.28125 0 -5.234375 2.265625q-1.953125 2.265625 -1.953125 7.578125q0 5.90625 1.984375 8.34375q1.984375 2.4375 5.328125 2.4375q2.5 0 4.09375 -1.421875q1.59375 -1.421875 2.25 -4.890625l8.625 1.46875q-1.34375 5.9375 -5.15625 8.96875q-3.8125 3.03125 -10.21875 3.03125q-7.28125 0 -11.609375 -4.59375q-4.328125 -4.59375 -4.328125 -12.71875q0 -8.21875 4.34375 -12.796875q4.34375 -4.578125 11.75 -4.578125q6.0625 0 9.640625 2.609375q3.578125 2.609375 5.140625 7.953125zm25.875 12.8125l8.75 1.46875q-1.6875 4.8125 -5.328125 7.328125q-3.640625 2.515625 -9.109375 2.515625q-8.65625 0 -12.8125 -5.65625q-3.28125 -4.53125 -3.28125 -11.4375q0 -8.25 4.3125 -12.921875q4.3125 -4.671875 10.90625 -4.671875q7.40625 0 11.6875 4.890625q4.28125 4.890625 4.09375 14.984375l-22.0 0q0.09375 3.90625 2.125 6.078125q2.03125 2.171875 5.0625 2.171875q2.0625 0 3.46875 -1.125q1.40625 -1.125 2.125 -3.625zm0.5 -8.875q-0.09375 -3.8125 -1.96875 -5.796875q-1.875 -1.984375 -4.5625 -1.984375q-2.875 0 -4.75 2.09375q-1.875 2.09375 -1.84375 5.6875l13.125 0z" fill-rule="nonzero"/><path fill="#000000" d="m677.5075 696.4393l-5.625 0l0 -35.84375q-2.03125 1.9375 -5.328125 3.875q-3.296875 1.9375 -5.921875 2.90625l0 -5.4375q4.71875 -2.21875 8.25 -5.375q3.53125 -3.15625 5.0 -6.125l3.625 0l0 46.0z" fill-rule="nonzero"/><path fill="#000000" fill-opacity="0.0" d="m806.4803 1192.2625l91.30713 -14.834595" fill-rule="evenodd"/><path stroke="#980000" stroke-width="16.0" stroke-linejoin="round" stroke-linecap="butt" d="m806.4803 1192.2625l91.30713 -14.834595" fill-rule="evenodd"/><path fill="#cfe2f3" d="m446.38583 1128.6621l0 0c0 -17.563354 14.237854 -31.80127 31.801147 -31.80127l296.49216 0c8.434204 0 16.52295 3.3504639 22.486816 9.314453c5.963867 5.963867 9.314331 14.052612 9.314331 22.486816l0 127.200806c0 17.563232 -14.237854 31.801147 -31.801147 31.801147l-296.49216 0c-17.563293 0 -31.801147 -14.237915 -31.801147 -31.801147z" fill-rule="evenodd"/><path stroke="#000000" stroke-width="16.0" stroke-linejoin="round" stroke-linecap="butt" d="m446.38583 1128.6621l0 0c0 -17.563354 14.237854 -31.80127 31.801147 -31.80127l296.49216 0c8.434204 0 16.52295 3.3504639 22.486816 9.314453c5.963867 5.963867 9.314331 14.052612 9.314331 22.486816l0 127.200806c0 17.563232 -14.237854 31.801147 -31.801147 31.801147l-296.49216 0c-17.563293 0 -31.801147 -14.237915 -31.801147 -31.801147z" fill-rule="evenodd"/><path fill="#000000" d="m479.58932 1143.4276l8.1875 0l0 4.875q1.59375 -2.5 4.3125 -4.0625q2.71875 -1.5625 6.03125 -1.5625q5.78125 0 9.8125 4.53125q4.03125 4.53125 4.03125 12.625q0 8.3125 -4.0625 12.921875q-4.0625 4.609375 -9.84375 4.609375q-2.75 0 -4.984375 -1.09375q-2.234375 -1.09375 -4.703125 -3.75l0 16.71875l-8.78125 0l0 -45.8125zm8.6875 16.03125q0 5.59375 2.21875 8.265625q2.21875 2.671875 5.40625 2.671875q3.0625 0 5.09375 -2.453125q2.03125 -2.453125 2.03125 -8.046875q0 -5.21875 -2.09375 -7.75q-2.09375 -2.53125 -5.1875 -2.53125q-3.21875 0 -5.34375 2.484375q-2.125 2.484375 -2.125 7.359375zm49.87497 6.59375l8.75 1.46875q-1.6875 4.8125 -5.328125 7.328125q-3.640625 2.515625 -9.109375 2.515625q-8.65625 0 -12.8125 -5.65625q-3.28125 -4.53125 -3.28125 -11.4375q0 -8.25 4.3125 -12.921875q4.3125 -4.671875 10.90625 -4.671875q7.40625 0 11.6875 4.890625q4.28125 4.890625 4.09375 14.984375l-22.0 0q0.09375 3.90625 2.125 6.078125q2.03125 2.171875 5.0625 2.171875q2.0625 0 3.46875 -1.125q1.40625 -1.125 2.125 -3.625zm0.5 -8.875q-0.09375 -3.8125 -1.96875 -5.796875q-1.875 -1.984375 -4.5625 -1.984375q-2.875 0 -4.75 2.09375q-1.875 2.09375 -1.84375 5.6875l13.125 0zm24.28125 19.4375l-8.78125 0l0 -33.1875l8.15625 0l0 4.71875q2.09375 -3.34375 3.765625 -4.40625q1.671875 -1.0625 3.796875 -1.0625q3.0 0 5.78125 1.65625l-2.71875 7.65625q-2.21875 -1.4375 -4.125 -1.4375q-1.84375 0 -3.125 1.015625q-1.28125 1.015625 -2.015625 3.671875q-0.734375 2.65625 -0.734375 11.125l0 10.25zm31.71875 -33.1875l0 7.0l-6.0 0l0 13.375q0 4.0625 0.171875 4.734375q0.171875 0.671875 0.78125 1.109375q0.609375 0.4375 1.484375 0.4375q1.21875 0 3.53125 -0.84375l0.75 6.8125q-3.0625 1.3125 -6.9375 1.3125q-2.375 0 -4.28125 -0.796875q-1.90625 -0.796875 -2.796875 -2.0625q-0.890625 -1.265625 -1.234375 -3.421875q-0.28125 -1.53125 -0.28125 -6.1875l0 -14.46875l-4.03125 0l0 -7.0l4.03125 0l0 -6.59375l8.8125 -5.125l0 11.71875l6.0 0zm25.3125 22.625l8.75 1.46875q-1.6875 4.8125 -5.328125 7.328125q-3.640625 2.515625 -9.109375 2.515625q-8.65625 0 -12.8125 -5.65625q-3.28125 -4.53125 -3.28125 -11.4375q0 -8.25 4.3125 -12.921875q4.3125 -4.671875 10.90625 -4.671875q7.40625 0 11.6875 4.890625q4.28125 4.890625 4.09375 14.984375l-22.0 0q0.09375 3.90625 2.125 6.078125q2.03125 2.171875 5.0625 2.171875q2.0625 0 3.46875 -1.125q1.40625 -1.125 2.125 -3.625zm0.5 -8.875q-0.09375 -3.8125 -1.96875 -5.796875q-1.875 -1.984375 -4.5625 -1.984375q-2.875 0 -4.75 2.09375q-1.875 2.09375 -1.84375 5.6875l13.125 0zm46.0625 19.4375l-8.78125 0l0 -16.9375q0 -5.375 -0.5625 -6.953125q-0.5625 -1.578125 -1.828125 -2.453125q-1.265625 -0.875 -3.046875 -0.875q-2.28125 0 -4.09375 1.25q-1.8125 1.25 -2.484375 3.3125q-0.671875 2.0625 -0.671875 7.625l0 15.03125l-8.78125 0l0 -33.1875l8.15625 0l0 4.875q4.34375 -5.625 10.9375 -5.625q2.90625 0 5.3125 1.046875q2.40625 1.046875 3.640625 2.671875q1.234375 1.625 1.71875 3.6875q0.484375 2.0625 0.484375 5.90625l0 20.625zm28.125 -10.5625l8.75 1.46875q-1.6875 4.8125 -5.328125 7.328125q-3.640625 2.515625 -9.109375 2.515625q-8.65625 0 -12.8125 -5.65625q-3.28125 -4.53125 -3.28125 -11.4375q0 -8.25 4.3125 -12.921875q4.3125 -4.671875 10.90625 -4.671875q7.40625 0 11.6875 4.890625q4.28125 4.890625 4.09375 14.984375l-22.0 0q0.09375 3.90625 2.125 6.078125q2.03125 2.171875 5.0625 2.171875q2.0625 0 3.46875 -1.125q1.40625 -1.125 2.125 -3.625zm0.5 -8.875q-0.09375 -3.8125 -1.96875 -5.796875q-1.875 -1.984375 -4.5625 -1.984375q-2.875 0 -4.75 2.09375q-1.875 2.09375 -1.84375 5.6875l13.125 0zm44.8125 -3.9375l-8.65625 1.5625q-0.4375 -2.59375 -1.984375 -3.90625q-1.546875 -1.3125 -4.015625 -1.3125q-3.28125 0 -5.234375 2.265625q-1.953125 2.265625 -1.953125 7.578125q0 5.90625 1.984375 8.34375q1.984375 2.4375 5.328125 2.4375q2.5 0 4.09375 -1.421875q1.59375 -1.421875 2.25 -4.890625l8.625 1.46875q-1.34375 5.9375 -5.15625 8.96875q-3.8125 3.03125 -10.21875 3.03125q-7.28125 0 -11.609375 -4.59375q-4.328125 -4.59375 -4.328125 -12.71875q0 -8.21875 4.34375 -12.796875q4.34375 -4.578125 11.75 -4.578125q6.0625 0 9.640625 2.609375q3.578125 2.609375 5.140625 7.953125zm25.875 12.8125l8.75 1.46875q-1.6875 4.8125 -5.328125 7.328125q-3.640625 2.515625 -9.109375 2.515625q-8.65625 0 -12.8125 -5.65625q-3.28125 -4.53125 -3.28125 -11.4375q0 -8.25 4.3125 -12.921875q4.3125 -4.671875 10.90625 -4.671875q7.40625 0 11.6875 4.890625q4.28125 4.890625 4.09375 14.984375l-22.0 0q0.09375 3.90625 2.125 6.078125q2.03125 2.171875 5.0625 2.171875q2.0625 0 3.46875 -1.125q1.40625 -1.125 2.125 -3.625zm0.5 -8.875q-0.09375 -3.8125 -1.96875 -5.796875q-1.875 -1.984375 -4.5625 -1.984375q-2.875 0 -4.75 2.09375q-1.875 2.09375 -1.84375 5.6875l13.125 0z" fill-rule="nonzero"/><path fill="#000000" d="m632.4799 1253.6151l-5.625 0l0 -35.84375q-2.03125 1.9375 -5.328125 3.875q-3.296875 1.9375 -5.921875 2.90625l0 -5.4375q4.71875 -2.21875 8.25 -5.375q3.53125 -3.15625 5.0 -6.125l3.625 0l0 46.0z" fill-rule="nonzero"/><path fill="#ff0000" d="m870.0945 1239.2848l0 0c0 -48.19226 42.480103 -87.25989 94.8819 -87.25989l0 0c52.401794 0 94.8819 39.067627 94.8819 87.25989l0 0c0 48.19226 -42.480103 87.25989 -94.8819 87.25989l0 0c-52.401794 0 -94.8819 -39.067627 -94.8819 -87.25989z" fill-rule="evenodd"/><path stroke="#660000" stroke-width="4.0" stroke-linejoin="round" stroke-linecap="butt" d="m870.0945 1239.2848l0 0c0 -48.19226 42.480103 -87.25989 94.8819 -87.25989l0 0c52.401794 0 94.8819 39.067627 94.8819 87.25989l0 0c0 48.19226 -42.480103 87.25989 -94.8819 87.25989l0 0c-52.401794 0 -94.8819 -39.067627 -94.8819 -87.25989z" fill-rule="evenodd"/><path fill="#000000" d="m941.1326 1186.0372l0 -8.125l8.78125 0l0 8.125l-8.78125 0zm0 37.6875l0 -33.1875l8.78125 0l0 33.1875l-8.78125 0zm48.21875 0l-8.15625 0l0 -4.875q-2.03125 2.84375 -4.796875 4.234375q-2.765625 1.390625 -5.578125 1.390625q-5.71875 0 -9.796875 -4.609375q-4.078125 -4.609375 -4.078125 -12.859375q0 -8.4375 3.96875 -12.828125q3.96875 -4.390625 10.03125 -4.390625q5.5625 0 9.625 4.625l0 -16.5l8.78125 0l0 45.8125zm-23.4375 -17.3125q0 5.3125 1.46875 7.6875q2.125 3.4375 5.9375 3.4375q3.03125 0 5.15625 -2.578125q2.125 -2.578125 2.125 -7.703125q0 -5.71875 -2.0625 -8.234375q-2.0625 -2.515625 -5.28125 -2.515625q-3.125 0 -5.234375 2.484375q-2.109375 2.484375 -2.109375 7.421875z" fill-rule="nonzero"/><path fill="#000000" d="m949.867 1288.631l5.625 -0.75q0.96875 4.78125 3.296875 6.890625q2.328125 2.109375 5.671875 2.109375q3.96875 0 6.703125 -2.75q2.734375 -2.75 2.734375 -6.8125q0 -3.875 -2.53125 -6.390625q-2.53125 -2.515625 -6.4375 -2.515625q-1.59375 0 -3.96875 0.625l0.625 -4.9375q0.5625 0.0625 0.90625 0.0625q3.59375 0 6.46875 -1.875q2.875 -1.875 2.875 -5.78125q0 -3.09375 -2.09375 -5.125q-2.09375 -2.03125 -5.40625 -2.03125q-3.28125 0 -5.46875 2.0625q-2.1875 2.0625 -2.8125 6.1875l-5.625 -1.0q1.03125 -5.65625 4.6875 -8.765625q3.65625 -3.109375 9.09375 -3.109375q3.75 0 6.90625 1.609375q3.15625 1.609375 4.828125 4.390625q1.671875 2.78125 1.671875 5.90625q0 2.96875 -1.59375 5.40625q-1.59375 2.4375 -4.71875 3.875q4.0625 0.9375 6.3125 3.890625q2.25 2.953125 2.25 7.390625q0 6.0 -4.375 10.171875q-4.375 4.171875 -11.0625 4.171875q-6.03125 0 -10.015625 -3.59375q-3.984375 -3.59375 -4.546875 -9.3125z" fill-rule="nonzero"/><path fill="#dd7e6b" d="m784.9292 1046.618l0 0c0 -63.143066 80.609924 -114.33069 180.04724 -114.33069c99.43738 0 180.04724 51.187622 180.04724 114.33069c0 63.143066 -80.60986 114.33069 -180.04724 114.33069c-99.43732 0 -180.04724 -51.187622 -180.04724 -114.33069z" fill-rule="evenodd"/><path fill="#b06455" d="m888.53973 1012.4247c0 -6.5773926 8.396851 -11.909424 18.754944 -11.909424c10.358032 0 18.754883 5.3320312 18.754883 11.909424c0 6.5774536 -8.396851 11.909424 -18.754883 11.909424c-10.358093 0 -18.754944 -5.33197 -18.754944 -11.909424m115.36359 0c0 -6.5773926 8.396851 -11.909424 18.754944 -11.909424c10.358093 0 18.754944 5.3320312 18.754944 11.909424c0 6.5774536 -8.396851 11.909424 -18.754944 11.909424c-10.358093 0 -18.754944 -5.33197 -18.754944 -11.909424" fill-rule="evenodd"/><path fill="#000000" fill-opacity="0.0" d="m867.38965 1096.4784q97.58679 42.55847 194.94568 0" fill-rule="evenodd"/><path fill="#000000" fill-opacity="0.0" d="m784.9292 1046.618l0 0c0 -63.143066 80.609924 -114.33069 180.04724 -114.33069c99.43738 0 180.04724 51.187622 180.04724 114.33069c0 63.143066 -80.60986 114.33069 -180.04724 114.33069c-99.43732 0 -180.04724 -51.187622 -180.04724 -114.33069z" fill-rule="evenodd"/><path stroke="#980000" stroke-width="4.0" stroke-linejoin="round" stroke-linecap="butt" d="m888.53973 1012.4247c0 -6.5773926 8.396851 -11.909424 18.754944 -11.909424c10.358032 0 18.754883 5.3320312 18.754883 11.909424c0 6.5774536 -8.396851 11.909424 -18.754883 11.909424c-10.358093 0 -18.754944 -5.33197 -18.754944 -11.909424m115.36359 0c0 -6.5773926 8.396851 -11.909424 18.754944 -11.909424c10.358093 0 18.754944 5.3320312 18.754944 11.909424c0 6.5774536 -8.396851 11.909424 -18.754944 11.909424c-10.358093 0 -18.754944 -5.33197 -18.754944 -11.909424" fill-rule="evenodd"/><path stroke="#980000" stroke-width="4.0" stroke-linejoin="round" stroke-linecap="butt" d="m867.38965 1096.4784q97.58679 42.55847 194.94568 0" fill-rule="evenodd"/><path stroke="#980000" stroke-width="4.0" stroke-linejoin="round" stroke-linecap="butt" d="m784.9292 1046.618l0 0c0 -63.143066 80.609924 -114.33069 180.04724 -114.33069c99.43738 0 180.04724 51.187622 180.04724 114.33069c0 63.143066 -80.60986 114.33069 -180.04724 114.33069c-99.43732 0 -180.04724 -51.187622 -180.04724 -114.33069z" fill-rule="evenodd"/><path fill="#ffe599" d="m820.0801 961.5906l144.89758 45.700745l144.8977 -45.700745z" fill-rule="evenodd"/><path stroke="#bf9000" stroke-width="4.0" stroke-linejoin="round" stroke-linecap="butt" d="m820.0801 961.5906l144.89758 45.700745l144.8977 -45.700745z" fill-rule="evenodd"/></g></svg>