<svg version="1.1" viewBox="0.0 0.0 791.8320209973754 477.37270341207346" fill="none" stroke="none" stroke-linecap="square" stroke-miterlimit="10" xmlns:xlink="http://www.w3.org/1999/xlink" xmlns="http://www.w3.org/2000/svg"><clipPath id="p.0"><path d="m0 0l791.83203 0l0 477.3727l-791.83203 0l0 -477.3727z" clip-rule="nonzero"/></clipPath><g clip-path="url(#p.0)"><path fill="#000000" fill-opacity="0.0" d="m0 0l791.83203 0l0 477.3727l-791.83203 0z" fill-rule="evenodd"/><path fill="#000000" fill-opacity="0.0" d="m464.45932 13.366141l0 0c11.724182 0 22.81018 1.761673 30.118927 4.7861986c7.308777 3.0245247 10.044586 6.9826183 7.432831 10.75354l-37.551758 -2.8310776z" fill-rule="evenodd"/><path fill="#000000" fill-opacity="0.0" d="m464.45932 13.366141l0 0c11.724182 0 22.81018 1.761673 30.118927 4.7861986c7.308777 3.0245247 10.044586 6.9826183 7.432831 10.75354" fill-rule="evenodd"/><path stroke="#980000" stroke-width="8.0" stroke-linejoin="round" stroke-linecap="butt" d="m464.45932 13.366141l0 0c11.724182 0 22.81018 1.761673 30.118927 4.7861986c7.308777 3.0245247 10.044586 6.9826183 7.432831 10.75354" fill-rule="evenodd"/><path fill="#000000" fill-opacity="0.0" d="m605.7841 21.970102c-0.28149414 -3.6510658 4.21167 -7.1656075 12.333496 -9.647272c8.121765 -2.4816656 19.087097 -3.6905499 30.099365 -3.3183403l-3.9256592 12.642492z" fill-rule="evenodd"/><path fill="#000000" fill-opacity="0.0" d="m605.7841 21.970102c-0.28149414 -3.6510658 4.21167 -7.1656075 12.333496 -9.647272c8.121765 -2.4816656 19.087097 -3.6905499 30.099365 -3.3183403" fill-rule="evenodd"/><path stroke="#980000" stroke-width="8.0" stroke-linejoin="round" stroke-linecap="butt" d="m605.7841 21.970102c-0.28149414 -3.6510658 4.21167 -7.1656075 12.333496 -9.647272c8.121765 -2.4816656 19.087097 -3.6905499 30.099365 -3.3183403" fill-rule="evenodd"/><path fill="#cfe2f3" d="m31.485565 72.01379l0 0c0 -18.305489 14.839531 -33.14502 33.14502 -33.14502l132.5761 0l0 0c8.790619 0 17.221176 3.492054 23.437073 9.707951c6.2158966 6.2158966 9.707947 14.6464615 9.707947 23.437069l0 228.19815c0 18.305481 -14.839523 33.14502 -33.14502 33.14502l-132.5761 0c-18.305489 0 -33.14502 -14.839539 -33.14502 -33.14502z" fill-rule="evenodd"/><path stroke="#000000" stroke-width="16.0" stroke-linejoin="round" stroke-linecap="butt" d="m31.485565 72.01379l0 0c0 -18.305489 14.839531 -33.14502 33.14502 -33.14502l132.5761 0l0 0c8.790619 0 17.221176 3.492054 23.437073 9.707951c6.2158966 6.2158966 9.707947 14.6464615 9.707947 23.437069l0 228.19815c0 18.305481 -14.839523 33.14502 -33.14502 33.14502l-132.5761 0c-18.305489 0 -33.14502 -14.839539 -33.14502 -33.14502z" fill-rule="evenodd"/><path fill="#000000" d="m113.38739 85.82912l0 7.0l-6.0 0l0 13.375q0 4.0625 0.171875 4.734375q0.171875 0.671875 0.78125 1.109375q0.609375 0.4375 1.484375 0.4375q1.21875 0 3.53125 -0.84375l0.75 6.8125q-3.0625 1.3125 -6.9375 1.3125q-2.375 0 -4.28125 -0.796875q-1.90625 -0.796875 -2.796875 -2.0625q-0.890625 -1.265625 -1.234375 -3.421875q-0.28125 -1.53125 -0.28125 -6.1875l0 -14.46875l-4.03125 0l0 -7.0l4.03125 0l0 -6.59375l8.8125 -5.125l0 11.71875l6.0 0zm25.3125 22.625l8.75 1.46875q-1.6875 4.8125 -5.328125 7.328125q-3.640625 2.515625 -9.109375 2.515625q-8.65625 0 -12.8125 -5.65625q-3.28125 -4.53125 -3.28125 -11.4375q0 -8.25 4.3125 -12.921875q4.3125 -4.671875 10.90625 -4.671875q7.40625 0 11.6875 4.890625q4.28125 4.890625 4.09375 14.984375l-22.0 0q0.09375 3.90625 2.125 6.078125q2.03125 2.171875 5.0625 2.171875q2.0625 0 3.46875 -1.125q1.40625 -1.125 2.125 -3.625zm0.5 -8.875q-0.09375 -3.8125 -1.96875 -5.796875q-1.875 -1.984375 -4.5625 -1.984375q-2.875 0 -4.75 2.09375q-1.875 2.09375 -1.84375 5.6875l13.125 0zm15.875 19.4375l0 -45.8125l8.78125 0l0 45.8125l-8.78125 0z" fill-rule="nonzero"/><path fill="#000000" d="m72.340515 157.26537l3.03125 0.765625q-0.953125 3.734375 -3.4375 5.703125q-2.46875 1.953125 -6.046875 1.953125q-3.7031288 0 -6.031254 -1.5q-2.3125 -1.515625 -3.53125 -4.375q-1.203125 -2.859375 -1.203125 -6.140625q0 -3.578125 1.359375 -6.234375q1.375 -2.671875 3.890625 -4.046875q2.53125 -1.390625 5.562504 -1.390625q3.4375 0 5.78125 1.75q2.34375 1.75 3.265625 4.921875l-2.984375 0.703125q-0.796875 -2.5 -2.3125 -3.640625q-1.515625 -1.140625 -3.8125 -1.140625q-2.6406288 0 -4.421879 1.265625q-1.765625 1.265625 -2.484375 3.40625q-0.71875 2.125 -0.71875 4.390625q0 2.921875 0.84375 5.109375q0.859375 2.171875 2.65625 3.25q1.796875 1.078125 3.8906288 1.078125q2.546875 0 4.3125 -1.46875q1.765625 -1.46875 2.390625 -4.359375zm5.359375 -0.265625q0 -4.609375 2.5625 -6.828125q2.140625 -1.84375 5.21875 -1.84375q3.421875 0 5.59375 2.25q2.171875 2.234375 2.171875 6.1875q0 3.203125 -0.96875 5.046875q-0.953125 1.828125 -2.796875 2.84375q-1.828125 1.015625 -4.0 1.015625q-3.484375 0 -5.640625 -2.234375q-2.140625 -2.234375 -2.140625 -6.4375zm2.890625 0q0 3.1875 1.390625 4.78125q1.390625 1.578125 3.5 1.578125q2.09375 0 3.484375 -1.59375q1.390625 -1.59375 1.390625 -4.859375q0 -3.078125 -1.40625 -4.65625q-1.390625 -1.59375 -3.46875 -1.59375q-2.109375 0 -3.5 1.578125q-1.390625 1.578125 -1.390625 4.765625zm15.953125 8.296875l0 -16.59375l2.53125 0l0 2.359375q1.828125 -2.734375 5.28125 -2.734375q1.5 0 2.75 0.546875q1.265625 0.53125 1.890625 1.40625q0.625 0.875 0.875 2.078125q0.15625 0.78125 0.15625 2.734375l0 10.203125l-2.8125 0l0 -10.09375q0 -1.71875 -0.328125 -2.5625q-0.328125 -0.859375 -1.171875 -1.359375q-0.828125 -0.515625 -1.953125 -0.515625q-1.796875 0 -3.109375 1.140625q-1.296875 1.140625 -1.296875 4.328125l0 9.0625l-2.8125 0zm29.15625 -5.34375l2.90625 0.359375q-0.6875 2.546875 -2.546875 3.953125q-1.859375 1.40625 -4.75 1.40625q-3.640625 0 -5.78125 -2.234375q-2.125 -2.25 -2.125 -6.296875q0 -4.1875 2.15625 -6.5q2.15625 -2.3125 5.59375 -2.3125q3.328125 0 5.4375 2.265625q2.109375 2.265625 2.109375 6.375q0 0.25 -0.015625 0.75l-12.375 0q0.15625 2.734375 1.546875 4.1875q1.390625 1.453125 3.46875 1.453125q1.546875 0 2.640625 -0.8125q1.09375 -0.8125 1.734375 -2.59375zm-9.234375 -4.546875l9.265625 0q-0.1875 -2.09375 -1.0625 -3.140625q-1.34375 -1.625 -3.484375 -1.625q-1.9375 0 -3.265625 1.296875q-1.3125 1.296875 -1.453125 3.46875zm26.5 3.8125l2.765625 0.359375q-0.453125 2.859375 -2.328125 4.484375q-1.859375 1.609375 -4.578125 1.609375q-3.40625 0 -5.484375 -2.21875q-2.0625 -2.234375 -2.0625 -6.390625q0 -2.6875 0.890625 -4.703125q0.890625 -2.015625 2.703125 -3.015625q1.828125 -1.015625 3.96875 -1.015625q2.703125 0 4.421875 1.375q1.71875 1.359375 2.203125 3.875l-2.734375 0.421875q-0.390625 -1.671875 -1.390625 -2.515625q-0.984375 -0.84375 -2.390625 -0.84375q-2.125 0 -3.453125 1.53125q-1.328125 1.515625 -1.328125 4.8125q0 3.34375 1.28125 4.859375q1.28125 1.515625 3.34375 1.515625q1.65625 0 2.765625 -1.015625q1.109375 -1.015625 1.40625 -3.125zm11.3125 3.5625l0.40625 2.484375q-1.1875 0.25 -2.125 0.25q-1.53125 0 -2.375 -0.484375q-0.84375 -0.484375 -1.1875 -1.265625q-0.34375 -0.796875 -0.34375 -3.328125l0 -9.546875l-2.0625 0l0 -2.1875l2.0625 0l0 -4.109375l2.796875 -1.6875l0 5.796875l2.828125 0l0 2.1875l-2.828125 0l0 9.703125q0 1.203125 0.140625 1.546875q0.15625 0.34375 0.484375 0.546875q0.34375 0.203125 0.96875 0.203125q0.46875 0 1.234375 -0.109375zm13.578125 0.46875q-1.5625 1.328125 -3.015625 1.875q-1.4375 0.546875 -3.09375 0.546875q-2.734375 0 -4.203125 -1.328125q-1.46875 -1.34375 -1.46875 -3.421875q0 -1.21875 0.546875 -2.21875q0.5625 -1.015625 1.453125 -1.625q0.90625 -0.609375 2.03125 -0.921875q0.828125 -0.21875 2.5 -0.421875q3.40625 -0.40625 5.015625 -0.96875q0.015625 -0.578125 0.015625 -0.734375q0 -1.71875 -0.796875 -2.421875q-1.078125 -0.953125 -3.203125 -0.953125q-1.984375 0 -2.9375 0.703125q-0.9375 0.6875 -1.390625 2.453125l-2.75 -0.375q0.375 -1.765625 1.234375 -2.84375q0.859375 -1.09375 2.484375 -1.671875q1.625 -0.59375 3.765625 -0.59375q2.125 0 3.453125 0.5q1.328125 0.5 1.9531097 1.265625q0.625 0.75 0.875 1.90625q0.140625 0.71875 0.140625 2.59375l0 3.75q0 3.921875 0.171875 4.96875q0.1875 1.03125 0.71875 1.984375l-2.9374847 0q-0.4375 -0.875 -0.5625 -2.046875zm-0.234375 -6.28125q-1.53125 0.625 -4.59375 1.0625q-1.734375 0.25 -2.453125 0.5625q-0.71875 0.3125 -1.109375 0.921875q-0.390625 0.59375 -0.390625 1.328125q0 1.125 0.84375 1.875q0.859375 0.75 2.5 0.75q1.625 0 2.890625 -0.703125q1.265625 -0.71875 1.859375 -1.953125q0.453125 -0.953125 0.453125 -2.8125l0 -1.03125zm17.968735 8.328125l0 -2.09375q-1.578125 2.46875 -4.640625 2.46875q-1.984375 0 -3.65625 -1.09375q-1.65625 -1.09375 -2.578125 -3.046875q-0.90625 -1.96875 -0.90625 -4.515625q0 -2.484375 0.828125 -4.5q0.828125 -2.03125 2.484375 -3.109375q1.65625 -1.078125 3.703125 -1.078125q1.5 0 2.671875 0.640625q1.171875 0.625 1.90625 1.640625l0 -8.21875l2.796875 0l0 22.90625l-2.609375 0zm-8.890625 -8.28125q0 3.1875 1.34375 4.765625q1.34375 1.578125 3.171875 1.578125q1.84375 0 3.125 -1.5q1.296875 -1.515625 1.296875 -4.609375q0 -3.40625 -1.3125 -5.0q-1.3125 -1.59375 -3.234375 -1.59375q-1.875 0 -3.140625 1.53125q-1.25 1.53125 -1.25 4.828125zm14.875 -0.015625q0 -4.609375 2.5625 -6.828125q2.140625 -1.84375 5.21875 -1.84375q3.421875 0 5.59375 2.25q2.171875 2.234375 2.171875 6.1875q0 3.203125 -0.96875 5.046875q-0.953125 1.828125 -2.796875 2.84375q-1.828125 1.015625 -4.0 1.015625q-3.484375 0 -5.640625 -2.234375q-2.140625 -2.234375 -2.140625 -6.4375zm2.890625 0q0 3.1875 1.390625 4.78125q1.390625 1.578125 3.5 1.578125q2.09375 0 3.484375 -1.59375q1.390625 -1.59375 1.390625 -4.859375q0 -3.078125 -1.40625 -4.65625q-1.390625 -1.59375 -3.46875 -1.59375q-2.109375 0 -3.5 1.578125q-1.390625 1.578125 -1.390625 4.765625z" fill-rule="nonzero"/><path fill="#000000" d="m118.059265 197.21849l2.765625 0.359375q-0.453125 2.859375 -2.328125 4.484375q-1.859375 1.609375 -4.578125 1.609375q-3.40625 0 -5.484375 -2.21875q-2.0625 -2.234375 -2.0625 -6.390625q0 -2.6875 0.890625 -4.703125q0.890625 -2.015625 2.703125 -3.015625q1.828125 -1.015625 3.96875 -1.015625q2.703125 0 4.421875 1.375q1.71875 1.359375 2.203125 3.875l-2.734375 0.421875q-0.390625 -1.671875 -1.390625 -2.515625q-0.984375 -0.84375 -2.390625 -0.84375q-2.125 0 -3.453125 1.53125q-1.328125 1.515625 -1.328125 4.8125q0 3.34375 1.28125 4.859375q1.28125 1.515625 3.34375 1.515625q1.65625 0 2.765625 -1.015625q1.109375 -1.015625 1.40625 -3.125zm4.125 -2.21875q0 -4.609375 2.5625 -6.828125q2.140625 -1.84375 5.21875 -1.84375q3.421875 0 5.59375 2.25q2.171875 2.234375 2.171875 6.1875q0 3.203125 -0.96875 5.046875q-0.953125 1.828125 -2.796875 2.84375q-1.828125 1.015625 -4.0 1.015625q-3.484375 0 -5.640625 -2.234375q-2.140625 -2.234375 -2.140625 -6.4375zm2.890625 0q0 3.1875 1.390625 4.78125q1.390625 1.578125 3.5 1.578125q2.09375 0 3.484375 -1.59375q1.390625 -1.59375 1.390625 -4.859375q0 -3.078125 -1.40625 -4.65625q-1.390625 -1.59375 -3.46875 -1.59375q-2.109375 0 -3.5 1.578125q-1.390625 1.578125 -1.390625 4.765625zm15.953125 8.296875l0 -16.59375l2.53125 0l0 2.359375q1.828125 -2.734375 5.28125 -2.734375q1.5 0 2.75 0.546875q1.265625 0.53125 1.890625 1.40625q0.625 0.875 0.875 2.078125q0.15625 0.78125 0.15625 2.734375l0 10.203125l-2.8125 0l0 -10.09375q0 -1.71875 -0.328125 -2.5625q-0.328125 -0.859375 -1.171875 -1.359375q-0.828125 -0.515625 -1.953125 -0.515625q-1.796875 0 -3.109375 1.140625q-1.296875 1.140625 -1.296875 4.328125l0 9.0625l-2.8125 0z" fill-rule="nonzero"/><path fill="#000000" d="m136.96552 272.0166l-5.625 0l0 -35.843735q-2.03125 1.9375 -5.328125 3.875q-3.296875 1.9375 -5.921875 2.90625l0 -5.4375q4.71875 -2.21875 8.25 -5.375q3.53125 -3.15625 5.0 -6.125l3.625 0l0 45.999985z" fill-rule="nonzero"/><path fill="#000000" fill-opacity="0.0" d="m10.036745 345.70602l241.76378 0l0 56.283478l-241.76378 0z" fill-rule="evenodd"/><path fill="#000000" d="m36.299496 393.10605l-5.890627 0l5.984377 -28.640625l12.71875 0q3.28125 0 5.109375 0.6875q1.828125 0.671875 2.953125 2.46875q1.125 1.796875 1.125 4.34375q0 3.65625 -2.1875 6.03125q-2.1875 2.375 -6.625 2.9375q1.125 1.015625 2.125 2.671875q1.96875 3.359375 4.390625 9.5l-6.328125 0q-0.75 -2.421875 -2.984375 -7.5625q-1.203125 -2.765625 -2.578125 -3.734375q-0.84375 -0.5625 -2.921875 -0.5625l-2.40625 0l-2.484375 11.859375zm3.375 -16.15625l3.125 0q4.75 0 6.296875 -0.5625q1.5625 -0.5625 2.4375 -1.765625q0.875 -1.21875 0.875 -2.546875q0 -1.5625 -1.265625 -2.34375q-0.78125 -0.46875 -3.375 -0.46875l-6.484375 0l-1.609375 7.6875zm39.65234 7.515625l-14.0625 0q-0.015625 0.34375 -0.015625 0.515625q0 2.0625 1.171875 3.34375q1.1875 1.265625 2.890625 1.265625q2.796875 0 4.359375 -2.890625l5.015625 0.84375q-1.46875 3.015625 -3.921875 4.53125q-2.453125 1.515625 -5.5 1.515625q-4.171875 0 -6.796871 -2.640625q-2.609375 -2.65625 -2.609375 -7.0q0 -4.265625 2.359375 -7.578125q3.2187462 -4.5 9.203121 -4.5q3.8125 0 6.046875 2.359375q2.25 2.34375 2.25 6.59375q0 2.03125 -0.390625 3.640625zm-4.71875 -3.40625q0.015625 -0.375 0.015625 -0.578125q0 -2.296875 -1.046875 -3.453125q-1.03125 -1.15625 -2.765625 -1.15625q-1.734375 0 -3.109375 1.3125q-1.375 1.3125 -1.875 3.875l8.78125 0zm21.230469 -8.703125l-0.859375 4.109375l-3.96875 0l-3.484375 16.640625l-5.59375 0l3.46875 -16.640625l-3.125 0l0.859375 -4.109375l3.125 0l0.453125 -2.125q0.546875 -2.609375 1.03125 -3.53125q0.671875 -1.25 1.984375 -1.984375q1.3125 -0.734375 3.453125 -0.734375q2.578125 0 5.421875 0.9375l-1.09375 4.0q-2.015625 -0.671875 -3.265625 -0.671875q-0.953125 0 -1.421875 0.59375q-0.3125 0.390625 -0.640625 2.0625l-0.3125 1.453125l3.96875 0zm19.054688 12.109375l-14.0625 0q-0.015625 0.34375 -0.015625 0.515625q0 2.0625 1.171875 3.34375q1.1875 1.265625 2.890625 1.265625q2.796875 0 4.359375 -2.890625l5.015625 0.84375q-1.46875 3.015625 -3.921875 4.53125q-2.453125 1.515625 -5.5 1.515625q-4.171875 0 -6.796875 -2.640625q-2.609375 -2.65625 -2.609375 -7.0q0 -4.265625 2.359375 -7.578125q3.21875 -4.5 9.203125 -4.5q3.8125 0 6.046875 2.359375q2.25 2.34375 2.25 6.59375q0 2.03125 -0.390625 3.640625zm-4.71875 -3.40625q0.015625 -0.375 0.015625 -0.578125q0 -2.296875 -1.046875 -3.453125q-1.03125 -1.15625 -2.765625 -1.15625q-1.734375 0 -3.109375 1.3125q-1.375 1.3125 -1.875 3.875l8.78125 0zm10.792969 -8.703125l5.234375 0l-0.84375 4.03125q2.9375076 -4.515625 6.3593826 -4.515625q1.203125 0 2.59375 0.609375l-2.15625 4.59375q-0.75 -0.28125 -1.609375 -0.28125q-1.453125 0 -2.9531326 1.09375q-1.484375 1.09375 -2.328125 2.921875q-0.84375 1.828125 -1.65625 5.796875l-1.375 6.5l-5.59375 0l4.328125 -20.75zm31.738289 12.109375l-14.0625 0q-0.015625 0.34375 -0.015625 0.515625q0 2.0625 1.171875 3.34375q1.1875 1.265625 2.890625 1.265625q2.796875 0 4.359375 -2.890625l5.015625 0.84375q-1.46875 3.015625 -3.921875 4.53125q-2.453125 1.515625 -5.5 1.515625q-4.171875 0 -6.796875 -2.640625q-2.609375 -2.65625 -2.609375 -7.0q0 -4.265625 2.359375 -7.578125q3.21875 -4.5 9.203125 -4.5q3.8125 0 6.046875 2.359375q2.25 2.34375 2.25 6.59375q0 2.03125 -0.390625 3.640625zm-4.71875 -3.40625q0.015625 -0.375 0.015625 -0.578125q0 -2.296875 -1.046875 -3.453125q-1.03125 -1.15625 -2.765625 -1.15625q-1.734375 0 -3.109375 1.3125q-1.375 1.3125 -1.875 3.875l8.78125 0zm11.183594 -8.703125l5.3125 0l-0.546875 2.703125q2.0 -1.71875 3.71875 -2.453125q1.734375 -0.734375 3.640625 -0.734375q2.5625 0 4.03125 1.46875q1.484375 1.46875 1.484375 3.890625q0 1.09375 -0.640625 4.140625l-2.453125 11.734375l-5.59375 0l2.453125 -11.78125q0.546875 -2.640625 0.546875 -3.140625q0 -1.078125 -0.640625 -1.6875q-0.625 -0.625 -1.765625 -0.625q-1.21875 0 -2.734375 1.046875q-1.5 1.03125 -2.359375 2.734375q-0.625 1.203125 -1.40625 4.9375l-1.78125 8.515625l-5.59375 0l4.328125 -20.75zm34.089844 12.9375l5.4375 0.875q-1.34375 3.640625 -3.984375 5.53125q-2.625 1.890625 -6.109375 1.890625q-3.96875 0 -6.296875 -2.359375q-2.3125 -2.359375 -2.3125 -6.5q0 -3.390625 1.40625 -6.390625q1.40625 -3.015625 4.234375 -4.734375q2.828125 -1.734375 6.21875 -1.734375q3.671875 0 5.859375 1.921875q2.1875 1.90625 2.453125 5.03125l-5.328125 0.5625q-0.203125 -1.734375 -1.078125 -2.546875q-0.859375 -0.828125 -2.265625 -0.828125q-1.625 0 -3.03125 1.21875q-1.40625 1.203125 -2.15625 3.625q-0.75 2.40625 -0.75 4.515625q0 1.828125 0.890625 2.828125q0.90625 1.0 2.25 1.0q1.359375 0 2.609375 -0.96875q1.25 -0.984375 1.953125 -2.9375zm14.152344 -20.828125l5.609375 0l-1.0625 5.078125l-5.59375 0l1.046875 -5.078125zm-1.640625 7.890625l5.609375 0l-4.34375 20.75l-5.59375 0l4.328125 -20.75zm14.691406 5.890625l-5.46875 -0.46875q0.9375 -2.78125 3.265625 -4.34375q2.34375 -1.5625 6.1875 -1.5625q4.0 0 5.90625 1.609375q1.921875 1.609375 1.921875 3.9375q0 0.9375 -0.171875 2.0q-0.15625 1.046875 -1.15625 5.546875q-0.8125 3.703125 -0.8125 5.1875q0 1.328125 0.46875 2.953125l-5.453125 0q-0.328125 -1.140625 -0.40625 -2.34375q-1.234375 1.359375 -2.84375 2.09375q-1.59375 0.734375 -3.21875 0.734375q-2.578125 0 -4.265625 -1.6875q-1.671875 -1.6875 -1.671875 -4.34375q0 -2.96875 1.84375 -4.75q1.84375 -1.78125 6.59375 -2.140625q4.0 -0.34375 5.359375 -0.8125q0.34375 -1.171875 0.34375 -1.875q0 -0.890625 -0.71875 -1.5q-0.71875 -0.609375 -2.15625 -0.609375q-1.5 0 -2.375 0.625q-0.859375 0.609375 -1.171875 1.75zm5.328125 5.1875q-0.5 0.140625 -1.34375 0.25q-4.21875 0.515625 -5.515625 1.484375q-0.90625 0.703125 -0.90625 1.90625q0 0.96875 0.703125 1.640625q0.703125 0.671875 1.84375 0.671875q1.28125 0 2.390625 -0.609375q1.125 -0.609375 1.6875 -1.578125q0.5625 -0.96875 0.984375 -3.015625l0.15625 -0.75z" fill-rule="nonzero"/><path fill="#000000" fill-opacity="0.0" d="m473.92126 419.11942l167.27557 0l0 56.283478l-167.27557 0z" fill-rule="evenodd"/><path fill="#000000" d="m497.72897 455.28503q0 -2.53125 0.765625 -5.34375q0.984375 -3.78125 3.03125 -6.546875q2.046875 -2.78125 5.140625 -4.390625q3.109375 -1.609375 7.0781555 -1.609375q5.3125 0 8.578125 3.3125q3.28125 3.296875 3.28125 8.734375q0 4.53125 -2.140625 8.78125q-2.125 4.234375 -5.78125 6.53125q-3.640625 2.28125 -8.2500305 2.28125q-4.015625 0 -6.734375 -1.8125q-2.703125 -1.828125 -3.84375 -4.515625q-1.125 -2.6875 -1.125 -5.421875zm5.8125 -0.109375q0 2.9375 1.796875 4.9375q1.796875 1.984375 4.734375 1.984375q2.3750305 0 4.5781555 -1.5625q2.203125 -1.578125 3.625 -4.765625q1.4375 -3.203125 1.4375 -6.21875q0 -3.390625 -1.8125 -5.3125q-1.8125 -1.921875 -4.625 -1.921875q-4.3125305 0 -7.0312805 4.03125q-2.703125 4.015625 -2.703125 8.828125zm23.253937 11.34375l5.96875 -28.640625l5.625 0l-2.015625 9.578125q1.546875 -1.171875 2.875 -1.671875q1.34375 -0.5 2.9375 -0.5q3.28125 0 5.25 2.203125q1.96875 2.1875 1.96875 6.390625q0 2.828125 -0.9375 5.5q-0.921875 2.671875 -2.46875 4.34375q-1.546875 1.65625 -3.265625 2.46875q-1.703125 0.8125 -3.578125 0.8125q-4.453125 0 -6.546875 -3.90625l-0.71875 3.421875l-5.09375 0zm7.546875 -8.453125q0 2.078125 1.1875 3.390625q1.1875 1.3125 2.78125 1.3125q1.40625 0 2.6875 -1.015625q1.28125 -1.015625 2.125 -3.234375q0.859375 -2.234375 0.859375 -4.5q0 -2.203125 -1.15625 -3.46875q-1.140625 -1.265625 -2.75 -1.265625q-2.109375 0 -3.640625 1.953125q-2.09375 2.6875 -2.09375 6.828125zm23.058594 -20.1875l5.625 0l-1.0625 5.078125l-5.625 0l1.0625 -5.078125zm-1.640625 7.890625l5.625 0l-3.703125 17.5625q-1.5625 7.53125 -2.671875 9.125q-1.671875 2.484375 -5.390625 2.484375q-2.3125 0 -4.21875 -0.625l0.875 -4.625q1.34375 0.328125 2.265625 0.328125q1.140625 0 1.8125 -0.890625q0.6875 -0.875 1.8125 -6.171875l3.59375 -17.1875zm26.925781 12.109375l-14.0625 0q-0.015625 0.34375 -0.015625 0.515625q0 2.0625 1.171875 3.34375q1.1875 1.265625 2.890625 1.265625q2.796875 0 4.359375 -2.890625l5.015625 0.84375q-1.46875 3.015625 -3.921875 4.53125q-2.453125 1.515625 -5.5 1.515625q-4.171875 0 -6.796875 -2.640625q-2.609375 -2.65625 -2.609375 -7.0q0 -4.265625 2.359375 -7.578125q3.21875 -4.5 9.203125 -4.5q3.8125 0 6.046875 2.359375q2.25 2.34375 2.25 6.59375q0 2.03125 -0.390625 3.640625zm-4.71875 -3.40625q0.015625 -0.375 0.015625 -0.578125q0 -2.296875 -1.046875 -3.453125q-1.03125 -1.15625 -2.765625 -1.15625q-1.734375 0 -3.109375 1.3125q-1.375 1.3125 -1.875 3.875l8.78125 0zm8.183594 -4.53125l0.859375 -4.171875l2.734375 0l0.671875 -3.3125l6.4375 -3.875l-1.515625 7.1875l3.421875 0l-0.859375 4.171875l-3.4375 0l-1.8125 8.6875q-0.484375 2.359375 -0.484375 2.6875q0 0.65625 0.40625 1.015625q0.40625 0.359375 1.484375 0.359375q0.375 0 1.859375 -0.140625l-0.890625 4.171875q-1.4375 0.28125 -2.96875 0.28125q-2.96875 0 -4.3125 -1.140625q-1.34375 -1.140625 -1.34375 -3.171875q0 -0.953125 0.71875 -4.421875l1.734375 -8.328125l-2.703125 0zm12.7265625 7.96875q0 -5.765625 3.249939 -9.1875q3.25 -3.4375 8.546875 -3.4375q4.59375 0 7.171875 2.53125q2.578125 2.53125 2.578125 6.8125q0 5.03125 -3.234375 8.703125q-3.21875 3.671875 -8.625 3.671875q-2.921875 0 -5.1875 -1.171875q-2.265564 -1.171875 -3.390564 -3.3125q-1.109375 -2.15625 -1.109375 -4.609375zm15.984314 -4.015625q0 -1.984375 -1.171875 -3.1875q-1.15625 -1.203125 -3.0 -1.203125q-1.8125 0 -3.21875 1.125q-1.40625 1.125 -2.1875 3.265625q-0.78125 2.140625 -0.78125 3.9375q0 2.21875 1.203125 3.53125q1.21875 1.3125 3.0625 1.3125q2.296875 0 3.859375 -1.984375q2.234375 -2.78125 2.234375 -6.796875z" fill-rule="nonzero"/><path fill="#dd7e6b" d="m405.02625 306.1496l0 0c0 -59.17708 68.532166 -107.1496 153.07086 -107.1496l0 0c84.5387 0 153.07086 47.97252 153.07086 107.1496l0 0c0 59.177094 -68.532166 107.14963 -153.07086 107.14963l0 0c-84.5387 0 -153.07086 -47.972534 -153.07086 -107.14963z" fill-rule="evenodd"/><path stroke="#980000" stroke-width="4.0" stroke-linejoin="round" stroke-linecap="butt" d="m405.02625 306.1496l0 0c0 -59.17708 68.532166 -107.1496 153.07086 -107.1496l0 0c84.5387 0 153.07086 47.97252 153.07086 107.1496l0 0c0 59.177094 -68.532166 107.14963 -153.07086 107.14963l0 0c-84.5387 0 -153.07086 -47.972534 -153.07086 -107.14963z" fill-rule="evenodd"/><path fill="#dd7e6b" d="m447.12073 226.73622l0 0c0 -47.60956 49.68582 -86.20473 110.97638 -86.20473l0 0c61.29059 0 110.97638 38.59517 110.97638 86.20473l0 0c0 47.609543 -49.68579 86.20473 -110.97638 86.20473l0 0c-61.290558 0 -110.97638 -38.595184 -110.97638 -86.20473z" fill-rule="evenodd"/><path stroke="#980000" stroke-width="4.0" stroke-linejoin="round" stroke-linecap="butt" d="m447.12073 226.73622l0 0c0 -47.60956 49.68582 -86.20473 110.97638 -86.20473l0 0c61.29059 0 110.97638 38.59517 110.97638 86.20473l0 0c0 47.609543 -49.68579 86.20473 -110.97638 86.20473l0 0c-61.290558 0 -110.97638 -38.595184 -110.97638 -86.20473z" fill-rule="evenodd"/><path fill="#000000" d="m525.3315 211.17622l-8.78125 0l0 -16.9375q0 -5.375 -0.5625 -6.953125q-0.5625 -1.578125 -1.828125 -2.453125q-1.265625 -0.875 -3.046875 -0.875q-2.28125 0 -4.09375 1.25q-1.8125 1.25 -2.484375 3.3125q-0.671875 2.0625 -0.671875 7.625l0 15.03125l-8.78125 0l0 -33.1875l8.15625 0l0 4.875q4.34375 -5.625 10.9375 -5.625q2.90625 0 5.3125 1.046875q2.40625 1.046875 3.640625 2.671875q1.234375 1.625 1.71875 3.6875q0.484375 2.0625 0.484375 5.90625l0 20.625zm30.75 0l0 -4.96875q-1.8125 2.65625 -4.765625 4.1875q-2.953125 1.53125 -6.234375 1.53125q-3.34375 0 -6.0 -1.46875q-2.65625 -1.46875 -3.84375 -4.125q-1.1875 -2.65625 -1.1875 -7.34375l0 -21.0l8.78125 0l0 15.25q0 7.0 0.484375 8.578125q0.484375 1.578125 1.765625 2.5q1.28125 0.921875 3.25 0.921875q2.25 0 4.03125 -1.234375q1.78125 -1.234375 2.4375 -3.0625q0.65625 -1.828125 0.65625 -8.953125l0 -14.0l8.78125 0l0 33.1875l-8.15625 0zm16.59375 -33.1875l8.09375 0l0 4.53125q4.34375 -5.28125 10.34375 -5.28125q3.1875 0 5.53125 1.3125q2.34375 1.3125 3.84375 3.96875q2.1875 -2.65625 4.71875 -3.96875q2.53125 -1.3125 5.40625 -1.3125q3.65625 0 6.1875 1.484375q2.53125 1.484375 3.78125 4.359375q0.90625 2.125 0.90625 6.875l0 21.21875l-8.78125 0l0 -18.96875q0 -4.9375 -0.90625 -6.375q-1.21875 -1.875 -3.75 -1.875q-1.84375 0 -3.46875 1.125q-1.625 1.125 -2.34375 3.296875q-0.71875 2.171875 -0.71875 6.859375l0 15.9375l-8.78125 0l0 -18.1875q0 -4.84375 -0.46875 -6.25q-0.46875 -1.40625 -1.453125 -2.09375q-0.984375 -0.6875 -2.671875 -0.6875q-2.03125 0 -3.65625 1.09375q-1.625 1.09375 -2.328125 3.15625q-0.703125 2.0625 -0.703125 6.84375l0 16.125l-8.78125 0l0 -33.1875z" fill-rule="nonzero"/><path fill="#000000" d="m564.144 288.1762l-5.625 0l0 -35.843735q-2.03125 1.9375 -5.328125 3.8749847q-3.296875 1.9375 -5.921875 2.90625l0 -5.4374847q4.71875 -2.21875 8.25 -5.375q3.53125 -3.15625 5.0 -6.125l3.625 0l0 45.999985z" fill-rule="nonzero"/><path fill="#dd7e6b" d="m473.92126 86.749344l0 0c0 -42.973843 37.445923 -77.81102 83.63782 -77.81102c46.191833 0 83.63776 34.83718 83.63776 77.81102c0 42.973846 -37.445923 77.81102 -83.63776 77.81102c-46.191895 0 -83.63782 -34.837173 -83.63782 -77.81102z" fill-rule="evenodd"/><path fill="#b06455" d="m522.0517 63.478085c0 -4.4764442 3.9006348 -8.105316 8.71228 -8.105316c4.8116455 0 8.71228 3.628872 8.71228 8.105316c0 4.4764442 -3.9006348 8.105312 -8.71228 8.105312c-4.8116455 0 -8.71228 -3.628868 -8.71228 -8.105312m53.59015 0c0 -4.4764442 3.9006348 -8.105316 8.71228 -8.105316c4.8116455 0 8.71228 3.628872 8.71228 8.105316c0 4.4764442 -3.9006348 8.105312 -8.71228 8.105312c-4.8116455 0 -8.71228 -3.628868 -8.71228 -8.105312" fill-rule="evenodd"/><path fill="#000000" fill-opacity="0.0" d="m512.2268 120.68325q45.332275 28.964378 90.55859 0" fill-rule="evenodd"/><path fill="#000000" fill-opacity="0.0" d="m473.92126 86.749344l0 0c0 -42.973843 37.445923 -77.81102 83.63782 -77.81102c46.191833 0 83.63776 34.83718 83.63776 77.81102c0 42.973846 -37.445923 77.81102 -83.63776 77.81102c-46.191895 0 -83.63782 -34.837173 -83.63782 -77.81102z" fill-rule="evenodd"/><path stroke="#980000" stroke-width="4.0" stroke-linejoin="round" stroke-linecap="butt" d="m522.0517 63.478085c0 -4.4764442 3.9006348 -8.105316 8.71228 -8.105316c4.8116455 0 8.71228 3.628872 8.71228 8.105316c0 4.4764442 -3.9006348 8.105312 -8.71228 8.105312c-4.8116455 0 -8.71228 -3.628868 -8.71228 -8.105312m53.59015 0c0 -4.4764442 3.9006348 -8.105316 8.71228 -8.105316c4.8116455 0 8.71228 3.628872 8.71228 8.105316c0 4.4764442 -3.9006348 8.105312 -8.71228 8.105312c-4.8116455 0 -8.71228 -3.628868 -8.71228 -8.105312" fill-rule="evenodd"/><path stroke="#980000" stroke-width="4.0" stroke-linejoin="round" stroke-linecap="butt" d="m512.2268 120.68325q45.332275 28.964378 90.55859 0" fill-rule="evenodd"/><path stroke="#980000" stroke-width="4.0" stroke-linejoin="round" stroke-linecap="butt" d="m473.92126 86.749344l0 0c0 -42.973843 37.445923 -77.81102 83.63782 -77.81102c46.191833 0 83.63776 34.83718 83.63776 77.81102c0 42.973846 -37.445923 77.81102 -83.63776 77.81102c-46.191895 0 -83.63782 -34.837173 -83.63782 -77.81102z" fill-rule="evenodd"/><path fill="#000000" fill-opacity="0.0" d="m479.62497 165.78027l-23.905518 -17.543304" fill-rule="evenodd"/><path stroke="#980000" stroke-width="16.0" stroke-linejoin="round" stroke-linecap="butt" d="m479.62497 165.78027l-23.905518 -17.543304" fill-rule="evenodd"/><path fill="#ffffff" d="m251.80052 52.83727l203.9055 0l0 159.002l-31.801147 31.801163l-172.10435 0z" fill-rule="evenodd"/><path fill="#cbcbcb" d="m423.90488 243.64043l6.3602295 -25.440933l25.440918 -6.3602295z" fill-rule="evenodd"/><path fill="#000000" fill-opacity="0.0" d="m423.90488 243.64043l6.3602295 -25.440933l25.440918 -6.3602295l-31.801147 31.801163l-172.10435 0l0 -190.80316l203.9055 0l0 159.002" fill-rule="evenodd"/><path stroke="#999999" stroke-width="4.0" stroke-linejoin="round" stroke-linecap="butt" d="m423.90488 243.64043l6.3602295 -25.440933l25.440918 -6.3602295l-31.801147 31.801163l-172.10435 0l0 -190.80316l203.9055 0l0 159.002" fill-rule="evenodd"/><path fill="#000000" d="m291.83923 107.91727l-6.59375 0l0 -12.703125q0 -4.03125 -0.421875 -5.21875q-0.421875 -1.1875 -1.375 -1.84375q-0.9375 -0.65625 -2.28125 -0.65625q-1.703125 0 -3.0625 0.9375q-1.359375 0.9375 -1.875 2.484375q-0.5 1.546875 -0.5 5.71875l0 11.28125l-6.578125 0l0 -24.890625l6.109375 0l0 3.65625q3.265625 -4.21875 8.203125 -4.21875q2.1875 0 3.984375 0.78125q1.8125 0.78125 2.734375 2.0q0.921875 1.21875 1.28125 2.765625q0.375 1.546875 0.375 4.4375l0 15.46875zm5.1484375 -12.796875q0 -3.28125 1.609375 -6.34375q1.625 -3.078125 4.59375 -4.6875q2.96875 -1.625 6.625 -1.625q5.640625 0 9.25 3.671875q3.609375 3.65625 3.609375 9.265625q0 5.640625 -3.640625 9.359375q-3.640625 3.71875 -9.171875 3.71875q-3.421875 0 -6.53125 -1.546875q-3.109375 -1.546875 -4.734375 -4.53125q-1.609375 -3.0 -1.609375 -7.28125zm6.75 0.34375q0 3.703125 1.75 5.671875q1.765625 1.96875 4.34375 1.96875q2.578125 0 4.328125 -1.96875q1.75 -1.96875 1.75 -5.71875q0 -3.65625 -1.75 -5.625q-1.75 -1.96875 -4.328125 -1.96875q-2.578125 0 -4.34375 1.96875q-1.75 1.96875 -1.75 5.671875zm23.601562 -12.4375l6.078125 0l0 3.390625q3.25 -3.953125 7.75 -3.953125q2.390625 0 4.140625 0.984375q1.765625 0.984375 2.890625 2.96875q1.640625 -1.984375 3.53125 -2.96875q1.90625 -0.984375 4.0625 -0.984375q2.75 0 4.640625 1.109375q1.90625 1.109375 2.84375 3.265625q0.671875 1.59375 0.671875 5.15625l0 15.921875l-6.578125 0l0 -14.234375q0 -3.703125 -0.6875 -4.78125q-0.90625 -1.40625 -2.8125 -1.40625q-1.375 0 -2.59375 0.84375q-1.21875 0.84375 -1.765625 2.484375q-0.53125 1.625 -0.53125 5.140625l0 11.953125l-6.59375 0l0 -13.640625q0 -3.640625 -0.359375 -4.6875q-0.34375 -1.0625 -1.078125 -1.578125q-0.734375 -0.515625 -2.0 -0.515625q-1.53125 0 -2.75 0.828125q-1.21875 0.8125 -1.75 2.359375q-0.515625 1.546875 -0.515625 5.140625l0 12.09375l-6.59375 0l0 -24.890625zm42.898438 24.890625l0 -34.359375l6.578125 0l0 12.375q3.046875 -3.46875 7.21875 -3.46875q4.546875 0 7.515625 3.296875q2.984375 3.28125 2.984375 9.453125q0 6.375 -3.03125 9.828125q-3.03125 3.4375 -7.375 3.4375q-2.125 0 -4.203125 -1.0625q-2.078125 -1.078125 -3.578125 -3.15625l0 3.65625l-6.109375 0zm6.53125 -12.984375q0 3.859375 1.21875 5.71875q1.71875 2.625 4.546875 2.625q2.1875 0 3.71875 -1.859375q1.53125 -1.875 1.53125 -5.875q0 -4.265625 -1.546875 -6.15625q-1.546875 -1.890625 -3.953125 -1.890625q-2.375 0 -3.953125 1.84375q-1.5625 1.84375 -1.5625 5.59375zm29.367188 12.984375l-6.578125 0l0 -24.890625l6.109375 0l0 3.53125q1.578125 -2.5 2.828125 -3.296875q1.25 -0.796875 2.84375 -0.796875q2.25 0 4.34375 1.234375l-2.046875 5.75q-1.65625 -1.078125 -3.09375 -1.078125q-1.375 0 -2.34375 0.765625q-0.953125 0.75 -1.515625 2.75q-0.546875 1.984375 -0.546875 8.34375l0 7.6875zm26.789062 -7.921875l6.5625 1.09375q-1.265625 3.609375 -4.0 5.5q-2.71875 1.890625 -6.828125 1.890625q-6.484375 0 -9.609375 -4.25q-2.453125 -3.390625 -2.453125 -8.578125q0 -6.1875 3.234375 -9.6875q3.234375 -3.5 8.171875 -3.5q5.5625 0 8.765625 3.671875q3.21875 3.65625 3.078125 11.234375l-16.5 0q0.0625 2.921875 1.578125 4.5625q1.53125 1.625 3.8125 1.625q1.546875 0 2.59375 -0.84375q1.0625 -0.84375 1.59375 -2.71875zm0.375 -6.65625q-0.0625 -2.859375 -1.46875 -4.34375q-1.40625 -1.5 -3.421875 -1.5q-2.15625 0 -3.5625 1.578125q-1.40625 1.5625 -1.390625 4.265625l9.84375 0z" fill-rule="nonzero"/><path fill="#000000" d="m317.54236 137.32352l0 4.890625l-4.515625 0l0 -3.859375q0 -3.140625 0.75 -4.546875q0.984375 -1.875 3.109375 -2.84375l1.03125 1.640625q-1.28125 0.546875 -1.890625 1.609375q-0.609375 1.0625 -0.6875 3.109375l2.203125 0zm7.265625 0l0 4.890625l-4.515625 0l0 -3.859375q0 -3.140625 0.75 -4.546875q0.984375 -1.875 3.109375 -2.84375l1.03125 1.640625q-1.28125 0.546875 -1.890625 1.609375q-0.609375 1.0625 -0.6875 3.109375l2.203125 0zm5.421875 38.140625l0 -34.4375l3.84375 0l0 3.234375q1.359375 -1.90625 3.0625 -2.84375q1.71875 -0.953125 4.15625 -0.953125q3.1875 0 5.625 1.640625q2.4375 1.640625 3.671875 4.625q1.25 2.984375 1.25 6.546875q0 3.828125 -1.375 6.890625q-1.375 3.046875 -3.984375 4.6875q-2.609375 1.625 -5.5 1.625q-2.109375 0 -3.78125 -0.890625q-1.671875 -0.890625 -2.75 -2.25l0 12.125l-4.21875 0zm3.8125 -21.859375q0 4.8125 1.9375 7.109375q1.953125 2.296875 4.71875 2.296875q2.8125 0 4.8125 -2.375q2.015625 -2.390625 2.015625 -7.375q0 -4.765625 -1.96875 -7.125q-1.953125 -2.375 -4.671875 -2.375q-2.6875 0 -4.765625 2.53125q-2.078125 2.515625 -2.078125 7.3125zm22.882812 21.859375l0 -34.4375l3.84375 0l0 3.234375q1.359375 -1.90625 3.0625 -2.84375q1.71875 -0.953125 4.15625 -0.953125q3.1875 0 5.625 1.640625q2.4375 1.640625 3.671875 4.625q1.25 2.984375 1.25 6.546875q0 3.828125 -1.375 6.890625q-1.375 3.046875 -3.984375 4.6875q-2.609375 1.625 -5.5 1.625q-2.109375 0 -3.78125 -0.890625q-1.671875 -0.890625 -2.75 -2.25l0 12.125l-4.21875 0zm3.8125 -21.859375q0 4.8125 1.9375 7.109375q1.953125 2.296875 4.71875 2.296875q2.8125 0 4.8125 -2.375q2.015625 -2.390625 2.015625 -7.375q0 -4.765625 -1.96875 -7.125q-1.953125 -2.375 -4.671875 -2.375q-2.6875 0 -4.765625 2.53125q-2.078125 2.515625 -2.078125 7.3125zm21.757812 -17.5l0 -4.90625l4.515625 0l0 3.875q0 3.140625 -0.71875 4.515625q-1.015625 1.90625 -3.140625 2.859375l-1.03125 -1.65625q1.265625 -0.515625 1.875 -1.625q0.625 -1.125 0.703125 -3.0625l-2.203125 0zm7.265625 0l0 -4.90625l4.515625 0l0 3.875q0 3.140625 -0.71875 4.515625q-1.015625 1.90625 -3.140625 2.859375l-1.03125 -1.65625q1.265625 -0.515625 1.875 -1.625q0.625 -1.125 0.703125 -3.0625l-2.203125 0z" fill-rule="nonzero"/></g></svg>