<svg version="1.1" viewBox="0.0 0.0 577.7217847769028 335.0787401574803" fill="none" stroke="none" stroke-linecap="square" stroke-miterlimit="10" xmlns:xlink="http://www.w3.org/1999/xlink" xmlns="http://www.w3.org/2000/svg"><clipPath id="p.0"><path d="m0 0l577.7218 0l0 335.07874l-577.7218 0l0 -335.07874z" clip-rule="nonzero"/></clipPath><g clip-path="url(#p.0)"><path fill="#000000" fill-opacity="0.0" d="m0 0l577.7218 0l0 335.07874l-577.7218 0z" fill-rule="evenodd"/><path fill="#000000" fill-opacity="0.0" d="m57.64042 0l513.4488 0l0 170.17323l-513.4488 0z" fill-rule="evenodd"/><path fill="#000000" d="m69.29667 22.806248l0 -4.046875l3.515625 0l0 4.046875l-3.515625 0zm0 24.59375l0 -20.75l3.515625 0l0 20.75l-3.515625 0zm8.871094 0l0 -20.75l3.15625 0l0 2.953125q2.296875 -3.421875 6.609375 -3.421875q1.875 0 3.4375 0.6875q1.578125 0.671875 2.359375 1.765625q0.78125 1.09375 1.09375 2.59375q0.203125 0.96875 0.203125 3.421875l0 12.75l-3.515625 0l0 -12.625q0 -2.140625 -0.421875 -3.203125q-0.40625 -1.0625 -1.453125 -1.703125q-1.046875 -0.640625 -2.453125 -0.640625q-2.234375 0 -3.875 1.4375q-1.625 1.421875 -1.625 5.40625l0 11.328125l-3.515625 0zm20.839844 -6.1875l3.46875 -0.546875q0.296875 2.078125 1.625 3.203125q1.34375 1.109375 3.75 1.109375q2.421875 0 3.59375 -0.984375q1.171875 -0.984375 1.171875 -2.3125q0 -1.203125 -1.03125 -1.875q-0.71875 -0.46875 -3.59375 -1.203125q-3.875 -0.96875 -5.375 -1.671875q-1.484375 -0.71875 -2.265625 -1.984375q-0.765625 -1.265625 -0.765625 -2.78125q0 -1.390625 0.640625 -2.5625q0.640625 -1.1875 1.734375 -1.96875q0.8125 -0.609375 2.21875 -1.03125q1.421875 -0.421875 3.046875 -0.421875q2.4375 0 4.28125 0.703125q1.859375 0.703125 2.734375 1.90625q0.875 1.203125 1.203125 3.21875l-3.4375 0.46875q-0.234375 -1.609375 -1.359375 -2.5q-1.109375 -0.90625 -3.171875 -0.90625q-2.421875 0 -3.453125 0.8125q-1.03125 0.796875 -1.03125 1.875q0 0.671875 0.421875 1.21875q0.4375 0.578125 1.359375 0.9375q0.515625 0.203125 3.09375 0.90625q3.734375 1.0 5.203125 1.640625q1.484375 0.625 2.3125 1.84375q0.84375 1.203125 0.84375 3.0q0 1.75 -1.03125 3.3125q-1.015625 1.546875 -2.953125 2.40625q-1.921875 0.84375 -4.375 0.84375q-4.03125 0 -6.15625 -1.671875q-2.125 -1.6875 -2.703125 -4.984375zm29.078133 3.046875l0.515625 3.09375q-1.4843826 0.328125 -2.6562576 0.328125q-1.921875 0 -2.984375 -0.609375q-1.046875 -0.609375 -1.484375 -1.59375q-0.421875 -0.984375 -0.421875 -4.15625l0 -11.9375l-2.578125 0l0 -2.734375l2.578125 0l0 -5.125l3.5 -2.109375l0 7.234375l3.5312576 0l0 2.734375l-3.5312576 0l0 12.140625q0 1.5 0.1875 1.9375q0.1875 0.421875 0.59375 0.671875q0.421875 0.25 1.203125 0.25q0.59375 0 1.5468826 -0.125zm3.3945312 3.140625l0 -20.75l3.171875 0l0 3.15625q1.203125 -2.21875 2.234375 -2.921875q1.03125 -0.703125 2.25 -0.703125q1.78125 0 3.625 1.140625l-1.21875 3.265625q-1.28125 -0.765625 -2.578125 -0.765625q-1.15625 0 -2.078125 0.703125q-0.90625 0.6875 -1.296875 1.90625q-0.59375 1.875 -0.59375 4.109375l0 10.859375l-3.515625 0zm26.960938 0l0 -3.046875q-2.421875 3.515625 -6.578125 3.515625q-1.84375 0 -3.4375 -0.703125q-1.59375 -0.703125 -2.359375 -1.765625q-0.765625 -1.0625 -1.078125 -2.609375q-0.21875 -1.03125 -0.21875 -3.28125l0 -12.859375l3.515625 0l0 11.515625q0 2.75 0.21875 3.703125q0.328125 1.390625 1.390625 2.1875q1.078125 0.78125 2.671875 0.78125q1.578125 0 2.953125 -0.8125q1.390625 -0.8125 1.96875 -2.203125q0.578125 -1.390625 0.578125 -4.046875l0 -11.125l3.515625 0l0 20.75l-3.140625 0zm22.183594 -7.59375l3.453125 0.4375q-0.5625 3.578125 -2.90625 5.609375q-2.328125 2.015625 -5.71875 2.015625q-4.265625 0 -6.859375 -2.78125q-2.578125 -2.78125 -2.578125 -7.984375q0 -3.359375 1.109375 -5.875q1.125 -2.515625 3.390625 -3.78125q2.28125 -1.265625 4.953125 -1.265625q3.375 0 5.515625 1.71875q2.15625 1.703125 2.765625 4.84375l-3.421875 0.53125q-0.484375 -2.09375 -1.734375 -3.140625q-1.234375 -1.0625 -2.984375 -1.0625q-2.65625 0 -4.328125 1.90625q-1.65625 1.90625 -1.65625 6.03125q0 4.171875 1.59375 6.078125q1.609375 1.890625 4.1875 1.890625q2.078125 0 3.453125 -1.265625q1.390625 -1.28125 1.765625 -3.90625zm20.0 0l3.453125 0.4375q-0.5625 3.578125 -2.90625 5.609375q-2.328125 2.015625 -5.71875 2.015625q-4.265625 0 -6.859375 -2.78125q-2.578125 -2.78125 -2.578125 -7.984375q0 -3.359375 1.109375 -5.875q1.125 -2.515625 3.390625 -3.78125q2.28125 -1.265625 4.953125 -1.265625q3.375 0 5.515625 1.71875q2.15625 1.703125 2.765625 4.84375l-3.421875 0.53125q-0.484375 -2.09375 -1.734375 -3.140625q-1.234375 -1.0625 -2.984375 -1.0625q-2.65625 0 -4.328125 1.90625q-1.65625 1.90625 -1.65625 6.03125q0 4.171875 1.59375 6.078125q1.609375 1.890625 4.1875 1.890625q2.078125 0 3.453125 -1.265625q1.390625 -1.28125 1.765625 -3.90625zm6.484375 -17.0l0 -4.046875l3.515625 0l0 4.046875l-3.515625 0zm0 24.59375l0 -20.75l3.515625 0l0 20.75l-3.515625 0zm7.5585938 -10.375q0 -5.765625 3.203125 -8.53125q2.671875 -2.3125 6.53125 -2.3125q4.265625 0 6.984375 2.8125q2.71875 2.796875 2.71875 7.734375q0 4.015625 -1.203125 6.3125q-1.203125 2.28125 -3.5 3.5625q-2.296875 1.265625 -5.0 1.265625q-4.359375 0 -7.046875 -2.796875q-2.6875 -2.796875 -2.6875 -8.046875zm3.609375 0q0 3.984375 1.734375 5.96875q1.75 1.984375 4.390625 1.984375q2.609375 0 4.34375 -1.984375q1.75 -2.0 1.75 -6.078125q0 -3.859375 -1.75 -5.828125q-1.75 -1.984375 -4.34375 -1.984375q-2.640625 0 -4.390625 1.96875q-1.734375 1.96875 -1.734375 5.953125zm19.949219 10.375l0 -20.75l3.15625 0l0 2.953125q2.296875 -3.421875 6.609375 -3.421875q1.875 0 3.4375 0.6875q1.578125 0.671875 2.359375 1.765625q0.78125 1.09375 1.09375 2.59375q0.203125 0.96875 0.203125 3.421875l0 12.75l-3.515625 0l0 -12.625q0 -2.140625 -0.421875 -3.203125q-0.40625 -1.0625 -1.453125 -1.703125q-1.046875 -0.640625 -2.453125 -0.640625q-2.234375 0 -3.875 1.4375q-1.625 1.421875 -1.625 5.40625l0 11.328125l-3.515625 0zm36.449203 -6.6875l3.625 0.453125q-0.859375 3.1875 -3.1875 4.953125q-2.3125 1.75 -5.9375 1.75q-4.546875 0 -7.21875 -2.796875q-2.65625 -2.8125 -2.65625 -7.875q0 -5.234375 2.6875 -8.125q2.703125 -2.890625 7.0 -2.890625q4.15625 0 6.796875 2.84375q2.640625 2.828125 2.640625 7.96875q0 0.3125 -0.03125 0.9375l-15.46875 0q0.203125 3.40625 1.9375 5.234375q1.734375 1.8125 4.34375 1.8125q1.921875 0 3.28125 -1.015625q1.375 -1.015625 2.1875 -3.25zm-11.546875 -5.671875l11.578125 0q-0.234375 -2.625 -1.328125 -3.9375q-1.671875 -2.03125 -4.359375 -2.03125q-2.421875 0 -4.078125 1.625q-1.640625 1.625 -1.8125 4.34375zm18.183594 6.171875l3.46875 -0.546875q0.296875 2.078125 1.625 3.203125q1.34375 1.109375 3.75 1.109375q2.421875 0 3.59375 -0.984375q1.171875 -0.984375 1.171875 -2.3125q0 -1.203125 -1.03125 -1.875q-0.71875 -0.46875 -3.59375 -1.203125q-3.875 -0.96875 -5.375 -1.671875q-1.484375 -0.71875 -2.265625 -1.984375q-0.765625 -1.265625 -0.765625 -2.78125q0 -1.390625 0.640625 -2.5625q0.640625 -1.1875 1.734375 -1.96875q0.8125 -0.609375 2.21875 -1.03125q1.421875 -0.421875 3.046875 -0.421875q2.4375 0 4.28125 0.703125q1.859375 0.703125 2.734375 1.90625q0.875 1.203125 1.203125 3.21875l-3.4375 0.46875q-0.234375 -1.609375 -1.359375 -2.5q-1.109375 -0.90625 -3.171875 -0.90625q-2.421875 0 -3.453125 0.8125q-1.03125 0.796875 -1.03125 1.875q0 0.671875 0.421875 1.21875q0.4375 0.578125 1.359375 0.9375q0.515625 0.203125 3.09375 0.90625q3.734375 1.0 5.203125 1.640625q1.484375 0.625 2.3125 1.84375q0.84375 1.203125 0.84375 3.0q0 1.75 -1.03125 3.3125q-1.015625 1.546875 -2.953125 2.40625q-1.921875 0.84375 -4.375 0.84375q-4.03125 0 -6.15625 -1.671875q-2.125 -1.6875 -2.703125 -4.984375z" fill-rule="nonzero"/><path fill="#000000" d="m79.031044 74.649994l0 4.375l-3.75 0l0 8.359375q0 2.546875 0.09375 2.96875q0.109375 0.421875 0.484375 0.703125q0.390625 0.265625 0.9375 0.265625q0.765625 0 2.203125 -0.53125l0.46875 4.25q-1.90625 0.828125 -4.328125 0.828125q-1.484375 0 -2.6875 -0.5q-1.1875 -0.5 -1.75 -1.28125q-0.546875 -0.796875 -0.765625 -2.140625q-0.171875 -0.96875 -0.171875 -3.875l0 -9.046875l-2.515625 0l0 -4.375l2.515625 0l0 -4.109375l5.515625 -3.203125l0 7.3125l3.75 0zm9.2734375 -7.890625l0 10.53125q2.65625 -3.109375 6.34375 -3.109375q1.890625 0 3.40625 0.703125q1.53125 0.703125 2.296875 1.796875q0.78125 1.09375 1.0625 2.421875q0.28125 1.328125 0.28125 4.125l0 12.171875l-5.484375 0l0 -10.953125q0 -3.265625 -0.3125 -4.140625q-0.3125 -0.890625 -1.109375 -1.40625q-0.78125 -0.515625 -1.96875 -0.515625q-1.375 0 -2.453125 0.671875q-1.0625 0.65625 -1.5625 2.0q-0.5 1.328125 -0.5 3.953125l0 10.390625l-5.484375 0l0 -28.640625l5.484375 0zm24.214844 28.640625l-5.484375 0l0 -20.75l5.09375 0l0 2.953125q1.3125 -2.09375 2.359375 -2.75q1.046875 -0.671875 2.375 -0.671875q1.875 0 3.609375 1.046875l-1.703125 4.78125q-1.390625 -0.90625 -2.578125 -0.90625q-1.15625 0 -1.953125 0.640625q-0.796875 0.640625 -1.265625 2.296875q-0.453125 1.65625 -0.453125 6.953125l0 6.40625zm9.050781 -10.671875q0 -2.734375 1.34375 -5.28125q1.34375 -2.5625 3.8125 -3.90625q2.4687576 -1.359375 5.5156326 -1.359375q4.71875 0 7.71875 3.0625q3.015625 3.0625 3.015625 7.71875q0 4.71875 -3.046875 7.8125q-3.03125 3.09375 -7.640625 3.09375q-2.859375 0 -5.4531326 -1.28125q-2.578125 -1.296875 -3.921875 -3.78125q-1.34375 -2.5 -1.34375 -6.078125zm5.625 0.296875q0 3.09375 1.4531326 4.734375q1.46875 1.640625 3.625 1.640625q2.140625 0 3.59375 -1.640625q1.453125 -1.640625 1.453125 -4.765625q0 -3.046875 -1.453125 -4.6875q-1.453125 -1.640625 -3.59375 -1.640625q-2.15625 0 -3.625 1.640625q-1.4531326 1.640625 -1.4531326 4.71875zm23.933601 10.375l-6.5625 -20.75l5.34375 0l3.875 13.59375l3.578125 -13.59375l5.296875 0l3.453125 13.59375l3.96875 -13.59375l5.40625 0l-6.65625 20.75l-5.28125 0l-3.5625 -13.34375l-3.515625 13.34375l-5.34375 0zm57.226562 0l-5.484375 0l0 -10.59375q0 -3.359375 -0.359375 -4.34375q-0.34375 -0.984375 -1.140625 -1.53125q-0.78125 -0.546875 -1.890625 -0.546875q-1.4375 0 -2.578125 0.78125q-1.125 0.78125 -1.546875 2.078125q-0.40625 1.28125 -0.40625 4.765625l0 9.390625l-5.5 0l0 -20.75l5.109375 0l0 3.046875q2.703125 -3.515625 6.828125 -3.515625q1.8125 0 3.3125 0.65625q1.515625 0.65625 2.28125 1.671875q0.78125 1.015625 1.078125 2.3125q0.296875 1.28125 0.296875 3.6875l0 12.890625zm17.589844 -6.609375l5.46875 0.921875q-1.0625 3.015625 -3.34375 4.59375q-2.265625 1.5625 -5.6875 1.5625q-5.40625 0 -8.0 -3.53125q-2.0625 -2.84375 -2.0625 -7.15625q0 -5.15625 2.6875 -8.078125q2.703125 -2.921875 6.828125 -2.921875q4.625 0 7.296875 3.0625q2.6875 3.0625 2.5625 9.359375l-13.75 0q0.0625 2.453125 1.328125 3.8125q1.28125 1.34375 3.171875 1.34375q1.28125 0 2.15625 -0.703125q0.890625 -0.703125 1.34375 -2.265625zm0.3125 -5.546875q-0.0625 -2.375 -1.234375 -3.609375q-1.171875 -1.25 -2.859375 -1.25q-1.796875 0 -2.96875 1.3125q-1.171875 1.3125 -1.140625 3.546875l8.203125 0zm13.777344 12.15625l-6.5625 -20.75l5.34375 0l3.875 13.59375l3.578125 -13.59375l5.296875 0l3.453125 13.59375l3.9687347 -13.59375l5.40625 0l-6.65625 20.75l-5.2812347 0l-3.5625 -13.34375l-3.515625 13.34375l-5.34375 0z" fill-rule="nonzero"/><path fill="#000000" d="m278.699 95.399994l0 -28.640625l20.703125 0l0 3.390625l-16.921875 0l0 8.765625l15.84375 0l0 3.359375l-15.84375 0l0 9.75l17.578125 0l0 3.375l-21.359375 0zm26.101562 0l0 -20.75l3.171875 0l0 3.15625q1.203125 -2.21875 2.234375 -2.921875q1.03125 -0.703125 2.25 -0.703125q1.78125 0 3.625 1.140625l-1.21875 3.265625q-1.28125 -0.765625 -2.578125 -0.765625q-1.15625 0 -2.078125 0.703125q-0.90625 0.6875 -1.296875 1.90625q-0.59375 1.875 -0.59375 4.109375l0 10.859375l-3.515625 0zm13.3203125 0l0 -20.75l3.171875 0l0 3.15625q1.203125 -2.21875 2.234375 -2.921875q1.03125 -0.703125 2.25 -0.703125q1.78125 0 3.625 1.140625l-1.21875 3.265625q-1.28125 -0.765625 -2.578125 -0.765625q-1.15625 0 -2.078125 0.703125q-0.90625 0.6875 -1.296875 1.90625q-0.59375 1.875 -0.59375 4.109375l0 10.859375l-3.515625 0zm12.0546875 -10.375q0 -5.765625 3.203125 -8.53125q2.671875 -2.3125 6.53125 -2.3125q4.265625 0 6.984375 2.8125q2.71875 2.796875 2.71875 7.734375q0 4.015625 -1.203125 6.3125q-1.203125 2.28125 -3.5 3.5625q-2.296875 1.265625 -5.0 1.265625q-4.359375 0 -7.046875 -2.796875q-2.6875 -2.796875 -2.6875 -8.046875zm3.609375 0q0 3.984375 1.734375 5.96875q1.75 1.984375 4.390625 1.984375q2.609375 0 4.34375 -1.984375q1.75 -2.0 1.75 -6.078125q0 -3.859375 -1.75 -5.828125q-1.75 -1.984375 -4.34375 -1.984375q-2.640625 0 -4.390625 1.96875q-1.734375 1.96875 -1.734375 5.953125zm19.902344 10.375l0 -20.75l3.171875 0l0 3.15625q1.203125 -2.21875 2.234375 -2.921875q1.03125 -0.703125 2.25 -0.703125q1.78125 0 3.625 1.140625l-1.21875 3.265625q-1.28125 -0.765625 -2.578125 -0.765625q-1.15625 0 -2.078125 0.703125q-0.90625 0.6875 -1.296875 1.90625q-0.59375 1.875 -0.59375 4.109375l0 10.859375l-3.515625 0zm20.085938 8.421875q-2.90625 -3.671875 -4.921875 -8.59375q-2.015625 -4.921875 -2.015625 -10.203125q0 -4.640625 1.5 -8.90625q1.765625 -4.9375 5.4375 -9.84375l2.515625 0q-2.359375 4.0625 -3.125 5.796875q-1.1875 2.703125 -1.875 5.625q-0.84375 3.65625 -0.84375 7.34375q0 9.40625 5.84375 18.78125l-2.515625 0zm6.6015625 -8.421875l0 -20.75l3.140625 0l0 2.921875q0.984375 -1.53125 2.59375 -2.453125q1.625 -0.9375 3.703125 -0.9375q2.296875 0 3.765625 0.96875q1.484375 0.953125 2.09375 2.671875q2.453125 -3.640625 6.40625 -3.640625q3.078125 0 4.734375 1.71875q1.671875 1.703125 1.671875 5.265625l0 14.234375l-3.5 0l0 -13.0625q0 -2.109375 -0.34375 -3.03125q-0.34375 -0.9375 -1.25 -1.5q-0.890625 -0.578125 -2.09375 -0.578125q-2.1875 0 -3.640625 1.46875q-1.4375 1.453125 -1.4375 4.65625l0 12.046875l-3.515625 0l0 -13.484375q0 -2.34375 -0.859375 -3.515625q-0.859375 -1.171875 -2.8125 -1.171875q-1.484375 0 -2.75 0.78125q-1.265625 0.78125 -1.828125 2.296875q-0.5625 1.5 -0.5625 4.328125l0 10.765625l-3.515625 0zm47.523438 -6.6875l3.625 0.453125q-0.859375 3.1875 -3.1875 4.953125q-2.3125 1.75 -5.9375 1.75q-4.546875 0 -7.21875 -2.796875q-2.65625 -2.8125 -2.65625 -7.875q0 -5.234375 2.6875 -8.125q2.703125 -2.890625 7.0 -2.890625q4.15625 0 6.796875 2.84375q2.640625 2.828125 2.640625 7.96875q0 0.3125 -0.03125 0.9375l-15.46875 0q0.203125 3.40625 1.9375 5.234375q1.734375 1.8125 4.34375 1.8125q1.921875 0 3.28125 -1.015625q1.375 -1.015625 2.1875 -3.25zm-11.546875 -5.671875l11.578125 0q-0.234375 -2.625 -1.328125 -3.9375q-1.671875 -2.03125 -4.359375 -2.03125q-2.421875 0 -4.078125 1.625q-1.640625 1.625 -1.8125 4.34375zm19.589844 12.359375l0 -20.75l3.15625 0l0 2.953125q2.296875 -3.421875 6.609375 -3.421875q1.875 0 3.4375 0.6875q1.578125 0.671875 2.359375 1.765625q0.78125 1.09375 1.09375 2.59375q0.203125 0.96875 0.203125 3.421875l0 12.75l-3.515625 0l0 -12.625q0 -2.140625 -0.421875 -3.203125q-0.40625 -1.0625 -1.453125 -1.703125q-1.046875 -0.640625 -2.453125 -0.640625q-2.234375 0 -3.875 1.4375q-1.625 1.421875 -1.625 5.40625l0 11.328125l-3.515625 0zm20.839844 -6.1875l3.46875 -0.546875q0.296875 2.078125 1.625 3.203125q1.34375 1.109375 3.75 1.109375q2.421875 0 3.59375 -0.984375q1.171875 -0.984375 1.171875 -2.3125q0 -1.203125 -1.03125 -1.875q-0.71875 -0.46875 -3.59375 -1.203125q-3.875 -0.96875 -5.375 -1.671875q-1.484375 -0.71875 -2.265625 -1.984375q-0.765625 -1.265625 -0.765625 -2.78125q0 -1.390625 0.640625 -2.5625q0.640625 -1.1875 1.734375 -1.96875q0.8125 -0.609375 2.21875 -1.03125q1.421875 -0.421875 3.046875 -0.421875q2.4375 0 4.28125 0.703125q1.859375 0.703125 2.734375 1.90625q0.875 1.203125 1.203125 3.21875l-3.4375 0.46875q-0.234375 -1.609375 -1.359375 -2.5q-1.109375 -0.90625 -3.171875 -0.90625q-2.421875 0 -3.453125 0.8125q-1.03125 0.796875 -1.03125 1.875q0 0.671875 0.421875 1.21875q0.4375 0.578125 1.359375 0.9375q0.515625 0.203125 3.09375 0.90625q3.734375 1.0 5.203125 1.640625q1.484375 0.625 2.3125 1.84375q0.84375 1.203125 0.84375 3.0q0 1.75 -1.03125 3.3125q-1.015625 1.546875 -2.953125 2.40625q-1.921875 0.84375 -4.375 0.84375q-4.03125 0 -6.15625 -1.671875q-2.125 -1.6875 -2.703125 -4.984375zm34.9375 3.625q-1.953125 1.65625 -3.765625 2.34375q-1.796875 0.6875 -3.875 0.6875q-3.40625 0 -5.25 -1.671875q-1.828125 -1.671875 -1.828125 -4.265625q0 -1.53125 0.6875 -2.78125q0.6875 -1.265625 1.8125 -2.015625q1.125 -0.765625 2.53125 -1.15625q1.03125 -0.28125 3.125 -0.53125q4.265625 -0.515625 6.265625 -1.21875q0.03125 -0.71875 0.03125 -0.90625q0 -2.15625 -1.0 -3.03125q-1.34375 -1.1875 -4.0 -1.1875q-2.484375 0 -3.671875 0.875q-1.171875 0.859375 -1.75 3.0625l-3.4375 -0.46875q0.46875 -2.203125 1.546875 -3.5625q1.078125 -1.359375 3.109375 -2.09375q2.03125 -0.734375 4.703125 -0.734375q2.65625 0 4.3125 0.625q1.671875 0.625 2.453125 1.578125q0.78125 0.953125 1.09375 2.390625q0.171875 0.90625 0.171875 3.25l0 4.6875q0 4.890625 0.21875 6.203125q0.234375 1.296875 0.890625 2.484375l-3.671875 0q-0.546875 -1.09375 -0.703125 -2.5625zm-0.296875 -7.84375q-1.90625 0.78125 -5.734375 1.328125q-2.171875 0.3125 -3.078125 0.703125q-0.890625 0.390625 -1.375 1.140625q-0.484375 0.75 -0.484375 1.671875q0 1.40625 1.0625 2.34375q1.0625 0.9375 3.109375 0.9375q2.03125 0 3.609375 -0.890625q1.59375 -0.890625 2.328125 -2.4375q0.5625 -1.1875 0.5625 -3.515625l0 -1.28125zm8.996094 -14.140625l0 -4.09375l3.515625 0l0 4.09375l-3.515625 0zm-4.46875 32.59375l0.671875 -2.984375q1.046875 0.265625 1.65625 0.265625q1.078125 0 1.609375 -0.71875q0.53125 -0.703125 0.53125 -3.546875l0 -21.8125l3.515625 0l0 21.890625q0 3.828125 -1.0 5.328125q-1.265625 1.953125 -4.21875 1.953125q-1.4375 0 -2.765625 -0.375zm27.57425 -14.734375l3.625 0.453125q-0.859375 3.1875 -3.1875 4.953125q-2.3125 1.75 -5.9375 1.75q-4.546875 0 -7.2187805 -2.796875q-2.65625 -2.8125 -2.65625 -7.875q0 -5.234375 2.6875 -8.125q2.7031555 -2.890625 7.0000305 -2.890625q4.15625 0 6.796875 2.84375q2.640625 2.828125 2.640625 7.96875q0 0.3125 -0.03125 0.9375l-15.4687805 0q0.203125 3.40625 1.9375305 5.234375q1.734375 1.8125 4.34375 1.8125q1.921875 0 3.28125 -1.015625q1.375 -1.015625 2.1875 -3.25zm-11.5469055 -5.671875l11.5781555 0q-0.234375 -2.625 -1.328125 -3.9375q-1.671875 -2.03125 -4.359375 -2.03125q-2.421875 0 -4.078125 1.625q-1.640625 1.625 -1.8125305 4.34375zm21.88675 20.78125l-2.515625 0q5.84375 -9.375 5.84375 -18.78125q0 -3.671875 -0.84375 -7.28125q-0.65625 -2.921875 -1.859375 -5.625q-0.75 -1.75 -3.140625 -5.859375l2.515625 0q3.671875 4.90625 5.4375 9.84375q1.5 4.265625 1.5 8.90625q0 5.28125 -2.03125 10.203125q-2.015625 4.921875 -4.90625 8.59375zm11.9453125 -25.15625l0 -4.015625l4.0 0l0 4.015625l-4.0 0zm0 16.734375l0 -4.0l4.0 0l0 4.0q0 2.203125 -0.78125 3.5625q-0.78125 1.359375 -2.484375 2.109375l-0.96875 -1.515625q1.109375 -0.484375 1.625 -1.4375q0.53125 -0.9375 0.59375 -2.71875l-1.984375 0z" fill-rule="nonzero"/><path fill="#000000" d="m69.29667 118.806244l0 -4.046875l3.515625 0l0 4.046875l-3.515625 0zm0 24.59375l0 -20.75l3.515625 0l0 20.75l-3.515625 0zm8.871094 0l0 -20.75l3.15625 0l0 2.953125q2.296875 -3.421875 6.609375 -3.421875q1.875 0 3.4375 0.6875q1.578125 0.671875 2.359375 1.765625q0.78125 1.09375 1.09375 2.59375q0.203125 0.96875 0.203125 3.421875l0 12.75l-3.515625 0l0 -12.625q0 -2.140625 -0.421875 -3.203125q-0.40625 -1.0625 -1.453125 -1.703125q-1.046875 -0.640625 -2.453125 -0.640625q-2.234375 0 -3.875 1.4375q-1.625 1.421875 -1.625 5.40625l0 11.328125l-3.515625 0zm20.839844 -6.1875l3.46875 -0.546875q0.296875 2.078125 1.625 3.203125q1.34375 1.109375 3.75 1.109375q2.421875 0 3.59375 -0.984375q1.171875 -0.984375 1.171875 -2.3125q0 -1.203125 -1.03125 -1.875q-0.71875 -0.46875 -3.59375 -1.203125q-3.875 -0.96875 -5.375 -1.671875q-1.484375 -0.71875 -2.265625 -1.984375q-0.765625 -1.265625 -0.765625 -2.78125q0 -1.390625 0.640625 -2.5625q0.640625 -1.1875 1.734375 -1.96875q0.8125 -0.609375 2.21875 -1.03125q1.421875 -0.421875 3.046875 -0.421875q2.4375 0 4.28125 0.703125q1.859375 0.703125 2.734375 1.90625q0.875 1.203125 1.203125 3.21875l-3.4375 0.46875q-0.234375 -1.609375 -1.359375 -2.5q-1.109375 -0.90625 -3.171875 -0.90625q-2.421875 0 -3.453125 0.8125q-1.03125 0.796875 -1.03125 1.875q0 0.671875 0.421875 1.21875q0.4375 0.578125 1.359375 0.9375q0.515625 0.203125 3.09375 0.90625q3.734375 1.0 5.203125 1.640625q1.484375 0.625 2.3125 1.84375q0.84375 1.203125 0.84375 3.0q0 1.75 -1.03125 3.3125q-1.015625 1.546875 -2.953125 2.40625q-1.921875 0.84375 -4.375 0.84375q-4.03125 0 -6.15625 -1.671875q-2.125 -1.6875 -2.703125 -4.984375zm29.078133 3.046875l0.515625 3.09375q-1.4843826 0.328125 -2.6562576 0.328125q-1.921875 0 -2.984375 -0.609375q-1.046875 -0.609375 -1.484375 -1.59375q-0.421875 -0.984375 -0.421875 -4.15625l0 -11.9375l-2.578125 0l0 -2.734375l2.578125 0l0 -5.125l3.5 -2.109375l0 7.234375l3.5312576 0l0 2.734375l-3.5312576 0l0 12.140625q0 1.5 0.1875 1.9375q0.1875 0.421875 0.59375 0.671875q0.421875 0.25 1.203125 0.25q0.59375 0 1.5468826 -0.125zm3.3945312 3.140625l0 -20.75l3.171875 0l0 3.15625q1.203125 -2.21875 2.234375 -2.921875q1.03125 -0.703125 2.25 -0.703125q1.78125 0 3.625 1.140625l-1.21875 3.265625q-1.28125 -0.765625 -2.578125 -0.765625q-1.15625 0 -2.078125 0.703125q-0.90625 0.6875 -1.296875 1.90625q-0.59375 1.875 -0.59375 4.109375l0 10.859375l-3.515625 0zm26.960938 0l0 -3.046875q-2.421875 3.515625 -6.578125 3.515625q-1.84375 0 -3.4375 -0.703125q-1.59375 -0.703125 -2.359375 -1.765625q-0.765625 -1.0625 -1.078125 -2.609375q-0.21875 -1.03125 -0.21875 -3.28125l0 -12.859375l3.515625 0l0 11.515625q0 2.75 0.21875 3.703125q0.328125 1.390625 1.390625 2.1875q1.078125 0.78125 2.671875 0.78125q1.578125 0 2.953125 -0.8125q1.390625 -0.8125 1.96875 -2.203125q0.578125 -1.390625 0.578125 -4.046875l0 -11.125l3.515625 0l0 20.75l-3.140625 0zm22.183594 -7.59375l3.453125 0.4375q-0.5625 3.578125 -2.90625 5.609375q-2.328125 2.015625 -5.71875 2.015625q-4.265625 0 -6.859375 -2.78125q-2.578125 -2.78125 -2.578125 -7.984375q0 -3.359375 1.109375 -5.875q1.125 -2.515625 3.390625 -3.78125q2.28125 -1.265625 4.953125 -1.265625q3.375 0 5.515625 1.71875q2.15625 1.703125 2.765625 4.84375l-3.421875 0.53125q-0.484375 -2.09375 -1.734375 -3.140625q-1.234375 -1.0625 -2.984375 -1.0625q-2.65625 0 -4.328125 1.90625q-1.65625 1.90625 -1.65625 6.03125q0 4.171875 1.59375 6.078125q1.609375 1.890625 4.1875 1.890625q2.078125 0 3.453125 -1.265625q1.390625 -1.28125 1.765625 -3.90625zm20.0 0l3.453125 0.4375q-0.5625 3.578125 -2.90625 5.609375q-2.328125 2.015625 -5.71875 2.015625q-4.265625 0 -6.859375 -2.78125q-2.578125 -2.78125 -2.578125 -7.984375q0 -3.359375 1.109375 -5.875q1.125 -2.515625 3.390625 -3.78125q2.28125 -1.265625 4.953125 -1.265625q3.375 0 5.515625 1.71875q2.15625 1.703125 2.765625 4.84375l-3.421875 0.53125q-0.484375 -2.09375 -1.734375 -3.140625q-1.234375 -1.0625 -2.984375 -1.0625q-2.65625 0 -4.328125 1.90625q-1.65625 1.90625 -1.65625 6.03125q0 4.171875 1.59375 6.078125q1.609375 1.890625 4.1875 1.890625q2.078125 0 3.453125 -1.265625q1.390625 -1.28125 1.765625 -3.90625zm6.484375 -17.0l0 -4.046875l3.515625 0l0 4.046875l-3.515625 0zm0 24.59375l0 -20.75l3.515625 0l0 20.75l-3.515625 0zm7.5585938 -10.375q0 -5.765625 3.203125 -8.53125q2.671875 -2.3125 6.53125 -2.3125q4.265625 0 6.984375 2.8125q2.71875 2.796875 2.71875 7.734375q0 4.015625 -1.203125 6.3125q-1.203125 2.28125 -3.5 3.5625q-2.296875 1.265625 -5.0 1.265625q-4.359375 0 -7.046875 -2.796875q-2.6875 -2.796875 -2.6875 -8.046875zm3.609375 0q0 3.984375 1.734375 5.96875q1.75 1.984375 4.390625 1.984375q2.609375 0 4.34375 -1.984375q1.75 -2.0 1.75 -6.078125q0 -3.859375 -1.75 -5.828125q-1.75 -1.984375 -4.34375 -1.984375q-2.640625 0 -4.390625 1.96875q-1.734375 1.96875 -1.734375 5.953125zm19.949219 10.375l0 -20.75l3.15625 0l0 2.953125q2.296875 -3.421875 6.609375 -3.421875q1.875 0 3.4375 0.6875q1.578125 0.671875 2.359375 1.765625q0.78125 1.09375 1.09375 2.59375q0.203125 0.96875 0.203125 3.421875l0 12.75l-3.515625 0l0 -12.625q0 -2.140625 -0.421875 -3.203125q-0.40625 -1.0625 -1.453125 -1.703125q-1.046875 -0.640625 -2.453125 -0.640625q-2.234375 0 -3.875 1.4375q-1.625 1.421875 -1.625 5.40625l0 11.328125l-3.515625 0zm36.449203 -6.6875l3.625 0.453125q-0.859375 3.1875 -3.1875 4.953125q-2.3125 1.75 -5.9375 1.75q-4.546875 0 -7.21875 -2.796875q-2.65625 -2.8125 -2.65625 -7.875q0 -5.234375 2.6875 -8.125q2.703125 -2.890625 7.0 -2.890625q4.15625 0 6.796875 2.84375q2.640625 2.828125 2.640625 7.96875q0 0.3125 -0.03125 0.9375l-15.46875 0q0.203125 3.40625 1.9375 5.234375q1.734375 1.8125 4.34375 1.8125q1.921875 0 3.28125 -1.015625q1.375 -1.015625 2.1875 -3.25zm-11.546875 -5.671875l11.578125 0q-0.234375 -2.625 -1.328125 -3.9375q-1.671875 -2.03125 -4.359375 -2.03125q-2.421875 0 -4.078125 1.625q-1.640625 1.625 -1.8125 4.34375zm18.183594 6.171875l3.46875 -0.546875q0.296875 2.078125 1.625 3.203125q1.34375 1.109375 3.75 1.109375q2.421875 0 3.59375 -0.984375q1.171875 -0.984375 1.171875 -2.3125q0 -1.203125 -1.03125 -1.875q-0.71875 -0.46875 -3.59375 -1.203125q-3.875 -0.96875 -5.375 -1.671875q-1.484375 -0.71875 -2.265625 -1.984375q-0.765625 -1.265625 -0.765625 -2.78125q0 -1.390625 0.640625 -2.5625q0.640625 -1.1875 1.734375 -1.96875q0.8125 -0.609375 2.21875 -1.03125q1.421875 -0.421875 3.046875 -0.421875q2.4375 0 4.28125 0.703125q1.859375 0.703125 2.734375 1.90625q0.875 1.203125 1.203125 3.21875l-3.4375 0.46875q-0.234375 -1.609375 -1.359375 -2.5q-1.109375 -0.90625 -3.171875 -0.90625q-2.421875 0 -3.453125 0.8125q-1.03125 0.796875 -1.03125 1.875q0 0.671875 0.421875 1.21875q0.4375 0.578125 1.359375 0.9375q0.515625 0.203125 3.09375 0.90625q3.734375 1.0 5.203125 1.640625q1.484375 0.625 2.3125 1.84375q0.84375 1.203125 0.84375 3.0q0 1.75 -1.03125 3.3125q-1.015625 1.546875 -2.953125 2.40625q-1.921875 0.84375 -4.375 0.84375q-4.03125 0 -6.15625 -1.671875q-2.125 -1.6875 -2.703125 -4.984375zm46.05078 3.625q-1.953125 1.65625 -3.765625 2.34375q-1.796875 0.6875 -3.875 0.6875q-3.40625 0 -5.25 -1.671875q-1.828125 -1.671875 -1.828125 -4.265625q0 -1.53125 0.6875 -2.78125q0.6875 -1.265625 1.8125 -2.015625q1.125 -0.765625 2.53125 -1.15625q1.03125 -0.28125 3.125 -0.53125q4.265625 -0.515625 6.265625 -1.21875q0.03125 -0.71875 0.03125 -0.90625q0 -2.15625 -1.0 -3.03125q-1.34375 -1.1875 -4.0 -1.1875q-2.484375 0 -3.671875 0.875q-1.171875 0.859375 -1.75 3.0625l-3.4375 -0.46875q0.46875 -2.203125 1.546875 -3.5625q1.078125 -1.359375 3.109375 -2.09375q2.03125 -0.734375 4.703125 -0.734375q2.65625 0 4.3125 0.625q1.671875 0.625 2.453125 1.578125q0.78125 0.953125 1.09375 2.390625q0.171875 0.90625 0.171875 3.25l0 4.6875q0 4.890625 0.21875 6.203125q0.234375 1.296875 0.890625 2.484375l-3.671875 0q-0.546875 -1.09375 -0.703125 -2.5625zm-0.296875 -7.84375q-1.90625 0.78125 -5.734375 1.328125q-2.171875 0.3125 -3.078125 0.703125q-0.890625 0.390625 -1.375 1.140625q-0.484375 0.75 -0.484375 1.671875q0 1.40625 1.0625 2.34375q1.0625 0.9375 3.109375 0.9375q2.03125 0 3.609375 -0.890625q1.59375 -0.890625 2.328125 -2.4375q0.5625 -1.1875 0.5625 -3.515625l0 -1.28125zm12.246094 10.40625l-3.25 0l0 -28.640625l3.515625 0l0 10.21875q2.21875 -2.796875 5.671875 -2.796875q1.921875 0 3.625 0.78125q1.71875 0.765625 2.8125 2.171875q1.109375 1.390625 1.734375 3.359375q0.625 1.96875 0.625 4.21875q0 5.328125 -2.640625 8.25q-2.640625 2.90625 -6.328125 2.90625q-3.671875 0 -5.765625 -3.0625l0 2.59375zm-0.03125 -10.53125q0 3.734375 1.015625 5.390625q1.65625 2.71875 4.484375 2.71875q2.3125 0 3.984375 -2.0q1.6875 -2.0 1.6875 -5.96875q0 -4.0625 -1.609375 -6.0q-1.609375 -1.9375 -3.90625 -1.9375q-2.296875 0 -3.984375 2.015625q-1.671875 2.0 -1.671875 5.78125zm17.730469 0.15625q0 -5.765625 3.203125 -8.53125q2.671875 -2.3125 6.53125 -2.3125q4.265625 0 6.984375 2.8125q2.71875 2.796875 2.71875 7.734375q0 4.015625 -1.203125 6.3125q-1.203125 2.28125 -3.5 3.5625q-2.296875 1.265625 -5.0 1.265625q-4.359375 0 -7.046875 -2.796875q-2.6875 -2.796875 -2.6875 -8.046875zm3.609375 0q0 3.984375 1.734375 5.96875q1.75 1.984375 4.390625 1.984375q2.609375 0 4.34375 -1.984375q1.75 -2.0 1.75 -6.078125q0 -3.859375 -1.75 -5.828125q-1.75 -1.984375 -4.34375 -1.984375q-2.640625 0 -4.390625 1.96875q-1.734375 1.96875 -1.734375 5.953125zm19.902344 10.375l0 -20.75l3.171875 0l0 3.15625q1.203125 -2.21875 2.234375 -2.921875q1.03125 -0.703125 2.25 -0.703125q1.78125 0 3.625 1.140625l-1.21875 3.265625q-1.28125 -0.765625 -2.578125 -0.765625q-1.15625 0 -2.078125 0.703125q-0.90625 0.6875 -1.296875 1.90625q-0.59375 1.875 -0.59375 4.109375l0 10.859375l-3.515625 0zm21.039062 -3.140625l0.515625 3.09375q-1.484375 0.328125 -2.65625 0.328125q-1.921875 0 -2.984375 -0.609375q-1.046875 -0.609375 -1.484375 -1.59375q-0.421875 -0.984375 -0.421875 -4.15625l0 -11.9375l-2.578125 0l0 -2.734375l2.578125 0l0 -5.125l3.5 -2.109375l0 7.234375l3.53125 0l0 2.734375l-3.53125 0l0 12.140625q0 1.5 0.1875 1.9375q0.1875 0.421875 0.59375 0.671875q0.421875 0.25 1.203125 0.25q0.59375 0 1.546875 -0.125zm16.972656 0.578125q-1.953125 1.65625 -3.765625 2.34375q-1.796875 0.6875 -3.875 0.6875q-3.40625 0 -5.25 -1.671875q-1.828125 -1.671875 -1.828125 -4.265625q0 -1.53125 0.6875 -2.78125q0.6875 -1.265625 1.8125 -2.015625q1.125 -0.765625 2.53125 -1.15625q1.03125 -0.28125 3.125 -0.53125q4.265625 -0.515625 6.265625 -1.21875q0.03125 -0.71875 0.03125 -0.90625q0 -2.15625 -1.0 -3.03125q-1.34375 -1.1875 -4.0 -1.1875q-2.484375 0 -3.671875 0.875q-1.171875 0.859375 -1.75 3.0625l-3.4375 -0.46875q0.46875 -2.203125 1.546875 -3.5625q1.078125 -1.359375 3.109375 -2.09375q2.03125 -0.734375 4.703125 -0.734375q2.65625 0 4.3125 0.625q1.671875 0.625 2.453125 1.578125q0.78125 0.953125 1.09375 2.390625q0.171875 0.90625 0.171875 3.25l0 4.6875q0 4.890625 0.21875 6.203125q0.234375 1.296875 0.890625 2.484375l-3.671875 0q-0.546875 -1.09375 -0.703125 -2.5625zm-0.296875 -7.84375q-1.90625 0.78125 -5.734375 1.328125q-2.171875 0.3125 -3.078125 0.703125q-0.890625 0.390625 -1.375 1.140625q-0.484375 0.75 -0.484375 1.671875q0 1.40625 1.0625 2.34375q1.0625 0.9375 3.109375 0.9375q2.03125 0 3.609375 -0.890625q1.59375 -0.890625 2.328125 -2.4375q0.5625 -1.1875 0.5625 -3.515625l0 -1.28125zm22.464844 10.40625l0 -2.625q-1.96875 3.09375 -5.796875 3.09375q-2.484375 0 -4.5625 -1.359375q-2.078125 -1.375 -3.21875 -3.828125q-1.140625 -2.453125 -1.140625 -5.640625q0 -3.09375 1.03125 -5.625q1.03125 -2.53125 3.09375 -3.875q2.078125 -1.359375 4.640625 -1.359375q1.875 0 3.328125 0.796875q1.46875 0.796875 2.390625 2.0625l0 -10.28125l3.5 0l0 28.640625l-3.265625 0zm-11.109375 -10.359375q0 3.984375 1.671875 5.96875q1.6875 1.96875 3.96875 1.96875q2.3125 0 3.921875 -1.875q1.609375 -1.890625 1.609375 -5.765625q0 -4.25 -1.640625 -6.234375q-1.640625 -2.0 -4.046875 -2.0q-2.34375 0 -3.921875 1.921875q-1.5625 1.90625 -1.5625 6.015625zm33.433594 7.796875q-1.953125 1.65625 -3.765625 2.34375q-1.796875 0.6875 -3.875 0.6875q-3.40625 0 -5.25 -1.671875q-1.828125 -1.671875 -1.828125 -4.265625q0 -1.53125 0.6875 -2.78125q0.6875 -1.265625 1.8125 -2.015625q1.125 -0.765625 2.53125 -1.15625q1.03125 -0.28125 3.125 -0.53125q4.265625 -0.515625 6.265625 -1.21875q0.03125 -0.71875 0.03125 -0.90625q0 -2.15625 -1.0 -3.03125q-1.34375 -1.1875 -4.0 -1.1875q-2.484375 0 -3.671875 0.875q-1.171875 0.859375 -1.75 3.0625l-3.4375 -0.46875q0.46875 -2.203125 1.546875 -3.5625q1.078125 -1.359375 3.109375 -2.09375q2.03125 -0.734375 4.703125 -0.734375q2.65625 0 4.3125 0.625q1.671875 0.625 2.453125 1.578125q0.78125 0.953125 1.09375 2.390625q0.171875 0.90625 0.171875 3.25l0 4.6875q0 4.890625 0.21875 6.203125q0.234375 1.296875 0.890625 2.484375l-3.671875 0q-0.546875 -1.09375 -0.703125 -2.5625zm-0.296875 -7.84375q-1.90625 0.78125 -5.734375 1.328125q-2.171875 0.3125 -3.078125 0.703125q-0.890625 0.390625 -1.375 1.140625q-0.484375 0.75 -0.484375 1.671875q0 1.40625 1.0625 2.34375q1.0625 0.9375 3.109375 0.9375q2.03125 0 3.609375 -0.890625q1.59375 -0.890625 2.328125 -2.4375q0.5625 -1.1875 0.5625 -3.515625l0 -1.28125zm7.6054688 4.21875l3.46875 -0.546875q0.296875 2.078125 1.625 3.203125q1.34375 1.109375 3.75 1.109375q2.421875 0 3.59375 -0.984375q1.171875 -0.984375 1.171875 -2.3125q0 -1.203125 -1.03125 -1.875q-0.71875 -0.46875 -3.59375 -1.203125q-3.875 -0.96875 -5.375 -1.671875q-1.484375 -0.71875 -2.265625 -1.984375q-0.765625 -1.265625 -0.765625 -2.78125q0 -1.390625 0.640625 -2.5625q0.640625 -1.1875 1.734375 -1.96875q0.8125 -0.609375 2.21875 -1.03125q1.421875 -0.421875 3.046875 -0.421875q2.4375 0 4.28125 0.703125q1.859375 0.703125 2.734375 1.90625q0.875 1.203125 1.203125 3.21875l-3.4375 0.46875q-0.234375 -1.609375 -1.359375 -2.5q-1.109375 -0.90625 -3.171875 -0.90625q-2.421875 0 -3.453125 0.8125q-1.03125 0.796875 -1.03125 1.875q0 0.671875 0.421875 1.21875q0.4375 0.578125 1.359375 0.9375q0.515625 0.203125 3.09375 0.90625q3.734375 1.0 5.203125 1.640625q1.484375 0.625 2.3125 1.84375q0.84375 1.203125 0.84375 3.0q0 1.75 -1.03125 3.3125q-1.015625 1.546875 -2.953125 2.40625q-1.921875 0.84375 -4.375 0.84375q-4.03125 0 -6.15625 -1.671875q-2.125 -1.6875 -2.703125 -4.984375z" fill-rule="nonzero"/><path fill="#000000" fill-opacity="0.0" d="m57.64042 85.08662l-45.102364 0l0 249.44882" fill-rule="evenodd"/><path stroke="#9900ff" stroke-width="3.0" stroke-linejoin="round" stroke-linecap="butt" d="m57.64042 85.08662l-45.102364 0l0 231.44882" fill-rule="evenodd"/><path fill="#9900ff" stroke="#9900ff" stroke-width="3.0" stroke-linecap="butt" d="m7.5828605 316.53543l4.955197 13.614288l4.9551983 -13.614288z" fill-rule="evenodd"/><path fill="#000000" fill-opacity="0.0" d="m37.278214 165.8189l453.82678 0l0 161.44884l-453.82678 0z" fill-rule="evenodd"/><path fill="#9900ff" d="m47.340714 213.2189l5.96875 -28.640625l3.53125 0l-5.96875 28.640625l-3.53125 0zm23.136719 -2.578125q-1.828125 1.578125 -3.53125 2.3125q-1.703125 0.734375 -3.640625 0.734375q-2.859375 0 -4.625 -1.6875q-1.75 -1.6875 -1.75 -4.328125q0 -1.734375 0.78125 -3.078125q0.796875 -1.34375 2.09375 -2.140625q1.3125 -0.8125 3.21875 -1.171875q1.1875 -0.234375 4.515625 -0.359375q3.328125 -0.140625 4.78125 -0.71875q0.40625 -1.4375 0.40625 -2.390625q0 -1.234375 -0.90625 -1.9375q-1.21875 -0.984375 -3.59375 -0.984375q-2.21875 0 -3.640625 1.0q-1.40625 0.984375 -2.0625 2.796875l-3.5625 -0.3125q1.09375 -3.09375 3.453125 -4.734375q2.375 -1.640625 6.0 -1.640625q3.84375 0 6.09375 1.84375q1.71875 1.359375 1.71875 3.546875q0 1.671875 -0.5 3.859375l-1.140625 5.15625q-0.546875 2.453125 -0.546875 4.0q0 0.96875 0.421875 2.8125l-3.578125 0q-0.28125 -1.015625 -0.40625 -2.578125zm1.3125 -7.9375q-0.75 0.296875 -1.59375 0.453125q-0.84375 0.15625 -2.84375 0.328125q-3.078125 0.28125 -4.359375 0.703125q-1.265625 0.421875 -1.90625 1.34375q-0.640625 0.90625 -0.640625 2.015625q0 1.484375 1.015625 2.453125q1.03125 0.953125 2.921875 0.953125q1.765625 0 3.375 -0.921875q1.625 -0.9375 2.5625 -2.59375q0.9375 -1.65625 1.46875 -4.734375zm6.9492188 10.515625l4.34375 -20.75l3.203125 0l-0.765625 3.625q2.09375 -2.140625 3.90625 -3.109375q1.8125 -0.984375 3.703125 -0.984375q2.53125 0 3.953125 1.375q1.4375 1.359375 1.4375 3.65625q0 1.140625 -0.5 3.625l-2.640625 12.5625l-3.53125 0l2.75 -13.140625q0.40625 -1.921875 0.40625 -2.84375q0 -1.03125 -0.71875 -1.671875q-0.703125 -0.640625 -2.046875 -0.640625q-2.71875 0 -4.84375 1.953125q-2.109375 1.953125 -3.109375 6.6875l-2.015625 9.65625l-3.53125 0zm21.699219 0l0.5625 -2.734375l11.15625 -12.5625q1.1875 -1.328125 2.65625 -2.75q-2.515625 0.25 -3.609375 0.25l-7.71875 0l0.625 -2.953125l16.03125 0l-0.46875 2.234375l-11.25 12.640625q-0.953125 1.0625 -2.84375 2.9375q2.953125 -0.171875 4.046875 -0.171875l8.15625 0l-0.640625 3.109375l-16.703125 0zm34.53125 -2.578125q-1.828125 1.578125 -3.53125 2.3125q-1.703125 0.734375 -3.640625 0.734375q-2.859375 0 -4.625 -1.6875q-1.75 -1.6875 -1.75 -4.328125q0 -1.734375 0.78125 -3.078125q0.796875 -1.34375 2.09375 -2.140625q1.3125 -0.8125 3.21875 -1.171875q1.1875 -0.234375 4.515625 -0.359375q3.328125 -0.140625 4.78125 -0.71875q0.40625 -1.4375 0.40625 -2.390625q0 -1.234375 -0.90625 -1.9375q-1.21875 -0.984375 -3.59375 -0.984375q-2.21875 0 -3.640625 1.0q-1.40625 0.984375 -2.0625 2.796875l-3.5625 -0.3125q1.09375 -3.09375 3.453125 -4.734375q2.375 -1.640625 6.0 -1.640625q3.84375 0 6.09375 1.84375q1.71875 1.359375 1.71875 3.546875q0 1.671875 -0.5 3.859375l-1.140625 5.15625q-0.546875 2.453125 -0.546875 4.0q0 0.96875 0.421875 2.8125l-3.578125 0q-0.28125 -1.015625 -0.40625 -2.578125zm1.3125 -7.9375q-0.75 0.296875 -1.59375 0.453125q-0.84375 0.15625 -2.84375 0.328125q-3.078125 0.28125 -4.359375 0.703125q-1.265625 0.421875 -1.90625 1.34375q-0.640625 0.90625 -0.640625 2.015625q0 1.484375 1.015625 2.453125q1.03125 0.953125 2.921875 0.953125q1.765625 0 3.375 -0.921875q1.625 -0.9375 2.5625 -2.59375q0.9375 -1.65625 1.46875 -4.734375zm33.296875 3.46875l3.4375 0.34375q-0.734375 2.5625 -3.40625 4.875q-2.671875 2.296875 -6.359375 2.296875q-2.296875 0 -4.234375 -1.0625q-1.921875 -1.0625 -2.921875 -3.09375q-1.0 -2.03125 -1.0 -4.640625q0 -3.390625 1.5625 -6.578125q1.578125 -3.203125 4.078125 -4.75q2.5 -1.5625 5.40625 -1.5625q3.71875 0 5.921875 2.3125q2.21875 2.296875 2.21875 6.28125q0 1.53125 -0.265625 3.125l-15.28125 0q-0.078125 0.609375 -0.078125 1.09375q0 2.921875 1.34375 4.453125q1.34375 1.53125 3.265625 1.53125q1.828125 0 3.578125 -1.1875q1.765625 -1.203125 2.734375 -3.4375zm-10.265625 -5.140625l11.640625 0q0.015625 -0.546875 0.015625 -0.78125q0 -2.65625 -1.328125 -4.0625q-1.328125 -1.421875 -3.421875 -1.421875q-2.265625 0 -4.140625 1.5625q-1.859375 1.5625 -2.765625 4.703125zm15.886719 12.1875l9.03125 -10.53125l-5.171875 -10.21875l3.90625 0l1.75 3.703125q0.984375 2.0625 1.765625 3.953125l5.96875 -7.65625l4.3125 0l-8.703125 10.5l5.234375 10.25l-3.90625 0l-2.078125 -4.21875q-0.65625 -1.34375 -1.5 -3.34375l-6.171875 7.5625l-4.4375 0zm35.703125 -7.5625l3.546875 0.375q-1.328125 3.890625 -3.78125 5.78125q-2.453125 1.875 -5.578125 1.875q-3.375 0 -5.484375 -2.1875q-2.09375 -2.1875 -2.09375 -6.109375q0 -3.40625 1.34375 -6.6875q1.34375 -3.28125 3.859375 -4.984375q2.515625 -1.71875 5.734375 -1.71875q3.34375 0 5.296875 1.890625q1.953125 1.890625 1.953125 4.984375l-3.484375 0.234375q-0.015625 -1.96875 -1.140625 -3.078125q-1.125 -1.109375 -2.953125 -1.109375q-2.140625 0 -3.703125 1.34375q-1.5625 1.34375 -2.453125 4.09375q-0.875 2.734375 -0.875 5.28125q0 2.65625 1.171875 3.984375q1.171875 1.328125 2.890625 1.328125q1.71875 0 3.28125 -1.3125q1.578125 -1.3125 2.46875 -3.984375zm20.921875 0.515625l3.4375 0.34375q-0.734375 2.5625 -3.40625 4.875q-2.671875 2.296875 -6.359375 2.296875q-2.296875 0 -4.234375 -1.0625q-1.921875 -1.0625 -2.921875 -3.09375q-1.0 -2.03125 -1.0 -4.640625q0 -3.390625 1.5625 -6.578125q1.578125 -3.203125 4.078125 -4.75q2.5 -1.5625 5.40625 -1.5625q3.71875 0 5.921875 2.3125q2.21875 2.296875 2.21875 6.28125q0 1.53125 -0.265625 3.125l-15.28125 0q-0.078125 0.609375 -0.078125 1.09375q0 2.921875 1.34375 4.453125q1.34375 1.53125 3.265625 1.53125q1.828125 0 3.578125 -1.1875q1.765625 -1.203125 2.734375 -3.4375zm-10.265625 -5.140625l11.640625 0q0.015625 -0.546875 0.015625 -0.78125q0 -2.65625 -1.328125 -4.0625q-1.328125 -1.421875 -3.421875 -1.421875q-2.265625 0 -4.140625 1.5625q-1.859375 1.5625 -2.765625 4.703125zm15.542969 20.140625l6.0 -28.703125l3.25 0l-0.59375 2.890625q1.8125 -1.890625 3.25 -2.625q1.4375 -0.734375 3.03125 -0.734375q2.96875 0 4.9218903 2.171875q1.953125 2.15625 1.953125 6.171875q0 3.25 -1.078125 5.921875q-1.0625 2.65625 -2.6250153 4.28125q-1.5625 1.609375 -3.171875 2.375q-1.59375 0.765625 -3.28125 0.765625q-3.734375 0 -5.78125 -3.796875l-2.34375 11.28125l-3.53125 0zm6.984375 -16.4375q0 2.328125 0.34375 3.234375q0.484375 1.265625 1.59375 2.046875q1.109375 0.78125 2.578125 0.78125q3.046875 0 4.921875 -3.421875q1.875 -3.4375 1.875 -7.015625q0 -2.625 -1.265625 -4.0625q-1.25 -1.4375 -3.125 -1.4375q-1.34375 0 -2.5 0.71875q-1.15625 0.703125 -2.140625 2.125q-0.984375 1.40625 -1.640625 3.46875q-0.640625 2.046875 -0.640625 3.5625zm31.308609 0.921875l3.546875 0.375q-1.328125 3.890625 -3.78125 5.78125q-2.453125 1.875 -5.578125 1.875q-3.375 0 -5.484375 -2.1875q-2.09375 -2.1875 -2.09375 -6.109375q0 -3.40625 1.34375 -6.6875q1.34375 -3.28125 3.859375 -4.984375q2.515625 -1.71875 5.734375 -1.71875q3.34375 0 5.296875 1.890625q1.953125 1.890625 1.953125 4.984375l-3.484375 0.234375q-0.015625 -1.96875 -1.140625 -3.078125q-1.125 -1.109375 -2.953125 -1.109375q-2.140625 0 -3.703125 1.34375q-1.5625 1.34375 -2.453125 4.09375q-0.875 2.734375 -0.875 5.28125q0 2.65625 1.171875 3.984375q1.171875 1.328125 2.890625 1.328125q1.71875 0 3.28125 -1.3125q1.578125 -1.3125 2.46875 -3.984375zm10.703125 -17.0625l0.84375 -4.015625l3.515625 0l-0.84375 4.015625l-3.515625 0zm-5.15625 24.625l4.34375 -20.75l3.53125 0l-4.328125 20.75l-3.546875 0zm9.652344 -7.875q0 -6.078125 3.578125 -10.0625q2.953125 -3.28125 7.734375 -3.28125q3.75 0 6.046875 2.34375q2.296875 2.34375 2.296875 6.328125q0 3.578125 -1.453125 6.65625q-1.4375 3.078125 -4.109375 4.71875q-2.671875 1.640625 -5.609375 1.640625q-2.421875 0 -4.40625 -1.03125q-1.984375 -1.046875 -3.03125 -2.9375q-1.046875 -1.890625 -1.046875 -4.375zm3.53125 -0.34375q0 2.921875 1.40625 4.4375q1.40625 1.515625 3.578125 1.515625q1.140625 0 2.25 -0.453125q1.109375 -0.46875 2.0625 -1.40625q0.96875 -0.9375 1.640625 -2.140625q0.671875 -1.203125 1.078125 -2.578125q0.609375 -1.9375 0.609375 -3.71875q0 -2.8125 -1.421875 -4.359375q-1.40625 -1.5625 -3.5625 -1.5625q-1.65625 0 -3.03125 0.796875q-1.359375 0.796875 -2.46875 2.328125q-1.09375 1.515625 -1.625 3.53125q-0.515625 2.015625 -0.515625 3.609375zm5.28125 -15.046875l3.671875 -5.375l4.453125 0l-5.203125 5.375l-2.921875 0zm12.808594 23.265625l4.34375 -20.75l3.203125 0l-0.765625 3.625q2.09375 -2.140625 3.90625 -3.109375q1.8125 -0.984375 3.703125 -0.984375q2.53125 0 3.953125 1.375q1.4375 1.359375 1.4375 3.65625q0 1.140625 -0.5 3.625l-2.640625 12.5625l-3.53125 0l2.75 -13.140625q0.40625 -1.921875 0.40625 -2.84375q0 -1.03125 -0.71875 -1.671875q-0.703125 -0.640625 -2.046875 -0.640625q-2.71875 0 -4.84375 1.953125q-2.109375 1.953125 -3.109375 6.6875l-2.015625 9.65625l-3.53125 0z" fill-rule="nonzero"/><path fill="#9900ff" d="m345.35635 201.26578q1.515625 -0.046875 2.453125 -0.8125q0.953125 -0.765625 1.265625 -2.109375q0.3125 -1.359375 0.328125 -4.609375q0.015625 -3.265625 0.125 -4.3125q0.171875 -1.640625 0.640625 -2.625q0.484375 -1.0 1.1875 -1.59375q0.703125 -0.59375 1.796875 -0.90625q0.75 -0.203125 2.421875 -0.203125l1.09375 0l0 3.0625l-0.609375 0q-2.03125 0 -2.703125 0.734375q-0.65625 0.734375 -0.65625 3.28125q0 5.109375 -0.203125 6.453125q-0.359375 2.09375 -1.21875 3.234375q-0.84375 1.125 -2.65625 2.0q2.15625 0.90625 3.109375 2.75q0.96875 1.84375 0.96875 6.046875q0 3.8125 0.078125 4.53125q0.15625 1.328125 0.796875 1.859375q0.640625 0.53125 2.484375 0.53125l0.609375 0l0 3.0625l-1.09375 0q-1.90625 0 -2.765625 -0.3125q-1.25 -0.453125 -2.078125 -1.46875q-0.8125 -1.0 -1.0625 -2.546875q-0.25 -1.53125 -0.265625 -5.046875q-0.015625 -3.515625 -0.328125 -4.859375q-0.3125 -1.359375 -1.265625 -2.140625q-0.9375 -0.78125 -2.453125 -0.8125l0 -3.1875z" fill-rule="nonzero"/><path fill="#9900ff" d="m71.1454 261.2189l0 -20.750015l3.140625 0l0 2.921875q0.984375 -1.53125 2.59375 -2.453125q1.625 -0.9375 3.703125 -0.9375q2.296875 0 3.765625 0.96875q1.484375 0.953125 2.09375 2.671875q2.453125 -3.640625 6.40625 -3.640625q3.078125 0 4.734375 1.71875q1.671875 1.703125 1.671875 5.265625l0 14.23439l-3.5 0l0 -13.062515q0 -2.109375 -0.34375 -3.03125q-0.34375 -0.9375 -1.25 -1.5q-0.890625 -0.578125 -2.09375 -0.578125q-2.1875 0 -3.640625 1.46875q-1.4375 1.453125 -1.4375 4.65625l0 12.04689l-3.515625 0l0 -13.48439q0 -2.34375 -0.859375 -3.515625q-0.859375 -1.171875 -2.8125 -1.171875q-1.484375 0 -2.75 0.78125q-1.265625 0.78125 -1.828125 2.296875q-0.5625 1.5 -0.5625 4.328125l0 10.76564l-3.515625 0zm47.523438 -6.6875153l3.625 0.453125q-0.859375 3.1875153 -3.1875 4.9531403q-2.3125 1.75 -5.9375 1.75q-4.546875 0 -7.21875 -2.796875q-2.65625 -2.8125 -2.65625 -7.8750153q0 -5.234375 2.6875 -8.125q2.703125 -2.890625 7.0 -2.890625q4.15625 0 6.796875 2.84375q2.640625 2.828125 2.640625 7.96875q0 0.3125 -0.03125 0.9375l-15.46875 0q0.203125 3.40625 1.9375 5.2343903q1.734375 1.8125 4.34375 1.8125q1.921875 0 3.28125 -1.015625q1.375 -1.015625 2.1875 -3.2500153zm-11.546875 -5.671875l11.578125 0q-0.234375 -2.625 -1.328125 -3.9375q-1.671875 -2.03125 -4.359375 -2.03125q-2.421875 0 -4.078125 1.625q-1.640625 1.625 -1.8125 4.34375zm18.183594 6.171875l3.46875 -0.546875q0.296875 2.0781403 1.625 3.2031403q1.34375 1.109375 3.75 1.109375q2.421875 0 3.59375 -0.984375q1.171875 -0.984375 1.171875 -2.3125153q0 -1.203125 -1.03125 -1.875q-0.71875 -0.46875 -3.59375 -1.203125q-3.875 -0.96875 -5.375 -1.671875q-1.484375 -0.71875 -2.265625 -1.984375q-0.765625 -1.265625 -0.765625 -2.78125q0 -1.390625 0.640625 -2.5625q0.640625 -1.1875 1.734375 -1.96875q0.8125 -0.609375 2.21875 -1.03125q1.421875 -0.421875 3.046875 -0.421875q2.4375 0 4.28125 0.703125q1.859375 0.703125 2.734375 1.90625q0.875 1.203125 1.203125 3.21875l-3.4375 0.46875q-0.234375 -1.609375 -1.359375 -2.5q-1.109375 -0.90625 -3.171875 -0.90625q-2.421875 0 -3.453125 0.8125q-1.03125 0.796875 -1.03125 1.875q0 0.671875 0.421875 1.21875q0.4375 0.578125 1.359375 0.9375q0.515625 0.203125 3.09375 0.90625q3.734375 1.0 5.203125 1.640625q1.484375 0.625 2.3125 1.84375q0.84375 1.203125 0.84375 3.0q0 1.7500153 -1.03125 3.3125153q-1.015625 1.546875 -2.953125 2.40625q-1.921875 0.84375 -4.375 0.84375q-4.03125 0 -6.15625 -1.671875q-2.125 -1.6875 -2.703125 -4.9843903zm20.0 0l3.46875 -0.546875q0.296875 2.0781403 1.625 3.2031403q1.34375 1.109375 3.75 1.109375q2.421875 0 3.59375 -0.984375q1.171875 -0.984375 1.171875 -2.3125153q0 -1.203125 -1.03125 -1.875q-0.71875 -0.46875 -3.59375 -1.203125q-3.875 -0.96875 -5.375 -1.671875q-1.484375 -0.71875 -2.265625 -1.984375q-0.765625 -1.265625 -0.765625 -2.78125q0 -1.390625 0.640625 -2.5625q0.640625 -1.1875 1.734375 -1.96875q0.8125 -0.609375 2.21875 -1.03125q1.421875 -0.421875 3.046875 -0.421875q2.4375 0 4.28125 0.703125q1.859375 0.703125 2.734375 1.90625q0.875 1.203125 1.203125 3.21875l-3.4375 0.46875q-0.234375 -1.609375 -1.359375 -2.5q-1.109375 -0.90625 -3.171875 -0.90625q-2.421875 0 -3.453125 0.8125q-1.03125 0.796875 -1.03125 1.875q0 0.671875 0.421875 1.21875q0.4375 0.578125 1.359375 0.9375q0.515625 0.203125 3.09375 0.90625q3.734375 1.0 5.203125 1.640625q1.484375 0.625 2.3125 1.84375q0.84375 1.203125 0.84375 3.0q0 1.7500153 -1.03125 3.3125153q-1.015625 1.546875 -2.953125 2.40625q-1.921875 0.84375 -4.375 0.84375q-4.03125 0 -6.15625 -1.671875q-2.125 -1.6875 -2.703125 -4.9843903zm34.9375 3.6250153q-1.953125 1.65625 -3.765625 2.34375q-1.796875 0.6875 -3.875 0.6875q-3.40625 0 -5.25 -1.671875q-1.828125 -1.671875 -1.828125 -4.2656403q0 -1.53125 0.6875 -2.78125q0.6875 -1.265625 1.8125 -2.015625q1.125 -0.765625 2.53125 -1.15625q1.03125 -0.28125 3.125 -0.53125q4.265625 -0.515625 6.265625 -1.21875q0.03125 -0.71875 0.03125 -0.90625q0 -2.15625 -1.0 -3.03125q-1.34375 -1.1875 -4.0 -1.1875q-2.484375 0 -3.671875 0.875q-1.171875 0.859375 -1.75 3.0625l-3.4375 -0.46875q0.46875 -2.203125 1.546875 -3.5625q1.078125 -1.359375 3.109375 -2.09375q2.03125 -0.734375 4.703125 -0.734375q2.65625 0 4.3125 0.625q1.671875 0.625 2.453125 1.578125q0.78125 0.953125 1.09375 2.390625q0.171875 0.90625 0.171875 3.25l0 4.6875q0 4.8906403 0.21875 6.2031403q0.234375 1.296875 0.890625 2.484375l-3.671875 0q-0.546875 -1.09375 -0.703125 -2.5625zm-0.296875 -7.8437653q-1.90625 0.78125 -5.734375 1.328125q-2.171875 0.3125 -3.078125 0.703125q-0.890625 0.390625 -1.375 1.140625q-0.484375 0.75 -0.484375 1.671875q0 1.4062653 1.0625 2.3437653q1.0625 0.9375 3.109375 0.9375q2.03125 0 3.609375 -0.890625q1.59375 -0.890625 2.328125 -2.4375153q0.5625 -1.1875 0.5625 -3.515625l0 -1.28125zm8.371094 12.125015l3.40625 0.515625q0.21875 1.578125 1.203125 2.296875q1.296875 0.984375 3.5625 0.984375q2.453125 0 3.78125 -0.984375q1.328125 -0.96875 1.796875 -2.734375q0.265625 -1.078125 0.25 -4.515625q-2.3125 2.71875 -5.75 2.71875q-4.265625 0 -6.609375 -3.078125q-2.34375 -3.0937653 -2.34375 -7.4062653q0 -2.96875 1.0625 -5.484375q1.078125 -2.515625 3.109375 -3.875q2.046875 -1.375 4.8125 -1.375q3.671875 0 6.046875 2.96875l0 -2.5l3.25 0l0 17.937515q0 4.84375 -1.0 6.859375q-0.984375 2.03125 -3.125 3.203125q-2.125 1.171875 -5.25 1.171875q-3.71875 0 -6.0 -1.671875q-2.28125 -1.671875 -2.203125 -5.03125zm2.90625 -12.468765q0 4.09375 1.609375 5.9687653q1.625 1.875 4.078125 1.875q2.421875 0 4.0625 -1.859375q1.640625 -1.8750153 1.640625 -5.8593903q0 -3.8125 -1.703125 -5.734375q-1.6875 -1.9375 -4.0625 -1.9375q-2.34375 0 -3.984375 1.90625q-1.640625 1.890625 -1.640625 5.640625zm34.183594 4.0625l3.625 0.453125q-0.859375 3.1875153 -3.1875 4.9531403q-2.3125 1.75 -5.9375 1.75q-4.546875 0 -7.21875 -2.796875q-2.65625 -2.8125 -2.65625 -7.8750153q0 -5.234375 2.6875 -8.125q2.703125 -2.890625 7.0 -2.890625q4.15625 0 6.796875 2.84375q2.640625 2.828125 2.640625 7.96875q0 0.3125 -0.03125 0.9375l-15.46875 0q0.203125 3.40625 1.9375 5.2343903q1.734375 1.8125 4.34375 1.8125q1.921875 0 3.28125 -1.015625q1.375 -1.015625 2.1875 -3.2500153zm-11.546875 -5.671875l11.578125 0q-0.234375 -2.625 -1.328125 -3.9375q-1.671875 -2.03125 -4.359375 -2.03125q-2.421875 0 -4.078125 1.625q-1.640625 1.625 -1.8125 4.34375zm20.558594 -4.375l0 -4.015625l4.015625 0l0 4.015625l-4.015625 0zm0 16.73439l0 -4.0l4.015625 0l0 4.0l-4.015625 0zm21.257812 0l0 -20.750015l3.1406403 0l0 2.921875q0.984375 -1.53125 2.59375 -2.453125q1.625 -0.9375 3.703125 -0.9375q2.296875 0 3.765625 0.96875q1.484375 0.953125 2.09375 2.671875q2.453125 -3.640625 6.40625 -3.640625q3.078125 0 4.734375 1.71875q1.671875 1.703125 1.671875 5.265625l0 14.23439l-3.5 0l0 -13.062515q0 -2.109375 -0.34375 -3.03125q-0.34375 -0.9375 -1.25 -1.5q-0.890625 -0.578125 -2.09375 -0.578125q-2.1875 0 -3.640625 1.46875q-1.4375 1.453125 -1.4375 4.65625l0 12.04689l-3.515625 0l0 -13.48439q0 -2.34375 -0.859375 -3.515625q-0.859375 -1.171875 -2.8125 -1.171875q-1.484375 0 -2.75 0.78125q-1.265625 0.78125 -1.828125 2.296875q-0.5625 1.5 -0.5625 4.328125l0 10.76564l-3.5156403 0zm47.523453 -6.6875153l3.625 0.453125q-0.859375 3.1875153 -3.1875 4.9531403q-2.3125 1.75 -5.9375 1.75q-4.546875 0 -7.21875 -2.796875q-2.65625 -2.8125 -2.65625 -7.8750153q0 -5.234375 2.6875 -8.125q2.703125 -2.890625 7.0 -2.890625q4.15625 0 6.796875 2.84375q2.640625 2.828125 2.640625 7.96875q0 0.3125 -0.03125 0.9375l-15.46875 0q0.203125 3.40625 1.9375 5.2343903q1.734375 1.8125 4.34375 1.8125q1.921875 0 3.28125 -1.015625q1.375 -1.015625 2.1875 -3.2500153zm-11.546875 -5.671875l11.578125 0q-0.234375 -2.625 -1.328125 -3.9375q-1.671875 -2.03125 -4.359375 -2.03125q-2.421875 0 -4.078125 1.625q-1.640625 1.625 -1.8125 4.34375zm19.589844 12.35939l0 -20.750015l3.15625 0l0 2.953125q2.296875 -3.421875 6.609375 -3.421875q1.875 0 3.4375 0.6875q1.578125 0.671875 2.359375 1.765625q0.78125 1.09375 1.09375 2.59375q0.203125 0.96875 0.203125 3.421875l0 12.750015l-3.515625 0l0 -12.625015q0 -2.140625 -0.421875 -3.203125q-0.40625 -1.0625 -1.453125 -1.703125q-1.046875 -0.640625 -2.453125 -0.640625q-2.234375 0 -3.875 1.4375q-1.625 1.421875 -1.625 5.40625l0 11.32814l-3.515625 0zm20.839844 -6.1875153l3.46875 -0.546875q0.296875 2.0781403 1.625 3.2031403q1.34375 1.109375 3.75 1.109375q2.421875 0 3.59375 -0.984375q1.171875 -0.984375 1.171875 -2.3125153q0 -1.203125 -1.03125 -1.875q-0.71875 -0.46875 -3.59375 -1.203125q-3.875 -0.96875 -5.375 -1.671875q-1.484375 -0.71875 -2.265625 -1.984375q-0.765625 -1.265625 -0.765625 -2.78125q0 -1.390625 0.640625 -2.5625q0.640625 -1.1875 1.734375 -1.96875q0.8125 -0.609375 2.21875 -1.03125q1.421875 -0.421875 3.046875 -0.421875q2.4375 0 4.28125 0.703125q1.859375 0.703125 2.734375 1.90625q0.875 1.203125 1.203125 3.21875l-3.4375 0.46875q-0.234375 -1.609375 -1.359375 -2.5q-1.109375 -0.90625 -3.171875 -0.90625q-2.421875 0 -3.453125 0.8125q-1.03125 0.796875 -1.03125 1.875q0 0.671875 0.421875 1.21875q0.4375 0.578125 1.359375 0.9375q0.515625 0.203125 3.09375 0.90625q3.734375 1.0 5.203125 1.640625q1.484375 0.625 2.3125 1.84375q0.84375 1.203125 0.84375 3.0q0 1.7500153 -1.03125 3.3125153q-1.015625 1.546875 -2.953125 2.40625q-1.921875 0.84375 -4.375 0.84375q-4.03125 0 -6.15625 -1.671875q-2.125 -1.6875 -2.703125 -4.9843903zm34.9375 3.6250153q-1.953125 1.65625 -3.765625 2.34375q-1.796875 0.6875 -3.875 0.6875q-3.40625 0 -5.25 -1.671875q-1.828125 -1.671875 -1.828125 -4.2656403q0 -1.53125 0.6875 -2.78125q0.6875 -1.265625 1.8125 -2.015625q1.125 -0.765625 2.53125 -1.15625q1.03125 -0.28125 3.125 -0.53125q4.265625 -0.515625 6.265625 -1.21875q0.03125 -0.71875 0.03125 -0.90625q0 -2.15625 -1.0 -3.03125q-1.34375 -1.1875 -4.0 -1.1875q-2.484375 0 -3.671875 0.875q-1.171875 0.859375 -1.75 3.0625l-3.4375 -0.46875q0.46875 -2.203125 1.546875 -3.5625q1.078125 -1.359375 3.109375 -2.09375q2.03125 -0.734375 4.703125 -0.734375q2.65625 0 4.3125 0.625q1.671875 0.625 2.453125 1.578125q0.78125 0.953125 1.09375 2.390625q0.171875 0.90625 0.171875 3.25l0 4.6875q0 4.8906403 0.21875 6.2031403q0.234375 1.296875 0.890625 2.484375l-3.671875 0q-0.546875 -1.09375 -0.703125 -2.5625zm-0.296875 -7.8437653q-1.90625 0.78125 -5.734375 1.328125q-2.171875 0.3125 -3.078125 0.703125q-0.890625 0.390625 -1.375 1.140625q-0.484375 0.75 -0.484375 1.671875q0 1.4062653 1.0625 2.3437653q1.0625 0.9375 3.109375 0.9375q2.03125 0 3.609375 -0.890625q1.59375 -0.890625 2.328125 -2.4375153q0.5625 -1.1875 0.5625 -3.515625l0 -1.28125zm8.996094 -14.140625l0 -4.09375l3.515625 0l0 4.09375l-3.515625 0zm-4.46875 32.593765l0.671875 -2.984375q1.046875 0.265625 1.65625 0.265625q1.078125 0 1.609375 -0.71875q0.53125 -0.703125 0.53125 -3.546875l0 -21.812515l3.515625 0l0 21.89064q0 3.828125 -1.0 5.328125q-1.265625 1.953125 -4.21875 1.953125q-1.4375 0 -2.765625 -0.375zm27.574219 -14.73439l3.625 0.453125q-0.859375 3.1875153 -3.1875 4.9531403q-2.3125 1.75 -5.9375 1.75q-4.546875 0 -7.21875 -2.796875q-2.65625 -2.8125 -2.65625 -7.8750153q0 -5.234375 2.6875 -8.125q2.703125 -2.890625 7.0 -2.890625q4.15625 0 6.796875 2.84375q2.640625 2.828125 2.640625 7.96875q0 0.3125 -0.03125 0.9375l-15.46875 0q0.203125 3.40625 1.9375 5.2343903q1.734375 1.8125 4.34375 1.8125q1.921875 0 3.28125 -1.015625q1.375 -1.015625 2.1875 -3.2500153zm-11.546875 -5.671875l11.578125 0q-0.234375 -2.625 -1.328125 -3.9375q-1.671875 -2.03125 -4.359375 -2.03125q-2.421875 0 -4.078125 1.625q-1.640625 1.625 -1.8125 4.34375z" fill-rule="nonzero"/><path fill="#9900ff" d="m58.51259 297.26578l0 3.1875q-1.515625 0.03125 -2.46875 0.8125q-0.9375 0.78125 -1.25 2.125q-0.3125 1.328125 -0.328125 4.59375q-0.015625 3.265625 -0.125 4.296875q-0.171875 1.671875 -0.65625 2.65625q-0.46875 0.984375 -1.171875 1.578125q-0.703125 0.59375 -1.796875 0.90625q-0.75 0.21875 -2.421875 0.21875l-1.09375 0l0 -3.0625l0.609375 0q2.03125 0 2.6875 -0.734375q0.671875 -0.734375 0.671875 -3.296875q0 -4.890625 0.171875 -6.1875q0.3125 -2.171875 1.25 -3.46875q0.9375 -1.296875 2.65625 -2.03125q-2.25 -1.0625 -3.171875 -2.828125q-0.90625 -1.78125 -0.90625 -5.96875q0 -3.8125 -0.109375 -4.5625q-0.125 -1.296875 -0.765625 -1.8125q-0.640625 -0.53125 -2.484375 -0.53125l-0.609375 0l0 -3.0625l1.09375 0q1.90625 0 2.765625 0.3125q1.25 0.4375 2.0625 1.453125q0.828125 1.015625 1.078125 2.5625q0.25 1.53125 0.265625 5.046875q0.015625 3.515625 0.328125 4.859375q0.3125 1.328125 1.25 2.109375q0.953125 0.78125 2.46875 0.828125z" fill-rule="nonzero"/><path fill="#000000" fill-opacity="0.0" d="m165.84776 0l0 25.732283" fill-rule="evenodd"/><path stroke="#0000ff" stroke-width="2.0" stroke-linejoin="round" stroke-linecap="butt" d="m165.84776 0l0 13.732284" fill-rule="evenodd"/><path fill="#0000ff" stroke="#0000ff" stroke-width="2.0" stroke-linecap="butt" d="m162.54431 13.732284l3.3034515 9.076196l3.3034668 -9.076196z" fill-rule="evenodd"/><path fill="#000000" fill-opacity="0.0" d="m165.84776 47.816273l0 25.73228" fill-rule="evenodd"/><path stroke="#0000ff" stroke-width="2.0" stroke-linejoin="round" stroke-linecap="butt" d="m165.84776 47.816273l0 13.732285" fill-rule="evenodd"/><path fill="#0000ff" stroke="#0000ff" stroke-width="2.0" stroke-linecap="butt" d="m162.54431 61.548557l3.3034515 9.076191l3.3034668 -9.076191z" fill-rule="evenodd"/></g></svg>