<svg version="1.1" viewBox="0.0 0.0 454.54068241469815 405.753280839895" fill="none" stroke="none" stroke-linecap="square" stroke-miterlimit="10" xmlns:xlink="http://www.w3.org/1999/xlink" xmlns="http://www.w3.org/2000/svg"><clipPath id="p.0"><path d="m0 0l454.54068 0l0 405.7533l-454.54068 0l0 -405.7533z" clip-rule="nonzero"/></clipPath><g clip-path="url(#p.0)"><path fill="#000000" fill-opacity="0.0" d="m0 0l454.54068 0l0 405.7533l-454.54068 0z" fill-rule="evenodd"/><path fill="#000000" fill-opacity="0.0" d="m24.727034 2.9081364l423.2756 0l0 396.47244l-423.2756 0z" fill-rule="evenodd"/><path fill="#000000" d="m46.11766 29.558134l0 4.375002l-3.75 0l0 8.359375q0 2.546875 0.09375 2.96875q0.109375 0.421875 0.484375 0.703125q0.390625 0.265625 0.9375 0.265625q0.765625 0 2.203125 -0.53125l0.46875 4.25q-1.90625 0.828125 -4.328125 0.828125q-1.484375 0 -2.6875 -0.5q-1.1875 -0.5 -1.75 -1.28125q-0.546875 -0.796875 -0.765625 -2.140625q-0.171875 -0.96875 -0.171875 -3.875l0 -9.046875l-2.515625 0l0 -4.375002l2.515625 0l0 -4.109375l5.515625 -3.203125l0 7.3125l3.75 0zm9.0546875 20.750002l-5.484375 0l0 -20.750002l5.09375 0l0 2.953127q1.3125 -2.093752 2.359375 -2.750002q1.046875 -0.671875 2.375 -0.671875q1.875 0 3.609375 1.046875l-1.703125 4.781252q-1.390625 -0.90625 -2.578125 -0.90625q-1.15625 0 -1.953125 0.640625q-0.796875 0.640625 -1.265625 2.296875q-0.453125 1.65625 -0.453125 6.953125l0 6.40625zm7.7226562 -20.750002l5.828125 0l4.96875 14.734377l4.84375 -14.734377l5.6875 0l-7.328125 19.968752l-1.3125 3.609375q-0.71875 1.828125 -1.375 2.78125q-0.65625 0.953125 -1.515625 1.546875q-0.84375 0.59375 -2.078125 0.921875q-1.234375 0.34375 -2.796875 0.34375q-1.59375 0 -3.109375 -0.328125l-0.484375 -4.296875q1.28125 0.25 2.3125 0.25q1.921875 0 2.828125 -1.125q0.921875 -1.125 1.421875 -2.859375l-7.890625 -20.812502z" fill-rule="nonzero"/><path fill="#000000" d="m97.082504 38.35501q1.515625 -0.046875 2.453125 -0.8125q0.953125 -0.765625 1.265625 -2.109375q0.3125 -1.359375 0.328125 -4.609377q0.015625 -3.265625 0.125 -4.3125q0.171875 -1.640625 0.640625 -2.625q0.484375 -1.0 1.1875 -1.59375q0.703125 -0.59375 1.796875 -0.90625q0.75 -0.203125 2.421875 -0.203125l1.09375 0l0 3.0625l-0.609375 0q-2.03125 0 -2.703125 0.734375q-0.65625 0.734375 -0.65625 3.28125q0 5.109377 -0.203125 6.453127q-0.359375 2.09375 -1.21875 3.234375q-0.84375 1.125 -2.65625 2.0q2.15625 0.90625 3.109375 2.75q0.96875 1.84375 0.96875 6.046875q0 3.8125 0.078125 4.53125q0.15625 1.328125 0.796875 1.859375q0.640625 0.53125 2.484375 0.53125l0.609375 0l0 3.0625l-1.09375 0q-1.90625 0 -2.765625 -0.3125q-1.25 -0.453125 -2.078125 -1.46875q-0.8125 -1.0 -1.0625 -2.546875q-0.25 -1.53125 -0.265625 -5.046875q-0.015625 -3.515625 -0.328125 -4.859375q-0.3125 -1.359375 -1.265625 -2.140625q-0.9375 -0.78125 -2.453125 -0.8125l0 -3.1875z" fill-rule="nonzero"/><path fill="#000000" d="m84.52391 73.68313l0.84375 -4.015625l3.515625 0l-0.84375 4.015625l-3.515625 0zm-5.15625 24.625l4.34375 -20.75l3.53125 0l-4.328125 20.75l-3.546875 0zm9.027344 0l4.34375 -20.75l3.203125 0l-0.765625 3.625q2.09375 -2.140625 3.90625 -3.109375q1.8125 -0.984375 3.703125 -0.984375q2.53125 0 3.953125 1.375q1.4375 1.359375 1.4375 3.65625q0 1.140625 -0.5 3.625l-2.640625 12.5625l-3.53125 0l2.75 -13.140625q0.40625 -1.921875 0.40625 -2.84375q0 -1.03125 -0.71875 -1.671875q-0.703125 -0.640625 -2.046875 -0.640625q-2.71875 0 -4.84375 1.953125q-2.109375 1.953125 -3.109375 6.6875l-2.015625 9.65625l-3.53125 0zm22.574219 -7.09375l3.546875 -0.21875q0 1.53125 0.46875 2.609375q0.46875 1.0625 1.71875 1.75q1.265625 0.6875 2.9375 0.6875q2.34375 0 3.515625 -0.9375q1.171875 -0.9375 1.171875 -2.203125q0 -0.921875 -0.703125 -1.75q-0.71875 -0.8125 -3.53125 -2.015625q-2.796875 -1.203125 -3.578125 -1.6875q-1.296875 -0.796875 -1.96875 -1.875q-0.65625 -1.09375 -0.65625 -2.5q0 -2.46875 1.953125 -4.21875q1.953125 -1.765625 5.46875 -1.765625q3.90625 0 5.9375 1.8125q2.046875 1.8125 2.125 4.75l-3.453125 0.234375q-0.078125 -1.875 -1.328125 -2.96875q-1.25 -1.09375 -3.546875 -1.09375q-1.828125 0 -2.84375 0.84375q-1.015625 0.84375 -1.015625 1.8125q0 0.984375 0.875 1.71875q0.59375 0.515625 3.03125 1.5625q4.0625 1.765625 5.109375 2.78125q1.6875 1.625 1.6875 3.9375q0 1.546875 -0.953125 3.03125q-0.9375 1.484375 -2.890625 2.375q-1.9375 0.890625 -4.578125 0.890625q-3.59375 0 -6.109375 -1.78125q-2.515625 -1.78125 -2.390625 -5.78125zm27.9375 4.21875l-0.59375 2.890625q-1.265625 0.34375 -2.453125 0.34375q-2.109375 0 -3.359375 -1.046875q-0.9375 -0.78125 -0.9375 -2.125q0 -0.6875 0.5 -3.140625l2.53125 -12.0625l-2.796875 0l0.5625 -2.734375l2.796875 0l1.078125 -5.09375l4.03125 -2.4375l-1.578125 7.53125l3.484375 0l-0.59375 2.734375l-3.453125 0l-2.40625 11.46875q-0.453125 2.1875 -0.453125 2.625q0 0.625 0.359375 0.953125q0.375 0.328125 1.1875 0.328125q1.171875 0 2.09375 -0.234375zm2.8476562 2.875l4.34375 -20.75l3.125 0l-0.890625 4.25q1.609375 -2.40625 3.140625 -3.5625q1.53125 -1.15625 3.140625 -1.15625q1.046875 0 2.59375 0.765625l-1.453125 3.28125q-0.90625 -0.65625 -2.0 -0.65625q-1.859375 0 -3.8125 2.078125q-1.953125 2.0625 -3.0625 7.421875l-1.765625 8.328125l-3.359375 0zm27.476562 -3.75q-3.71875 4.21875 -7.625 4.21875q-2.40625 0 -3.890625 -1.375q-1.46875 -1.375 -1.46875 -3.375q0 -1.3125 0.671875 -4.484375l2.5 -11.984375l3.53125 0l-2.78125 13.265625q-0.34375 1.65625 -0.34375 2.578125q0 1.171875 0.703125 1.828125q0.71875 0.65625 2.109375 0.65625q1.484375 0 2.890625 -0.71875q1.421875 -0.734375 2.4375 -1.953125q1.03125 -1.234375 1.6875 -2.921875q0.421875 -1.0625 0.984375 -3.765625l1.875 -8.96875l3.546875 0l-4.34375 20.75l-3.265625 0l0.78125 -3.75zm22.402344 -3.8125l3.546875 0.375q-1.328125 3.890625 -3.78125 5.78125q-2.453125 1.875 -5.578125 1.875q-3.375 0 -5.484375 -2.1875q-2.09375 -2.1875 -2.09375 -6.109375q0 -3.40625 1.34375 -6.6875q1.34375 -3.28125 3.859375 -4.984375q2.515625 -1.71875 5.734375 -1.71875q3.34375 0 5.296875 1.890625q1.953125 1.890625 1.953125 4.984375l-3.484375 0.234375q-0.015625 -1.96875 -1.140625 -3.078125q-1.125 -1.109375 -2.953125 -1.109375q-2.140625 0 -3.703125 1.34375q-1.5625 1.34375 -2.453125 4.09375q-0.875 2.734375 -0.875 5.28125q0 2.65625 1.171875 3.984375q1.171875 1.328125 2.890625 1.328125q1.71875 0 3.28125 -1.3125q1.578125 -1.3125 2.46875 -3.984375zm20.0 0l3.546875 0.375q-1.328125 3.890625 -3.78125 5.78125q-2.453125 1.875 -5.578125 1.875q-3.375 0 -5.484375 -2.1875q-2.09375 -2.1875 -2.09375 -6.109375q0 -3.40625 1.34375 -6.6875q1.34375 -3.28125 3.859375 -4.984375q2.515625 -1.71875 5.734375 -1.71875q3.34375 0 5.296875 1.890625q1.953125 1.890625 1.953125 4.984375l-3.484375 0.234375q-0.015625 -1.96875 -1.140625 -3.078125q-1.125 -1.109375 -2.953125 -1.109375q-2.140625 0 -3.703125 1.34375q-1.5625 1.34375 -2.453125 4.09375q-0.875 2.734375 -0.875 5.28125q0 2.65625 1.171875 3.984375q1.171875 1.328125 2.890625 1.328125q1.71875 0 3.28125 -1.3125q1.578125 -1.3125 2.46875 -3.984375zm10.703125 -17.0625l0.84375 -4.015625l3.515625 0l-0.84375 4.015625l-3.515625 0zm-5.15625 24.625l4.34375 -20.75l3.53125 0l-4.328125 20.75l-3.546875 0zm9.652344 -7.875q0 -6.078125 3.578125 -10.0625q2.953125 -3.28125 7.734375 -3.28125q3.75 0 6.046875 2.34375q2.296875 2.34375 2.296875 6.328125q0 3.578125 -1.453125 6.65625q-1.4375 3.078125 -4.109375 4.71875q-2.671875 1.640625 -5.609375 1.640625q-2.421875 0 -4.40625 -1.03125q-1.984375 -1.046875 -3.03125 -2.9375q-1.046875 -1.890625 -1.046875 -4.375zm3.53125 -0.34375q0 2.921875 1.40625 4.4375q1.40625 1.515625 3.578125 1.515625q1.140625 0 2.25 -0.453125q1.109375 -0.46875 2.0625 -1.40625q0.96875 -0.9375 1.640625 -2.140625q0.671875 -1.203125 1.078125 -2.578125q0.609375 -1.9375 0.609375 -3.71875q0 -2.8125 -1.421875 -4.359375q-1.40625 -1.5625 -3.5625 -1.5625q-1.65625 0 -3.03125 0.796875q-1.359375 0.796875 -2.46875 2.328125q-1.09375 1.515625 -1.625 3.53125q-0.515625 2.015625 -0.515625 3.609375zm18.089844 8.21875l4.34375 -20.75l3.2031097 0l-0.76560974 3.625q2.0937347 -2.140625 3.9062347 -3.109375q1.8125 -0.984375 3.703125 -0.984375q2.53125 0 3.953125 1.375q1.4375 1.359375 1.4375 3.65625q0 1.140625 -0.5 3.625l-2.640625 12.5625l-3.53125 0l2.75 -13.140625q0.40625 -1.921875 0.40625 -2.84375q0 -1.03125 -0.71875 -1.671875q-0.703125 -0.640625 -2.046875 -0.640625q-2.71875 0 -4.84375 1.953125q-2.1093597 1.953125 -3.1093597 6.6875l-2.015625 9.65625l-3.53125 0zm37.480453 -7.046875l3.4375 0.34375q-0.734375 2.5625 -3.40625 4.875q-2.671875 2.296875 -6.359375 2.296875q-2.296875 0 -4.234375 -1.0625q-1.921875 -1.0625 -2.921875 -3.09375q-1.0 -2.03125 -1.0 -4.640625q0 -3.390625 1.5625 -6.578125q1.578125 -3.203125 4.078125 -4.75q2.5 -1.5625 5.40625 -1.5625q3.71875 0 5.921875 2.3125q2.21875 2.296875 2.21875 6.28125q0 1.53125 -0.265625 3.125l-15.28125 0q-0.078125 0.609375 -0.078125 1.09375q0 2.921875 1.34375 4.453125q1.34375 1.53125 3.265625 1.53125q1.828125 0 3.578125 -1.1875q1.765625 -1.203125 2.734375 -3.4375zm-10.265625 -5.140625l11.640625 0q0.015625 -0.546875 0.015625 -0.78125q0 -2.65625 -1.328125 -4.0625q-1.328125 -1.421875 -3.421875 -1.421875q-2.265625 0 -4.140625 1.5625q-1.859375 1.5625 -2.765625 4.703125zm17.605469 5.09375l3.546875 -0.21875q0 1.53125 0.46875 2.609375q0.46875 1.0625 1.71875 1.75q1.265625 0.6875 2.9375 0.6875q2.34375 0 3.515625 -0.9375q1.171875 -0.9375 1.171875 -2.203125q0 -0.921875 -0.703125 -1.75q-0.71875 -0.8125 -3.53125 -2.015625q-2.796875 -1.203125 -3.578125 -1.6875q-1.296875 -0.796875 -1.96875 -1.875q-0.65625 -1.09375 -0.65625 -2.5q0 -2.46875 1.953125 -4.21875q1.953125 -1.765625 5.46875 -1.765625q3.90625 0 5.9375 1.8125q2.046875 1.8125 2.125 4.75l-3.453125 0.234375q-0.078125 -1.875 -1.328125 -2.96875q-1.25 -1.09375 -3.546875 -1.09375q-1.828125 0 -2.84375 0.84375q-1.015625 0.84375 -1.015625 1.8125q0 0.984375 0.875 1.71875q0.59375 0.515625 3.03125 1.5625q4.0625 1.765625 5.109375 2.78125q1.6875 1.625 1.6875 3.9375q0 1.546875 -0.953125 3.03125q-0.9375 1.484375 -2.890625 2.375q-1.9375 0.890625 -4.578125 0.890625q-3.59375 0 -6.109375 -1.78125q-2.515625 -1.78125 -2.390625 -5.78125zm44.191406 4.75q-3.03125 2.8125 -5.8125 2.8125q-2.890625 0 -4.890625 -2.1875q-1.984375 -2.203125 -1.984375 -6.25q0 -3.875 1.515625 -7.0q1.515625 -3.125 3.859375 -4.6875q2.359375 -1.5625 4.859375 -1.5625q1.90625 0 3.453125 1.078125q1.546875 1.0625 2.515625 3.203125l0.796875 -3.8125l3.046875 0l-5.984375 28.703125l-3.53125 0l2.15625 -10.296875zm-9.1875 -6.09375q0 3.0625 1.265625 4.546875q1.28125 1.46875 3.171875 1.46875q1.59375 0 3.21875 -1.328125q1.640625 -1.328125 2.6875 -3.984375q1.046875 -2.65625 1.046875 -5.140625q0 -2.53125 -1.3125 -3.96875q-1.3125 -1.453125 -3.203125 -1.453125q-1.859375 0 -3.234375 1.203125q-1.828125 1.5625 -2.859375 4.515625q-0.78125 2.265625 -0.78125 4.140625zm32.183594 4.6875q-3.71875 4.21875 -7.625 4.21875q-2.40625 0 -3.890625 -1.375q-1.46875 -1.375 -1.46875 -3.375q0 -1.3125 0.671875 -4.484375l2.5 -11.984375l3.53125 0l-2.78125 13.265625q-0.34375 1.65625 -0.34375 2.578125q0 1.171875 0.703125 1.828125q0.71875 0.65625 2.109375 0.65625q1.484375 0 2.890625 -0.71875q1.421875 -0.734375 2.4375 -1.953125q1.03125 -1.234375 1.6875 -2.921875q0.421875 -1.0625 0.984375 -3.765625l1.875 -8.96875l3.546875 0l-4.34375 20.75l-3.265625 0l0.78125 -3.75zm23.324219 -3.296875l3.4375 0.34375q-0.734375 2.5625 -3.40625 4.875q-2.671875 2.296875 -6.359375 2.296875q-2.296875 0 -4.234375 -1.0625q-1.921875 -1.0625 -2.921875 -3.09375q-1.0 -2.03125 -1.0 -4.640625q0 -3.390625 1.5625 -6.578125q1.578125 -3.203125 4.078125 -4.75q2.5 -1.5625 5.40625 -1.5625q3.71875 0 5.921875 2.3125q2.21875 2.296875 2.21875 6.28125q0 1.53125 -0.265625 3.125l-15.28125 0q-0.078125 0.609375 -0.078125 1.09375q0 2.921875 1.34375 4.453125q1.34375 1.53125 3.265625 1.53125q1.828125 0 3.578125 -1.1875q1.765625 -1.203125 2.734375 -3.4375zm-10.265625 -5.140625l11.640625 0q0.015625 -0.546875 0.015625 -0.78125q0 -2.65625 -1.328125 -4.0625q-1.328125 -1.421875 -3.421875 -1.421875q-2.265625 0 -4.140625 1.5625q-1.859375 1.5625 -2.765625 4.703125z" fill-rule="nonzero"/><path fill="#000000" d="m77.77391 154.26126l6.0 -28.703133l3.25 0l-0.59375 2.8906326q1.8125 -1.8906326 3.25 -2.6250076q1.4375 -0.734375 3.03125 -0.734375q2.96875 0 4.921875 2.171875q1.953125 2.1562576 1.953125 6.1718826q0 3.25 -1.078125 5.921875q-1.0625 2.65625 -2.625 4.28125q-1.5625 1.609375 -3.171875 2.375q-1.59375 0.765625 -3.28125 0.765625q-3.734375 0 -5.78125 -3.796875l-2.34375 11.28125l-3.53125 0zm6.984375 -16.4375q0 2.328125 0.34375 3.234375q0.484375 1.265625 1.59375 2.046875q1.109375 0.78125 2.578125 0.78125q3.046875 0 4.921875 -3.421875q1.875 -3.4375 1.875 -7.015625q0 -2.625 -1.265625 -4.0625q-1.25 -1.4375076 -3.125 -1.4375076q-1.34375 0 -2.5 0.7187576q-1.15625 0.703125 -2.140625 2.125q-0.984375 1.40625 -1.640625 3.46875q-0.640625 2.046875 -0.640625 3.5625zm31.152344 4.734375q-3.71875 4.21875 -7.625 4.21875q-2.40625 0 -3.890625 -1.375q-1.46875 -1.375 -1.46875 -3.375q0 -1.3125 0.671875 -4.484375l2.5 -11.984383l3.53125 0l-2.78125 13.265633q-0.34375 1.65625 -0.34375 2.578125q0 1.171875 0.703125 1.828125q0.71875 0.65625 2.109375 0.65625q1.484375 0 2.890625 -0.71875q1.421875 -0.734375 2.4375 -1.953125q1.03125 -1.234375 1.6875 -2.921875q0.421875 -1.0625 0.984375 -3.765625l1.875 -8.968758l3.546875 0l-4.34375 20.750008l-3.265625 0l0.78125 -3.75zm23.324219 -3.296875l3.4375 0.34375q-0.734375 2.5625 -3.40625 4.875q-2.671875 2.296875 -6.359375 2.296875q-2.296875 0 -4.234375 -1.0625q-1.921875 -1.0625 -2.921875 -3.09375q-1.0 -2.03125 -1.0 -4.640625q0 -3.390625 1.5625 -6.578125q1.578125 -3.203125 4.078125 -4.7500076q2.5 -1.5625 5.40625 -1.5625q3.71875 0 5.921875 2.3125q2.21875 2.2968826 2.21875 6.2812576q0 1.53125 -0.265625 3.125l-15.28125 0q-0.078125 0.609375 -0.078125 1.09375q0 2.921875 1.34375 4.453125q1.34375 1.53125 3.265625 1.53125q1.828125 0 3.578125 -1.1875q1.765625 -1.203125 2.734375 -3.4375zm-10.265625 -5.140625l11.640625 0q0.015625 -0.546875 0.015625 -0.78125q0 -2.65625 -1.328125 -4.0625q-1.328125 -1.4218826 -3.421875 -1.4218826q-2.265625 0 -4.140625 1.5625076q-1.859375 1.5625 -2.765625 4.703125zm31.261719 9.171875q-3.03125 3.484375 -6.328125 3.484375q-2.953125 0 -4.921875 -2.171875q-1.953125 -2.1875 -1.953125 -6.328125q0 -3.78125 1.546875 -6.921875q1.5625 -3.140625 3.890625 -4.7031326q2.34375 -1.5625 4.6875 -1.5625q3.859375 0 5.828125 3.7343826l2.34375 -11.156258l3.515625 0l-5.96875 28.640633l-3.265625 0l0.625 -3.015625zm-9.6875 -5.671875q0 2.15625 0.421875 3.40625q0.4375 1.25 1.46875 2.09375q1.046875 0.828125 2.484375 0.828125q2.40625 0 4.359375 -2.5q2.609375 -3.328125 2.609375 -8.203125q0 -2.46875 -1.296875 -3.84375q-1.28125 -1.390625 -3.234375 -1.390625q-1.265625 0 -2.3125 0.5625q-1.046875 0.5625 -2.078125 1.921875q-1.015625 1.359375 -1.71875 3.453125q-0.703125 2.078125 -0.703125 3.671875zm33.183594 1.640625l3.4375 0.34375q-0.734375 2.5625 -3.40625 4.875q-2.671875 2.296875 -6.359375 2.296875q-2.296875 0 -4.234375 -1.0625q-1.921875 -1.0625 -2.921875 -3.09375q-1.0 -2.03125 -1.0 -4.640625q0 -3.390625 1.5625 -6.578125q1.578125 -3.203125 4.078125 -4.7500076q2.5 -1.5625 5.40625 -1.5625q3.71875 0 5.921875 2.3125q2.21875 2.2968826 2.21875 6.2812576q0 1.53125 -0.265625 3.125l-15.28125 0q-0.078125 0.609375 -0.078125 1.09375q0 2.921875 1.34375 4.453125q1.34375 1.53125 3.265625 1.53125q1.828125 0 3.578125 -1.1875q1.765625 -1.203125 2.734375 -3.4375zm-10.265625 -5.140625l11.640625 0q0.015625 -0.546875 0.015625 -0.78125q0 -2.65625 -1.328125 -4.0625q-1.328125 -1.4218826 -3.421875 -1.4218826q-2.265625 0 -4.140625 1.5625076q-1.859375 1.5625 -2.765625 4.703125zm17.277344 12.1875l4.34375 -20.750008l3.203125 0l-0.765625 3.6250076q2.09375 -2.1406326 3.90625 -3.1093826q1.8125 -0.984375 3.703125 -0.984375q2.53125 0 3.953125 1.375q1.4375 1.359375 1.4375 3.6562576q0 1.140625 -0.5 3.625l-2.640625 12.5625l-3.53125 0l2.75 -13.140625q0.40625 -1.921875 0.40625 -2.84375q0 -1.03125 -0.71875 -1.671875q-0.703125 -0.640625 -2.046875 -0.640625q-2.71875 0 -4.84375 1.953125q-2.109375 1.953125 -3.109375 6.6875l-2.015625 9.65625l-3.53125 0zm47.34375 -2.578125q-1.828125 1.578125 -3.53125 2.3125q-1.703125 0.734375 -3.640625 0.734375q-2.859375 0 -4.625 -1.6875q-1.75 -1.6875 -1.75 -4.328125q0 -1.734375 0.78125 -3.078125q0.796875 -1.34375 2.09375 -2.140625q1.3125 -0.8125 3.21875 -1.171875q1.1875 -0.234375 4.515625 -0.359375q3.328125 -0.140625 4.78125 -0.71875q0.40625 -1.4375 0.40625 -2.390625q0 -1.234375 -0.90625 -1.9375q-1.21875 -0.9843826 -3.59375 -0.9843826q-2.21875 0 -3.640625 1.0000076q-1.40625 0.984375 -2.0625 2.796875l-3.5625 -0.3125q1.09375 -3.09375 3.453125 -4.7343826q2.375 -1.640625 6.0 -1.640625q3.84375 0 6.09375 1.84375q1.71875 1.3593826 1.71875 3.5468826q0 1.671875 -0.5 3.859375l-1.140625 5.15625q-0.546875 2.453125 -0.546875 4.0q0 0.96875 0.421875 2.8125l-3.578125 0q-0.28125 -1.015625 -0.40625 -2.578125zm1.3125 -7.9375q-0.75 0.296875 -1.59375 0.453125q-0.84375 0.15625 -2.84375 0.328125q-3.078125 0.28125 -4.359375 0.703125q-1.265625 0.421875 -1.90625 1.34375q-0.640625 0.90625 -0.640625 2.015625q0 1.484375 1.015625 2.453125q1.03125 0.953125 2.921875 0.953125q1.765625 0 3.375 -0.921875q1.625 -0.9375 2.5625 -2.59375q0.9375 -1.65625 1.46875 -4.734375zm6.9492188 10.515625l5.984375 -28.640633l3.53125 0l-2.125 10.234375q1.671875 -1.53125 3.0312347 -2.171875q1.375 -0.640625 2.859375 -0.640625q2.90625 0 4.84375 2.171875q1.953125 2.1718826 1.953125 6.3125076q0 2.75 -0.78125 5.046875q-0.78125 2.28125 -1.9375 3.828125q-1.140625 1.546875 -2.375 2.484375q-1.234375 0.921875 -2.53125 1.375q-1.28125 0.46875 -2.46875 0.46875q-2.0468597 0 -3.6093597 -1.078125q-1.5625 -1.09375 -2.453125 -3.3125l-0.8125 3.921875l-3.109375 0zm5.234375 -8.515625l-0.015625 0.65625q0 2.65625 1.265625 4.046875q1.265625 1.390625 3.1718597 1.390625q1.84375 0 3.390625 -1.296875q1.5625 -1.296875 2.5625 -4.046875q1.0 -2.765625 1.0 -5.09375q0 -2.609375 -1.265625 -4.046875q-1.265625 -1.4531326 -3.109375 -1.4531326q-1.921875 0 -3.5312347 1.4843826q-1.59375 1.46875 -2.671875 4.53125q-0.796875 2.28125 -0.796875 3.828125zm17.636703 0.640625q0 -6.078125 3.578125 -10.0625q2.953125 -3.2812576 7.734375 -3.2812576q3.75 0 6.046875 2.34375q2.296875 2.3437576 2.296875 6.3281326q0 3.578125 -1.453125 6.65625q-1.4375 3.078125 -4.109375 4.71875q-2.671875 1.640625 -5.609375 1.640625q-2.421875 0 -4.40625 -1.03125q-1.984375 -1.046875 -3.03125 -2.9375q-1.046875 -1.890625 -1.046875 -4.375zm3.53125 -0.34375q0 2.921875 1.40625 4.4375q1.40625 1.515625 3.578125 1.515625q1.140625 0 2.25 -0.453125q1.109375 -0.46875 2.0625 -1.40625q0.96875 -0.9375 1.640625 -2.140625q0.671875 -1.203125 1.078125 -2.578125q0.609375 -1.9375 0.609375 -3.71875q0 -2.8125 -1.421875 -4.359375q-1.40625 -1.5625076 -3.5625 -1.5625076q-1.65625 0 -3.03125 0.7968826q-1.359375 0.796875 -2.46875 2.328125q-1.09375 1.515625 -1.625 3.53125q-0.515625 2.015625 -0.515625 3.609375zm18.089844 8.21875l4.34375 -20.750008l3.125 0l-0.890625 4.2500076q1.609375 -2.4062576 3.140625 -3.5625076q1.53125 -1.15625 3.140625 -1.15625q1.046875 0 2.59375 0.765625l-1.453125 3.2812576q-0.90625 -0.65625 -2.0 -0.65625q-1.859375 0 -3.8125 2.078125q-1.953125 2.0625 -3.0625 7.421875l-1.765625 8.328125l-3.359375 0zm21.585938 -2.875l-0.59375 2.890625q-1.265625 0.34375 -2.453125 0.34375q-2.109375 0 -3.359375 -1.046875q-0.9375 -0.78125 -0.9375 -2.125q0 -0.6875 0.5 -3.140625l2.53125 -12.0625l-2.796875 0l0.5625 -2.7343826l2.796875 0l1.078125 -5.09375l4.03125 -2.4375l-1.578125 7.53125l3.484375 0l-0.59375 2.7343826l-3.453125 0l-2.40625 11.46875q-0.453125 2.1875 -0.453125 2.625q0 0.625 0.359375 0.953125q0.375 0.328125 1.1875 0.328125q1.171875 0 2.09375 -0.234375zm16.832031 0.296875q-1.828125 1.578125 -3.53125 2.3125q-1.703125 0.734375 -3.640625 0.734375q-2.859375 0 -4.625 -1.6875q-1.75 -1.6875 -1.75 -4.328125q0 -1.734375 0.78125 -3.078125q0.796875 -1.34375 2.09375 -2.140625q1.3125 -0.8125 3.21875 -1.171875q1.1875 -0.234375 4.515625 -0.359375q3.328125 -0.140625 4.78125 -0.71875q0.40625 -1.4375 0.40625 -2.390625q0 -1.234375 -0.90625 -1.9375q-1.21875 -0.9843826 -3.59375 -0.9843826q-2.21875 0 -3.640625 1.0000076q-1.40625 0.984375 -2.0625 2.796875l-3.5625 -0.3125q1.09375 -3.09375 3.453125 -4.7343826q2.375 -1.640625 6.0 -1.640625q3.84375 0 6.09375 1.84375q1.71875 1.3593826 1.71875 3.5468826q0 1.671875 -0.5 3.859375l-1.140625 5.15625q-0.546875 2.453125 -0.546875 4.0q0 0.96875 0.421875 2.8125l-3.578125 0q-0.28125 -1.015625 -0.40625 -2.578125zm1.3125 -7.9375q-0.75 0.296875 -1.59375 0.453125q-0.84375 0.15625 -2.84375 0.328125q-3.078125 0.28125 -4.359375 0.703125q-1.265625 0.421875 -1.90625 1.34375q-0.640625 0.90625 -0.640625 2.015625q0 1.484375 1.015625 2.453125q1.03125 0.953125 2.921875 0.953125q1.765625 0 3.375 -0.921875q1.625 -0.9375 2.5625 -2.59375q0.9375 -1.65625 1.46875 -4.734375zm6.9492188 10.515625l4.34375 -20.750008l3.125 0l-0.890625 4.2500076q1.609375 -2.4062576 3.140625 -3.5625076q1.53125 -1.15625 3.140625 -1.15625q1.046875 0 2.59375 0.765625l-1.453125 3.2812576q-0.90625 -0.65625 -2.0 -0.65625q-1.859375 0 -3.8125 2.078125q-1.953125 2.0625 -3.0625 7.421875l-1.765625 8.328125l-3.359375 0z" fill-rule="nonzero"/><path fill="#000000" d="m45.96141 182.35501l0 3.1875q-1.515625 0.03125 -2.46875 0.8125q-0.9375 0.78125 -1.25 2.125q-0.3125 1.328125 -0.328125 4.59375q-0.015625 3.265625 -0.125 4.296875q-0.171875 1.671875 -0.65625 2.65625q-0.46875 0.984375 -1.171875 1.578125q-0.703125 0.59375 -1.796875 0.90625q-0.75 0.21875 -2.421875 0.21875l-1.09375 0l0 -3.0625l0.609375 0q2.03125 0 2.6875 -0.734375q0.671875 -0.734375 0.671875 -3.296875q0 -4.890625 0.171875 -6.1875q0.3125 -2.171875 1.25 -3.46875q0.9375 -1.296875 2.65625 -2.03125q-2.25 -1.0625 -3.171875 -2.828125q-0.90625 -1.78125 -0.90625 -5.96875q0 -3.8125 -0.109375 -4.5625q-0.125 -1.296875 -0.765625 -1.8125q-0.640625 -0.53125 -2.484375 -0.53125l-0.609375 0l0 -3.0625l1.09375 0q1.90625 0 2.765625 0.3125q1.25 0.4375 2.0625 1.453125q0.828125 1.015625 1.078125 2.5625q0.25 1.53125 0.265625 5.046875q0.015625 3.515625 0.328125 4.859375q0.3125 1.328125 1.25 2.109375q0.953125 0.78125 2.46875 0.828125z" fill-rule="nonzero"/><path fill="#000000" d="m58.66844 173.55814l3.046875 0l0 -1.5625q0 -2.609375 0.546875 -3.890625q0.5625 -1.296875 2.0625 -2.109375q1.5 -0.8125 3.78125 -0.8125q2.34375 0 4.59375 0.703125l-0.75 3.828125q-1.3125 -0.3125 -2.515625 -0.3125q-1.1875 0 -1.71875 0.5625q-0.515625 0.546875 -0.515625 2.140625l0 1.453125l4.109375 0l0 4.328125l-4.109375 0l0 16.421875l-5.484375 0l0 -16.421875l-3.046875 0l0 -4.328125zm15.7265625 -2.8125l0 -5.078125l5.484375 0l0 5.078125l-5.484375 0zm0 23.5625l0 -20.75l5.484375 0l0 20.75l-5.484375 0zm29.972656 0l-5.484375 0l0 -10.59375q0 -3.359375 -0.359375 -4.34375q-0.34375 -0.984375 -1.140625 -1.53125q-0.78125 -0.546875 -1.890625 -0.546875q-1.4375 0 -2.578125 0.78125q-1.125 0.78125 -1.546875 2.078125q-0.40625 1.28125 -0.40625 4.765625l0 9.390625l-5.5 0l0 -20.75l5.109375 0l0 3.046875q2.703125 -3.515625 6.828125 -3.515625q1.8125 0 3.3125 0.65625q1.515625 0.65625 2.28125 1.671875q0.78125 1.015625 1.078125 2.3125q0.296875 1.28125 0.296875 3.6875l0 12.890625zm9.667969 -14.421875l-4.96875 -0.890625q0.828125 -3.015625 2.875 -4.453125q2.0625 -1.453125 6.109375 -1.453125q3.671875 0 5.46875 0.875q1.796875 0.875 2.515625 2.21875q0.734375 1.328125 0.734375 4.90625l-0.046875 6.40625q0 2.734375 0.25 4.03125q0.265625 1.296875 1.0 2.78125l-5.4375 0q-0.21875 -0.546875 -0.53125 -1.625q-0.125 -0.484375 -0.1875 -0.640625q-1.40625 1.359375 -3.015625 2.046875q-1.59375 0.6875 -3.40625 0.6875q-3.203125 0 -5.0625 -1.734375q-1.84375 -1.75 -1.84375 -4.40625q0 -1.75 0.84375 -3.125q0.84375 -1.375 2.359375 -2.109375q1.515625 -0.734375 4.359375 -1.28125q3.84375 -0.71875 5.328125 -1.34375l0 -0.546875q0 -1.59375 -0.78125 -2.265625q-0.78125 -0.671875 -2.9375 -0.671875q-1.46875 0 -2.296875 0.578125q-0.8125 0.578125 -1.328125 2.015625zm7.34375 4.453125q-1.046875 0.359375 -3.34375 0.84375q-2.28125 0.484375 -2.984375 0.953125q-1.0625 0.765625 -1.0625 1.9375q0 1.15625 0.859375 2.0q0.859375 0.828125 2.1875 0.828125q1.484375 0 2.828125 -0.96875q1.0 -0.75 1.3125 -1.8125q0.203125 -0.703125 0.203125 -2.6875l0 -1.09375zm10.808594 9.96875l0 -28.640625l5.484375 0l0 28.640625l-5.484375 0zm11.113281 0l0 -28.640625l5.484375 0l0 28.640625l-5.484375 0zm8.519531 -20.75l5.828125 0l4.96875 14.734375l4.84375 -14.734375l5.6875 0l-7.328125 19.96875l-1.3125 3.609375q-0.71875 1.828125 -1.375 2.78125q-0.65625 0.953125 -1.515625 1.546875q-0.84375 0.59375 -2.078125 0.921875q-1.234375 0.34375 -2.796875 0.34375q-1.59375 0 -3.109375 -0.328125l-0.484375 -4.296875q1.28125 0.25 2.3125 0.25q1.921875 0 2.828125 -1.125q0.921875 -1.125 1.421875 -2.859375l-7.890625 -20.8125z" fill-rule="nonzero"/><path fill="#000000" d="m186.00829 182.35501q1.515625 -0.046875 2.453125 -0.8125q0.953125 -0.765625 1.265625 -2.109375q0.3125 -1.359375 0.328125 -4.609375q0.015625 -3.265625 0.125 -4.3125q0.171875 -1.640625 0.640625 -2.625q0.484375 -1.0 1.1875 -1.59375q0.703125 -0.59375 1.796875 -0.90625q0.75 -0.203125 2.421875 -0.203125l1.09375 0l0 3.0625l-0.609375 0q-2.03125 0 -2.703125 0.734375q-0.65625 0.734375 -0.65625 3.28125q0 5.109375 -0.203125 6.453125q-0.359375 2.09375 -1.21875 3.234375q-0.84375 1.125 -2.65625 2.0q2.15625 0.90625 3.109375 2.75q0.96875 1.84375 0.96875 6.046875q0 3.8125 0.078125 4.53125q0.15625 1.328125 0.796875 1.859375q0.640625 0.53125 2.484375 0.53125l0.609375 0l0 3.0625l-1.09375 0q-1.90625 0 -2.765625 -0.3125q-1.25 -0.453125 -2.078125 -1.46875q-0.8125 -1.0 -1.0625 -2.546875q-0.25 -1.53125 -0.265625 -5.046875q-0.015625 -3.515625 -0.328125 -4.859375q-0.3125 -1.359375 -1.265625 -2.140625q-0.9375 -0.78125 -2.453125 -0.8125l0 -3.1875z" fill-rule="nonzero"/><path fill="#000000" d="m84.52391 217.68314l0.84375 -4.015625l3.515625 0l-0.84375 4.015625l-3.515625 0zm-5.15625 24.625l4.34375 -20.75l3.53125 0l-4.328125 20.75l-3.546875 0zm9.027344 0l4.34375 -20.75l3.203125 0l-0.765625 3.625q2.09375 -2.140625 3.90625 -3.109375q1.8125 -0.984375 3.703125 -0.984375q2.53125 0 3.953125 1.375q1.4375 1.359375 1.4375 3.65625q0 1.140625 -0.5 3.625l-2.640625 12.5625l-3.53125 0l2.75 -13.140625q0.40625 -1.921875 0.40625 -2.84375q0 -1.03125 -0.71875 -1.671875q-0.703125 -0.640625 -2.046875 -0.640625q-2.71875 0 -4.84375 1.953125q-2.109375 1.953125 -3.109375 6.6875l-2.015625 9.65625l-3.53125 0zm22.574219 -7.09375l3.546875 -0.21875q0 1.53125 0.46875 2.609375q0.46875 1.0625 1.71875 1.75q1.265625 0.6875 2.9375 0.6875q2.34375 0 3.515625 -0.9375q1.171875 -0.9375 1.171875 -2.203125q0 -0.921875 -0.703125 -1.75q-0.71875 -0.8125 -3.53125 -2.015625q-2.796875 -1.203125 -3.578125 -1.6875q-1.296875 -0.796875 -1.96875 -1.875q-0.65625 -1.09375 -0.65625 -2.5q0 -2.46875 1.953125 -4.21875q1.953125 -1.765625 5.46875 -1.765625q3.90625 0 5.9375 1.8125q2.046875 1.8125 2.125 4.75l-3.453125 0.234375q-0.078125 -1.875 -1.328125 -2.96875q-1.25 -1.09375 -3.546875 -1.09375q-1.828125 0 -2.84375 0.84375q-1.015625 0.84375 -1.015625 1.8125q0 0.984375 0.875 1.71875q0.59375 0.515625 3.03125 1.5625q4.0625 1.765625 5.109375 2.78125q1.6875 1.625 1.6875 3.9375q0 1.546875 -0.953125 3.03125q-0.9375 1.484375 -2.890625 2.375q-1.9375 0.890625 -4.578125 0.890625q-3.59375 0 -6.109375 -1.78125q-2.515625 -1.78125 -2.390625 -5.78125zm27.9375 4.21875l-0.59375 2.890625q-1.265625 0.34375 -2.453125 0.34375q-2.109375 0 -3.359375 -1.046875q-0.9375 -0.78125 -0.9375 -2.125q0 -0.6875 0.5 -3.140625l2.53125 -12.0625l-2.796875 0l0.5625 -2.734375l2.796875 0l1.078125 -5.09375l4.03125 -2.4375l-1.578125 7.53125l3.484375 0l-0.59375 2.734375l-3.453125 0l-2.40625 11.46875q-0.453125 2.1875 -0.453125 2.625q0 0.625 0.359375 0.953125q0.375 0.328125 1.1875 0.328125q1.171875 0 2.09375 -0.234375zm2.8476562 2.875l4.34375 -20.75l3.125 0l-0.890625 4.25q1.609375 -2.40625 3.140625 -3.5625q1.53125 -1.15625 3.140625 -1.15625q1.046875 0 2.59375 0.765625l-1.453125 3.28125q-0.90625 -0.65625 -2.0 -0.65625q-1.859375 0 -3.8125 2.078125q-1.953125 2.0625 -3.0625 7.421875l-1.765625 8.328125l-3.359375 0zm27.476562 -3.75q-3.71875 4.21875 -7.625 4.21875q-2.40625 0 -3.890625 -1.375q-1.46875 -1.375 -1.46875 -3.375q0 -1.3125 0.671875 -4.484375l2.5 -11.984375l3.53125 0l-2.78125 13.265625q-0.34375 1.65625 -0.34375 2.578125q0 1.171875 0.703125 1.828125q0.71875 0.65625 2.109375 0.65625q1.484375 0 2.890625 -0.71875q1.421875 -0.734375 2.4375 -1.953125q1.03125 -1.234375 1.6875 -2.921875q0.421875 -1.0625 0.984375 -3.765625l1.875 -8.96875l3.546875 0l-4.34375 20.75l-3.265625 0l0.78125 -3.75zm22.402344 -3.8125l3.546875 0.375q-1.328125 3.890625 -3.78125 5.78125q-2.453125 1.875 -5.578125 1.875q-3.375 0 -5.484375 -2.1875q-2.09375 -2.1875 -2.09375 -6.109375q0 -3.40625 1.34375 -6.6875q1.34375 -3.28125 3.859375 -4.984375q2.515625 -1.71875 5.734375 -1.71875q3.34375 0 5.296875 1.890625q1.953125 1.890625 1.953125 4.984375l-3.484375 0.234375q-0.015625 -1.96875 -1.140625 -3.078125q-1.125 -1.109375 -2.953125 -1.109375q-2.140625 0 -3.703125 1.34375q-1.5625 1.34375 -2.453125 4.09375q-0.875 2.734375 -0.875 5.28125q0 2.65625 1.171875 3.984375q1.171875 1.328125 2.890625 1.328125q1.71875 0 3.28125 -1.3125q1.578125 -1.3125 2.46875 -3.984375zm20.0 0l3.546875 0.375q-1.328125 3.890625 -3.78125 5.78125q-2.453125 1.875 -5.578125 1.875q-3.375 0 -5.484375 -2.1875q-2.09375 -2.1875 -2.09375 -6.109375q0 -3.40625 1.34375 -6.6875q1.34375 -3.28125 3.859375 -4.984375q2.515625 -1.71875 5.734375 -1.71875q3.34375 0 5.296875 1.890625q1.953125 1.890625 1.953125 4.984375l-3.484375 0.234375q-0.015625 -1.96875 -1.140625 -3.078125q-1.125 -1.109375 -2.953125 -1.109375q-2.140625 0 -3.703125 1.34375q-1.5625 1.34375 -2.453125 4.09375q-0.875 2.734375 -0.875 5.28125q0 2.65625 1.171875 3.984375q1.171875 1.328125 2.890625 1.328125q1.71875 0 3.28125 -1.3125q1.578125 -1.3125 2.46875 -3.984375zm10.703125 -17.0625l0.84375 -4.015625l3.515625 0l-0.84375 4.015625l-3.515625 0zm-5.15625 24.625l4.34375 -20.75l3.53125 0l-4.328125 20.75l-3.546875 0zm9.652344 -7.875q0 -6.078125 3.578125 -10.0625q2.953125 -3.28125 7.734375 -3.28125q3.75 0 6.046875 2.34375q2.296875 2.34375 2.296875 6.328125q0 3.578125 -1.453125 6.65625q-1.4375 3.078125 -4.109375 4.71875q-2.671875 1.640625 -5.609375 1.640625q-2.421875 0 -4.40625 -1.03125q-1.984375 -1.046875 -3.03125 -2.9375q-1.046875 -1.890625 -1.046875 -4.375zm3.53125 -0.34375q0 2.921875 1.40625 4.4375q1.40625 1.515625 3.578125 1.515625q1.140625 0 2.25 -0.453125q1.109375 -0.46875 2.0625 -1.40625q0.96875 -0.9375 1.640625 -2.140625q0.671875 -1.203125 1.078125 -2.578125q0.609375 -1.9375 0.609375 -3.71875q0 -2.8125 -1.421875 -4.359375q-1.40625 -1.5625 -3.5625 -1.5625q-1.65625 0 -3.03125 0.796875q-1.359375 0.796875 -2.46875 2.328125q-1.09375 1.515625 -1.625 3.53125q-0.515625 2.015625 -0.515625 3.609375zm18.089844 8.21875l4.34375 -20.75l3.2031097 0l-0.76560974 3.625q2.0937347 -2.140625 3.9062347 -3.109375q1.8125 -0.984375 3.703125 -0.984375q2.53125 0 3.953125 1.375q1.4375 1.359375 1.4375 3.65625q0 1.140625 -0.5 3.625l-2.640625 12.5625l-3.53125 0l2.75 -13.140625q0.40625 -1.921875 0.40625 -2.84375q0 -1.03125 -0.71875 -1.671875q-0.703125 -0.640625 -2.046875 -0.640625q-2.71875 0 -4.84375 1.953125q-2.1093597 1.953125 -3.1093597 6.6875l-2.015625 9.65625l-3.53125 0zm37.480453 -7.046875l3.4375 0.34375q-0.734375 2.5625 -3.40625 4.875q-2.671875 2.296875 -6.359375 2.296875q-2.296875 0 -4.234375 -1.0625q-1.921875 -1.0625 -2.921875 -3.09375q-1.0 -2.03125 -1.0 -4.640625q0 -3.390625 1.5625 -6.578125q1.578125 -3.203125 4.078125 -4.75q2.5 -1.5625 5.40625 -1.5625q3.71875 0 5.921875 2.3125q2.21875 2.296875 2.21875 6.28125q0 1.53125 -0.265625 3.125l-15.28125 0q-0.078125 0.609375 -0.078125 1.09375q0 2.921875 1.34375 4.453125q1.34375 1.53125 3.265625 1.53125q1.828125 0 3.578125 -1.1875q1.765625 -1.203125 2.734375 -3.4375zm-10.265625 -5.140625l11.640625 0q0.015625 -0.546875 0.015625 -0.78125q0 -2.65625 -1.328125 -4.0625q-1.328125 -1.421875 -3.421875 -1.421875q-2.265625 0 -4.140625 1.5625q-1.859375 1.5625 -2.765625 4.703125zm17.605469 5.09375l3.546875 -0.21875q0 1.53125 0.46875 2.609375q0.46875 1.0625 1.71875 1.75q1.265625 0.6875 2.9375 0.6875q2.34375 0 3.515625 -0.9375q1.171875 -0.9375 1.171875 -2.203125q0 -0.921875 -0.703125 -1.75q-0.71875 -0.8125 -3.53125 -2.015625q-2.796875 -1.203125 -3.578125 -1.6875q-1.296875 -0.796875 -1.96875 -1.875q-0.65625 -1.09375 -0.65625 -2.5q0 -2.46875 1.953125 -4.21875q1.953125 -1.765625 5.46875 -1.765625q3.90625 0 5.9375 1.8125q2.046875 1.8125 2.125 4.75l-3.453125 0.234375q-0.078125 -1.875 -1.328125 -2.96875q-1.25 -1.09375 -3.546875 -1.09375q-1.828125 0 -2.84375 0.84375q-1.015625 0.84375 -1.015625 1.8125q0 0.984375 0.875 1.71875q0.59375 0.515625 3.03125 1.5625q4.0625 1.765625 5.109375 2.78125q1.6875 1.625 1.6875 3.9375q0 1.546875 -0.953125 3.03125q-0.9375 1.484375 -2.890625 2.375q-1.9375 0.890625 -4.578125 0.890625q-3.59375 0 -6.109375 -1.78125q-2.515625 -1.78125 -2.390625 -5.78125zm44.191406 4.75q-3.03125 2.8125 -5.8125 2.8125q-2.890625 0 -4.890625 -2.1875q-1.984375 -2.203125 -1.984375 -6.25q0 -3.875 1.515625 -7.0q1.515625 -3.125 3.859375 -4.6875q2.359375 -1.5625 4.859375 -1.5625q1.90625 0 3.453125 1.078125q1.546875 1.0625 2.515625 3.203125l0.796875 -3.8125l3.046875 0l-5.984375 28.703125l-3.53125 0l2.15625 -10.296875zm-9.1875 -6.09375q0 3.0625 1.265625 4.546875q1.28125 1.46875 3.171875 1.46875q1.59375 0 3.21875 -1.328125q1.640625 -1.328125 2.6875 -3.984375q1.046875 -2.65625 1.046875 -5.140625q0 -2.53125 -1.3125 -3.96875q-1.3125 -1.453125 -3.203125 -1.453125q-1.859375 0 -3.234375 1.203125q-1.828125 1.5625 -2.859375 4.515625q-0.78125 2.265625 -0.78125 4.140625zm32.183594 4.6875q-3.71875 4.21875 -7.625 4.21875q-2.40625 0 -3.890625 -1.375q-1.46875 -1.375 -1.46875 -3.375q0 -1.3125 0.671875 -4.484375l2.5 -11.984375l3.53125 0l-2.78125 13.265625q-0.34375 1.65625 -0.34375 2.578125q0 1.171875 0.703125 1.828125q0.71875 0.65625 2.109375 0.65625q1.484375 0 2.890625 -0.71875q1.421875 -0.734375 2.4375 -1.953125q1.03125 -1.234375 1.6875 -2.921875q0.421875 -1.0625 0.984375 -3.765625l1.875 -8.96875l3.546875 0l-4.34375 20.75l-3.265625 0l0.78125 -3.75zm23.324219 -3.296875l3.4375 0.34375q-0.734375 2.5625 -3.40625 4.875q-2.671875 2.296875 -6.359375 2.296875q-2.296875 0 -4.234375 -1.0625q-1.921875 -1.0625 -2.921875 -3.09375q-1.0 -2.03125 -1.0 -4.640625q0 -3.390625 1.5625 -6.578125q1.578125 -3.203125 4.078125 -4.75q2.5 -1.5625 5.40625 -1.5625q3.71875 0 5.921875 2.3125q2.21875 2.296875 2.21875 6.28125q0 1.53125 -0.265625 3.125l-15.28125 0q-0.078125 0.609375 -0.078125 1.09375q0 2.921875 1.34375 4.453125q1.34375 1.53125 3.265625 1.53125q1.828125 0 3.578125 -1.1875q1.765625 -1.203125 2.734375 -3.4375zm-10.265625 -5.140625l11.640625 0q0.015625 -0.546875 0.015625 -0.78125q0 -2.65625 -1.328125 -4.0625q-1.328125 -1.421875 -3.421875 -1.421875q-2.265625 0 -4.140625 1.5625q-1.859375 1.5625 -2.765625 4.703125z" fill-rule="nonzero"/><path fill="#000000" d="m79.83641 283.2144l3.546875 -0.21875q0 1.53125 0.46875 2.609375q0.46875 1.0625 1.71875 1.75q1.265625 0.6875 2.9375 0.6875q2.34375 0 3.515625 -0.9375q1.171875 -0.9375 1.171875 -2.203125q0 -0.921875 -0.703125 -1.75q-0.71875 -0.8125 -3.53125 -2.015625q-2.796875 -1.203125 -3.578125 -1.6875q-1.296875 -0.796875 -1.96875 -1.875q-0.65625 -1.09375 -0.65625 -2.5q0 -2.46875 1.953125 -4.21875q1.953125 -1.765625 5.46875 -1.765625q3.90625 0 5.9375 1.8125q2.046875 1.8125 2.125 4.75l-3.453125 0.234375q-0.078125 -1.875 -1.328125 -2.96875q-1.25 -1.09375 -3.546875 -1.09375q-1.828125 0 -2.84375 0.84375q-1.015625 0.84375 -1.015625 1.8125q0 0.984375 0.875 1.71875q0.59375 0.515625 3.03125 1.5625q4.0625 1.765625 5.109375 2.78125q1.6875 1.625 1.6875 3.9375q0 1.546875 -0.953125 3.03125q-0.9375 1.484375 -2.890625 2.375q-1.9375 0.890625 -4.578125 0.890625q-3.59375 0 -6.109375 -1.78125q-2.515625 -1.78125 -2.390625 -5.78125zm24.6875 -17.53125l0.84375 -4.015625l3.515625 0l-0.84375 4.015625l-3.515625 0zm-5.15625 24.625l4.34375 -20.75l3.53125 0l-4.328125 20.75l-3.546875 0zm24.261719 -7.046875l3.4375 0.34375q-0.734375 2.5625 -3.40625 4.875q-2.671875 2.296875 -6.359375 2.296875q-2.296875 0 -4.234375 -1.0625q-1.921875 -1.0625 -2.921875 -3.09375q-1.0 -2.03125 -1.0 -4.640625q0 -3.390625 1.5625 -6.578125q1.578125 -3.203125 4.078125 -4.75q2.5 -1.5625 5.40625 -1.5625q3.71875 0 5.921875 2.3125q2.21875 2.296875 2.21875 6.28125q0 1.53125 -0.265625 3.125l-15.28125 0q-0.078125 0.609375 -0.078125 1.09375q0 2.921875 1.34375 4.453125q1.34375 1.53125 3.265625 1.53125q1.828125 0 3.578125 -1.1875q1.765625 -1.203125 2.734375 -3.4375zm-10.265625 -5.140625l11.640625 0q0.015625 -0.546875 0.015625 -0.78125q0 -2.65625 -1.328125 -4.0625q-1.328125 -1.421875 -3.421875 -1.421875q-2.265625 0 -4.140625 1.5625q-1.859375 1.5625 -2.765625 4.703125zm17.261719 12.1875l4.328125 -20.75l3.546875 0l-0.734375 3.421875q1.984375 -2.203125 3.53125 -3.046875q1.546875 -0.84375 3.375 -0.84375q1.921875 0 3.21875 1.03125q1.3125 1.03125 1.71875 2.859375q1.578125 -1.953125 3.328125 -2.921875q1.75 -0.96875 3.6875 -0.96875q2.59375 0 3.890625 1.234375q1.296875 1.234375 1.296875 3.453125q0 0.96875 -0.453125 3.171875l-2.78125 13.359375l-3.546875 0l2.859375 -13.71875q0.375 -1.671875 0.375 -2.390625q0 -1.015625 -0.65625 -1.59375q-0.640625 -0.59375 -1.8125 -0.59375q-1.578125 0 -3.21875 0.953125q-1.640625 0.953125 -2.546875 2.515625q-0.90625 1.546875 -1.59375 4.765625l-2.109375 10.0625l-3.53125 0l2.921875 -14.0q0.3125 -1.4375 0.3125 -2.03125q0 -1.015625 -0.640625 -1.640625q-0.625 -0.625 -1.640625 -0.625q-1.5 0 -3.15625 0.953125q-1.65625 0.953125 -2.6875 2.671875q-1.03125 1.703125 -1.703125 4.859375l-2.046875 9.8125l-3.53125 0zm31.601562 7.953125l6.0 -28.703125l3.25 0l-0.59375 2.890625q1.8125 -1.890625 3.25 -2.625q1.4375 -0.734375 3.03125 -0.734375q2.96875 0 4.921875 2.171875q1.953125 2.15625 1.953125 6.171875q0 3.25 -1.078125 5.921875q-1.0625 2.65625 -2.625 4.28125q-1.5625 1.609375 -3.171875 2.375q-1.59375 0.765625 -3.28125 0.765625q-3.734375 0 -5.78125 -3.796875l-2.34375 11.28125l-3.53125 0zm6.984375 -16.4375q0 2.328125 0.34375 3.234375q0.484375 1.265625 1.59375 2.046875q1.109375 0.78125 2.578125 0.78125q3.046875 0 4.921875 -3.421875q1.875 -3.4375 1.875 -7.015625q0 -2.625 -1.265625 -4.0625q-1.25 -1.4375 -3.125 -1.4375q-1.34375 0 -2.5 0.71875q-1.15625 0.703125 -2.140625 2.125q-0.984375 1.40625 -1.640625 3.46875q-0.640625 2.046875 -0.640625 3.5625zm16.996094 8.484375l4.34375 -20.75l3.125 0l-0.890625 4.25q1.609375 -2.40625 3.140625 -3.5625q1.53125 -1.15625 3.140625 -1.15625q1.046875 0 2.59375 0.765625l-1.453125 3.28125q-0.90625 -0.65625 -2.0 -0.65625q-1.859375 0 -3.8125 2.078125q-1.953125 2.0625 -3.0625 7.421875l-1.765625 8.328125l-3.359375 0zm28.554688 -7.046875l3.4375 0.34375q-0.734375 2.5625 -3.40625 4.875q-2.671875 2.296875 -6.359375 2.296875q-2.296875 0 -4.234375 -1.0625q-1.921875 -1.0625 -2.921875 -3.09375q-1.0 -2.03125 -1.0 -4.640625q0 -3.390625 1.5625 -6.578125q1.578125 -3.203125 4.078125 -4.75q2.5 -1.5625 5.40625 -1.5625q3.71875 0 5.921875 2.3125q2.21875 2.296875 2.21875 6.28125q0 1.53125 -0.265625 3.125l-15.28125 0q-0.078125 0.609375 -0.078125 1.09375q0 2.921875 1.34375 4.453125q1.34375 1.53125 3.265625 1.53125q1.828125 0 3.578125 -1.1875q1.765625 -1.203125 2.734375 -3.4375zm-10.265625 -5.140625l11.640625 0q0.015625 -0.546875 0.015625 -0.78125q0 -2.65625 -1.328125 -4.0625q-1.328125 -1.421875 -3.421875 -1.421875q-2.265625 0 -4.140625 1.5625q-1.859375 1.5625 -2.765625 4.703125zm28.71875 5.09375l3.546875 -0.21875q0 1.53125 0.46875 2.609375q0.46875 1.0625 1.71875 1.75q1.265625 0.6875 2.9375 0.6875q2.34375 0 3.515625 -0.9375q1.171875 -0.9375 1.171875 -2.203125q0 -0.921875 -0.703125 -1.75q-0.71875 -0.8125 -3.53125 -2.015625q-2.796875 -1.203125 -3.578125 -1.6875q-1.296875 -0.796875 -1.96875 -1.875q-0.65625 -1.09375 -0.65625 -2.5q0 -2.46875 1.953125 -4.21875q1.953125 -1.765625 5.46875 -1.765625q3.90625 0 5.9375 1.8125q2.046875 1.8125 2.125 4.75l-3.453125 0.234375q-0.078125 -1.875 -1.328125 -2.96875q-1.25 -1.09375 -3.546875 -1.09375q-1.828125 0 -2.84375 0.84375q-1.015625 0.84375 -1.015625 1.8125q0 0.984375 0.875 1.71875q0.59375 0.515625 3.03125 1.5625q4.0625 1.765625 5.109375 2.78125q1.6875 1.625 1.6875 3.9375q0 1.546875 -0.953125 3.03125q-0.9375 1.484375 -2.890625 2.375q-1.9375 0.890625 -4.578125 0.890625q-3.59375 0 -6.109375 -1.78125q-2.515625 -1.78125 -2.390625 -5.78125zm34.906235 0.046875l3.4375 0.34375q-0.734375 2.5625 -3.40625 4.875q-2.671875 2.296875 -6.359375 2.296875q-2.296875 0 -4.234375 -1.0625q-1.9218597 -1.0625 -2.9218597 -3.09375q-1.0 -2.03125 -1.0 -4.640625q0 -3.390625 1.5625 -6.578125q1.5781097 -3.203125 4.0781097 -4.75q2.5 -1.5625 5.40625 -1.5625q3.71875 0 5.921875 2.3125q2.21875 2.296875 2.21875 6.28125q0 1.53125 -0.265625 3.125l-15.28125 0q-0.078125 0.609375 -0.078125 1.09375q0 2.921875 1.34375 4.453125q1.34375 1.53125 3.265625 1.53125q1.828125 0 3.578125 -1.1875q1.765625 -1.203125 2.734375 -3.4375zm-10.265625 -5.140625l11.640625 0q0.015625 -0.546875 0.015625 -0.78125q0 -2.65625 -1.328125 -4.0625q-1.328125 -1.421875 -3.421875 -1.421875q-2.265625 0 -4.140625 1.5625q-1.859375 1.5625 -2.765625 4.703125zm43.625 5.140625l3.4375 0.34375q-0.734375 2.5625 -3.40625 4.875q-2.671875 2.296875 -6.359375 2.296875q-2.296875 0 -4.234375 -1.0625q-1.921875 -1.0625 -2.921875 -3.09375q-1.0 -2.03125 -1.0 -4.640625q0 -3.390625 1.5625 -6.578125q1.578125 -3.203125 4.078125 -4.75q2.5 -1.5625 5.40625 -1.5625q3.71875 0 5.921875 2.3125q2.21875 2.296875 2.21875 6.28125q0 1.53125 -0.265625 3.125l-15.28125 0q-0.078125 0.609375 -0.078125 1.09375q0 2.921875 1.34375 4.453125q1.34375 1.53125 3.265625 1.53125q1.828125 0 3.578125 -1.1875q1.765625 -1.203125 2.734375 -3.4375zm-10.265625 -5.140625l11.640625 0q0.015625 -0.546875 0.015625 -0.78125q0 -2.65625 -1.328125 -4.0625q-1.328125 -1.421875 -3.421875 -1.421875q-2.265625 0 -4.140625 1.5625q-1.859375 1.5625 -2.765625 4.703125zm22.292969 -12.4375l0.84375 -4.015625l3.5 0l-0.84375 4.015625l-3.5 0zm-11.1875 32.421875l0.625 -3.015625q1.203125 0.34375 2.140625 0.34375q1.140625 0 1.8125 -0.765625q0.671875 -0.75 1.40625 -4.15625l4.34375 -20.953125l3.546875 0l-4.5 21.59375q-0.84375 4.046875 -1.9375 5.5q-1.453125 1.953125 -4.078125 1.953125q-1.390625 0 -3.359375 -0.5zm30.292969 -14.84375l3.4375 0.34375q-0.734375 2.5625 -3.40625 4.875q-2.671875 2.296875 -6.359375 2.296875q-2.296875 0 -4.234375 -1.0625q-1.921875 -1.0625 -2.921875 -3.09375q-1.0 -2.03125 -1.0 -4.640625q0 -3.390625 1.5625 -6.578125q1.578125 -3.203125 4.078125 -4.75q2.5 -1.5625 5.40625 -1.5625q3.71875 0 5.921875 2.3125q2.21875 2.296875 2.21875 6.28125q0 1.53125 -0.265625 3.125l-15.28125 0q-0.078125 0.609375 -0.078125 1.09375q0 2.921875 1.34375 4.453125q1.34375 1.53125 3.265625 1.53125q1.828125 0 3.578125 -1.1875q1.765625 -1.203125 2.734375 -3.4375zm-10.265625 -5.140625l11.640625 0q0.015625 -0.546875 0.015625 -0.78125q0 -2.65625 -1.328125 -4.0625q-1.328125 -1.421875 -3.421875 -1.421875q-2.265625 0 -4.140625 1.5625q-1.859375 1.5625 -2.765625 4.703125zm31.589844 4.625l3.546875 0.375q-1.328125 3.890625 -3.78125 5.78125q-2.453125 1.875 -5.578125 1.875q-3.375 0 -5.484375 -2.1875q-2.09375 -2.1875 -2.09375 -6.109375q0 -3.40625 1.34375 -6.6875q1.34375 -3.28125 3.859375 -4.984375q2.515625 -1.71875 5.734375 -1.71875q3.34375 0 5.296875 1.890625q1.953125 1.890625 1.953125 4.984375l-3.484375 0.234375q-0.015625 -1.96875 -1.140625 -3.078125q-1.125 -1.109375 -2.953125 -1.109375q-2.140625 0 -3.703125 1.34375q-1.5625 1.34375 -2.453125 4.09375q-0.875 2.734375 -0.875 5.28125q0 2.65625 1.171875 3.984375q1.171875 1.328125 2.890625 1.328125q1.71875 0 3.28125 -1.3125q1.578125 -1.3125 2.46875 -3.984375zm19.84375 3.8125q-3.71875 4.21875 -7.625 4.21875q-2.40625 0 -3.890625 -1.375q-1.46875 -1.375 -1.46875 -3.375q0 -1.3125 0.671875 -4.484375l2.5 -11.984375l3.53125 0l-2.78125 13.265625q-0.34375 1.65625 -0.34375 2.578125q0 1.171875 0.703125 1.828125q0.71875 0.65625 2.109375 0.65625q1.484375 0 2.890625 -0.71875q1.421875 -0.734375 2.4375 -1.953125q1.03125 -1.234375 1.6875 -2.921875q0.421875 -1.0625 0.984375 -3.765625l1.875 -8.96875l3.546875 0l-4.34375 20.75l-3.265625 0l0.78125 -3.75zm16.355469 0.875l-0.59375 2.890625q-1.265625 0.34375 -2.453125 0.34375q-2.109375 0 -3.359375 -1.046875q-0.9375 -0.78125 -0.9375 -2.125q0 -0.6875 0.5 -3.140625l2.53125 -12.0625l-2.796875 0l0.5625 -2.734375l2.796875 0l1.078125 -5.09375l4.03125 -2.4375l-1.578125 7.53125l3.484375 0l-0.59375 2.734375l-3.453125 0l-2.40625 11.46875q-0.453125 2.1875 -0.453125 2.625q0 0.625 0.359375 0.953125q0.375 0.328125 1.1875 0.328125q1.171875 0 2.09375 -0.234375zm16.832031 0.296875q-1.828125 1.578125 -3.53125 2.3125q-1.703125 0.734375 -3.640625 0.734375q-2.859375 0 -4.625 -1.6875q-1.75 -1.6875 -1.75 -4.328125q0 -1.734375 0.78125 -3.078125q0.796875 -1.34375 2.09375 -2.140625q1.3125 -0.8125 3.21875 -1.171875q1.1875 -0.234375 4.515625 -0.359375q3.328125 -0.140625 4.78125 -0.71875q0.40625 -1.4375 0.40625 -2.390625q0 -1.234375 -0.90625 -1.9375q-1.21875 -0.984375 -3.59375 -0.984375q-2.21875 0 -3.640625 1.0q-1.40625 0.984375 -2.0625 2.796875l-3.5625 -0.3125q1.09375 -3.09375 3.453125 -4.734375q2.375 -1.640625 6.0 -1.640625q3.84375 0 6.09375 1.84375q1.71875 1.359375 1.71875 3.546875q0 1.671875 -0.5 3.859375l-1.140625 5.15625q-0.546875 2.453125 -0.546875 4.0q0 0.96875 0.421875 2.8125l-3.578125 0q-0.28125 -1.015625 -0.40625 -2.578125zm1.3125 -7.9375q-0.75 0.296875 -1.59375 0.453125q-0.84375 0.15625 -2.84375 0.328125q-3.078125 0.28125 -4.359375 0.703125q-1.265625 0.421875 -1.90625 1.34375q-0.640625 0.90625 -0.640625 2.015625q0 1.484375 1.015625 2.453125q1.03125 0.953125 2.921875 0.953125q1.765625 0 3.375 -0.921875q1.625 -0.9375 2.5625 -2.59375q0.9375 -1.65625 1.46875 -4.734375zm6.9492188 10.515625l4.34375 -20.75l3.203125 0l-0.765625 3.625q2.09375 -2.140625 3.90625 -3.109375q1.8125 -0.984375 3.703125 -0.984375q2.53125 0 3.953125 1.375q1.4375 1.359375 1.4375 3.65625q0 1.140625 -0.5 3.625l-2.640625 12.5625l-3.53125 0l2.75 -13.140625q0.40625 -1.921875 0.40625 -2.84375q0 -1.03125 -0.71875 -1.671875q-0.703125 -0.640625 -2.046875 -0.640625q-2.71875 0 -4.84375 1.953125q-2.109375 1.953125 -3.109375 6.6875l-2.015625 9.65625l-3.53125 0z" fill-rule="nonzero"/><path fill="#000000" d="m45.96141 326.355l0 3.1875q-1.515625 0.03125 -2.46875 0.8125q-0.9375 0.78125 -1.25 2.125q-0.3125 1.328125 -0.328125 4.59375q-0.015625 3.265625 -0.125 4.296875q-0.171875 1.671875 -0.65625 2.65625q-0.46875 0.984375 -1.171875 1.578125q-0.703125 0.59375 -1.796875 0.90625q-0.75 0.21875 -2.421875 0.21875l-1.09375 0l0 -3.0625l0.609375 0q2.03125 0 2.6875 -0.734375q0.671875 -0.734375 0.671875 -3.296875q0 -4.890625 0.171875 -6.1875q0.3125 -2.171875 1.25 -3.46875q0.9375 -1.296875 2.65625 -2.03125q-2.25 -1.0625 -3.171875 -2.828125q-0.90625 -1.78125 -0.90625 -5.96875q0 -3.8125 -0.109375 -4.5625q-0.125 -1.296875 -0.765625 -1.8125q-0.640625 -0.53125 -2.484375 -0.53125l-0.609375 0l0 -3.0625l1.09375 0q1.90625 0 2.765625 0.3125q1.25 0.4375 2.0625 1.453125q0.828125 1.015625 1.078125 2.5625q0.25 1.53125 0.265625 5.046875q0.015625 3.515625 0.328125 4.859375q0.3125 1.328125 1.25 2.109375q0.953125 0.78125 2.46875 0.828125z" fill-rule="nonzero"/><path fill="#000000" d="m40.070786 361.68314l0.84375 -4.015625l3.515625 0l-0.84375 4.015625l-3.515625 0zm-5.15625 24.625l4.34375 -20.75l3.53125 0l-4.328125 20.75l-3.546875 0zm9.027344 0l4.34375 -20.75l3.203125 0l-0.765625 3.625q2.09375 -2.140625 3.90625 -3.109375q1.8125 -0.984375 3.703125 -0.984375q2.53125 0 3.953125 1.375q1.4375 1.359375 1.4375 3.65625q0 1.140625 -0.5 3.625l-2.640625 12.5625l-3.53125 0l2.75 -13.140625q0.40625 -1.921875 0.40625 -2.84375q0 -1.03125 -0.71875 -1.671875q-0.703125 -0.640625 -2.046875 -0.640625q-2.71875 0 -4.84375 1.953125q-2.109375 1.953125 -3.109375 6.6875l-2.015625 9.65625l-3.53125 0zm22.574219 -7.09375l3.546875 -0.21875q0 1.53125 0.46875 2.609375q0.46875 1.0625 1.71875 1.75q1.265625 0.6875 2.9375 0.6875q2.34375 0 3.515625 -0.9375q1.171875 -0.9375 1.171875 -2.203125q0 -0.921875 -0.703125 -1.75q-0.71875 -0.8125 -3.53125 -2.015625q-2.796875 -1.203125 -3.578125 -1.6875q-1.296875 -0.796875 -1.96875 -1.875q-0.65625 -1.09375 -0.65625 -2.5q0 -2.46875 1.953125 -4.21875q1.953125 -1.765625 5.46875 -1.765625q3.90625 0 5.9375 1.8125q2.046875 1.8125 2.125 4.75l-3.453125 0.234375q-0.078125 -1.875 -1.328125 -2.96875q-1.25 -1.09375 -3.546875 -1.09375q-1.828125 0 -2.84375 0.84375q-1.015625 0.84375 -1.015625 1.8125q0 0.984375 0.875 1.71875q0.59375 0.515625 3.03125 1.5625q4.0625 1.765625 5.109375 2.78125q1.6875 1.625 1.6875 3.9375q0 1.546875 -0.953125 3.03125q-0.9375 1.484375 -2.890625 2.375q-1.9375 0.890625 -4.578125 0.890625q-3.59375 0 -6.109375 -1.78125q-2.515625 -1.78125 -2.390625 -5.78125zm27.9375 4.21875l-0.59375 2.890625q-1.265625 0.34375 -2.453125 0.34375q-2.109375 0 -3.359375 -1.046875q-0.9375 -0.78125 -0.9375 -2.125q0 -0.6875 0.5 -3.140625l2.53125 -12.0625l-2.796875 0l0.5625 -2.734375l2.796875 0l1.078125 -5.09375l4.03125 -2.4375l-1.578125 7.53125l3.484375 0l-0.59375 2.734375l-3.453125 0l-2.40625 11.46875q-0.453125 2.1875 -0.453125 2.625q0 0.625 0.359375 0.953125q0.375 0.328125 1.1875 0.328125q1.171875 0 2.09375 -0.234375zm2.8476562 2.875l4.34375 -20.75l3.125 0l-0.890625 4.25q1.609375 -2.40625 3.140625 -3.5625q1.53125 -1.15625 3.140625 -1.15625q1.046875 0 2.59375 0.765625l-1.453125 3.28125q-0.90625 -0.65625 -2.0 -0.65625q-1.859375 0 -3.8125 2.078125q-1.953125 2.0625 -3.0625 7.421875l-1.765625 8.328125l-3.359375 0zm27.476562 -3.75q-3.71875 4.21875 -7.625 4.21875q-2.40625 0 -3.890625 -1.375q-1.46875 -1.375 -1.46875 -3.375q0 -1.3125 0.671875 -4.484375l2.5 -11.984375l3.53125 0l-2.78125 13.265625q-0.34375 1.65625 -0.34375 2.578125q0 1.171875 0.703125 1.828125q0.71875 0.65625 2.109375 0.65625q1.484375 0 2.890625 -0.71875q1.421875 -0.734375 2.4375 -1.953125q1.03125 -1.234375 1.6875 -2.921875q0.421875 -1.0625 0.984375 -3.765625l1.875 -8.96875l3.546875 0l-4.34375 20.75l-3.265625 0l0.78125 -3.75zm22.402344 -3.8125l3.546875 0.375q-1.328125 3.890625 -3.78125 5.78125q-2.453125 1.875 -5.578125 1.875q-3.375 0 -5.484375 -2.1875q-2.09375 -2.1875 -2.09375 -6.109375q0 -3.40625 1.34375 -6.6875q1.34375 -3.28125 3.859375 -4.984375q2.515625 -1.71875 5.734375 -1.71875q3.34375 0 5.296875 1.890625q1.953125 1.890625 1.953125 4.984375l-3.484375 0.234375q-0.015625 -1.96875 -1.140625 -3.078125q-1.125 -1.109375 -2.953125 -1.109375q-2.140625 0 -3.703125 1.34375q-1.5625 1.34375 -2.453125 4.09375q-0.875 2.734375 -0.875 5.28125q0 2.65625 1.171875 3.984375q1.171875 1.328125 2.890625 1.328125q1.71875 0 3.28125 -1.3125q1.578125 -1.3125 2.46875 -3.984375zm20.0 0l3.546875 0.375q-1.328125 3.890625 -3.78125 5.78125q-2.453125 1.875 -5.578125 1.875q-3.375 0 -5.484375 -2.1875q-2.09375 -2.1875 -2.09375 -6.109375q0 -3.40625 1.34375 -6.6875q1.34375 -3.28125 3.859375 -4.984375q2.515625 -1.71875 5.734375 -1.71875q3.34375 0 5.296875 1.890625q1.953125 1.890625 1.953125 4.984375l-3.484375 0.234375q-0.015625 -1.96875 -1.140625 -3.078125q-1.125 -1.109375 -2.953125 -1.109375q-2.140625 0 -3.703125 1.34375q-1.5625 1.34375 -2.453125 4.09375q-0.875 2.734375 -0.875 5.28125q0 2.65625 1.171875 3.984375q1.171875 1.328125 2.890625 1.328125q1.71875 0 3.28125 -1.3125q1.578125 -1.3125 2.46875 -3.984375zm10.703125 -17.0625l0.84375 -4.015625l3.515625 0l-0.84375 4.015625l-3.515625 0zm-5.15625 24.625l4.34375 -20.75l3.53125 0l-4.328125 20.75l-3.546875 0zm9.652344 -7.875q0 -6.078125 3.578125 -10.0625q2.953125 -3.28125 7.734375 -3.28125q3.75 0 6.046875 2.34375q2.296875 2.34375 2.296875 6.328125q0 3.578125 -1.453125 6.65625q-1.4375 3.078125 -4.109375 4.71875q-2.671875 1.640625 -5.609375 1.640625q-2.421875 0 -4.40625 -1.03125q-1.984375 -1.046875 -3.03125 -2.9375q-1.046875 -1.890625 -1.046875 -4.375zm3.53125 -0.34375q0 2.921875 1.40625 4.4375q1.40625 1.515625 3.578125 1.515625q1.140625 0 2.25 -0.453125q1.109375 -0.46875 2.0625 -1.40625q0.96875 -0.9375 1.640625 -2.140625q0.671875 -1.203125 1.078125 -2.578125q0.609375 -1.9375 0.609375 -3.71875q0 -2.8125 -1.421875 -4.359375q-1.40625 -1.5625 -3.5625 -1.5625q-1.65625 0 -3.03125 0.796875q-1.359375 0.796875 -2.46875 2.328125q-1.09375 1.515625 -1.625 3.53125q-0.515625 2.015625 -0.515625 3.609375zm18.089844 8.21875l4.34375 -20.75l3.203125 0l-0.765625 3.625q2.09375 -2.140625 3.90625 -3.109375q1.8125 -0.984375 3.703125 -0.984375q2.53125 0 3.953125 1.375q1.4375 1.359375 1.4375 3.65625q0 1.140625 -0.5 3.625l-2.640625 12.5625l-3.53125 0l2.75 -13.140625q0.40625 -1.921875 0.40625 -2.84375q0 -1.03125 -0.71875 -1.671875q-0.703125 -0.640625 -2.046875 -0.640625q-2.71875 0 -4.84375 1.953125q-2.109375 1.953125 -3.109375 6.6875l-2.015625 9.65625l-3.53125 0zm37.48047 -7.046875l3.4375 0.34375q-0.734375 2.5625 -3.40625 4.875q-2.671875 2.296875 -6.359375 2.296875q-2.296875 0 -4.234375 -1.0625q-1.921875 -1.0625 -2.921875 -3.09375q-1.0 -2.03125 -1.0 -4.640625q0 -3.390625 1.5625 -6.578125q1.578125 -3.203125 4.078125 -4.75q2.5 -1.5625 5.40625 -1.5625q3.71875 0 5.921875 2.3125q2.21875 2.296875 2.21875 6.28125q0 1.53125 -0.265625 3.125l-15.28125 0q-0.078125 0.609375 -0.078125 1.09375q0 2.921875 1.34375 4.453125q1.34375 1.53125 3.265625 1.53125q1.828125 0 3.578125 -1.1875q1.765625 -1.203125 2.734375 -3.4375zm-10.265625 -5.140625l11.640625 0q0.015625 -0.546875 0.015625 -0.78125q0 -2.65625 -1.328125 -4.0625q-1.328125 -1.421875 -3.421875 -1.421875q-2.265625 0 -4.140625 1.5625q-1.859375 1.5625 -2.765625 4.703125zm17.605469 5.09375l3.546875 -0.21875q0 1.53125 0.46875 2.609375q0.46875 1.0625 1.71875 1.75q1.265625 0.6875 2.9374847 0.6875q2.34375 0 3.515625 -0.9375q1.171875 -0.9375 1.171875 -2.203125q0 -0.921875 -0.703125 -1.75q-0.71875 -0.8125 -3.53125 -2.015625q-2.7968597 -1.203125 -3.5781097 -1.6875q-1.296875 -0.796875 -1.96875 -1.875q-0.65625 -1.09375 -0.65625 -2.5q0 -2.46875 1.953125 -4.21875q1.953125 -1.765625 5.4687347 -1.765625q3.90625 0 5.9375 1.8125q2.046875 1.8125 2.125 4.75l-3.453125 0.234375q-0.078125 -1.875 -1.328125 -2.96875q-1.25 -1.09375 -3.546875 -1.09375q-1.828125 0 -2.84375 0.84375q-1.0156097 0.84375 -1.0156097 1.8125q0 0.984375 0.875 1.71875q0.59373474 0.515625 3.0312347 1.5625q4.0625 1.765625 5.109375 2.78125q1.6875 1.625 1.6875 3.9375q0 1.546875 -0.953125 3.03125q-0.9375 1.484375 -2.890625 2.375q-1.9375 0.890625 -4.578125 0.890625q-3.5937347 0 -6.1093597 -1.78125q-2.515625 -1.78125 -2.390625 -5.78125z" fill-rule="nonzero"/><path fill="#000000" fill-opacity="0.0" d="m196.72966 11.475065l0 67.2126" fill-rule="evenodd"/><path stroke="#0000ff" stroke-width="2.0" stroke-linejoin="round" stroke-linecap="butt" d="m196.72966 11.475065l0 55.2126" fill-rule="evenodd"/><path fill="#0000ff" stroke="#0000ff" stroke-width="2.0" stroke-linecap="butt" d="m193.4262 66.68767l3.3034668 9.076195l3.3034668 -9.076195z" fill-rule="evenodd"/><path fill="#000000" fill-opacity="0.0" d="m182.79265 150.00525l0 69.6693" fill-rule="evenodd"/><path stroke="#0000ff" stroke-width="2.0" stroke-linejoin="round" stroke-linecap="butt" d="m182.79265 150.00525l0 57.669296" fill-rule="evenodd"/><path fill="#0000ff" stroke="#0000ff" stroke-width="2.0" stroke-linecap="butt" d="m179.48918 207.67455l3.3034668 9.076187l3.3034668 -9.076187z" fill-rule="evenodd"/><path fill="#000000" fill-opacity="0.0" d="m204.10498 295.9134l0 72.12598" fill-rule="evenodd"/><path stroke="#0000ff" stroke-width="2.0" stroke-linejoin="round" stroke-linecap="butt" d="m204.10498 295.9134l0 60.125977" fill-rule="evenodd"/><path fill="#0000ff" stroke="#0000ff" stroke-width="2.0" stroke-linecap="butt" d="m200.80153 356.03937l3.3034515 9.076202l3.3034668 -9.076202z" fill-rule="evenodd"/></g></svg>