<svg version="1.1" viewBox="0.0 0.0 983.3937007874016 323.61679790026244" fill="none" stroke="none" stroke-linecap="square" stroke-miterlimit="10" xmlns:xlink="http://www.w3.org/1999/xlink" xmlns="http://www.w3.org/2000/svg"><clipPath id="p.0"><path d="m0 0l983.3937 0l0 323.6168l-983.3937 0l0 -323.6168z" clip-rule="nonzero"/></clipPath><g clip-path="url(#p.0)"><path fill="#000000" fill-opacity="0.0" d="m0 0l983.3937 0l0 323.6168l-983.3937 0z" fill-rule="evenodd"/><path fill="#000000" fill-opacity="0.0" d="m212.7559 187.45932l44.220474 10.362198" fill-rule="evenodd"/><path stroke="#980000" stroke-width="16.0" stroke-linejoin="round" stroke-linecap="butt" d="m212.7559 187.45932l44.220474 10.362198" fill-rule="evenodd"/><path fill="#e6b8af" d="m329.73984 206.11023c-9.471466 -59.83809 121.10626 -130.23163 291.65353 -157.22835l0 0c170.5473 -26.996721 316.48132 -0.37352753 325.95276 59.46457l0 0c9.471497 59.83809 -121.10626 130.23163 -291.65356 157.22835l0 0c-170.54724 26.996735 -316.48126 0.37353516 -325.95273 -59.46457z" fill-rule="evenodd"/><path stroke="#980000" stroke-width="4.0" stroke-linejoin="round" stroke-linecap="butt" d="m329.73984 206.11023c-9.471466 -59.83809 121.10626 -130.23163 291.65353 -157.22835l0 0c170.5473 -26.996721 316.48132 -0.37352753 325.95276 59.46457l0 0c9.471497 59.83809 -121.10626 130.23163 -291.65356 157.22835l0 0c-170.54724 26.996735 -316.48126 0.37353516 -325.95273 -59.46457z" fill-rule="evenodd"/><path fill="#dd7e6b" d="m256.9685 197.80577l0 0c0 -34.676514 46.421356 -62.7874 103.68503 -62.7874l0 0c57.26367 0 103.68506 28.110886 103.68506 62.7874l0 0c0 34.67653 -46.421387 62.7874 -103.68506 62.7874l0 0c-57.26367 0 -103.68503 -28.11087 -103.68503 -62.7874z" fill-rule="evenodd"/><path stroke="#980000" stroke-width="4.0" stroke-linejoin="round" stroke-linecap="butt" d="m256.9685 197.80577l0 0c0 -34.676514 46.421356 -62.7874 103.68503 -62.7874l0 0c57.26367 0 103.68506 28.110886 103.68506 62.7874l0 0c0 34.67653 -46.421387 62.7874 -103.68506 62.7874l0 0c-57.26367 0 -103.68503 -28.11087 -103.68503 -62.7874z" fill-rule="evenodd"/><path fill="#dd7e6b" d="m266.6296 183.75783l0 0c0 -26.074799 19.06491 -47.2126 42.582672 -47.2126c23.517761 0 42.582672 21.137802 42.582672 47.2126c0 26.074799 -19.06491 47.2126 -42.582672 47.2126c-23.517761 0 -42.582672 -21.137802 -42.582672 -47.2126z" fill-rule="evenodd"/><path fill="#b06455" d="m291.13437 169.63777c0 -2.7161255 1.9859314 -4.917984 4.4356995 -4.917984c2.449768 0 4.435669 2.2018585 4.435669 4.917984c0 2.7161255 -1.9859009 4.9179688 -4.435669 4.9179688c-2.449768 0 -4.4356995 -2.2018433 -4.4356995 -4.9179688m27.284454 0c0 -2.7161255 1.9859314 -4.917984 4.4356995 -4.917984c2.449768 0 4.435669 2.2018585 4.435669 4.917984c0 2.7161255 -1.9859009 4.9179688 -4.435669 4.9179688c-2.449768 0 -4.4356995 -2.2018433 -4.4356995 -4.9179688" fill-rule="evenodd"/><path fill="#000000" fill-opacity="0.0" d="m286.1322 204.34756q23.080078 17.574417 46.106262 0" fill-rule="evenodd"/><path fill="#000000" fill-opacity="0.0" d="m266.6296 183.75783l0 0c0 -26.074799 19.06491 -47.2126 42.582672 -47.2126c23.517761 0 42.582672 21.137802 42.582672 47.2126c0 26.074799 -19.06491 47.2126 -42.582672 47.2126c-23.517761 0 -42.582672 -21.137802 -42.582672 -47.2126z" fill-rule="evenodd"/><path stroke="#980000" stroke-width="4.0" stroke-linejoin="round" stroke-linecap="butt" d="m291.13437 169.63777c0 -2.7161255 1.9859314 -4.917984 4.4356995 -4.917984c2.449768 0 4.435669 2.2018585 4.435669 4.917984c0 2.7161255 -1.9859009 4.9179688 -4.435669 4.9179688c-2.449768 0 -4.4356995 -2.2018433 -4.4356995 -4.9179688m27.284454 0c0 -2.7161255 1.9859314 -4.917984 4.4356995 -4.917984c2.449768 0 4.435669 2.2018585 4.435669 4.917984c0 2.7161255 -1.9859009 4.9179688 -4.435669 4.9179688c-2.449768 0 -4.4356995 -2.2018433 -4.4356995 -4.9179688" fill-rule="evenodd"/><path stroke="#980000" stroke-width="4.0" stroke-linejoin="round" stroke-linecap="butt" d="m286.1322 204.34756q23.080078 17.574417 46.106262 0" fill-rule="evenodd"/><path stroke="#980000" stroke-width="4.0" stroke-linejoin="round" stroke-linecap="butt" d="m266.6296 183.75783l0 0c0 -26.074799 19.06491 -47.2126 42.582672 -47.2126c23.517761 0 42.582672 21.137802 42.582672 47.2126c0 26.074799 -19.06491 47.2126 -42.582672 47.2126c-23.517761 0 -42.582672 -21.137802 -42.582672 -47.2126z" fill-rule="evenodd"/><path fill="#000000" fill-opacity="0.0" d="m212.7559 150.94481l0 0c-0.004623413 -5.1430817 6.043869 -9.896484 15.866531 -12.469223c9.822678 -2.572754 21.926788 -2.5738678 31.75177 -0.0029449463c9.824982 2.570938 15.877777 7.3232117 15.877777 12.466293l-31.748047 0z" fill-rule="evenodd"/><path fill="#000000" fill-opacity="0.0" d="m212.7559 150.94481l0 0c-0.004623413 -5.1430817 6.043869 -9.896484 15.866531 -12.469223c9.822678 -2.572754 21.926788 -2.5738678 31.75177 -0.0029449463c9.824982 2.570938 15.877777 7.3232117 15.877777 12.466293" fill-rule="evenodd"/><path stroke="#980000" stroke-width="8.0" stroke-linejoin="round" stroke-linecap="butt" d="m212.7559 150.94481l0 0c-0.004623413 -5.1430817 6.043869 -9.896484 15.866531 -12.469223c9.822678 -2.572754 21.926788 -2.5738678 31.75177 -0.0029449463c9.824982 2.570938 15.877777 7.3232117 15.877777 12.466293" fill-rule="evenodd"/><path fill="#000000" fill-opacity="0.0" d="m344.28918 152.64903l0 0c-1.4012451 -5.309189 3.804535 -10.5329895 13.518555 -13.565353c9.713989 -3.0323792 22.335114 -3.3735046 32.774963 -0.885849c10.43985 2.4876404 16.977661 7.394043 16.977661 12.741104l-31.748016 0z" fill-rule="evenodd"/><path fill="#000000" fill-opacity="0.0" d="m344.28918 152.64903l0 0c-1.4012451 -5.309189 3.804535 -10.5329895 13.518555 -13.565353c9.713989 -3.0323792 22.335114 -3.3735046 32.774963 -0.885849c10.43985 2.4876404 16.977661 7.394043 16.977661 12.741104" fill-rule="evenodd"/><path stroke="#980000" stroke-width="8.0" stroke-linejoin="round" stroke-linecap="butt" d="m344.28918 152.64903l0 0c-1.4012451 -5.309189 3.804535 -10.5329895 13.518555 -13.565353c9.713989 -3.0323792 22.335114 -3.3735046 32.774963 -0.885849c10.43985 2.4876404 16.977661 7.394043 16.977661 12.741104" fill-rule="evenodd"/><path fill="#ffffff" d="m0 114.32546l212.7559 0l0 121.889275l-24.378433 24.378433l-188.37747 0z" fill-rule="evenodd"/><path fill="#cbcbcb" d="m188.37747 260.59317l4.8756866 -19.502747l19.502747 -4.8756866z" fill-rule="evenodd"/><path fill="#000000" fill-opacity="0.0" d="m188.37747 260.59317l4.8756866 -19.502747l19.502747 -4.8756866l-24.378433 24.378433l-188.37747 0l0 -146.2677l212.7559 0l0 121.889275" fill-rule="evenodd"/><path stroke="#000000" stroke-width="1.0" stroke-linejoin="round" stroke-linecap="butt" d="m188.37747 260.59317l4.8756866 -19.502747l19.502747 -4.8756866l-24.378433 24.378433l-188.37747 0l0 -146.2677l212.7559 0l0 121.889275" fill-rule="evenodd"/><path fill="#000000" d="m44.46389 169.40546l-6.59375 0l0 -12.703125q0 -4.03125 -0.421875 -5.21875q-0.421875 -1.1875 -1.375 -1.84375q-0.9375 -0.65625 -2.28125 -0.65625q-1.703125 0 -3.0625 0.9375q-1.359375 0.9375 -1.875 2.484375q-0.5 1.546875 -0.5 5.71875l0 11.28125l-6.578125 0l0 -24.890625l6.109375 0l0 3.65625q3.265625 -4.21875 8.203125 -4.21875q2.1875 0 3.984375 0.78125q1.8125 0.78125 2.734375 2.0q0.921875 1.21875 1.28125 2.765625q0.375 1.546875 0.375 4.4375l0 15.46875zm5.1484375 -12.796875q0 -3.28125 1.609375 -6.34375q1.625 -3.078125 4.59375 -4.6875q2.96875 -1.625 6.625 -1.625q5.640625 0 9.25 3.671875q3.609375 3.65625 3.609375 9.265625q0 5.640625 -3.640625 9.359375q-3.640625 3.71875 -9.171875 3.71875q-3.421875 0 -6.53125 -1.546875q-3.109375 -1.546875 -4.734375 -4.53125q-1.609375 -3.0 -1.609375 -7.28125zm6.75 0.34375q0 3.703125 1.75 5.671875q1.765625 1.96875 4.34375 1.96875q2.578125 0 4.328125 -1.96875q1.75 -1.96875 1.75 -5.71875q0 -3.65625 -1.75 -5.625q-1.75 -1.96875 -4.328125 -1.96875q-2.578125 0 -4.34375 1.96875q-1.75 1.96875 -1.75 5.671875zm23.601562 -12.4375l6.078125 0l0 3.390625q3.25 -3.953125 7.75 -3.953125q2.390625 0 4.140625 0.984375q1.765625 0.984375 2.890625 2.96875q1.640625 -1.984375 3.53125 -2.96875q1.90625 -0.984375 4.0625 -0.984375q2.75 0 4.640625 1.109375q1.90625 1.109375 2.84375 3.265625q0.671875 1.59375 0.671875 5.15625l0 15.921875l-6.578125 0l0 -14.234375q0 -3.703125 -0.6875 -4.78125q-0.90625 -1.40625 -2.8125 -1.40625q-1.375 0 -2.59375 0.84375q-1.21875 0.84375 -1.765625 2.484375q-0.53125 1.625 -0.53125 5.140625l0 11.953125l-6.59375 0l0 -13.640625q0 -3.640625 -0.359375 -4.6875q-0.34375 -1.0625 -1.078125 -1.578125q-0.734375 -0.515625 -2.0 -0.515625q-1.53125 0 -2.75 0.828125q-1.21875 0.8125 -1.75 2.359375q-0.515625 1.546875 -0.515625 5.140625l0 12.09375l-6.59375 0l0 -24.890625zm42.898438 24.890625l0 -34.359375l6.5781326 0l0 12.375q3.046875 -3.46875 7.21875 -3.46875q4.546875 0 7.515625 3.296875q2.984375 3.28125 2.984375 9.453125q0 6.375 -3.03125 9.828125q-3.03125 3.4375 -7.375 3.4375q-2.125 0 -4.203125 -1.0625q-2.078125 -1.078125 -3.578125 -3.15625l0 3.65625l-6.1093826 0zm6.5312576 -12.984375q0 3.859375 1.21875 5.71875q1.71875 2.625 4.546875 2.625q2.1875 0 3.71875 -1.859375q1.53125 -1.875 1.53125 -5.875q0 -4.265625 -1.546875 -6.15625q-1.546875 -1.890625 -3.953125 -1.890625q-2.375 0 -3.953125 1.84375q-1.5625 1.84375 -1.5625 5.59375zm29.367188 12.984375l-6.578125 0l0 -24.890625l6.109375 0l0 3.53125q1.578125 -2.5 2.828125 -3.296875q1.25 -0.796875 2.84375 -0.796875q2.25 0 4.34375 1.234375l-2.046875 5.75q-1.65625 -1.078125 -3.09375 -1.078125q-1.375 0 -2.34375 0.765625q-0.953125 0.75 -1.515625 2.75q-0.546875 1.984375 -0.546875 8.34375l0 7.6875zm26.789062 -7.921875l6.5625 1.09375q-1.265625 3.609375 -4.0 5.5q-2.71875 1.890625 -6.828125 1.890625q-6.484375 0 -9.609375 -4.25q-2.453125 -3.390625 -2.453125 -8.578125q0 -6.1875 3.234375 -9.6875q3.234375 -3.5 8.171875 -3.5q5.5625 0 8.765625 3.671875q3.21875 3.65625 3.078125 11.234375l-16.5 0q0.0625 2.921875 1.578125 4.5625q1.53125 1.625 3.8125 1.625q1.546875 0 2.59375 -0.84375q1.0625 -0.84375 1.59375 -2.71875zm0.375 -6.65625q-0.0625 -2.859375 -1.46875 -4.34375q-1.40625 -1.5 -3.421875 -1.5q-2.15625 0 -3.5625 1.578125q-1.40625 1.5625 -1.390625 4.265625l9.84375 0z" fill-rule="nonzero"/><path fill="#000000" d="m79.5303 198.8117l0 4.890625l-4.515625 0l0 -3.859375q0 -3.140625 0.75 -4.546875q0.984375 -1.875 3.109375 -2.84375l1.03125 1.640625q-1.28125 0.546875 -1.890625 1.609375q-0.609375 1.0625 -0.6875 3.109375l2.203125 0zm7.265625 0l0 4.890625l-4.515625 0l0 -3.859375q0 -3.140625 0.75 -4.546875q0.984375 -1.875 3.109375 -2.84375l1.03125 1.640625q-1.28125 0.546875 -1.890625 1.609375q-0.609375 1.0625 -0.6875 3.109375l2.203125 0zm12.328125 28.59375l-9.46875 -24.890625l4.453125 0l5.34375 14.90625q0.875 2.40625 1.59375 5.015625q0.5625 -1.96875 1.578125 -4.734375l5.53125 -15.1875l4.328125 0l-9.421875 24.890625l-3.9375 0zm17.0 0l0 -34.359375l4.21875 0l0 34.359375l-4.21875 0zm9.6328125 -29.8125l0 -4.90625l4.5156326 0l0 3.875q0 3.140625 -0.71875 4.515625q-1.015625 1.90625 -3.1406326 2.859375l-1.03125 -1.65625q1.265625 -0.515625 1.875 -1.625q0.625 -1.125 0.703125 -3.0625l-2.203125 0zm7.2656326 0l0 -4.90625l4.515625 0l0 3.875q0 3.140625 -0.71875 4.515625q-1.015625 1.90625 -3.140625 2.859375l-1.03125 -1.65625q1.265625 -0.515625 1.875 -1.625q0.625 -1.125 0.703125 -3.0625l-2.203125 0z" fill-rule="nonzero"/><path fill="#000000" fill-opacity="0.0" d="m105.27559 29.716536l278.45667 0l0 70.45669l-278.45667 0z" fill-rule="evenodd"/><path fill="#000000" d="m125.43184 77.11653l0 -12.125l-11.03125 -16.515625l4.609375 0l5.640625 8.640625q1.5625 2.421875 2.90625 4.84375q1.296875 -2.25 3.125 -5.0625l5.546875 -8.421875l4.421875 0l-11.4375 16.515625l0 12.125l-3.78125 0zm28.726562 -2.5625q-1.953125 1.65625 -3.765625 2.34375q-1.796875 0.6875 -3.875 0.6875q-3.40625 0 -5.25 -1.671875q-1.828125 -1.671875 -1.828125 -4.265625q0 -1.53125 0.6875 -2.78125q0.6875 -1.265625 1.8125 -2.015625q1.125 -0.765625 2.53125 -1.15625q1.03125 -0.28125 3.125 -0.53125q4.265625 -0.515625 6.265625 -1.21875q0.03125 -0.71875 0.03125 -0.90625q0 -2.15625 -1.0 -3.03125q-1.34375 -1.1875 -4.0 -1.1875q-2.484375 0 -3.671875 0.875q-1.171875 0.859375 -1.75 3.0625l-3.4375 -0.46875q0.46875 -2.203125 1.546875 -3.5625q1.078125 -1.359375 3.109375 -2.09375q2.03125 -0.734375 4.703125 -0.734375q2.65625 0 4.3125 0.625q1.671875 0.625 2.453125 1.578125q0.78125 0.953125 1.09375 2.390625q0.171875 0.90625 0.171875 3.25l0 4.6875q0 4.890625 0.21875 6.203125q0.234375 1.296875 0.890625 2.484375l-3.671875 0q-0.546875 -1.09375 -0.703125 -2.5625zm-0.296875 -7.84375q-1.90625 0.78125 -5.734375 1.328125q-2.171875 0.3125 -3.078125 0.703125q-0.890625 0.390625 -1.375 1.140625q-0.484375 0.75 -0.484375 1.671875q0 1.40625 1.0625 2.34375q1.0625 0.9375 3.109375 0.9375q2.03125 0 3.609375 -0.890625q1.59375 -0.890625 2.328125 -2.4375q0.5625 -1.1875 0.5625 -3.515625l0 -1.28125zm18.71875 4.21875l3.46875 -0.546875q0.296875 2.078125 1.625 3.203125q1.34375 1.109375 3.75 1.109375q2.421875 0 3.59375 -0.984375q1.171875 -0.984375 1.171875 -2.3125q0 -1.203125 -1.03125 -1.875q-0.71875 -0.46875 -3.59375 -1.203125q-3.875 -0.96875 -5.375 -1.671875q-1.484375 -0.71875 -2.265625 -1.984375q-0.765625 -1.265625 -0.765625 -2.78125q0 -1.390625 0.640625 -2.5625q0.640625 -1.1875 1.734375 -1.96875q0.8125 -0.609375 2.21875 -1.03125q1.421875 -0.421875 3.046875 -0.421875q2.4375 0 4.28125 0.703125q1.859375 0.703125 2.734375 1.90625q0.875 1.203125 1.203125 3.21875l-3.4375 0.46875q-0.234375 -1.609375 -1.359375 -2.5q-1.109375 -0.90625 -3.171875 -0.90625q-2.421875 0 -3.453125 0.8125q-1.03125 0.796875 -1.03125 1.875q0 0.671875 0.421875 1.21875q0.4375 0.578125 1.359375 0.9375q0.515625 0.203125 3.09375 0.90625q3.734375 1.0 5.203125 1.640625q1.484375 0.625 2.3125 1.84375q0.84375 1.203125 0.84375 3.0q0 1.75 -1.03125 3.3125q-1.015625 1.546875 -2.953125 2.40625q-1.921875 0.84375 -4.375 0.84375q-4.03125 0 -6.15625 -1.671875q-2.125 -1.6875 -2.703125 -4.984375zm35.609375 -0.5l3.625 0.453125q-0.859375 3.1875 -3.1875 4.953125q-2.3125 1.75 -5.9375 1.75q-4.546875 0 -7.21875 -2.796875q-2.65625 -2.8125 -2.65625 -7.875q0 -5.234375 2.6875 -8.125q2.703125 -2.890625 7.0 -2.890625q4.15625 0 6.796875 2.84375q2.640625 2.828125 2.640625 7.96875q0 0.3125 -0.03125 0.9375l-15.46875 0q0.203125 3.40625 1.9375 5.234375q1.734375 1.8125 4.34375 1.8125q1.921875 0 3.28125 -1.015625q1.375 -1.015625 2.1875 -3.25zm-11.546875 -5.671875l11.578125 0q-0.234375 -2.625 -1.328125 -3.9375q-1.671875 -2.03125 -4.359375 -2.03125q-2.421875 0 -4.078125 1.625q-1.640625 1.625 -1.8125 4.34375zm4.046875 -10.96875l2.59375 -5.46875l4.609375 0l-4.296875 5.46875l-2.90625 0zm25.25 17.140625l3.46875 -0.546875q0.296875 2.078125 1.625 3.203125q1.34375 1.109375 3.75 1.109375q2.421875 0 3.59375 -0.984375q1.171875 -0.984375 1.171875 -2.3125q0 -1.203125 -1.03125 -1.875q-0.71875 -0.46875 -3.59375 -1.203125q-3.875 -0.96875 -5.375 -1.671875q-1.484375 -0.71875 -2.265625 -1.984375q-0.765625 -1.265625 -0.765625 -2.78125q0 -1.390625 0.640625 -2.5625q0.640625 -1.1875 1.734375 -1.96875q0.8125 -0.609375 2.21875 -1.03125q1.421875 -0.421875 3.046875 -0.421875q2.4375 0 4.28125 0.703125q1.859375 0.703125 2.734375 1.90625q0.875 1.203125 1.203125 3.21875l-3.4375 0.46875q-0.234375 -1.609375 -1.359375 -2.5q-1.109375 -0.90625 -3.171875 -0.90625q-2.421875 0 -3.453125 0.8125q-1.03125 0.796875 -1.03125 1.875q0 0.671875 0.421875 1.21875q0.4375 0.578125 1.359375 0.9375q0.515625 0.203125 3.09375 0.90625q3.734375 1.0 5.203125 1.640625q1.484375 0.625 2.3125 1.84375q0.84375 1.203125 0.84375 3.0q0 1.75 -1.03125 3.3125q-1.015625 1.546875 -2.953125 2.40625q-1.921875 0.84375 -4.375 0.84375q-4.03125 0 -6.15625 -1.671875q-2.125 -1.6875 -2.703125 -4.984375zm34.937515 3.625q-1.953125 1.65625 -3.765625 2.34375q-1.7968903 0.6875 -3.8750153 0.6875q-3.40625 0 -5.25 -1.671875q-1.828125 -1.671875 -1.828125 -4.265625q0 -1.53125 0.6875 -2.78125q0.6875 -1.265625 1.8125 -2.015625q1.125 -0.765625 2.53125 -1.15625q1.03125 -0.28125 3.125 -0.53125q4.2656403 -0.515625 6.2656403 -1.21875q0.03125 -0.71875 0.03125 -0.90625q0 -2.15625 -1.0 -3.03125q-1.34375 -1.1875 -4.0000153 -1.1875q-2.484375 0 -3.671875 0.875q-1.171875 0.859375 -1.75 3.0625l-3.4375 -0.46875q0.46875 -2.203125 1.546875 -3.5625q1.078125 -1.359375 3.109375 -2.09375q2.03125 -0.734375 4.7031403 -0.734375q2.65625 0 4.3125 0.625q1.671875 0.625 2.453125 1.578125q0.78125 0.953125 1.09375 2.390625q0.171875 0.90625 0.171875 3.25l0 4.6875q0 4.890625 0.21875 6.203125q0.234375 1.296875 0.890625 2.484375l-3.671875 0q-0.546875 -1.09375 -0.703125 -2.5625zm-0.296875 -7.84375q-1.90625 0.78125 -5.7343903 1.328125q-2.171875 0.3125 -3.078125 0.703125q-0.890625 0.390625 -1.375 1.140625q-0.484375 0.75 -0.484375 1.671875q0 1.40625 1.0625 2.34375q1.0625 0.9375 3.109375 0.9375q2.0312653 0 3.6093903 -0.890625q1.59375 -0.890625 2.328125 -2.4375q0.5625 -1.1875 0.5625 -3.515625l0 -1.28125zm8.933594 10.40625l0 -28.640625l3.515625 0l0 28.640625l-3.515625 0zm22.558594 0l0 -3.046875q-2.421875 3.515625 -6.578125 3.515625q-1.84375 0 -3.4375 -0.703125q-1.59375 -0.703125 -2.359375 -1.765625q-0.765625 -1.0625 -1.078125 -2.609375q-0.21875 -1.03125 -0.21875 -3.28125l0 -12.859375l3.515625 0l0 11.515625q0 2.75 0.21875 3.703125q0.328125 1.390625 1.390625 2.1875q1.078125 0.78125 2.671875 0.78125q1.578125 0 2.953125 -0.8125q1.390625 -0.8125 1.96875 -2.203125q0.578125 -1.390625 0.578125 -4.046875l0 -11.125l3.515625 0l0 20.75l-3.140625 0zm22.105469 0l0 -2.625q-1.96875 3.09375 -5.796875 3.09375q-2.484375 0 -4.5625 -1.359375q-2.078125 -1.375 -3.21875 -3.828125q-1.140625 -2.453125 -1.140625 -5.640625q0 -3.09375 1.03125 -5.625q1.03125 -2.53125 3.09375 -3.875q2.078125 -1.359375 4.640625 -1.359375q1.875 0 3.328125 0.796875q1.46875 0.796875 2.390625 2.0625l0 -10.28125l3.5 0l0 28.640625l-3.265625 0zm-11.109375 -10.359375q0 3.984375 1.671875 5.96875q1.6875 1.96875 3.96875 1.96875q2.3125 0 3.921875 -1.875q1.609375 -1.890625 1.609375 -5.765625q0 -4.25 -1.640625 -6.234375q-1.640625 -2.0 -4.046875 -2.0q-2.34375 0 -3.921875 1.921875q-1.5625 1.90625 -1.5625 6.015625zm33.433594 7.796875q-1.953125 1.65625 -3.765625 2.34375q-1.796875 0.6875 -3.875 0.6875q-3.40625 0 -5.25 -1.671875q-1.828125 -1.671875 -1.828125 -4.265625q0 -1.53125 0.6875 -2.78125q0.6875 -1.265625 1.8125 -2.015625q1.125 -0.765625 2.53125 -1.15625q1.03125 -0.28125 3.125 -0.53125q4.265625 -0.515625 6.265625 -1.21875q0.03125 -0.71875 0.03125 -0.90625q0 -2.15625 -1.0 -3.03125q-1.34375 -1.1875 -4.0 -1.1875q-2.484375 0 -3.671875 0.875q-1.171875 0.859375 -1.75 3.0625l-3.4375 -0.46875q0.46875 -2.203125 1.546875 -3.5625q1.078125 -1.359375 3.109375 -2.09375q2.03125 -0.734375 4.703125 -0.734375q2.65625 0 4.3125 0.625q1.671875 0.625 2.453125 1.578125q0.78125 0.953125 1.09375 2.390625q0.171875 0.90625 0.171875 3.25l0 4.6875q0 4.890625 0.21875 6.203125q0.234375 1.296875 0.890625 2.484375l-3.671875 0q-0.546875 -1.09375 -0.703125 -2.5625zm-0.296875 -7.84375q-1.90625 0.78125 -5.734375 1.328125q-2.171875 0.3125 -3.078125 0.703125q-0.890625 0.390625 -1.375 1.140625q-0.484375 0.75 -0.484375 1.671875q0 1.40625 1.0625 2.34375q1.0625 0.9375 3.109375 0.9375q2.03125 0 3.609375 -0.890625q1.59375 -0.890625 2.328125 -2.4375q0.5625 -1.1875 0.5625 -3.515625l0 -1.28125zm8.964844 10.40625l0 -20.75l3.171875 0l0 3.15625q1.203125 -2.21875 2.234375 -2.921875q1.03125 -0.703125 2.25 -0.703125q1.78125 0 3.625 1.140625l-1.21875 3.265625q-1.28125 -0.765625 -2.578125 -0.765625q-1.15625 0 -2.078125 0.703125q-0.90625 0.6875 -1.296875 1.90625q-0.59375 1.875 -0.59375 4.109375l0 10.859375l-3.515625 0z" fill-rule="nonzero"/><path fill="#000000" fill-opacity="0.0" d="m383.7874 199.14436l64.12598 -11.685043" fill-rule="evenodd"/><path stroke="#980000" stroke-width="16.0" stroke-linejoin="round" stroke-linecap="butt" d="m383.7874 199.14436l64.12598 -11.685043" fill-rule="evenodd"/><path fill="#ffffff" d="m447.9134 114.32546l286.55115 0l0 121.889275l-24.378418 24.378433l-262.17273 0z" fill-rule="evenodd"/><path fill="#cbcbcb" d="m710.0861 260.59317l4.8756714 -19.502747l19.502747 -4.8756866z" fill-rule="evenodd"/><path fill="#000000" fill-opacity="0.0" d="m710.0861 260.59317l4.8756714 -19.502747l19.502747 -4.8756866l-24.378418 24.378433l-262.17273 0l0 -146.2677l286.55115 0l0 121.889275" fill-rule="evenodd"/><path stroke="#000000" stroke-width="1.0" stroke-linejoin="round" stroke-linecap="butt" d="m710.0861 260.59317l4.8756714 -19.502747l19.502747 -4.8756866l-24.378418 24.378433l-262.17273 0l0 -146.2677l286.55115 0l0 121.889275" fill-rule="evenodd"/><path fill="#000000" d="m464.2749 162.29608l6.609375 -1.0q0.421875 1.921875 1.703125 2.921875q1.296875 0.984375 3.625 0.984375q2.546875 0 3.84375 -0.9375q0.859375 -0.65625 0.859375 -1.75q0 -0.75 -0.46875 -1.25q-0.484375 -0.46875 -2.203125 -0.859375q-7.96875 -1.765625 -10.09375 -3.21875q-2.953125 -2.015625 -2.953125 -5.59375q0 -3.234375 2.546875 -5.4375q2.5625 -2.203125 7.921875 -2.203125q5.109375 0 7.59375 1.671875q2.484375 1.65625 3.421875 4.90625l-6.203125 1.15625q-0.40625 -1.453125 -1.515625 -2.21875q-1.109375 -0.78125 -3.171875 -0.78125q-2.609375 0 -3.734375 0.71875q-0.75 0.515625 -0.75 1.34375q0 0.703125 0.65625 1.1875q0.890625 0.65625 6.15625 1.859375q5.265625 1.1875 7.34375 2.921875q2.0625 1.765625 2.0625 4.90625q0 3.421875 -2.859375 5.890625q-2.859375 2.453125 -8.453125 2.453125q-5.09375 0 -8.0625 -2.0625q-2.953125 -2.0625 -3.875 -5.609375zm43.429688 -0.8125l6.5625 1.09375q-1.265625 3.609375 -4.0 5.5q-2.71875 1.890625 -6.828125 1.890625q-6.484375 0 -9.609375 -4.25q-2.453125 -3.390625 -2.453125 -8.578125q0 -6.1875 3.234375 -9.6875q3.234375 -3.5 8.171875 -3.5q5.5625 0 8.765625 3.671875q3.21875 3.65625 3.078125 11.234375l-16.5 0q0.0625 2.921875 1.578125 4.5625q1.53125 1.625 3.8125 1.625q1.546875 0 2.59375 -0.84375q1.0625 -0.84375 1.59375 -2.71875zm0.375 -6.65625q-0.0625 -2.859375 -1.46875 -4.34375q-1.40625 -1.5 -3.421875 -1.5q-2.15625 0 -3.5625 1.578125q-1.40625 1.5625 -1.390625 4.265625l9.84375 0zm11.3046875 16.21875l7.515625 0.921875q0.1875 1.3125 0.875 1.796875q0.9375 0.703125 2.953125 0.703125q2.578125 0 3.859375 -0.765625q0.875 -0.515625 1.3125 -1.671875q0.3125 -0.8125 0.3125 -3.03125l0 -3.625q-2.953125 4.03125 -7.453125 4.03125q-5.015625 0 -7.953125 -4.25q-2.296875 -3.34375 -2.296875 -8.34375q0 -6.25 3.015625 -9.546875q3.015625 -3.3125 7.484375 -3.3125q4.625 0 7.625 4.046875l0 -3.484375l6.15625 0l0 22.328125q0 4.421875 -0.734375 6.59375q-0.71875 2.1875 -2.03125 3.421875q-1.3125 1.25 -3.5 1.953125q-2.1875 0.703125 -5.546875 0.703125q-6.328125 0 -8.984375 -2.171875q-2.640625 -2.171875 -2.640625 -5.5q0 -0.328125 0.03125 -0.796875zm5.875 -14.609375q0 3.96875 1.53125 5.8125q1.546875 1.828125 3.796875 1.828125q2.40625 0 4.0625 -1.875q1.671875 -1.890625 1.671875 -5.59375q0 -3.875 -1.59375 -5.75q-1.59375 -1.875 -4.03125 -1.875q-2.359375 0 -3.90625 1.84375q-1.53125 1.84375 -1.53125 5.609375zm40.429688 12.96875l0 -3.734375q-1.359375 2.0 -3.578125 3.15625q-2.203125 1.140625 -4.671875 1.140625q-2.5 0 -4.5 -1.09375q-1.984375 -1.109375 -2.875 -3.09375q-0.890625 -2.0 -0.890625 -5.515625l0 -15.75l6.578125 0l0 11.4375q0 5.25 0.359375 6.4375q0.375 1.171875 1.328125 1.875q0.96875 0.6875 2.4375 0.6875q1.6875 0 3.015625 -0.921875q1.34375 -0.9375 1.828125 -2.296875q0.5 -1.375 0.5 -6.71875l0 -10.5l6.59375 0l0 24.890625l-6.125 0zm12.9453125 -28.265625l0 -6.09375l6.578125 0l0 6.09375l-6.578125 0zm0 28.265625l0 -24.890625l6.578125 0l0 24.890625l-6.578125 0zm36.164062 0l-6.125 0l0 -3.65625q-1.515625 2.125 -3.59375 3.171875q-2.078125 1.046875 -4.1875 1.046875q-4.28125 0 -7.34375 -3.453125q-3.0625 -3.46875 -3.0625 -9.65625q0 -6.328125 2.96875 -9.609375q2.984375 -3.296875 7.53125 -3.296875q4.171875 0 7.21875 3.46875l0 -12.375l6.59375 0l0 34.359375zm-17.578125 -12.984375q0 3.984375 1.09375 5.765625q1.59375 2.578125 4.453125 2.578125q2.28125 0 3.875 -1.9375q1.59375 -1.9375 1.59375 -5.78125q0 -4.28125 -1.546875 -6.171875q-1.546875 -1.890625 -3.96875 -1.890625q-2.34375 0 -3.921875 1.875q-1.578125 1.859375 -1.578125 5.5625zm22.539062 0.1875q0 -3.28125 1.609375 -6.34375q1.625 -3.078125 4.59375 -4.6875q2.96875 -1.625 6.625 -1.625q5.640625 0 9.25 3.671875q3.609375 3.65625 3.609375 9.265625q0 5.640625 -3.640625 9.359375q-3.640625 3.71875 -9.171875 3.71875q-3.421875 0 -6.53125 -1.546875q-3.109375 -1.546875 -4.734375 -4.53125q-1.609375 -3.0 -1.609375 -7.28125zm6.75 0.34375q0 3.703125 1.75 5.671875q1.765625 1.96875 4.34375 1.96875q2.578125 0 4.328125 -1.96875q1.75 -1.96875 1.75 -5.71875q0 -3.65625 -1.75 -5.625q-1.75 -1.96875 -4.328125 -1.96875q-2.578125 0 -4.34375 1.96875q-1.75 1.96875 -1.75 5.671875zm30.398438 12.453125l-6.578125 0l0 -24.890625l6.109375 0l0 3.53125q1.578125 -2.5 2.828125 -3.296875q1.25 -0.796875 2.84375 -0.796875q2.25 0 4.34375 1.234375l-2.046875 5.75q-1.65625 -1.078125 -3.09375 -1.078125q-1.375 0 -2.34375 0.765625q-0.953125 0.75 -1.515625 2.75q-0.546875 1.984375 -0.546875 8.34375l0 7.6875zm26.789062 -7.921875l6.5625 1.09375q-1.265625 3.609375 -4.0 5.5q-2.71875 1.890625 -6.828125 1.890625q-6.484375 0 -9.609375 -4.25q-2.453125 -3.390625 -2.453125 -8.578125q0 -6.1875 3.234375 -9.6875q3.234375 -3.5 8.171875 -3.5q5.5625 0 8.765625 3.671875q3.21875 3.65625 3.078125 11.234375l-16.5 0q0.0625 2.921875 1.578125 4.5625q1.53125 1.625 3.8125 1.625q1.546875 0 2.59375 -0.84375q1.0625 -0.84375 1.59375 -2.71875zm0.375 -6.65625q-0.0625 -2.859375 -1.46875 -4.34375q-1.40625 -1.5 -3.421875 -1.5q-2.15625 0 -3.5625 1.578125q-1.40625 1.5625 -1.390625 4.265625l9.84375 0zm9.5859375 7.46875l6.609375 -1.0q0.421875 1.921875 1.703125 2.921875q1.296875 0.984375 3.625 0.984375q2.546875 0 3.84375 -0.9375q0.859375 -0.65625 0.859375 -1.75q0 -0.75 -0.46875 -1.25q-0.484375 -0.46875 -2.203125 -0.859375q-7.96875 -1.765625 -10.09375 -3.21875q-2.953125 -2.015625 -2.953125 -5.59375q0 -3.234375 2.546875 -5.4375q2.5625 -2.203125 7.921875 -2.203125q5.109375 0 7.59375 1.671875q2.484375 1.65625 3.421875 4.90625l-6.203125 1.15625q-0.40625 -1.453125 -1.515625 -2.21875q-1.109375 -0.78125 -3.171875 -0.78125q-2.609375 0 -3.734375 0.71875q-0.75 0.515625 -0.75 1.34375q0 0.703125 0.65625 1.1875q0.890625 0.65625 6.15625 1.859375q5.265625 1.1875 7.34375 2.921875q2.0625 1.765625 2.0625 4.90625q0 3.421875 -2.859375 5.890625q-2.859375 2.453125 -8.453125 2.453125q-5.09375 0 -8.0625 -2.0625q-2.953125 -2.0625 -3.875 -5.609375z" fill-rule="nonzero"/><path fill="#000000" d="m539.81396 218.32733l4.21875 -0.5625q0.734375 3.59375 2.46875 5.171875q1.75 1.578125 4.265625 1.578125q2.96875 0 5.015625 -2.0625q2.0625 -2.0625 2.0625 -5.109375q0 -2.90625 -1.90625 -4.78125q-1.890625 -1.890625 -4.828125 -1.890625q-1.1875 0 -2.96875 0.46875l0.46875 -3.703125q0.421875 0.046875 0.671875 0.046875q2.703125 0 4.859375 -1.40625q2.15625 -1.40625 2.15625 -4.34375q0 -2.3125 -1.578125 -3.828125q-1.5625 -1.53125 -4.046875 -1.53125q-2.46875 0 -4.109375 1.546875q-1.640625 1.546875 -2.109375 4.640625l-4.21875 -0.75q0.78125 -4.25 3.515625 -6.578125q2.75 -2.328125 6.828125 -2.328125q2.8125 0 5.171875 1.203125q2.375 1.203125 3.625 3.296875q1.25 2.078125 1.25 4.421875q0 2.234375 -1.203125 4.0625q-1.1875 1.828125 -3.53125 2.90625q3.046875 0.703125 4.734375 2.921875q1.6875 2.203125 1.6875 5.53125q0 4.5 -3.28125 7.640625q-3.28125 3.125 -8.296875 3.125q-4.515625 0 -7.515625 -2.6875q-2.984375 -2.703125 -3.40625 -7.0zm26.679688 -7.875q0 -6.09375 1.25 -9.796875q1.25 -3.71875 3.71875 -5.734375q2.484375 -2.015625 6.234375 -2.015625q2.765625 0 4.84375 1.109375q2.09375 1.109375 3.453125 3.21875q1.359375 2.09375 2.125 5.109375q0.78125 3.0 0.78125 8.109375q0 6.046875 -1.25 9.765625q-1.234375 3.71875 -3.71875 5.75q-2.46875 2.03125 -6.234375 2.03125q-4.96875 0 -7.8125 -3.578125q-3.390625 -4.28125 -3.390625 -13.96875zm4.328125 0q0 8.46875 1.984375 11.265625q1.984375 2.796875 4.890625 2.796875q2.90625 0 4.875 -2.8125q1.984375 -2.8125 1.984375 -11.25q0 -8.484375 -1.984375 -11.265625q-1.96875 -2.796875 -4.921875 -2.796875q-2.90625 0 -4.640625 2.46875q-2.1875 3.140625 -2.1875 11.59375zm22.367188 0q0 -6.09375 1.25 -9.796875q1.25 -3.71875 3.71875 -5.734375q2.484375 -2.015625 6.234375 -2.015625q2.765625 0 4.84375 1.109375q2.09375 1.109375 3.453125 3.21875q1.359375 2.09375 2.125 5.109375q0.78125 3.0 0.78125 8.109375q0 6.046875 -1.25 9.765625q-1.234375 3.71875 -3.71875 5.75q-2.46875 2.03125 -6.234375 2.03125q-4.96875 0 -7.8125 -3.578125q-3.390625 -4.28125 -3.390625 -13.96875zm4.328125 0q0 8.46875 1.984375 11.265625q1.984375 2.796875 4.890625 2.796875q2.90625 0 4.875 -2.8125q1.984375 -2.8125 1.984375 -11.25q0 -8.484375 -1.984375 -11.265625q-1.96875 -2.796875 -4.921875 -2.796875q-2.90625 0 -4.640625 2.46875q-2.1875 3.140625 -2.1875 11.59375zm22.367188 0q0 -6.09375 1.25 -9.796875q1.25 -3.71875 3.71875 -5.734375q2.484375 -2.015625 6.234375 -2.015625q2.765625 0 4.84375 1.109375q2.09375 1.109375 3.453125 3.21875q1.359375 2.09375 2.125 5.109375q0.78125 3.0 0.78125 8.109375q0 6.046875 -1.25 9.765625q-1.234375 3.71875 -3.71875 5.75q-2.46875 2.03125 -6.234375 2.03125q-4.96875 0 -7.8125 -3.578125q-3.390625 -4.28125 -3.390625 -13.96875zm4.328125 0q0 8.46875 1.984375 11.265625q1.984375 2.796875 4.890625 2.796875q2.90625 0 4.875 -2.8125q1.984375 -2.8125 1.984375 -11.25q0 -8.484375 -1.984375 -11.265625q-1.96875 -2.796875 -4.921875 -2.796875q-2.90625 0 -4.640625 2.46875q-2.1875 3.140625 -2.1875 11.59375z" fill-rule="nonzero"/><path fill="#f1c232" d="m284.21783 148.79527l52.582703 0l20.136475 -42.51181l-26.850403 15.661423l-22.375336 -13.425201l-20.136475 14.543312l-19.018372 -10.068245z" fill-rule="evenodd"/><path stroke="#bf9000" stroke-width="3.0" stroke-linejoin="round" stroke-linecap="butt" d="m284.21783 148.79527l52.582703 0l20.136475 -42.51181l-26.850403 15.661423l-22.375336 -13.425201l-20.136475 14.543312l-19.018372 -10.068245z" fill-rule="evenodd"/></g></svg>