<svg version="1.1" viewBox="0.0 0.0 778.8057742782153 525.2939632545932" fill="none" stroke="none" stroke-linecap="square" stroke-miterlimit="10" xmlns:xlink="http://www.w3.org/1999/xlink" xmlns="http://www.w3.org/2000/svg"><clipPath id="p.0"><path d="m0 0l778.8058 0l0 525.29395l-778.8058 0l0 -525.29395z" clip-rule="nonzero"/></clipPath><g clip-path="url(#p.0)"><path fill="#000000" fill-opacity="0.0" d="m0 0l778.8058 0l0 525.29395l-778.8058 0z" fill-rule="evenodd"/><path fill="#000000" fill-opacity="0.0" d="m109.11365 282.08557l-13.732285 30.960632" fill-rule="evenodd"/><path stroke="#980000" stroke-width="16.0" stroke-linejoin="round" stroke-linecap="butt" d="m109.11365 282.08557l-13.732285 30.960632" fill-rule="evenodd"/><path fill="#000000" fill-opacity="0.0" d="m601.2021 361.82416l58.80316 -48.787415" fill-rule="evenodd"/><path stroke="#980000" stroke-width="16.0" stroke-linejoin="round" stroke-linecap="butt" d="m601.2021 361.82416l58.80316 -48.787415" fill-rule="evenodd"/><path fill="#000000" fill-opacity="0.0" d="m438.8819 321.19684l30.48819 -80.40944" fill-rule="evenodd"/><path stroke="#980000" stroke-width="16.0" stroke-linejoin="round" stroke-linecap="butt" d="m438.8819 321.19684l30.48819 -80.40944" fill-rule="evenodd"/><path fill="#000000" fill-opacity="0.0" d="m288.15222 254.49344l23.968506 -70.29921" fill-rule="evenodd"/><path stroke="#980000" stroke-width="16.0" stroke-linejoin="round" stroke-linecap="butt" d="m288.15222 254.49344l23.968506 -70.29921" fill-rule="evenodd"/><path fill="#dd7e6b" d="m506.32022 437.88715l0 0c0 -42.008423 42.480072 -76.06299 94.88187 -76.06299l0 0c52.401855 0 94.8819 34.054565 94.8819 76.06299l0 0c0 42.008423 -42.48004 76.06299 -94.8819 76.06299l0 0c-52.401794 0 -94.88187 -34.054565 -94.88187 -76.06299z" fill-rule="evenodd"/><path stroke="#980000" stroke-width="4.0" stroke-linejoin="round" stroke-linecap="butt" d="m506.32022 437.88715l0 0c0 -42.008423 42.480072 -76.06299 94.88187 -76.06299l0 0c52.401855 0 94.8819 34.054565 94.8819 76.06299l0 0c0 42.008423 -42.48004 76.06299 -94.8819 76.06299l0 0c-52.401794 0 -94.88187 -34.054565 -94.88187 -76.06299z" fill-rule="evenodd"/><path fill="#000000" d="m577.7841 464.514l0 -43.90625l9.296875 0l0 3.484375l-5.078125 0l0 36.921875l5.078125 0l0 3.5l-9.296875 0zm34.242188 -13.609375l0 4.0625l-22.71875 0q-0.046875 -1.53125 0.5 -2.9375q0.859375 -2.3125 2.765625 -4.5625q1.921875 -2.25 5.53125 -5.203125q5.59375 -4.59375 7.5625 -7.28125q1.96875 -2.6875 1.96875 -5.078125q0 -2.5 -1.796875 -4.21875q-1.78125 -1.734375 -4.671875 -1.734375q-3.046875 0 -4.875 1.828125q-1.828125 1.828125 -1.84375 5.0625l-4.34375 -0.4375q0.453125 -4.859375 3.359375 -7.390625q2.90625 -2.546875 7.796875 -2.546875q4.953125 0 7.828125 2.75q2.890625 2.734375 2.890625 6.78125q0 2.0625 -0.84375 4.0625q-0.84375 1.984375 -2.8125 4.1875q-1.953125 2.203125 -6.5 6.046875q-3.796875 3.1875 -4.875 4.328125q-1.078125 1.140625 -1.78125 2.28125l16.859375 0zm12.7421875 13.609375l-9.296875 0l0 -3.5l5.078125 0l0 -36.921875l-5.078125 0l0 -3.484375l9.296875 0l0 43.90625z" fill-rule="nonzero"/><path fill="#dd7e6b" d="m344.0 397.25986l0 0c0 -42.008453 42.480072 -76.06302 94.8819 -76.06302l0 0c52.401825 0 94.8819 34.054565 94.8819 76.06302l0 0c0 42.008423 -42.480072 76.06299 -94.8819 76.06299l0 0c-52.401825 0 -94.8819 -34.054565 -94.8819 -76.06299z" fill-rule="evenodd"/><path stroke="#980000" stroke-width="4.0" stroke-linejoin="round" stroke-linecap="butt" d="m344.0 397.25986l0 0c0 -42.008453 42.480072 -76.06302 94.8819 -76.06302l0 0c52.401825 0 94.8819 34.054565 94.8819 76.06302l0 0c0 42.008423 -42.480072 76.06299 -94.8819 76.06299l0 0c-52.401825 0 -94.8819 -34.054565 -94.8819 -76.06299z" fill-rule="evenodd"/><path fill="#000000" d="m415.46393 423.88672l0 -43.90625l9.296875 0l0 3.484375l-5.078125 0l0 36.921875l5.078125 0l0 3.5l-9.296875 0zm27.960938 -9.546875l-4.21875 0l0 -26.890625q-1.53125 1.453125 -4.0 2.90625q-2.46875 1.453125 -4.4375 2.1875l0 -4.078125q3.53125 -1.671875 6.171875 -4.03125q2.65625 -2.375 3.765625 -4.59375l2.71875 0l0 34.5zm19.023438 9.546875l-9.296875 0l0 -3.5l5.078125 0l0 -36.921875l-5.078125 0l0 -3.484375l9.296875 0l0 43.90625z" fill-rule="nonzero"/><path fill="#dd7e6b" d="m193.27034 330.55643l0 0c0 -42.008423 42.480072 -76.06299 94.88188 -76.06299l0 0c52.401825 0 94.8819 34.054565 94.8819 76.06299l0 0c0 42.008423 -42.480072 76.06299 -94.8819 76.06299l0 0c-52.40181 0 -94.88188 -34.054565 -94.88188 -76.06299z" fill-rule="evenodd"/><path stroke="#980000" stroke-width="4.0" stroke-linejoin="round" stroke-linecap="butt" d="m193.27034 330.55643l0 0c0 -42.008423 42.480072 -76.06299 94.88188 -76.06299l0 0c52.401825 0 94.8819 34.054565 94.8819 76.06299l0 0c0 42.008423 -42.480072 76.06299 -94.8819 76.06299l0 0c-52.40181 0 -94.88188 -34.054565 -94.88188 -76.06299z" fill-rule="evenodd"/><path fill="#000000" d="m264.73425 357.1833l0 -43.90625l9.296875 0l0 3.484375l-5.078125 0l0 36.921875l5.078125 0l0 3.5l-9.296875 0zm12.0703125 -26.5q0 -6.09375 1.25 -9.796875q1.25 -3.71875 3.71875 -5.734375q2.484375 -2.015625 6.234375 -2.015625q2.765625 0 4.84375 1.109375q2.09375 1.109375 3.453125 3.21875q1.359375 2.09375 2.125 5.109375q0.78125 3.0 0.78125 8.109375q0 6.046875 -1.25 9.765625q-1.234375 3.71875 -3.71875 5.75q-2.46875 2.03125 -6.234375 2.03125q-4.96875 0 -7.8125 -3.578125q-3.390625 -4.28125 -3.390625 -13.96875zm4.328125 0q0 8.46875 1.984375 11.265625q1.984375 2.796875 4.890625 2.796875q2.90625 0 4.875 -2.8125q1.984375 -2.8125 1.984375 -11.25q0 -8.484375 -1.984375 -11.265625q-1.96875 -2.796875 -4.921875 -2.796875q-2.90625 0 -4.640625 2.46875q-2.1875 3.140625 -2.1875 11.59375zm30.585938 26.5l-9.296875 0l0 -3.5l5.078125 0l0 -36.921875l-5.078125 0l0 -3.484375l9.296875 0l0 43.90625z" fill-rule="nonzero"/><path fill="#dd7e6b" d="m83.22835 226.25197l0 0c0 -43.60875 39.568153 -78.96063 88.377945 -78.96063l0 0c48.8098 0 88.37796 35.351883 88.37796 78.96063l0 0c0 43.60875 -39.56816 78.96062 -88.37796 78.96062l0 0c-48.80979 0 -88.377945 -35.351868 -88.377945 -78.96062z" fill-rule="evenodd"/><path stroke="#980000" stroke-width="4.0" stroke-linejoin="round" stroke-linecap="butt" d="m83.22835 226.25197l0 0c0 -43.60875 39.568153 -78.96063 88.377945 -78.96063l0 0c48.8098 0 88.37796 35.351883 88.37796 78.96063l0 0c0 43.60875 -39.56816 78.96062 -88.37796 78.96062l0 0c-48.80979 0 -88.377945 -35.351868 -88.377945 -78.96062z" fill-rule="evenodd"/><path fill="#000000" d="m147.76254 173.00447l0 -8.125l8.78125 0l0 8.125l-8.78125 0zm0 37.6875l0 -33.1875l8.78125 0l0 33.1875l-8.78125 0zm48.21875 0l-8.15625 0l0 -4.875q-2.03125 2.84375 -4.796875 4.234375q-2.765625 1.390625 -5.578125 1.390625q-5.71875 0 -9.796875 -4.609375q-4.078125 -4.609375 -4.078125 -12.859375q0 -8.4375 3.96875 -12.828125q3.96875 -4.390625 10.03125 -4.390625q5.5625 0 9.625 4.625l0 -16.5l8.78125 0l0 45.8125zm-23.4375 -17.3125q0 5.3125 1.46875 7.6875q2.125 3.4375 5.9375 3.4375q3.03125 0 5.15625 -2.578125q2.125 -2.578125 2.125 -7.703125q0 -5.71875 -2.0625 -8.234375q-2.0625 -2.515625 -5.28125 -2.515625q-3.125 0 -5.234375 2.484375q-2.109375 2.484375 -2.109375 7.421875z" fill-rule="nonzero"/><path fill="#000000" d="m177.65317 287.69196l-5.625 0l0 -35.843735q-2.03125 1.9375 -5.328125 3.875q-3.296875 1.9374847 -5.921875 2.9062347l0 -5.4374847q4.71875 -2.21875 8.25 -5.375q3.53125 -3.15625 5.0 -6.125l3.625 0l0 45.999985z" fill-rule="nonzero"/><path fill="#dd7e6b" d="m65.77428 93.603676l0 0c0 -36.407307 30.162613 -65.921265 67.37009 -65.921265c37.20746 0 67.37007 29.513954 67.37007 65.921265c0 36.40731 -30.162613 65.92126 -67.37007 65.92126c-37.207474 0 -67.37009 -29.513947 -67.37009 -65.92126z" fill-rule="evenodd"/><path fill="#b06455" d="m104.54327 73.888336c0 -3.792427 3.1419373 -6.8667984 7.0177155 -6.8667984c3.8757782 0 7.0177155 3.0743713 7.0177155 6.8667984c0 3.792427 -3.1419373 6.8667984 -7.0177155 6.8667984c-3.8757782 0 -7.0177155 -3.0743713 -7.0177155 -6.8667984m43.166756 0c0 -3.792427 3.1419373 -6.8667984 7.0177155 -6.8667984c3.8757782 0 7.0177155 3.0743713 7.0177155 6.8667984c0 3.792427 -3.1419373 6.8667984 -7.0177155 6.8667984c-3.8757782 0 -7.0177155 -3.0743713 -7.0177155 -6.8667984" fill-rule="evenodd"/><path fill="#000000" fill-opacity="0.0" d="m96.62933 122.35238q36.51503 24.53852 72.94476 0" fill-rule="evenodd"/><path fill="#000000" fill-opacity="0.0" d="m65.77428 93.603676l0 0c0 -36.407307 30.162613 -65.921265 67.37009 -65.921265c37.20746 0 67.37007 29.513954 67.37007 65.921265c0 36.40731 -30.162613 65.92126 -67.37007 65.92126c-37.207474 0 -67.37009 -29.513947 -67.37009 -65.92126z" fill-rule="evenodd"/><path stroke="#980000" stroke-width="4.0" stroke-linejoin="round" stroke-linecap="butt" d="m104.54327 73.888336c0 -3.792427 3.1419373 -6.8667984 7.0177155 -6.8667984c3.8757782 0 7.0177155 3.0743713 7.0177155 6.8667984c0 3.792427 -3.1419373 6.8667984 -7.0177155 6.8667984c-3.8757782 0 -7.0177155 -3.0743713 -7.0177155 -6.8667984m43.166756 0c0 -3.792427 3.1419373 -6.8667984 7.0177155 -6.8667984c3.8757782 0 7.0177155 3.0743713 7.0177155 6.8667984c0 3.792427 -3.1419373 6.8667984 -7.0177155 6.8667984c-3.8757782 0 -7.0177155 -3.0743713 -7.0177155 -6.8667984" fill-rule="evenodd"/><path stroke="#980000" stroke-width="4.0" stroke-linejoin="round" stroke-linecap="butt" d="m96.62933 122.35238q36.51503 24.53852 72.94476 0" fill-rule="evenodd"/><path stroke="#980000" stroke-width="4.0" stroke-linejoin="round" stroke-linecap="butt" d="m65.77428 93.603676l0 0c0 -36.407307 30.162613 -65.921265 67.37009 -65.921265c37.20746 0 67.37007 29.513954 67.37007 65.921265c0 36.40731 -30.162613 65.92126 -67.37007 65.92126c-37.207474 0 -67.37009 -29.513947 -67.37009 -65.92126z" fill-rule="evenodd"/><path fill="#000000" fill-opacity="0.0" d="m44.115486 12.56168l0 0c21.604332 0 39.11811 16.216457 39.11811 36.220474l-39.11811 0z" fill-rule="evenodd"/><path fill="#000000" fill-opacity="0.0" d="m44.115486 12.56168l0 0c21.604332 0 39.11811 16.216457 39.11811 36.220474" fill-rule="evenodd"/><path stroke="#980000" stroke-width="8.0" stroke-linejoin="round" stroke-linecap="butt" d="m44.115486 12.56168l0 0c21.604332 0 39.11811 16.216457 39.11811 36.220474" fill-rule="evenodd"/><g mask="url(#mask-p.1)"><use xlink:href="#p.1" transform="matrix(1.0 0.0 0.0 -1.0 0.0 109.56430446194226)"/></g><defs><mask id="mask-p.1" maskUnits="userSpaceOnUse" x="177.748031496063" y="56.78215223097113" width="47.1181102362205" height="44.22047244094488"><linearGradient gradientUnits="userSpaceOnUse" id="gradient-p.1" x1="177.74803149668043" y1="56.78198166387965" x2="177.74798347319188" y2="70.04817509326786"><stop offset="0%" stop-color="#ffffff" stop-opacity="1.0"/><stop offset="100%" stop-color="#ffffff" stop-opacity="0.0"/></linearGradient><rect fill="url(#gradient-p.1)" x="177.748031496063" y="56.78215223097113" width="47.1181102362205" height="44.22047244094488"/></mask></defs><g id="p.1"><path fill="#000000" fill-opacity="0.0" d="m220.86613 12.56168l0 0c-21.604324 0 -39.118103 16.216457 -39.118103 36.220474l39.118103 0z" fill-rule="evenodd"/><path fill="#000000" fill-opacity="0.0" d="m220.86613 12.56168l0 0c-21.604324 0 -39.118103 16.216457 -39.118103 36.220474" fill-rule="evenodd"/><path stroke="#980000" stroke-width="8.0" stroke-linejoin="round" stroke-linecap="butt" d="m220.86613 12.56168l0 0c-21.604324 0 -39.118103 16.216457 -39.118103 36.220474" fill-rule="evenodd"/></g><path fill="#ffffff" d="m312.1181 119.77165l104.31497 0l0 111.46422l-17.38617 17.38617l-86.9288 0z" fill-rule="evenodd"/><path fill="#cbcbcb" d="m399.0469 248.62204l3.477234 -13.908936l13.908936 -3.477234z" fill-rule="evenodd"/><path fill="#000000" fill-opacity="0.0" d="m399.0469 248.62204l3.477234 -13.908936l13.908936 -3.477234l-17.38617 17.38617l-86.9288 0l0 -128.85039l104.31497 0l0 111.46422" fill-rule="evenodd"/><path stroke="#999999" stroke-width="4.0" stroke-linejoin="round" stroke-linecap="butt" d="m399.0469 248.62204l3.477234 -13.908936l13.908936 -3.477234l-17.38617 17.38617l-86.9288 0l0 -128.85039l104.31497 0l0 111.46422" fill-rule="evenodd"/><path fill="#000000" d="m340.25607 189.90376l0 -20.75l3.140625 0l0 2.921875q0.984375 -1.53125 2.59375 -2.453125q1.625 -0.9375 3.703125 -0.9375q2.296875 0 3.765625 0.96875q1.484375 0.953125 2.09375 2.671875q2.453125 -3.640625 6.40625 -3.640625q3.078125 0 4.734375 1.71875q1.671875 1.703125 1.671875 5.265625l0 14.234375l-3.5 0l0 -13.0625q0 -2.109375 -0.34375 -3.03125q-0.34375 -0.9375 -1.25 -1.5q-0.890625 -0.578125 -2.09375 -0.578125q-2.1875 0 -3.640625 1.46875q-1.4375 1.453125 -1.4375 4.65625l0 12.046875l-3.515625 0l0 -13.484375q0 -2.34375 -0.859375 -3.515625q-0.859375 -1.171875 -2.8125 -1.171875q-1.484375 0 -2.75 0.78125q-1.265625 0.78125 -1.828125 2.296875q-0.5625 1.5 -0.5625 4.328125l0 10.765625l-3.515625 0zm30.976562 0l7.578125 -10.78125l-7.015625 -9.96875l4.390625 0l3.1875 4.875q0.90625 1.375 1.453125 2.3125q0.859375 -1.28125 1.578125 -2.28125l3.5 -4.90625l4.1875 0l-7.15625 9.765625l7.703125 10.984375l-4.3125 0l-4.25 -6.453125l-1.140625 -1.734375l-5.453125 8.1875l-4.25 0z" fill-rule="nonzero"/><path fill="#ffffff" d="m469.36353 176.3622l104.31494 0l0 111.46422l-17.38617 17.38617l-86.92877 0z" fill-rule="evenodd"/><path fill="#cbcbcb" d="m556.2923 305.2126l3.477234 -13.908936l13.908936 -3.477234z" fill-rule="evenodd"/><path fill="#000000" fill-opacity="0.0" d="m556.2923 305.2126l3.477234 -13.908936l13.908936 -3.477234l-17.38617 17.38617l-86.92877 0l0 -128.85039l104.31494 0l0 111.46422" fill-rule="evenodd"/><path stroke="#999999" stroke-width="4.0" stroke-linejoin="round" stroke-linecap="butt" d="m556.2923 305.2126l3.477234 -13.908936l13.908936 -3.477234l-17.38617 17.38617l-86.92877 0l0 -128.85039l104.31494 0l0 111.46422" fill-rule="evenodd"/><path fill="#000000" d="m497.50146 246.49431l0 -20.75l3.140625 0l0 2.921875q0.984375 -1.53125 2.59375 -2.453125q1.625 -0.9375 3.703125 -0.9375q2.296875 0 3.765625 0.96875q1.484375 0.953125 2.09375 2.671875q2.453125 -3.640625 6.40625 -3.640625q3.078125 0 4.734375 1.71875q1.671875 1.703125 1.671875 5.265625l0 14.234375l-3.5 0l0 -13.0625q0 -2.109375 -0.34375 -3.03125q-0.34375 -0.9375 -1.25 -1.5q-0.890625 -0.578125 -2.09375 -0.578125q-2.1875 0 -3.640625 1.46875q-1.4375 1.453125 -1.4375 4.65625l0 12.046875l-3.515625 0l0 -13.484375q0 -2.34375 -0.859375 -3.515625q-0.859375 -1.171875 -2.8125 -1.171875q-1.484375 0 -2.75 0.78125q-1.265625 0.78125 -1.828125 2.296875q-0.5625 1.5 -0.5625 4.328125l0 10.765625l-3.515625 0zm33.164062 7.984375l-0.390625 -3.296875q1.15625 0.3125 2.015625 0.3125q1.171875 0 1.875 -0.390625q0.703125 -0.390625 1.140625 -1.09375q0.34375 -0.53125 1.078125 -2.609375q0.09375 -0.296875 0.3125 -0.859375l-7.875 -20.796875l3.796875 0l4.3125 12.015625q0.84375 2.28125 1.5 4.8125q0.609375 -2.421875 1.453125 -4.734375l4.4375 -12.09375l3.515625 0l-7.890625 21.109375q-1.28125 3.40625 -1.984375 4.703125q-0.9375 1.734375 -2.15625 2.546875q-1.203125 0.8125 -2.875 0.8125q-1.015625 0 -2.265625 -0.4375z" fill-rule="nonzero"/><path fill="#ffffff" d="m660.0105 248.62204l104.31494 0l0 111.46423l-17.38617 17.38617l-86.92877 0z" fill-rule="evenodd"/><path fill="#cbcbcb" d="m746.9393 377.47244l3.477234 -13.908936l13.908936 -3.477234z" fill-rule="evenodd"/><path fill="#000000" fill-opacity="0.0" d="m746.9393 377.47244l3.477234 -13.908936l13.908936 -3.477234l-17.38617 17.38617l-86.92877 0l0 -128.8504l104.31494 0l0 111.46423" fill-rule="evenodd"/><path stroke="#999999" stroke-width="4.0" stroke-linejoin="round" stroke-linecap="butt" d="m746.9393 377.47244l3.477234 -13.908936l13.908936 -3.477234l-17.38617 17.38617l-86.92877 0l0 -128.8504l104.31494 0l0 111.46423" fill-rule="evenodd"/><path fill="#000000" d="m687.0254 318.75415l0 -20.75l3.140625 0l0 2.921875q0.984375 -1.53125 2.59375 -2.453125q1.625 -0.9375 3.703125 -0.9375q2.296875 0 3.765625 0.96875q1.484375 0.953125 2.09375 2.671875q2.453125 -3.640625 6.40625 -3.640625q3.078125 0 4.734375 1.71875q1.671875 1.703125 1.671875 5.265625l0 14.234375l-3.5 0l0 -13.0625q0 -2.109375 -0.34375 -3.03125q-0.34375 -0.9375 -1.25 -1.5q-0.890625 -0.578125 -2.09375 -0.578125q-2.1875 0 -3.640625 1.46875q-1.4375 1.453125 -1.4375 4.65625l0 12.046875l-3.515625 0l0 -13.484375q0 -2.34375 -0.859375 -3.515625q-0.859375 -1.171875 -2.8125 -1.171875q-1.484375 0 -2.75 0.78125q-1.265625 0.78125 -1.828125 2.296875q-0.5625 1.5 -0.5625 4.328125l0 10.765625l-3.515625 0zm46.914062 0l0 -3.046875q-2.421875 3.515625 -6.578125 3.515625q-1.84375 0 -3.4375 -0.703125q-1.59375 -0.703125 -2.359375 -1.765625q-0.765625 -1.0625 -1.078125 -2.609375q-0.21875 -1.03125 -0.21875 -3.28125l0 -12.859375l3.515625 0l0 11.515625q0 2.75 0.21875 3.703125q0.328125 1.390625 1.390625 2.1875q1.078125 0.78125 2.671875 0.78125q1.578125 0 2.953125 -0.8125q1.390625 -0.8125 1.96875 -2.203125q0.578125 -1.390625 0.578125 -4.046875l0 -11.125l3.515625 0l0 20.75l-3.140625 0z" fill-rule="nonzero"/><path fill="#ffffff" d="m25.456694 313.03674l139.84251 0l0 128.81842l-23.307556 23.307556l-116.53496 0z" fill-rule="evenodd"/><path fill="#cbcbcb" d="m141.99165 465.16272l4.6615143 -18.646027l18.646042 -4.6615295z" fill-rule="evenodd"/><path fill="#000000" fill-opacity="0.0" d="m141.99165 465.16272l4.6615143 -18.646027l18.646042 -4.6615295l-23.307556 23.307556l-116.53496 0l0 -152.12598l139.84251 0l0 128.81842" fill-rule="evenodd"/><path stroke="#999999" stroke-width="4.0" stroke-linejoin="round" stroke-linecap="butt" d="m141.99165 465.16272l4.6615143 -18.646027l18.646042 -4.6615295l-23.307556 23.307556l-116.53496 0l0 -152.12598l139.84251 0l0 128.81842" fill-rule="evenodd"/><path fill="#000000" d="m38.26272 367.84595l0 -28.640625l5.484375 0l0 28.640625l-5.484375 0zm23.128906 -6.609375l5.46875 0.921875q-1.0625 3.015625 -3.34375 4.59375q-2.265625 1.5625 -5.6875 1.5625q-5.40625 0 -8.0 -3.53125q-2.0625 -2.84375 -2.0625 -7.15625q0 -5.15625 2.6875 -8.078125q2.703125 -2.921875 6.828125 -2.921875q4.625 0 7.296875 3.0625q2.6875 3.0625 2.5625 9.359375l-13.75 0q0.0625 2.453125 1.328125 3.8125q1.28125 1.34375 3.171875 1.34375q1.28125 0 2.15625 -0.703125q0.890625 -0.703125 1.34375 -2.265625zm0.3125 -5.546875q-0.0625 -2.375 -1.234375 -3.609375q-1.171875 -1.25 -2.859375 -1.25q-1.796875 0 -2.96875 1.3125q-1.171875 1.3125 -1.140625 3.546875l8.203125 0zm28.777351 12.15625l-5.4843826 0l0 -10.59375q0 -3.359375 -0.359375 -4.34375q-0.34375 -0.984375 -1.140625 -1.53125q-0.78125 -0.546875 -1.890625 -0.546875q-1.4375 0 -2.578125 0.78125q-1.125 0.78125 -1.546875 2.078125q-0.40625 1.28125 -0.40625 4.765625l0 9.390625l-5.5 0l0 -20.75l5.109375 0l0 3.046875q2.703125 -3.515625 6.828125 -3.515625q1.8125 0 3.3125 0.65625q1.515625 0.65625 2.28125 1.671875q0.7812576 1.015625 1.0781326 2.3125q0.296875 1.28125 0.296875 3.6875l0 12.890625zm5.0585938 1.375l6.28125 0.75q0.15625 1.09375 0.71875 1.515625q0.78125 0.578125 2.453125 0.578125q2.15625 0 3.234375 -0.640625q0.71875 -0.4375 1.09375 -1.390625q0.25 -0.6875 0.25 -2.515625l0 -3.03125q-2.46875 3.359375 -6.21875 3.359375q-4.171875 0 -6.609375 -3.53125q-1.921875 -2.796875 -1.921875 -6.953125q0 -5.21875 2.5 -7.96875q2.515625 -2.765625 6.25 -2.765625q3.84375 0 6.34375 3.390625l0 -2.921875l5.140625 0l0 18.625q0 3.671875 -0.609375 5.484375q-0.59375 1.8125 -1.6875 2.84375q-1.09375 1.046875 -2.921875 1.625q-1.828125 0.59375 -4.625 0.59375q-5.265625 0 -7.484375 -1.8125q-2.203125 -1.796875 -2.203125 -4.578125q0 -0.265625 0.015625 -0.65625zm4.90625 -12.171875q0 3.296875 1.28125 4.828125q1.28125 1.53125 3.15625 1.53125q2.015625 0 3.390625 -1.5625q1.390625 -1.578125 1.390625 -4.671875q0 -3.21875 -1.328125 -4.78125q-1.328125 -1.5625 -3.359375 -1.5625q-1.96875 0 -3.25 1.53125q-1.28125 1.53125 -1.28125 4.6875zm29.558594 -9.953125l0 4.375l-3.75 0l0 8.359375q0 2.546875 0.09375 2.96875q0.109375 0.421875 0.484375 0.703125q0.390625 0.265625 0.9375 0.265625q0.765625 0 2.203125 -0.53125l0.46875 4.25q-1.90625 0.828125 -4.328125 0.828125q-1.484375 0 -2.6875 -0.5q-1.1875 -0.5 -1.75 -1.28125q-0.546875 -0.796875 -0.765625 -2.140625q-0.171875 -0.96875 -0.171875 -3.875l0 -9.046875l-2.515625 0l0 -4.375l2.515625 0l0 -4.109375l5.515625 -3.203125l0 7.3125l3.75 0zm9.2734375 -7.890625l0 10.53125q2.65625 -3.109375 6.34375 -3.109375q1.890625 0 3.40625 0.703125q1.53125 0.703125 2.296875 1.796875q0.78125 1.09375 1.0625 2.421875q0.28125 1.328125 0.28125 4.125l0 12.171875l-5.484375 0l0 -10.953125q0 -3.265625 -0.3125 -4.140625q-0.3125 -0.890625 -1.109375 -1.40625q-0.78125 -0.515625 -1.96875 -0.515625q-1.375 0 -2.453125 0.671875q-1.0625 0.65625 -1.5625 2.0q-0.5 1.328125 -0.5 3.953125l0 10.390625l-5.484375 0l0 -28.640625l5.484375 0z" fill-rule="nonzero"/><path fill="#000000" d="m85.942406 408.28345l3.5156326 -0.46875q0.59375 2.984375 2.046875 4.3125q1.46875 1.3125 3.546875 1.3125q2.484375 0 4.1875 -1.71875q1.71875 -1.71875 1.71875 -4.25q0 -2.421875 -1.59375 -4.0q-1.578125 -1.578125 -4.015625 -1.578125q-1.0 0 -2.484375 0.390625l0.390625 -3.078125q0.359375 0.03125 0.578125 0.03125q2.234375 0 4.03125 -1.171875q1.796875 -1.171875 1.796875 -3.609375q0 -1.9375 -1.3125 -3.203125q-1.296875 -1.265625 -3.375 -1.265625q-2.046875 0 -3.421875 1.296875q-1.359375 1.28125 -1.75 3.859375l-3.5156326 -0.625q0.640625 -3.53125 2.921875 -5.46875q2.2968826 -1.953125 5.6875076 -1.953125q2.34375 0 4.3125 1.015625q1.984375 1.0 3.03125 2.734375q1.046875 1.734375 1.046875 3.6875q0 1.859375 -1.0 3.390625q-1.0 1.515625 -2.953125 2.40625q2.546875 0.59375 3.953125 2.4375q1.40625 1.84375 1.40625 4.625q0 3.75 -2.734375 6.359375q-2.734375 2.609375 -6.921875 2.609375q-3.765625 0 -6.2656326 -2.25q-2.484375 -2.25 -2.828125 -5.828125z" fill-rule="nonzero"/></g></svg>