<svg version="1.1" viewBox="0.0 0.0 1184.9343832020998 838.002624671916" fill="none" stroke="none" stroke-linecap="square" stroke-miterlimit="10" xmlns:xlink="http://www.w3.org/1999/xlink" xmlns="http://www.w3.org/2000/svg"><clipPath id="p.0"><path d="m0 0l1184.9343 0l0 838.0026l-1184.9343 0l0 -838.0026z" clip-rule="nonzero"/></clipPath><g clip-path="url(#p.0)"><path fill="#000000" fill-opacity="0.0" d="m0 0l1184.9343 0l0 838.0026l-1184.9343 0z" fill-rule="evenodd"/><path fill="#000000" fill-opacity="0.0" d="m227.61154 229.26378l70.04724 -33.95276" fill-rule="evenodd"/><path stroke="#980000" stroke-width="16.0" stroke-linejoin="round" stroke-linecap="butt" d="m227.61154 229.26378l70.04724 -33.95276" fill-rule="evenodd"/><path fill="#000000" fill-opacity="0.0" d="m229.46982 634.60236l105.00787 0" fill-rule="evenodd"/><path stroke="#980000" stroke-width="16.0" stroke-linejoin="round" stroke-linecap="butt" d="m229.46982 634.60236l105.00787 0" fill-rule="evenodd"/><path fill="#000000" fill-opacity="0.0" d="m229.46982 495.12466l105.00787 0" fill-rule="evenodd"/><path stroke="#980000" stroke-width="16.0" stroke-linejoin="round" stroke-linecap="butt" d="m229.46982 495.12466l105.00787 0" fill-rule="evenodd"/><path fill="#000000" fill-opacity="0.0" d="m234.11285 355.64697l100.37796 0" fill-rule="evenodd"/><path stroke="#980000" stroke-width="16.0" stroke-linejoin="round" stroke-linecap="butt" d="m234.11285 355.64697l100.37796 0" fill-rule="evenodd"/><path fill="#dd7e6b" d="m39.706036 634.60236l0 0c0 -42.008423 42.48007 -76.06299 94.88188 -76.06299l0 0c52.401825 0 94.8819 34.054565 94.8819 76.06299l0 0c0 42.008423 -42.480072 76.06299 -94.8819 76.06299l0 0c-52.401817 0 -94.88188 -34.054565 -94.88188 -76.06299z" fill-rule="evenodd"/><path stroke="#980000" stroke-width="4.0" stroke-linejoin="round" stroke-linecap="butt" d="m39.706036 634.60236l0 0c0 -42.008423 42.48007 -76.06299 94.88188 -76.06299l0 0c52.401825 0 94.8819 34.054565 94.8819 76.06299l0 0c0 42.008423 -42.480072 76.06299 -94.8819 76.06299l0 0c-52.401817 0 -94.88188 -34.054565 -94.88188 -76.06299z" fill-rule="evenodd"/><path fill="#000000" d="m111.16996 661.22925l0 -43.90625l9.296875 0l0 3.484375l-5.078125 0l0 36.921875l5.078125 0l0 3.5l-9.296875 0zm34.24218 -13.609375l0 4.0625l-22.718742 0q-0.046875 -1.53125 0.5 -2.9375q0.859375 -2.3125 2.765625 -4.5625q1.921875 -2.25 5.5312424 -5.203125q5.59375 -4.59375 7.5625 -7.28125q1.96875 -2.6875 1.96875 -5.078125q0 -2.5 -1.796875 -4.21875q-1.78125 -1.734375 -4.671875 -1.734375q-3.046875 0 -4.875 1.828125q-1.8281174 1.828125 -1.8437424 5.0625l-4.34375 -0.4375q0.453125 -4.859375 3.359375 -7.390625q2.9062424 -2.546875 7.7968674 -2.546875q4.953125 0 7.828125 2.75q2.890625 2.734375 2.890625 6.78125q0 2.0625 -0.84375 4.0625q-0.84375 1.984375 -2.8125 4.1875q-1.953125 2.203125 -6.5 6.046875q-3.796875 3.1875 -4.875 4.328125q-1.078125 1.140625 -1.78125 2.28125l16.859375 0zm12.7421875 13.609375l-9.296875 0l0 -3.5l5.078125 0l0 -36.921875l-5.078125 0l0 -3.484375l9.296875 0l0 43.90625z" fill-rule="nonzero"/><path fill="#dd7e6b" d="m39.706036 495.12466l0 0c0 -42.008423 42.48007 -76.06299 94.88188 -76.06299l0 0c52.401825 0 94.8819 34.054565 94.8819 76.06299l0 0c0 42.008453 -42.480072 76.06302 -94.8819 76.06302l0 0c-52.401817 0 -94.88188 -34.054565 -94.88188 -76.06302z" fill-rule="evenodd"/><path stroke="#980000" stroke-width="4.0" stroke-linejoin="round" stroke-linecap="butt" d="m39.706036 495.12466l0 0c0 -42.008423 42.48007 -76.06299 94.88188 -76.06299l0 0c52.401825 0 94.8819 34.054565 94.8819 76.06299l0 0c0 42.008453 -42.480072 76.06302 -94.8819 76.06302l0 0c-52.401817 0 -94.88188 -34.054565 -94.88188 -76.06302z" fill-rule="evenodd"/><path fill="#000000" d="m111.16996 521.7515l0 -43.90622l9.296875 0l0 3.484375l-5.078125 0l0 36.921844l5.078125 0l0 3.5l-9.296875 0zm27.96093 -9.546875l-4.21875 0l0 -26.890594q-1.53125 1.453125 -4.0 2.90625q-2.46875 1.453125 -4.4374924 2.1875l0 -4.078125q3.5312424 -1.671875 6.1718674 -4.03125q2.65625 -2.375 3.765625 -4.59375l2.71875 0l0 34.49997zm19.023438 9.546875l-9.296875 0l0 -3.5l5.078125 0l0 -36.921844l-5.078125 0l0 -3.484375l9.296875 0l0 43.90622z" fill-rule="nonzero"/><path fill="#dd7e6b" d="m44.349083 355.64697l0 0c0 -42.008423 42.480064 -76.06299 94.88189 -76.06299l0 0c52.401825 0 94.88188 34.054565 94.88188 76.06299l0 0c0 42.008453 -42.480057 76.06299 -94.88188 76.06299l0 0c-52.401825 0 -94.88189 -34.054535 -94.88189 -76.06299z" fill-rule="evenodd"/><path stroke="#980000" stroke-width="4.0" stroke-linejoin="round" stroke-linecap="butt" d="m44.349083 355.64697l0 0c0 -42.008423 42.480064 -76.06299 94.88189 -76.06299l0 0c52.401825 0 94.88188 34.054565 94.88188 76.06299l0 0c0 42.008453 -42.480057 76.06299 -94.88188 76.06299l0 0c-52.401825 0 -94.88189 -34.054535 -94.88189 -76.06299z" fill-rule="evenodd"/><path fill="#000000" d="m115.813 382.27386l0 -43.90625l9.296875 0l0 3.484375l-5.078125 0l0 36.921875l5.078125 0l0 3.5l-9.296875 0zm12.0703125 -26.5q0 -6.09375 1.25 -9.796875q1.25 -3.71875 3.71875 -5.734375q2.484375 -2.015625 6.234375 -2.015625q2.765625 0 4.84375 1.109375q2.09375 1.109375 3.453125 3.21875q1.359375 2.09375 2.125 5.109375q0.78125 3.0 0.78125 8.109375q0 6.046875 -1.25 9.765625q-1.234375 3.71875 -3.71875 5.75q-2.46875 2.03125 -6.234375 2.03125q-4.96875 0 -7.8125 -3.578125q-3.390625 -4.28125 -3.390625 -13.96875zm4.328125 0q0 8.46875 1.984375 11.265625q1.984375 2.796875 4.890625 2.796875q2.90625 0 4.875 -2.8125q1.984375 -2.8125 1.984375 -11.25q0 -8.484375 -1.984375 -11.265625q-1.96875 -2.796875 -4.921875 -2.796875q-2.90625 0 -4.640625 2.46875q-2.1875 3.140625 -2.1875 11.59375zm30.585938 26.5l-9.296875 0l0 -3.5l5.078125 0l0 -36.921875l-5.078125 0l0 -3.484375l9.296875 0l0 43.90625z" fill-rule="nonzero"/><path fill="#dd7e6b" d="m50.855644 229.26378l0 0c0 -43.60875 39.568153 -78.96063 88.37795 -78.96063l0 0c48.8098 0 88.377945 35.351883 88.377945 78.96063l0 0c0 43.60875 -39.568146 78.96062 -88.377945 78.96062l0 0c-48.8098 0 -88.37795 -35.351868 -88.37795 -78.96062z" fill-rule="evenodd"/><path stroke="#980000" stroke-width="4.0" stroke-linejoin="round" stroke-linecap="butt" d="m50.855644 229.26378l0 0c0 -43.60875 39.568153 -78.96063 88.37795 -78.96063l0 0c48.8098 0 88.377945 35.351883 88.377945 78.96063l0 0c0 43.60875 -39.568146 78.96062 -88.377945 78.96062l0 0c-48.8098 0 -88.37795 -35.351868 -88.37795 -78.96062z" fill-rule="evenodd"/><path fill="#000000" d="m115.38985 176.01628l0 -8.125l8.78125 0l0 8.125l-8.78125 0zm0 37.6875l0 -33.1875l8.78125 0l0 33.1875l-8.78125 0zm48.21875 0l-8.15625 0l0 -4.875q-2.03125 2.84375 -4.796875 4.234375q-2.765625 1.390625 -5.578125 1.390625q-5.71875 0 -9.796875 -4.609375q-4.078125 -4.609375 -4.078125 -12.859375q0 -8.4375 3.96875 -12.828125q3.96875 -4.390625 10.03125 -4.390625q5.5625 0 9.625 4.625l0 -16.5l8.78125 0l0 45.8125zm-23.4375 -17.3125q0 5.3125 1.46875 7.6875q2.125 3.4375 5.9375 3.4375q3.03125 0 5.15625 -2.578125q2.125 -2.578125 2.125 -7.703125q0 -5.71875 -2.0625 -8.234375q-2.0625 -2.515625 -5.28125 -2.515625q-3.125 0 -5.234375 2.484375q-2.109375 2.484375 -2.109375 7.421875z" fill-rule="nonzero"/><path fill="#000000" d="m145.28047 290.70377l-5.625 0l0 -35.843735q-2.03125 1.9374847 -5.328125 3.8749847q-3.296875 1.9375 -5.921875 2.90625l0 -5.4375q4.71875 -2.2187347 8.25 -5.3749847q3.53125 -3.15625 5.0 -6.125l3.625 0l0 45.999985z" fill-rule="nonzero"/><path fill="#dd7e6b" d="m67.21785 96.615486l0 0c0 -36.407307 30.162613 -65.921265 67.37007 -65.921265c37.207474 0 67.37009 29.513954 67.37009 65.921265c0 36.40731 -30.162613 65.92126 -67.37009 65.92126c-37.20746 0 -67.37007 -29.513947 -67.37007 -65.92126z" fill-rule="evenodd"/><path fill="#b06455" d="m105.98683 76.90015c0 -3.792427 3.1419373 -6.8667984 7.0177155 -6.8667984c3.8757782 0 7.0177155 3.0743713 7.0177155 6.8667984c0 3.792427 -3.1419373 6.8667984 -7.0177155 6.8667984c-3.8757782 0 -7.0177155 -3.0743713 -7.0177155 -6.8667984m43.166748 0c0 -3.792427 3.1419525 -6.8667984 7.0177307 -6.8667984c3.8757782 0 7.0177155 3.0743713 7.0177155 6.8667984c0 3.792427 -3.1419373 6.8667984 -7.0177155 6.8667984c-3.8757782 0 -7.0177307 -3.0743713 -7.0177307 -6.8667984" fill-rule="evenodd"/><path fill="#000000" fill-opacity="0.0" d="m98.07291 125.36419q36.515015 24.53852 72.94476 0" fill-rule="evenodd"/><path fill="#000000" fill-opacity="0.0" d="m67.21785 96.615486l0 0c0 -36.407307 30.162613 -65.921265 67.37007 -65.921265c37.207474 0 67.37009 29.513954 67.37009 65.921265c0 36.40731 -30.162613 65.92126 -67.37009 65.92126c-37.20746 0 -67.37007 -29.513947 -67.37007 -65.92126z" fill-rule="evenodd"/><path stroke="#980000" stroke-width="4.0" stroke-linejoin="round" stroke-linecap="butt" d="m105.98683 76.90015c0 -3.792427 3.1419373 -6.8667984 7.0177155 -6.8667984c3.8757782 0 7.0177155 3.0743713 7.0177155 6.8667984c0 3.792427 -3.1419373 6.8667984 -7.0177155 6.8667984c-3.8757782 0 -7.0177155 -3.0743713 -7.0177155 -6.8667984m43.166748 0c0 -3.792427 3.1419525 -6.8667984 7.0177307 -6.8667984c3.8757782 0 7.0177155 3.0743713 7.0177155 6.8667984c0 3.792427 -3.1419373 6.8667984 -7.0177155 6.8667984c-3.8757782 0 -7.0177307 -3.0743713 -7.0177307 -6.8667984" fill-rule="evenodd"/><path stroke="#980000" stroke-width="4.0" stroke-linejoin="round" stroke-linecap="butt" d="m98.07291 125.36419q36.515015 24.53852 72.94476 0" fill-rule="evenodd"/><path stroke="#980000" stroke-width="4.0" stroke-linejoin="round" stroke-linecap="butt" d="m67.21785 96.615486l0 0c0 -36.407307 30.162613 -65.921265 67.37007 -65.921265c37.207474 0 67.37009 29.513954 67.37009 65.921265c0 36.40731 -30.162613 65.92126 -67.37009 65.92126c-37.20746 0 -67.37007 -29.513947 -67.37007 -65.92126z" fill-rule="evenodd"/><path fill="#000000" fill-opacity="0.0" d="m45.559055 15.573491l0 0c21.604336 0 39.118107 16.216457 39.118107 36.220474l-39.118107 0z" fill-rule="evenodd"/><path fill="#000000" fill-opacity="0.0" d="m45.559055 15.573491l0 0c21.604336 0 39.118107 16.216457 39.118107 36.220474" fill-rule="evenodd"/><path stroke="#980000" stroke-width="8.0" stroke-linejoin="round" stroke-linecap="butt" d="m45.559055 15.573491l0 0c21.604336 0 39.118107 16.216457 39.118107 36.220474" fill-rule="evenodd"/><g mask="url(#mask-p.1)"><use xlink:href="#p.1" transform="matrix(1.0 0.0 0.0 -1.0 0.0 115.58792650918635)"/></g><defs><mask id="mask-p.1" maskUnits="userSpaceOnUse" x="179.19160104986875" y="59.79396325459317" width="47.11811023622053" height="44.22047244094488"><linearGradient gradientUnits="userSpaceOnUse" id="gradient-p.1" x1="179.1916010504862" y1="59.79379268750169" x2="179.19155302699764" y2="73.0599861168899"><stop offset="0%" stop-color="#ffffff" stop-opacity="1.0"/><stop offset="100%" stop-color="#ffffff" stop-opacity="0.0"/></linearGradient><rect fill="url(#gradient-p.1)" x="179.19160104986875" y="59.79396325459317" width="47.11811023622053" height="44.22047244094488"/></mask></defs><g id="p.1"><path fill="#000000" fill-opacity="0.0" d="m222.30971 15.573491l0 0c-21.60434 0 -39.118103 16.216457 -39.118103 36.220474l39.118103 0z" fill-rule="evenodd"/><path fill="#000000" fill-opacity="0.0" d="m222.30971 15.573491l0 0c-21.60434 0 -39.118103 16.216457 -39.118103 36.220474" fill-rule="evenodd"/><path stroke="#980000" stroke-width="8.0" stroke-linejoin="round" stroke-linecap="butt" d="m222.30971 15.573491l0 0c-21.60434 0 -39.118103 16.216457 -39.118103 36.220474" fill-rule="evenodd"/></g><path fill="#000000" fill-opacity="0.0" d="m637.1966 166.86884l12.0 -19.055115" fill-rule="evenodd"/><path stroke="#980000" stroke-width="16.0" stroke-linejoin="round" stroke-linecap="butt" d="m637.1966 166.86884l12.0 -19.055115" fill-rule="evenodd"/><path fill="#000000" fill-opacity="0.0" d="m500.48813 34.416504l0 0c8.587738 0 16.721893 1.4376488 22.159515 3.9165192c5.437622 2.4788666 7.60437 5.7371216 5.902771 8.876297l-28.062286 -2.1156502z" fill-rule="evenodd"/><path fill="#000000" fill-opacity="0.0" d="m500.48813 34.416504l0 0c8.587738 0 16.721893 1.4376488 22.159515 3.9165192c5.437622 2.4788666 7.60437 5.7371216 5.902771 8.876297" fill-rule="evenodd"/><path stroke="#980000" stroke-width="8.0" stroke-linejoin="round" stroke-linecap="butt" d="m500.48813 34.416504l0 0c8.587738 0 16.721893 1.4376488 22.159515 3.9165192c5.437622 2.4788666 7.60437 5.7371216 5.902771 8.876297" fill-rule="evenodd"/><path fill="#000000" fill-opacity="0.0" d="m605.55426 41.611443l0 0c-0.18621826 -3.086773 3.2196045 -6.052479 9.338989 -8.132107c6.1193237 -2.0796223 14.353027 -3.0695267 22.577087 -2.7143574l-3.293396 10.606287z" fill-rule="evenodd"/><path fill="#000000" fill-opacity="0.0" d="m605.55426 41.611443l0 0c-0.18621826 -3.086773 3.2196045 -6.052479 9.338989 -8.132107c6.1193237 -2.0796223 14.353027 -3.0695267 22.577087 -2.7143574" fill-rule="evenodd"/><path stroke="#980000" stroke-width="8.0" stroke-linejoin="round" stroke-linecap="butt" d="m605.55426 41.611443l0 0c-0.18621826 -3.086773 3.2196045 -6.052479 9.338989 -8.132107c6.1193237 -2.0796223 14.353027 -3.0695267 22.577087 -2.7143574" fill-rule="evenodd"/><path fill="#dd7e6b" d="m456.311 280.55484l0 0c0 -49.74913 50.947876 -90.07875 113.79526 -90.07875l0 0c62.847412 0 113.79529 40.32962 113.79529 90.07875l0 0c0 49.749115 -50.947876 90.078735 -113.79529 90.078735l0 0c-62.84738 0 -113.79526 -40.32962 -113.79526 -90.078735z" fill-rule="evenodd"/><path stroke="#980000" stroke-width="4.0" stroke-linejoin="round" stroke-linecap="butt" d="m456.311 280.55484l0 0c0 -49.74913 50.947876 -90.07875 113.79526 -90.07875l0 0c62.847412 0 113.79529 40.32962 113.79529 90.07875l0 0c0 49.749115 -50.947876 90.078735 -113.79529 90.078735l0 0c-62.84738 0 -113.79526 -40.32962 -113.79526 -90.078735z" fill-rule="evenodd"/><path fill="#dd7e6b" d="m475.22308 228.57086l0 0c0 -48.192276 42.480103 -87.25984 94.8819 -87.25984l0 0c52.401855 0 94.8819 39.067566 94.8819 87.25984l0 0c0 48.19229 -42.48004 87.25986 -94.8819 87.25986l0 0c-52.401794 0 -94.8819 -39.067566 -94.8819 -87.25986z" fill-rule="evenodd"/><path stroke="#980000" stroke-width="4.0" stroke-linejoin="round" stroke-linecap="butt" d="m475.22308 228.57086l0 0c0 -48.192276 42.480103 -87.25984 94.8819 -87.25984l0 0c52.401855 0 94.8819 39.067566 94.8819 87.25984l0 0c0 48.19229 -42.48004 87.25986 -94.8819 87.25986l0 0c-52.401794 0 -94.8819 -39.067566 -94.8819 -87.25986z" fill-rule="evenodd"/><path fill="#000000" d="m546.2612 175.32336l0 -8.125l8.78125 0l0 8.125l-8.78125 0zm0 37.6875l0 -33.1875l8.78125 0l0 33.1875l-8.78125 0zm48.21875 0l-8.15625 0l0 -4.875q-2.03125 2.84375 -4.796875 4.234375q-2.765625 1.390625 -5.578125 1.390625q-5.71875 0 -9.796875 -4.609375q-4.078125 -4.609375 -4.078125 -12.859375q0 -8.4375 3.96875 -12.828125q3.96875 -4.390625 10.03125 -4.390625q5.5625 0 9.625 4.625l0 -16.5l8.78125 0l0 45.8125zm-23.4375 -17.3125q0 5.3125 1.46875 7.6875q2.125 3.4375 5.9375 3.4375q3.03125 0 5.15625 -2.578125q2.125 -2.578125 2.125 -7.703125q0 -5.71875 -2.0625 -8.234375q-2.0625 -2.515625 -5.28125 -2.515625q-3.125 0 -5.234375 2.484375q-2.109375 2.484375 -2.109375 7.421875z" fill-rule="nonzero"/><path fill="#000000" d="m584.52686 284.6046l0 5.40625l-30.28125 0q-0.0625 -2.03125 0.65625 -3.90625q1.15625 -3.09375 3.703125 -6.09375q2.546875 -3.0 7.359375 -6.9375q7.46875 -6.125 10.09375 -9.703125q2.625 -3.578125 2.625 -6.765625q0 -3.34375 -2.390625 -5.640625q-2.390625 -2.296875 -6.234375 -2.296875q-4.0625 0 -6.5 2.4375q-2.4375 2.4375 -2.46875 6.75l-5.78125 -0.59375q0.59375 -6.46875 4.46875 -9.859375q3.875 -3.390625 10.40625 -3.390625q6.59375 0 10.4375 3.65625q3.84375 3.65625 3.84375 9.0625q0 2.75 -1.125 5.40625q-1.125 2.65625 -3.734375 5.59375q-2.609375 2.9375 -8.671875 8.0625q-5.0625 4.25 -6.5 5.765625q-1.4375 1.515625 -2.375 3.046875l22.46875 0z" fill-rule="nonzero"/><path fill="#dd7e6b" d="m507.5282 96.11143l0 0c0 -36.128994 27.835938 -65.41733 62.173218 -65.41733c34.33734 0 62.17328 29.288332 62.17328 65.41733c0 36.12899 -27.835938 65.41732 -62.17328 65.41732c-34.33728 0 -62.173218 -29.28833 -62.173218 -65.41732z" fill-rule="evenodd"/><path fill="#b06455" d="m543.3066 76.5468c0 -3.7634354 2.8995972 -6.814308 6.4763794 -6.814308c3.5768433 0 6.4763794 3.0508728 6.4763794 6.814308c0 3.7634354 -2.8995361 6.814308 -6.4763794 6.814308c-3.5767822 0 -6.4763794 -3.0508728 -6.4763794 -6.814308m39.836914 0c0 -3.7634354 2.8995972 -6.814308 6.4763794 -6.814308c3.5768433 0 6.4763794 3.0508728 6.4763794 6.814308c0 3.7634354 -2.8995361 6.814308 -6.4763794 6.814308c-3.5767822 0 -6.4763794 -3.0508728 -6.4763794 -6.814308" fill-rule="evenodd"/><path fill="#000000" fill-opacity="0.0" d="m536.0031 124.64036q33.698303 24.350945 67.31793 0" fill-rule="evenodd"/><path fill="#000000" fill-opacity="0.0" d="m507.5282 96.11143l0 0c0 -36.128994 27.835938 -65.41733 62.173218 -65.41733c34.33734 0 62.17328 29.288332 62.17328 65.41733c0 36.12899 -27.835938 65.41732 -62.17328 65.41732c-34.33728 0 -62.173218 -29.28833 -62.173218 -65.41732z" fill-rule="evenodd"/><path stroke="#980000" stroke-width="4.0" stroke-linejoin="round" stroke-linecap="butt" d="m543.3066 76.5468c0 -3.7634354 2.8995972 -6.814308 6.4763794 -6.814308c3.5768433 0 6.4763794 3.0508728 6.4763794 6.814308c0 3.7634354 -2.8995361 6.814308 -6.4763794 6.814308c-3.5767822 0 -6.4763794 -3.0508728 -6.4763794 -6.814308m39.836914 0c0 -3.7634354 2.8995972 -6.814308 6.4763794 -6.814308c3.5768433 0 6.4763794 3.0508728 6.4763794 6.814308c0 3.7634354 -2.8995361 6.814308 -6.4763794 6.814308c-3.5767822 0 -6.4763794 -3.0508728 -6.4763794 -6.814308" fill-rule="evenodd"/><path stroke="#980000" stroke-width="4.0" stroke-linejoin="round" stroke-linecap="butt" d="m536.0031 124.64036q33.698303 24.350945 67.31793 0" fill-rule="evenodd"/><path stroke="#980000" stroke-width="4.0" stroke-linejoin="round" stroke-linecap="butt" d="m507.5282 96.11143l0 0c0 -36.128994 27.835938 -65.41733 62.173218 -65.41733c34.33734 0 62.17328 29.288332 62.17328 65.41733c0 36.12899 -27.835938 65.41732 -62.17328 65.41732c-34.33728 0 -62.173218 -29.28833 -62.173218 -65.41732z" fill-rule="evenodd"/><path fill="#ffffff" d="m649.1857 67.59929l151.59058 0l0 135.14384l-25.265625 25.26561l-126.32495 0z" fill-rule="evenodd"/><path fill="#cbcbcb" d="m775.5107 228.00874l5.0531616 -20.212479l20.212463 -5.053131z" fill-rule="evenodd"/><path fill="#000000" fill-opacity="0.0" d="m775.5107 228.00874l5.0531616 -20.212479l20.212463 -5.053131l-25.265625 25.26561l-126.32495 0l0 -160.40945l151.59058 0l0 135.14384" fill-rule="evenodd"/><path stroke="#999999" stroke-width="4.0" stroke-linejoin="round" stroke-linecap="butt" d="m775.5107 228.00874l5.0531616 -20.212479l20.212463 -5.053131l-25.265625 25.26561l-126.32495 0l0 -160.40945l151.59058 0l0 135.14384" fill-rule="evenodd"/><path fill="#000000" d="m720.00836 105.38241l-5.984375 -1.078125q1.015625 -3.609375 3.46875 -5.34375q2.46875 -1.734375 7.3125 -1.734375q4.40625 0 6.5625 1.046875q2.15625 1.03125 3.03125 2.640625q0.890625 1.609375 0.890625 5.890625l-0.078125 7.6875q0 3.28125 0.3125 4.84375q0.328125 1.5625 1.1875 3.34375l-6.515625 0q-0.25 -0.65625 -0.625 -1.953125q-0.171875 -0.578125 -0.234375 -0.765625q-1.6875 1.640625 -3.609375 2.46875q-1.921875 0.8125 -4.109375 0.8125q-3.84375 0 -6.0625 -2.078125q-2.203125 -2.09375 -2.203125 -5.28125q0 -2.109375 1.0 -3.765625q1.015625 -1.65625 2.828125 -2.53125q1.8125 -0.875 5.234375 -1.53125q4.625 -0.875 6.40625 -1.625l0 -0.65625q0 -1.890625 -0.9375 -2.703125q-0.9375 -0.8125 -3.546875 -0.8125q-1.75 0 -2.734375 0.703125q-0.984375 0.6875 -1.59375 2.421875zm8.8125 5.34375q-1.265625 0.421875 -4.015625 1.015625q-2.734375 0.578125 -3.578125 1.140625q-1.296875 0.90625 -1.296875 2.3125q0 1.390625 1.03125 2.40625q1.03125 1.0 2.625 1.0q1.78125 0 3.40625 -1.171875q1.1875 -0.890625 1.5625 -2.1875q0.265625 -0.84375 0.265625 -3.203125l0 -1.3125z" fill-rule="nonzero"/><path fill="#000000" d="m705.1724 170.36679l0 -4.25l12.953125 0l0 4.25l-12.953125 0zm16.46875 1.234375l4.21875 -0.5625q0.734375 3.59375 2.46875 5.171875q1.75 1.578125 4.265625 1.578125q2.96875 0 5.015625 -2.0625q2.0625 -2.0625 2.0625 -5.109375q0 -2.90625 -1.90625 -4.78125q-1.890625 -1.890625 -4.828125 -1.890625q-1.1875 0 -2.96875 0.46875l0.46875 -3.703125q0.421875 0.046875 0.671875 0.046875q2.703125 0 4.859375 -1.40625q2.15625 -1.40625 2.15625 -4.34375q0 -2.3125 -1.578125 -3.828125q-1.5625 -1.53125 -4.046875 -1.53125q-2.46875 0 -4.109375 1.546875q-1.640625 1.546875 -2.109375 4.640625l-4.21875 -0.75q0.78125 -4.25 3.515625 -6.578125q2.75 -2.328125 6.828125 -2.328125q2.8125 0 5.171875 1.203125q2.375 1.203125 3.625 3.296875q1.25 2.078125 1.25 4.421875q0 2.234375 -1.203125 4.0625q-1.1875 1.828125 -3.53125 2.90625q3.046875 0.703125 4.734375 2.921875q1.6875 2.203125 1.6875 5.53125q0 4.5 -3.28125 7.640625q-3.28125 3.125 -8.296875 3.125q-4.515625 0 -7.515625 -2.6875q-2.984375 -2.703125 -3.40625 -7.0z" fill-rule="nonzero"/><path fill="#000000" fill-opacity="0.0" d="m999.58246 345.25467l12.0 -19.055115" fill-rule="evenodd"/><path stroke="#980000" stroke-width="16.0" stroke-linejoin="round" stroke-linecap="butt" d="m999.58246 345.25467l12.0 -19.055115" fill-rule="evenodd"/><path fill="#000000" fill-opacity="0.0" d="m862.87396 212.80234l0 0c8.5877075 0 16.721863 1.4376373 22.159546 3.916504c5.437622 2.4788818 7.60437 5.7371216 5.90271 8.876312l-28.062256 -2.1156616z" fill-rule="evenodd"/><path fill="#000000" fill-opacity="0.0" d="m862.87396 212.80234l0 0c8.5877075 0 16.721863 1.4376373 22.159546 3.916504c5.437622 2.4788818 7.60437 5.7371216 5.90271 8.876312" fill-rule="evenodd"/><path stroke="#980000" stroke-width="8.0" stroke-linejoin="round" stroke-linecap="butt" d="m862.87396 212.80234l0 0c8.5877075 0 16.721863 1.4376373 22.159546 3.916504c5.437622 2.4788818 7.60437 5.7371216 5.90271 8.876312" fill-rule="evenodd"/><path fill="#000000" fill-opacity="0.0" d="m967.9401 219.99727l0 0c-0.1862793 -3.0867767 3.2196045 -6.052475 9.338928 -8.132111c6.119385 -2.0796204 14.353027 -3.069519 22.577087 -2.7143555l-3.293335 10.606293z" fill-rule="evenodd"/><path fill="#000000" fill-opacity="0.0" d="m967.9401 219.99727l0 0c-0.1862793 -3.0867767 3.2196045 -6.052475 9.338928 -8.132111c6.119385 -2.0796204 14.353027 -3.069519 22.577087 -2.7143555" fill-rule="evenodd"/><path stroke="#980000" stroke-width="8.0" stroke-linejoin="round" stroke-linecap="butt" d="m967.9401 219.99727l0 0c-0.1862793 -3.0867767 3.2196045 -6.052475 9.338928 -8.132111c6.119385 -2.0796204 14.353027 -3.069519 22.577087 -2.7143555" fill-rule="evenodd"/><path fill="#dd7e6b" d="m818.69684 458.94064l0 0c0 -49.749115 50.947876 -90.078735 113.79529 -90.078735l0 0c62.847412 0 113.79523 40.32962 113.79523 90.078735l0 0c0 49.749115 -50.947815 90.078766 -113.79523 90.078766l0 0c-62.847412 0 -113.79529 -40.32965 -113.79529 -90.078766z" fill-rule="evenodd"/><path stroke="#980000" stroke-width="4.0" stroke-linejoin="round" stroke-linecap="butt" d="m818.69684 458.94064l0 0c0 -49.749115 50.947876 -90.078735 113.79529 -90.078735l0 0c62.847412 0 113.79523 40.32962 113.79523 90.078735l0 0c0 49.749115 -50.947815 90.078766 -113.79523 90.078766l0 0c-62.847412 0 -113.79529 -40.32965 -113.79529 -90.078766z" fill-rule="evenodd"/><path fill="#dd7e6b" d="m837.60895 406.9567l0 0c0 -48.19229 42.48004 -87.25986 94.881836 -87.25986l0 0c52.401855 0 94.8819 39.067566 94.8819 87.25986l0 0c0 48.19229 -42.48004 87.25983 -94.8819 87.25983l0 0c-52.401794 0 -94.881836 -39.067535 -94.881836 -87.25983z" fill-rule="evenodd"/><path stroke="#980000" stroke-width="4.0" stroke-linejoin="round" stroke-linecap="butt" d="m837.60895 406.9567l0 0c0 -48.19229 42.48004 -87.25986 94.881836 -87.25986l0 0c52.401855 0 94.8819 39.067566 94.8819 87.25986l0 0c0 48.19229 -42.48004 87.25983 -94.8819 87.25983l0 0c-52.401794 0 -94.881836 -39.067535 -94.881836 -87.25983z" fill-rule="evenodd"/><path fill="#000000" d="m908.6471 353.7092l0 -8.125l8.78125 0l0 8.125l-8.78125 0zm0 37.6875l0 -33.1875l8.78125 0l0 33.1875l-8.78125 0zm48.21875 0l-8.15625 0l0 -4.875q-2.03125 2.84375 -4.796875 4.234375q-2.765625 1.390625 -5.578125 1.390625q-5.71875 0 -9.796875 -4.609375q-4.078125 -4.609375 -4.078125 -12.859375q0 -8.4375 3.96875 -12.828125q3.96875 -4.390625 10.03125 -4.390625q5.5625 0 9.625 4.625l0 -16.5l8.78125 0l0 45.8125zm-23.4375 -17.3125q0 5.3125 1.46875 7.6875q2.125 3.4375 5.9375 3.4375q3.03125 0 5.15625 -2.578125q2.125 -2.578125 2.125 -7.703125q0 -5.71875 -2.0625 -8.234375q-2.0625 -2.515625 -5.28125 -2.515625q-3.125 0 -5.234375 2.484375q-2.109375 2.484375 -2.109375 7.421875z" fill-rule="nonzero"/><path fill="#000000" d="m935.3815 468.3967l0 -10.96875l-19.875 0l0 -5.15625l20.90625 -29.6875l4.59375 0l0 29.6875l6.1875 0l0 5.15625l-6.1875 0l0 10.96875l-5.625 0zm0 -16.125l0 -20.65625l-14.34375 20.65625l14.34375 0z" fill-rule="nonzero"/><path fill="#dd7e6b" d="m869.91406 274.49725l0 0c0 -36.128998 27.835876 -65.41733 62.173218 -65.41733c34.33728 0 62.173218 29.28833 62.173218 65.41733c0 36.128998 -27.835938 65.41733 -62.173218 65.41733c-34.33734 0 -62.173218 -29.28833 -62.173218 -65.41733z" fill-rule="evenodd"/><path fill="#b06455" d="m905.69244 254.93263c0 -3.763443 2.8995361 -6.814316 6.4763794 -6.814316c3.5767822 0 6.4763794 3.0508728 6.4763794 6.814316c0 3.763443 -2.8995972 6.8142853 -6.4763794 6.8142853c-3.5768433 0 -6.4763794 -3.0508423 -6.4763794 -6.8142853m39.836914 0c0 -3.763443 2.8995361 -6.814316 6.4763794 -6.814316c3.5767822 0 6.4763794 3.0508728 6.4763794 6.814316c0 3.763443 -2.8995972 6.8142853 -6.4763794 6.8142853c-3.5768433 0 -6.4763794 -3.0508423 -6.4763794 -6.8142853" fill-rule="evenodd"/><path fill="#000000" fill-opacity="0.0" d="m898.389 303.02618q33.698303 24.350952 67.31787 0" fill-rule="evenodd"/><path fill="#000000" fill-opacity="0.0" d="m869.91406 274.49725l0 0c0 -36.128998 27.835876 -65.41733 62.173218 -65.41733c34.33728 0 62.173218 29.28833 62.173218 65.41733c0 36.128998 -27.835938 65.41733 -62.173218 65.41733c-34.33734 0 -62.173218 -29.28833 -62.173218 -65.41733z" fill-rule="evenodd"/><path stroke="#980000" stroke-width="4.0" stroke-linejoin="round" stroke-linecap="butt" d="m905.69244 254.93263c0 -3.763443 2.8995361 -6.814316 6.4763794 -6.814316c3.5767822 0 6.4763794 3.0508728 6.4763794 6.814316c0 3.763443 -2.8995972 6.8142853 -6.4763794 6.8142853c-3.5768433 0 -6.4763794 -3.0508423 -6.4763794 -6.8142853m39.836914 0c0 -3.763443 2.8995361 -6.814316 6.4763794 -6.814316c3.5767822 0 6.4763794 3.0508728 6.4763794 6.814316c0 3.763443 -2.8995972 6.8142853 -6.4763794 6.8142853c-3.5768433 0 -6.4763794 -3.0508423 -6.4763794 -6.8142853" fill-rule="evenodd"/><path stroke="#980000" stroke-width="4.0" stroke-linejoin="round" stroke-linecap="butt" d="m898.389 303.02618q33.698303 24.350952 67.31787 0" fill-rule="evenodd"/><path stroke="#980000" stroke-width="4.0" stroke-linejoin="round" stroke-linecap="butt" d="m869.91406 274.49725l0 0c0 -36.128998 27.835876 -65.41733 62.173218 -65.41733c34.33728 0 62.173218 29.28833 62.173218 65.41733c0 36.128998 -27.835938 65.41733 -62.173218 65.41733c-34.33734 0 -62.173218 -29.28833 -62.173218 -65.41733z" fill-rule="evenodd"/><path fill="#ffffff" d="m1011.5716 245.9851l151.59052 0l0 135.14386l-25.265625 25.265594l-126.32489 0z" fill-rule="evenodd"/><path fill="#cbcbcb" d="m1137.8965 406.39456l5.0531006 -20.212463l20.212524 -5.053131z" fill-rule="evenodd"/><path fill="#000000" fill-opacity="0.0" d="m1137.8965 406.39456l5.0531006 -20.212463l20.212524 -5.053131l-25.265625 25.265594l-126.32489 0l0 -160.40945l151.59052 0l0 135.14386" fill-rule="evenodd"/><path stroke="#999999" stroke-width="4.0" stroke-linejoin="round" stroke-linecap="butt" d="m1137.8965 406.39456l5.0531006 -20.212463l20.212524 -5.053131l-25.265625 25.265594l-126.32489 0l0 -160.40945l151.59052 0l0 135.14386" fill-rule="evenodd"/><path fill="#000000" d="m1082.3942 283.76825l-5.984375 -1.078125q1.015625 -3.609375 3.46875 -5.34375q2.46875 -1.734375 7.3125 -1.734375q4.40625 0 6.5625 1.046875q2.15625 1.03125 3.03125 2.640625q0.890625 1.609375 0.890625 5.890625l-0.078125 7.6875q0 3.28125 0.3125 4.84375q0.328125 1.5625 1.1875 3.34375l-6.515625 0q-0.25 -0.65625 -0.625 -1.953125q-0.171875 -0.578125 -0.234375 -0.765625q-1.6875 1.640625 -3.609375 2.46875q-1.921875 0.8125 -4.109375 0.8125q-3.84375 0 -6.0625 -2.078125q-2.203125 -2.09375 -2.203125 -5.28125q0 -2.109375 1.0 -3.765625q1.015625 -1.65625 2.828125 -2.53125q1.8125 -0.875 5.234375 -1.53125q4.625 -0.875 6.40625 -1.625l0 -0.65625q0 -1.890625 -0.9375 -2.703125q-0.9375 -0.8125 -3.546875 -0.8125q-1.75 0 -2.734375 0.703125q-0.984375 0.6875 -1.59375 2.421875zm8.8125 5.34375q-1.265625 0.421875 -4.015625 1.015625q-2.734375 0.578125 -3.578125 1.140625q-1.296875 0.90625 -1.296875 2.3125q0 1.390625 1.03125 2.40625q1.03125 1.0 2.625 1.0q1.78125 0 3.40625 -1.171875q1.1875 -0.890625 1.5625 -2.1875q0.265625 -0.84375 0.265625 -3.203125l0 -1.3125z" fill-rule="nonzero"/><path fill="#000000" d="m1089.5348 359.06512l0 -8.234375l-14.90625 0l0 -3.859375l15.6875 -22.265625l3.4375 0l0 22.265625l4.640625 0l0 3.859375l-4.640625 0l0 8.234375l-4.21875 0zm0 -12.09375l0 -15.5l-10.75 15.5l10.75 0z" fill-rule="nonzero"/><path fill="#000000" fill-opacity="0.0" d="m629.36066 610.2835l12.0 -19.055115" fill-rule="evenodd"/><path stroke="#980000" stroke-width="16.0" stroke-linejoin="round" stroke-linecap="butt" d="m629.36066 610.2835l12.0 -19.055115" fill-rule="evenodd"/><path fill="#000000" fill-opacity="0.0" d="m492.6522 477.8312l0 0c8.5877075 0 16.721863 1.4376526 22.159515 3.916504c5.437622 2.4788818 7.60437 5.7371216 5.90271 8.876312l-28.062225 -2.1156616z" fill-rule="evenodd"/><path fill="#000000" fill-opacity="0.0" d="m492.6522 477.8312l0 0c8.5877075 0 16.721863 1.4376526 22.159515 3.916504c5.437622 2.4788818 7.60437 5.7371216 5.90271 8.876312" fill-rule="evenodd"/><path stroke="#980000" stroke-width="8.0" stroke-linejoin="round" stroke-linecap="butt" d="m492.6522 477.8312l0 0c8.5877075 0 16.721863 1.4376526 22.159515 3.916504c5.437622 2.4788818 7.60437 5.7371216 5.90271 8.876312" fill-rule="evenodd"/><path fill="#000000" fill-opacity="0.0" d="m597.7183 485.02615l0 0c-0.18621826 -3.086792 3.2196045 -6.05249 9.338928 -8.132111c6.119385 -2.0796204 14.353027 -3.0695496 22.577087 -2.7143555l-3.293335 10.606262z" fill-rule="evenodd"/><path fill="#000000" fill-opacity="0.0" d="m597.7183 485.02615l0 0c-0.18621826 -3.086792 3.2196045 -6.05249 9.338928 -8.132111c6.119385 -2.0796204 14.353027 -3.0695496 22.577087 -2.7143555" fill-rule="evenodd"/><path stroke="#980000" stroke-width="8.0" stroke-linejoin="round" stroke-linecap="butt" d="m597.7183 485.02615l0 0c-0.18621826 -3.086792 3.2196045 -6.05249 9.338928 -8.132111c6.119385 -2.0796204 14.353027 -3.0695496 22.577087 -2.7143555" fill-rule="evenodd"/><path fill="#dd7e6b" d="m448.47507 723.96954l0 0c0 -49.749146 50.947876 -90.078735 113.79526 -90.078735l0 0c62.847412 0 113.79529 40.32959 113.79529 90.078735l0 0c0 49.749084 -50.947876 90.078735 -113.79529 90.078735l0 0c-62.84738 0 -113.79526 -40.32965 -113.79526 -90.078735z" fill-rule="evenodd"/><path stroke="#980000" stroke-width="4.0" stroke-linejoin="round" stroke-linecap="butt" d="m448.47507 723.96954l0 0c0 -49.749146 50.947876 -90.078735 113.79526 -90.078735l0 0c62.847412 0 113.79529 40.32959 113.79529 90.078735l0 0c0 49.749084 -50.947876 90.078735 -113.79529 90.078735l0 0c-62.84738 0 -113.79526 -40.32965 -113.79526 -90.078735z" fill-rule="evenodd"/><path fill="#dd7e6b" d="m467.38715 671.98553l0 0c0 -48.19226 42.480072 -87.25983 94.8819 -87.25983l0 0c52.401794 0 94.8819 39.067566 94.8819 87.25983l0 0c0 48.19232 -42.480103 87.25989 -94.8819 87.25989l0 0c-52.401825 0 -94.8819 -39.067566 -94.8819 -87.25989z" fill-rule="evenodd"/><path stroke="#980000" stroke-width="4.0" stroke-linejoin="round" stroke-linecap="butt" d="m467.38715 671.98553l0 0c0 -48.19226 42.480072 -87.25983 94.8819 -87.25983l0 0c52.401794 0 94.8819 39.067566 94.8819 87.25983l0 0c0 48.19232 -42.480103 87.25989 -94.8819 87.25989l0 0c-52.401825 0 -94.8819 -39.067566 -94.8819 -87.25989z" fill-rule="evenodd"/><path fill="#000000" d="m538.4253 618.73804l0 -8.125l8.78125 0l0 8.125l-8.78125 0zm0 37.6875l0 -33.1875l8.78125 0l0 33.1875l-8.78125 0zm48.21875 0l-8.15625 0l0 -4.875q-2.03125 2.84375 -4.796875 4.234375q-2.765625 1.390625 -5.578125 1.390625q-5.71875 0 -9.796875 -4.609375q-4.078125 -4.609375 -4.078125 -12.859375q0 -8.4375 3.96875 -12.828125q3.96875 -4.390625 10.03125 -4.390625q5.5625 0 9.625 4.625l0 -16.5l8.78125 0l0 45.8125zm-23.4375 -17.3125q0 5.3125 1.46875 7.6875q2.125 3.4375 5.9375 3.4375q3.03125 0 5.15625 -2.578125q2.125 -2.578125 2.125 -7.703125q0 -5.71875 -2.0625 -8.234375q-2.0625 -2.515625 -5.28125 -2.515625q-3.125 0 -5.234375 2.484375q-2.109375 2.484375 -2.109375 7.421875z" fill-rule="nonzero"/><path fill="#000000" d="m547.15967 721.3318l5.625 -0.75q0.96875 4.78125 3.296875 6.890625q2.328125 2.109375 5.671875 2.109375q3.96875 0 6.703125 -2.75q2.734375 -2.75 2.734375 -6.8125q0 -3.875 -2.53125 -6.390625q-2.53125 -2.515625 -6.4375 -2.515625q-1.59375 0 -3.96875 0.625l0.625 -4.9375q0.5625 0.0625 0.90625 0.0625q3.59375 0 6.46875 -1.875q2.875 -1.875 2.875 -5.78125q0 -3.09375 -2.09375 -5.125q-2.09375 -2.03125 -5.40625 -2.03125q-3.28125 0 -5.46875 2.0625q-2.1875 2.0625 -2.8125 6.1875l-5.625 -1.0q1.03125 -5.65625 4.6875 -8.765625q3.65625 -3.109375 9.09375 -3.109375q3.75 0 6.90625 1.609375q3.15625 1.609375 4.828125 4.390625q1.671875 2.78125 1.671875 5.90625q0 2.96875 -1.59375 5.40625q-1.59375 2.4375 -4.71875 3.875q4.0625 0.9375 6.3125 3.890625q2.25 2.953125 2.25 7.390625q0 6.0 -4.375 10.171875q-4.375 4.171875 -11.0625 4.171875q-6.03125 0 -10.015625 -3.59375q-3.984375 -3.59375 -4.546875 -9.3125z" fill-rule="nonzero"/><path fill="#dd7e6b" d="m499.69226 539.5261l0 0c0 -36.128998 27.835876 -65.41733 62.173218 -65.41733c34.33734 0 62.173218 29.28833 62.173218 65.41733c0 36.128967 -27.835876 65.4173 -62.173218 65.4173c-34.33734 0 -62.173218 -29.28833 -62.173218 -65.4173z" fill-rule="evenodd"/><path fill="#b06455" d="m535.47064 519.9615c0 -3.7634277 2.8995972 -6.81427 6.4763794 -6.81427c3.5767822 0 6.4763794 3.0508423 6.4763794 6.81427c0 3.7634277 -2.8995972 6.814331 -6.4763794 6.814331c-3.5767822 0 -6.4763794 -3.0509033 -6.4763794 -6.814331m39.836914 0c0 -3.7634277 2.8995972 -6.81427 6.4763794 -6.81427c3.5767822 0 6.4763794 3.0508423 6.4763794 6.81427c0 3.7634277 -2.8995972 6.814331 -6.4763794 6.814331c-3.5767822 0 -6.4763794 -3.0509033 -6.4763794 -6.814331" fill-rule="evenodd"/><path fill="#000000" fill-opacity="0.0" d="m528.1672 568.05505q33.698303 24.350952 67.31793 0" fill-rule="evenodd"/><path fill="#000000" fill-opacity="0.0" d="m499.69226 539.5261l0 0c0 -36.128998 27.835876 -65.41733 62.173218 -65.41733c34.33734 0 62.173218 29.28833 62.173218 65.41733c0 36.128967 -27.835876 65.4173 -62.173218 65.4173c-34.33734 0 -62.173218 -29.28833 -62.173218 -65.4173z" fill-rule="evenodd"/><path stroke="#980000" stroke-width="4.0" stroke-linejoin="round" stroke-linecap="butt" d="m535.47064 519.9615c0 -3.7634277 2.8995972 -6.81427 6.4763794 -6.81427c3.5767822 0 6.4763794 3.0508423 6.4763794 6.81427c0 3.7634277 -2.8995972 6.814331 -6.4763794 6.814331c-3.5767822 0 -6.4763794 -3.0509033 -6.4763794 -6.814331m39.836914 0c0 -3.7634277 2.8995972 -6.81427 6.4763794 -6.81427c3.5767822 0 6.4763794 3.0508423 6.4763794 6.81427c0 3.7634277 -2.8995972 6.814331 -6.4763794 6.814331c-3.5767822 0 -6.4763794 -3.0509033 -6.4763794 -6.814331" fill-rule="evenodd"/><path stroke="#980000" stroke-width="4.0" stroke-linejoin="round" stroke-linecap="butt" d="m528.1672 568.05505q33.698303 24.350952 67.31793 0" fill-rule="evenodd"/><path stroke="#980000" stroke-width="4.0" stroke-linejoin="round" stroke-linecap="butt" d="m499.69226 539.5261l0 0c0 -36.128998 27.835876 -65.41733 62.173218 -65.41733c34.33734 0 62.173218 29.28833 62.173218 65.41733c0 36.128967 -27.835876 65.4173 -62.173218 65.4173c-34.33734 0 -62.173218 -29.28833 -62.173218 -65.4173z" fill-rule="evenodd"/><path fill="#ffffff" d="m641.3498 511.01398l151.59052 0l0 135.14386l-25.265564 25.265625l-126.32495 0z" fill-rule="evenodd"/><path fill="#cbcbcb" d="m767.67474 671.42346l5.0531006 -20.212524l20.212463 -5.0531006z" fill-rule="evenodd"/><path fill="#000000" fill-opacity="0.0" d="m767.67474 671.42346l5.0531006 -20.212524l20.212463 -5.0531006l-25.265564 25.265625l-126.32495 0l0 -160.40948l151.59052 0l0 135.14386" fill-rule="evenodd"/><path stroke="#999999" stroke-width="4.0" stroke-linejoin="round" stroke-linecap="butt" d="m767.67474 671.42346l5.0531006 -20.212524l20.212463 -5.0531006l-25.265564 25.265625l-126.32495 0l0 -160.40948l151.59052 0l0 135.14386" fill-rule="evenodd"/><path fill="#000000" d="m712.1724 548.7971l-5.984375 -1.078125q1.015625 -3.609375 3.46875 -5.34375q2.46875 -1.734375 7.3125 -1.734375q4.40625 0 6.5625 1.046875q2.15625 1.03125 3.03125 2.640625q0.890625 1.609375 0.890625 5.890625l-0.078125 7.6875q0 3.28125 0.3125 4.84375q0.328125 1.5625 1.1875 3.34375l-6.515625 0q-0.25 -0.65625 -0.625 -1.953125q-0.171875 -0.578125 -0.234375 -0.765625q-1.6875 1.640625 -3.609375 2.46875q-1.921875 0.8125 -4.109375 0.8125q-3.84375 0 -6.0625 -2.078125q-2.203125 -2.09375 -2.203125 -5.28125q0 -2.109375 1.0 -3.765625q1.015625 -1.65625 2.828125 -2.53125q1.8125 -0.875 5.234375 -1.53125q4.625 -0.875 6.40625 -1.625l0 -0.65625q0 -1.890625 -0.9375 -2.703125q-0.9375 -0.8125 -3.546875 -0.8125q-1.75 0 -2.734375 0.703125q-0.984375 0.6875 -1.59375 2.421875zm8.8125 5.34375q-1.265625 0.421875 -4.015625 1.015625q-2.734375 0.578125 -3.578125 1.140625q-1.296875 0.90625 -1.296875 2.3125q0 1.390625 1.03125 2.40625q1.03125 1.0 2.625 1.0q1.78125 0 3.40625 -1.171875q1.1875 -0.890625 1.5625 -2.1875q0.265625 -0.84375 0.265625 -3.203125l0 -1.3125z" fill-rule="nonzero"/><path fill="#000000" d="m712.2818 605.45337q-2.625 -0.953125 -3.890625 -2.734375q-1.265625 -1.78125 -1.265625 -4.265625q0 -3.75 2.6875 -6.296875q2.703125 -2.5625 7.1875 -2.5625q4.5 0 7.234375 2.609375q2.75 2.609375 2.75 6.359375q0 2.390625 -1.265625 4.171875q-1.25 1.765625 -3.796875 2.71875q3.15625 1.03125 4.8125 3.328125q1.65625 2.296875 1.65625 5.484375q0 4.40625 -3.125 7.421875q-3.109375 3.0 -8.203125 3.0q-5.078125 0 -8.203125 -3.015625q-3.109375 -3.015625 -3.109375 -7.515625q0 -3.359375 1.6875 -5.609375q1.703125 -2.265625 4.84375 -3.09375zm-0.84375 -7.140625q0 2.4375 1.5625 3.984375q1.578125 1.546875 4.09375 1.546875q2.4375 0 3.984375 -1.53125q1.5625 -1.546875 1.5625 -3.765625q0 -2.328125 -1.609375 -3.90625q-1.59375 -1.578125 -3.984375 -1.578125q-2.421875 0 -4.015625 1.546875q-1.59375 1.546875 -1.59375 3.703125zm-1.359375 15.859375q0 1.8125 0.859375 3.5q0.859375 1.6875 2.546875 2.609375q1.6875 0.921875 3.625 0.921875q3.03125 0 5.0 -1.9375q1.96875 -1.953125 1.96875 -4.953125q0 -3.046875 -2.03125 -5.03125q-2.03125 -2.0 -5.078125 -2.0q-2.96875 0 -4.9375 1.96875q-1.953125 1.96875 -1.953125 4.921875z" fill-rule="nonzero"/><path fill="#ffffff" d="m297.6483 119.261154l139.84253 0l0 128.81844l-23.307556 23.307556l-116.53497 0z" fill-rule="evenodd"/><path fill="#cbcbcb" d="m414.18326 271.38715l4.661499 -18.646042l18.646057 -4.6615143z" fill-rule="evenodd"/><path fill="#000000" fill-opacity="0.0" d="m414.18326 271.38715l4.661499 -18.646042l18.646057 -4.6615143l-23.307556 23.307556l-116.53497 0l0 -152.12599l139.84253 0l0 128.81844" fill-rule="evenodd"/><path stroke="#999999" stroke-width="4.0" stroke-linejoin="round" stroke-linecap="butt" d="m414.18326 271.38715l4.661499 -18.646042l18.646057 -4.6615143l-23.307556 23.307556l-116.53497 0l0 -152.12599l139.84253 0l0 128.81844" fill-rule="evenodd"/><path fill="#000000" d="m310.4543 174.07037l0 -28.640625l5.484375 0l0 28.640625l-5.484375 0zm23.128906 -6.609375l5.46875 0.921875q-1.0625 3.015625 -3.34375 4.59375q-2.265625 1.5625 -5.6875 1.5625q-5.40625 0 -8.0 -3.53125q-2.0625 -2.84375 -2.0625 -7.15625q0 -5.15625 2.6875 -8.078125q2.703125 -2.921875 6.828125 -2.921875q4.625 0 7.296875 3.0625q2.6875 3.0625 2.5625 9.359375l-13.75 0q0.0625 2.453125 1.328125 3.8125q1.28125 1.34375 3.171875 1.34375q1.28125 0 2.15625 -0.703125q0.890625 -0.703125 1.34375 -2.265625zm0.3125 -5.546875q-0.0625 -2.375 -1.234375 -3.609375q-1.171875 -1.25 -2.859375 -1.25q-1.796875 0 -2.96875 1.3125q-1.171875 1.3125 -1.140625 3.546875l8.203125 0zm28.777344 12.15625l-5.484375 0l0 -10.59375q0 -3.359375 -0.359375 -4.34375q-0.34375 -0.984375 -1.140625 -1.53125q-0.78125 -0.546875 -1.890625 -0.546875q-1.4375 0 -2.578125 0.78125q-1.125 0.78125 -1.546875 2.078125q-0.40625 1.28125 -0.40625 4.765625l0 9.390625l-5.5 0l0 -20.75l5.109375 0l0 3.046875q2.703125 -3.515625 6.828125 -3.515625q1.8125 0 3.3125 0.65625q1.515625 0.65625 2.28125 1.671875q0.78125 1.015625 1.078125 2.3125q0.296875 1.28125 0.296875 3.6875l0 12.890625zm5.0585938 1.375l6.28125 0.75q0.15625 1.09375 0.71875 1.515625q0.78125 0.578125 2.453125 0.578125q2.15625 0 3.234375 -0.640625q0.71875 -0.4375 1.09375 -1.390625q0.25 -0.6875 0.25 -2.515625l0 -3.03125q-2.46875 3.359375 -6.21875 3.359375q-4.171875 0 -6.609375 -3.53125q-1.921875 -2.796875 -1.921875 -6.953125q0 -5.21875 2.5 -7.96875q2.515625 -2.765625 6.25 -2.765625q3.84375 0 6.34375 3.390625l0 -2.921875l5.140625 0l0 18.625q0 3.671875 -0.609375 5.484375q-0.59375 1.8125 -1.6875 2.84375q-1.09375 1.046875 -2.921875 1.625q-1.828125 0.59375 -4.625 0.59375q-5.265625 0 -7.484375 -1.8125q-2.203125 -1.796875 -2.203125 -4.578125q0 -0.265625 0.015625 -0.65625zm4.90625 -12.171875q0 3.296875 1.28125 4.828125q1.28125 1.53125 3.15625 1.53125q2.015625 0 3.390625 -1.5625q1.390625 -1.578125 1.390625 -4.671875q0 -3.21875 -1.328125 -4.78125q-1.328125 -1.5625 -3.359375 -1.5625q-1.96875 0 -3.25 1.53125q-1.28125 1.53125 -1.28125 4.6875zm29.558594 -9.953125l0 4.375l-3.75 0l0 8.359375q0 2.546875 0.09375 2.96875q0.109375 0.421875 0.484375 0.703125q0.390625 0.265625 0.9375 0.265625q0.765625 0 2.203125 -0.53125l0.46875 4.25q-1.90625 0.828125 -4.328125 0.828125q-1.484375 0 -2.6875 -0.5q-1.1875 -0.5 -1.75 -1.28125q-0.546875 -0.796875 -0.765625 -2.140625q-0.171875 -0.96875 -0.171875 -3.875l0 -9.046875l-2.515625 0l0 -4.375l2.515625 0l0 -4.109375l5.515625 -3.203125l0 7.3125l3.75 0zm9.2734375 -7.890625l0 10.53125q2.65625 -3.109375 6.34375 -3.109375q1.890625 0 3.40625 0.703125q1.53125 0.703125 2.296875 1.796875q0.78125 1.09375 1.0625 2.421875q0.28125 1.328125 0.28125 4.125l0 12.171875l-5.484375 0l0 -10.953125q0 -3.265625 -0.3125 -4.140625q-0.3125 -0.890625 -1.109375 -1.40625q-0.78125 -0.515625 -1.96875 -0.515625q-1.375 0 -2.453125 0.671875q-1.0625 0.65625 -1.5625 2.0q-0.5 1.328125 -0.5 3.953125l0 10.390625l-5.484375 0l0 -28.640625l5.484375 0z" fill-rule="nonzero"/><path fill="#000000" d="m358.134 214.50786l3.515625 -0.46875q0.59375 2.984375 2.046875 4.3125q1.46875 1.3125 3.546875 1.3125q2.484375 0 4.1875 -1.71875q1.71875 -1.71875 1.71875 -4.25q0 -2.421875 -1.59375 -4.0q-1.578125 -1.578125 -4.015625 -1.578125q-1.0 0 -2.484375 0.390625l0.390625 -3.078125q0.359375 0.03125 0.578125 0.03125q2.234375 0 4.03125 -1.171875q1.796875 -1.171875 1.796875 -3.609375q0 -1.9375 -1.3125 -3.203125q-1.296875 -1.265625 -3.375 -1.265625q-2.046875 0 -3.421875 1.296875q-1.359375 1.28125 -1.75 3.859375l-3.515625 -0.625q0.640625 -3.53125 2.921875 -5.46875q2.296875 -1.953125 5.6875 -1.953125q2.34375 0 4.3125 1.015625q1.984375 1.0 3.03125 2.734375q1.046875 1.734375 1.046875 3.6875q0 1.859375 -1.0 3.390625q-1.0 1.515625 -2.953125 2.40625q2.546875 0.59375 3.953125 2.4375q1.40625 1.84375 1.40625 4.625q0 3.75 -2.734375 6.359375q-2.734375 2.609375 -6.921875 2.609375q-3.765625 0 -6.265625 -2.25q-2.484375 -2.25 -2.828125 -5.828125z" fill-rule="nonzero"/><path fill="#cfe2f3" d="m435.28796 341.7523l26.028564 -19.24533l-10.736481 -2.2695618l32.78482 -16.491516l-10.736481 -2.7538452l40.531708 -27.61139l-68.73721 21.1604l13.109192 2.937439l-42.70865 13.554047l15.303925 4.1877747l-45.09323 14.2187805z" fill-rule="evenodd"/><path stroke="#000000" stroke-width="1.0" stroke-linejoin="round" stroke-linecap="butt" d="m435.28796 341.7523l26.028564 -19.24533l-10.736481 -2.2695618l32.78482 -16.491516l-10.736481 -2.7538452l40.531708 -27.61139l-68.73721 21.1604l13.109192 2.937439l-42.70865 13.554047l15.303925 4.1877747l-45.09323 14.2187805z" fill-rule="evenodd"/><path fill="#cfe2f3" d="m334.4908 307.38474l0 0c0 -6.256439 5.071869 -11.328308 11.328308 -11.328308l45.31189 0l0 0c3.0044556 0 5.8858643 1.193512 8.010315 3.3179932c2.1244812 2.1244812 3.3179932 5.0058594 3.3179932 8.010315l0 96.524475c0 6.2564697 -5.071869 11.328308 -11.328308 11.328308l-45.31189 0c-6.256439 0 -11.328308 -5.0718384 -11.328308 -11.328308z" fill-rule="evenodd"/><path stroke="#000000" stroke-width="16.0" stroke-linejoin="round" stroke-linecap="butt" d="m334.4908 307.38474l0 0c0 -6.256439 5.071869 -11.328308 11.328308 -11.328308l45.31189 0l0 0c3.0044556 0 5.8858643 1.193512 8.010315 3.3179932c2.1244812 2.1244812 3.3179932 5.0058594 3.3179932 8.010315l0 96.524475c0 6.2564697 -5.071869 11.328308 -11.328308 11.328308l-45.31189 0c-6.256439 0 -11.328308 -5.0718384 -11.328308 -11.328308z" fill-rule="evenodd"/><path fill="#000000" d="m382.89694 364.40814l0 5.40625l-30.28125 0q-0.0625 -2.03125 0.65625 -3.90625q1.15625 -3.09375 3.703125 -6.09375q2.546875 -3.0 7.359375 -6.9375q7.46875 -6.125 10.09375 -9.703125q2.625 -3.578125 2.625 -6.765625q0 -3.34375 -2.390625 -5.640625q-2.390625 -2.296875 -6.234375 -2.296875q-4.0625 0 -6.5 2.4375q-2.4375 2.4375 -2.46875 6.75l-5.78125 -0.59375q0.59375 -6.46875 4.46875 -9.859375q3.875 -3.390625 10.40625 -3.390625q6.59375 0 10.4375 3.65625q3.84375 3.65625 3.84375 9.0625q0 2.75 -1.125 5.40625q-1.125 2.65625 -3.734375 5.59375q-2.609375 2.9375 -8.671875 8.0625q-5.0625 4.25 -6.5 5.765625q-1.4375 1.515625 -2.375 3.046875l22.46875 0z" fill-rule="nonzero"/><path fill="#cfe2f3" d="m572.14923 467.52625l102.143616 -12.865356l-42.133057 -1.5171509l128.65723 -11.024414l-42.133057 -1.8409424l159.05823 -18.457947l-269.74493 14.145508l51.444275 1.9636536l-167.60126 9.0607605l60.05713 2.7994995l-176.95898 9.505096z" fill-rule="evenodd"/><path stroke="#000000" stroke-width="1.0" stroke-linejoin="round" stroke-linecap="butt" d="m572.14923 467.52625l102.143616 -12.865356l-42.133057 -1.5171509l128.65723 -11.024414l-42.133057 -1.8409424l159.05823 -18.457947l-269.74493 14.145508l51.444275 1.9636536l-167.60126 9.0607605l60.05713 2.7994995l-176.95898 9.505096z" fill-rule="evenodd"/><path fill="#cfe2f3" d="m334.4908 446.86243l0 0c0 -6.256439 5.071869 -11.328308 11.328308 -11.328308l45.31189 0l0 0c3.0044556 0 5.8858643 1.193512 8.010315 3.3179932c2.1244812 2.1244507 3.3179932 5.0058594 3.3179932 8.010315l0 96.524475c0 6.2564697 -5.071869 11.328308 -11.328308 11.328308l-45.31189 0c-6.256439 0 -11.328308 -5.0718384 -11.328308 -11.328308z" fill-rule="evenodd"/><path stroke="#000000" stroke-width="16.0" stroke-linejoin="round" stroke-linecap="butt" d="m334.4908 446.86243l0 0c0 -6.256439 5.071869 -11.328308 11.328308 -11.328308l45.31189 0l0 0c3.0044556 0 5.8858643 1.193512 8.010315 3.3179932c2.1244812 2.1244507 3.3179932 5.0058594 3.3179932 8.010315l0 96.524475c0 6.2564697 -5.071869 11.328308 -11.328308 11.328308l-45.31189 0c-6.256439 0 -11.328308 -5.0718384 -11.328308 -11.328308z" fill-rule="evenodd"/><path fill="#000000" d="m371.3657 509.29208l0 -10.96875l-19.875 0l0 -5.15625l20.90625 -29.6875l4.59375 0l0 29.6875l6.1875 0l0 5.15625l-6.1875 0l0 10.96875l-5.625 0zm0 -16.125l0 -20.65625l-14.34375 20.65625l14.34375 0z" fill-rule="nonzero"/><path fill="#cfe2f3" d="m431.68198 613.4134l21.33191 20.391113l-8.799164 2.4047241l26.86905 17.473328l-8.799164 2.9177856l33.21808 29.255249l-56.334106 -22.420166l10.743713 -3.1123657l-35.002197 -14.360962l12.54245 -4.437134l-36.956482 -15.065247z" fill-rule="evenodd"/><path stroke="#000000" stroke-width="1.0" stroke-linejoin="round" stroke-linecap="butt" d="m431.68198 613.4134l21.33191 20.391113l-8.799164 2.4047241l26.86905 17.473328l-8.799164 2.9177856l33.21808 29.255249l-56.334106 -22.420166l10.743713 -3.1123657l-35.002197 -14.360962l12.54245 -4.437134l-36.956482 -15.065247z" fill-rule="evenodd"/><path fill="#cfe2f3" d="m334.4908 586.34015l0 0c0 -6.2564697 5.071869 -11.328308 11.328308 -11.328308l45.31189 0l0 0c3.0044556 0 5.8858643 1.1934814 8.010315 3.3179321c2.1244812 2.1245117 3.3179932 5.0059204 3.3179932 8.010376l0 96.524475c0 6.2564087 -5.071869 11.328308 -11.328308 11.328308l-45.31189 0c-6.256439 0 -11.328308 -5.0718994 -11.328308 -11.328308z" fill-rule="evenodd"/><path stroke="#000000" stroke-width="16.0" stroke-linejoin="round" stroke-linecap="butt" d="m334.4908 586.34015l0 0c0 -6.2564697 5.071869 -11.328308 11.328308 -11.328308l45.31189 0l0 0c3.0044556 0 5.8858643 1.1934814 8.010315 3.3179321c2.1244812 2.1245117 3.3179932 5.0059204 3.3179932 8.010376l0 96.524475c0 6.2564087 -5.071869 11.328308 -11.328308 11.328308l-45.31189 0c-6.256439 0 -11.328308 -5.0718994 -11.328308 -11.328308z" fill-rule="evenodd"/><path fill="#000000" d="m353.3657 636.676l5.625 -0.75q0.96875 4.78125 3.296875 6.890625q2.328125 2.109375 5.671875 2.109375q3.96875 0 6.703125 -2.75q2.734375 -2.75 2.734375 -6.8125q0 -3.875 -2.53125 -6.390625q-2.53125 -2.515625 -6.4375 -2.515625q-1.59375 0 -3.96875 0.625l0.625 -4.9375q0.5625 0.0625 0.90625 0.0625q3.59375 0 6.46875 -1.875q2.875 -1.875 2.875 -5.78125q0 -3.09375 -2.09375 -5.125q-2.09375 -2.03125 -5.40625 -2.03125q-3.28125 0 -5.46875 2.0625q-2.1875 2.0625 -2.8125 6.1875l-5.625 -1.0q1.03125 -5.65625 4.6875 -8.765625q3.65625 -3.109375 9.09375 -3.109375q3.75 0 6.90625 1.609375q3.15625 1.609375 4.828125 4.390625q1.671875 2.78125 1.671875 5.90625q0 2.96875 -1.59375 5.40625q-1.59375 2.4375 -4.71875 3.875q4.0625 0.9375 6.3125 3.890625q2.25 2.953125 2.25 7.390625q0 6.0 -4.375 10.171875q-4.375 4.171875 -11.0625 4.171875q-6.03125 0 -10.015625 -3.59375q-3.984375 -3.59375 -4.546875 -9.3125z" fill-rule="nonzero"/></g></svg>